%TF.GenerationSoftware,KiCad,Pcbnew,9.0.2*%
%TF.CreationDate,2025-07-01T18:06:57-05:00*%
%TF.ProjectId,clock,636c6f63-6b2e-46b6-9963-61645f706362,rev?*%
%TF.SameCoordinates,Original*%
%TF.FileFunction,Copper,L1,Top*%
%TF.FilePolarity,Positive*%
%FSLAX46Y46*%
G04 Gerber Fmt 4.6, Leading zero omitted, Abs format (unit mm)*
G04 Created by KiCad (PCBNEW 9.0.2) date 2025-07-01 18:06:57*
%MOMM*%
%LPD*%
G01*
G04 APERTURE LIST*
G04 Aperture macros list*
%AMRoundRect*
0 Rectangle with rounded corners*
0 $1 Rounding radius*
0 $2 $3 $4 $5 $6 $7 $8 $9 X,Y pos of 4 corners*
0 Add a 4 corners polygon primitive as box body*
4,1,4,$2,$3,$4,$5,$6,$7,$8,$9,$2,$3,0*
0 Add four circle primitives for the rounded corners*
1,1,$1+$1,$2,$3*
1,1,$1+$1,$4,$5*
1,1,$1+$1,$6,$7*
1,1,$1+$1,$8,$9*
0 Add four rect primitives between the rounded corners*
20,1,$1+$1,$2,$3,$4,$5,0*
20,1,$1+$1,$4,$5,$6,$7,0*
20,1,$1+$1,$6,$7,$8,$9,0*
20,1,$1+$1,$8,$9,$2,$3,0*%
%AMOutline5P*
0 Free polygon, 5 corners , with rotation*
0 The origin of the aperture is its center*
0 number of corners: always 5*
0 $1 to $10 corner X, Y*
0 $11 Rotation angle, in degrees counterclockwise*
0 create outline with 5 corners*
4,1,5,$1,$2,$3,$4,$5,$6,$7,$8,$9,$10,$1,$2,$11*%
%AMOutline6P*
0 Free polygon, 6 corners , with rotation*
0 The origin of the aperture is its center*
0 number of corners: always 6*
0 $1 to $12 corner X, Y*
0 $13 Rotation angle, in degrees counterclockwise*
0 create outline with 6 corners*
4,1,6,$1,$2,$3,$4,$5,$6,$7,$8,$9,$10,$11,$12,$1,$2,$13*%
%AMOutline7P*
0 Free polygon, 7 corners , with rotation*
0 The origin of the aperture is its center*
0 number of corners: always 7*
0 $1 to $14 corner X, Y*
0 $15 Rotation angle, in degrees counterclockwise*
0 create outline with 7 corners*
4,1,7,$1,$2,$3,$4,$5,$6,$7,$8,$9,$10,$11,$12,$13,$14,$1,$2,$15*%
%AMOutline8P*
0 Free polygon, 8 corners , with rotation*
0 The origin of the aperture is its center*
0 number of corners: always 8*
0 $1 to $16 corner X, Y*
0 $17 Rotation angle, in degrees counterclockwise*
0 create outline with 8 corners*
4,1,8,$1,$2,$3,$4,$5,$6,$7,$8,$9,$10,$11,$12,$13,$14,$15,$16,$1,$2,$17*%
G04 Aperture macros list end*
%TA.AperFunction,ComponentPad*%
%ADD10C,2.000000*%
%TD*%
%TA.AperFunction,ComponentPad*%
%ADD11RoundRect,0.250000X-0.600000X-0.725000X0.600000X-0.725000X0.600000X0.725000X-0.600000X0.725000X0*%
%TD*%
%TA.AperFunction,ComponentPad*%
%ADD12O,1.700000X1.950000*%
%TD*%
%TA.AperFunction,SMDPad,CuDef*%
%ADD13RoundRect,0.237500X0.237500X-0.300000X0.237500X0.300000X-0.237500X0.300000X-0.237500X-0.300000X0*%
%TD*%
%TA.AperFunction,SMDPad,CuDef*%
%ADD14RoundRect,0.237500X-0.237500X0.250000X-0.237500X-0.250000X0.237500X-0.250000X0.237500X0.250000X0*%
%TD*%
%TA.AperFunction,SMDPad,CuDef*%
%ADD15RoundRect,0.375000X-0.625000X-0.375000X0.625000X-0.375000X0.625000X0.375000X-0.625000X0.375000X0*%
%TD*%
%TA.AperFunction,SMDPad,CuDef*%
%ADD16RoundRect,0.500000X-0.500000X-1.400000X0.500000X-1.400000X0.500000X1.400000X-0.500000X1.400000X0*%
%TD*%
%TA.AperFunction,SMDPad,CuDef*%
%ADD17R,0.400000X0.800000*%
%TD*%
%TA.AperFunction,SMDPad,CuDef*%
%ADD18R,0.800000X0.400000*%
%TD*%
%TA.AperFunction,SMDPad,CuDef*%
%ADD19Outline5P,-0.600000X0.204000X-0.204000X0.600000X0.600000X0.600000X0.600000X-0.600000X-0.600000X-0.600000X270.000000*%
%TD*%
%TA.AperFunction,SMDPad,CuDef*%
%ADD20R,1.200000X1.200000*%
%TD*%
%TA.AperFunction,SMDPad,CuDef*%
%ADD21R,0.800000X0.800000*%
%TD*%
%TA.AperFunction,SMDPad,CuDef*%
%ADD22RoundRect,0.237500X-0.237500X0.300000X-0.237500X-0.300000X0.237500X-0.300000X0.237500X0.300000X0*%
%TD*%
%TA.AperFunction,SMDPad,CuDef*%
%ADD23RoundRect,0.150000X-0.425000X0.150000X-0.425000X-0.150000X0.425000X-0.150000X0.425000X0.150000X0*%
%TD*%
%TA.AperFunction,SMDPad,CuDef*%
%ADD24RoundRect,0.075000X-0.500000X0.075000X-0.500000X-0.075000X0.500000X-0.075000X0.500000X0.075000X0*%
%TD*%
%TA.AperFunction,ComponentPad*%
%ADD25O,2.100000X1.000000*%
%TD*%
%TA.AperFunction,ComponentPad*%
%ADD26O,1.800000X1.000000*%
%TD*%
%TA.AperFunction,SMDPad,CuDef*%
%ADD27RoundRect,0.237500X0.237500X-0.250000X0.237500X0.250000X-0.237500X0.250000X-0.237500X-0.250000X0*%
%TD*%
%TA.AperFunction,ComponentPad*%
%ADD28R,2.000000X2.000000*%
%TD*%
%TA.AperFunction,ComponentPad*%
%ADD29R,3.200000X2.000000*%
%TD*%
%TA.AperFunction,ComponentPad*%
%ADD30R,1.524000X1.524000*%
%TD*%
%TA.AperFunction,ComponentPad*%
%ADD31C,1.600000*%
%TD*%
%TA.AperFunction,ComponentPad*%
%ADD32RoundRect,0.250000X-0.725000X0.600000X-0.725000X-0.600000X0.725000X-0.600000X0.725000X0.600000X0*%
%TD*%
%TA.AperFunction,ComponentPad*%
%ADD33O,1.950000X1.700000*%
%TD*%
%TA.AperFunction,ComponentPad*%
%ADD34R,1.100000X1.800000*%
%TD*%
%TA.AperFunction,ComponentPad*%
%ADD35RoundRect,0.275000X-0.275000X-0.625000X0.275000X-0.625000X0.275000X0.625000X-0.275000X0.625000X0*%
%TD*%
%TA.AperFunction,ComponentPad*%
%ADD36RoundRect,0.250000X0.600000X0.725000X-0.600000X0.725000X-0.600000X-0.725000X0.600000X-0.725000X0*%
%TD*%
%TA.AperFunction,ViaPad*%
%ADD37C,0.600000*%
%TD*%
%TA.AperFunction,Conductor*%
%ADD38C,0.200000*%
%TD*%
%TA.AperFunction,Conductor*%
%ADD39C,0.500000*%
%TD*%
%TA.AperFunction,Conductor*%
%ADD40C,0.400000*%
%TD*%
G04 APERTURE END LIST*
D10*
%TO.P,S1,1,1*%
%TO.N,S0*%
X113800000Y-168800000D03*
%TO.P,S1,2,2*%
%TO.N,GND*%
X106800000Y-167750000D03*
%TD*%
D11*
%TO.P,J8,1,Pin_1*%
%TO.N,GND*%
X90500000Y-108000000D03*
D12*
%TO.P,J8,2,Pin_2*%
%TO.N,S1 O*%
X93000000Y-108000000D03*
%TO.P,J8,3,Pin_3*%
%TO.N,E1A O*%
X95500000Y-108000000D03*
%TO.P,J8,4,Pin_4*%
%TO.N,E1B O*%
X98000000Y-108000000D03*
%TO.P,J8,5,Pin_5*%
%TO.N,unconnected-(J8-Pin_5-Pad5)*%
X100500000Y-108000000D03*
%TD*%
D13*
%TO.P,R4,1*%
%TO.N,buzzer*%
X145500000Y-172000000D03*
%TO.P,R4,2*%
%TO.N,Net-(Q1-B)*%
X145500000Y-170275000D03*
%TD*%
D11*
%TO.P,J6,1,Pin_1*%
%TO.N,GND*%
X90000000Y-80000000D03*
D12*
%TO.P,J6,2,Pin_2*%
%TO.N,+5V*%
X92500000Y-80000000D03*
%TO.P,J6,3,Pin_3*%
%TO.N,SCL*%
X95000000Y-80000000D03*
%TO.P,J6,4,Pin_4*%
%TO.N,SDA*%
X97500000Y-80000000D03*
%TO.P,J6,5,Pin_5*%
%TO.N,LCD-RES*%
X100000000Y-80000000D03*
%TO.P,J6,6,Pin_6*%
%TO.N,LCD-CS*%
X102500000Y-80000000D03*
%TO.P,J6,7,Pin_7*%
%TO.N,LCD-DC*%
X105000000Y-80000000D03*
%TO.P,J6,8,Pin_8*%
%TO.N,LCD-BLK*%
X107500000Y-80000000D03*
%TD*%
D14*
%TO.P,R3,1*%
%TO.N,Net-(J1-CC2)*%
X88500000Y-101587500D03*
%TO.P,R3,2*%
%TO.N,GND*%
X88500000Y-103412500D03*
%TD*%
D11*
%TO.P,J5,1,Pin_1*%
%TO.N,GND*%
X109000000Y-108000000D03*
D12*
%TO.P,J5,2,Pin_2*%
%TO.N,+5V*%
X111500000Y-108000000D03*
%TO.P,J5,3,Pin_3*%
%TO.N,buzzer 0*%
X114000000Y-108000000D03*
%TO.P,J5,4,Pin_4*%
%TO.N,unconnected-(J5-Pin_4-Pad4)*%
X116500000Y-108000000D03*
%TO.P,J5,5,Pin_5*%
%TO.N,S0 O*%
X119000000Y-108000000D03*
%TD*%
D15*
%TO.P,U2,1,GND*%
%TO.N,GND*%
X95100000Y-96450000D03*
%TO.P,U2,2,VO*%
%TO.N,+3V3*%
X95100000Y-98750000D03*
D16*
X101400000Y-98750000D03*
D15*
%TO.P,U2,3,VI*%
%TO.N,+5V*%
X95100000Y-101050000D03*
%TD*%
D13*
%TO.P,R5,1*%
%TO.N,buzzer*%
X145500000Y-176362500D03*
%TO.P,R5,2*%
%TO.N,Net-(Q2-B)*%
X145500000Y-174637500D03*
%TD*%
D17*
%TO.P,U1,1,GND*%
%TO.N,GND*%
X128910000Y-87060000D03*
%TO.P,U1,2,GND*%
X128060000Y-87060000D03*
%TO.P,U1,3,3V3*%
%TO.N,+3V3*%
X127210000Y-87060000D03*
%TO.P,U1,4,IO0*%
%TO.N,SCL*%
X126360000Y-87060000D03*
%TO.P,U1,5,IO1*%
%TO.N,SDA*%
X125510000Y-87060000D03*
%TO.P,U1,6,IO2*%
%TO.N,S0 O*%
X124660000Y-87060000D03*
%TO.P,U1,7,IO3*%
%TO.N,S1 O*%
X123810000Y-87060000D03*
%TO.P,U1,8,IO4*%
%TO.N,unconnected-(U1-IO4-Pad8)*%
X122960000Y-87060000D03*
%TO.P,U1,9,IO5*%
%TO.N,Row 0 O*%
X122110000Y-87060000D03*
%TO.P,U1,10,IO6*%
%TO.N,Row 1 O*%
X121260000Y-87060000D03*
%TO.P,U1,11,IO7*%
%TO.N,unconnected-(U1-IO7-Pad11)*%
X120410000Y-87060000D03*
%TO.P,U1,12,IO8*%
%TO.N,E1A O*%
X119560000Y-87060000D03*
%TO.P,U1,13,IO9*%
%TO.N,E1B O*%
X118710000Y-87060000D03*
%TO.P,U1,14,IO10*%
%TO.N,unconnected-(U1-IO10-Pad14)*%
X117860000Y-87060000D03*
%TO.P,U1,15,IO11*%
%TO.N,unconnected-(U1-IO11-Pad15)*%
X117010000Y-87060000D03*
D18*
%TO.P,U1,16,IO12*%
%TO.N,unconnected-(U1-IO12-Pad16)*%
X115960000Y-88110000D03*
%TO.P,U1,17,IO13*%
%TO.N,unconnected-(U1-IO13-Pad17)*%
X115960000Y-88960000D03*
%TO.P,U1,18,IO14*%
%TO.N,unconnected-(U1-IO14-Pad18)*%
X115960000Y-89810000D03*
%TO.P,U1,19,IO15*%
%TO.N,unconnected-(U1-IO15-Pad19)*%
X115960000Y-90660000D03*
%TO.P,U1,20,IO16*%
%TO.N,unconnected-(U1-IO16-Pad20)*%
X115960000Y-91510000D03*
%TO.P,U1,21,IO17*%
%TO.N,unconnected-(U1-IO17-Pad21)*%
X115960000Y-92360000D03*
%TO.P,U1,22,IO18*%
%TO.N,unconnected-(U1-IO18-Pad22)*%
X115960000Y-93210000D03*
%TO.P,U1,23,IO19*%
%TO.N,D-*%
X115960000Y-94060000D03*
%TO.P,U1,24,IO20*%
%TO.N,D+*%
X115960000Y-94910000D03*
%TO.P,U1,25,IO21*%
%TO.N,unconnected-(U1-IO21-Pad25)*%
X115960000Y-95760000D03*
%TO.P,U1,26,IO26*%
%TO.N,unconnected-(U1-IO26-Pad26)*%
X115960000Y-96610000D03*
%TO.P,U1,27,IO47*%
%TO.N,unconnected-(U1-IO47-Pad27)*%
X115960000Y-97460000D03*
%TO.P,U1,28,IO33*%
%TO.N,unconnected-(U1-IO33-Pad28)*%
X115960000Y-98310000D03*
%TO.P,U1,29,IO34*%
%TO.N,unconnected-(U1-IO34-Pad29)*%
X115960000Y-99160000D03*
%TO.P,U1,30,IO48*%
%TO.N,unconnected-(U1-IO48-Pad30)*%
X115960000Y-100010000D03*
D17*
%TO.P,U1,31,IO35*%
%TO.N,unconnected-(U1-IO35-Pad31)*%
X117010000Y-101060000D03*
%TO.P,U1,32,IO36*%
%TO.N,unconnected-(U1-IO36-Pad32)*%
X117860000Y-101060000D03*
%TO.P,U1,33,IO37*%
%TO.N,unconnected-(U1-IO37-Pad33)*%
X118710000Y-101060000D03*
%TO.P,U1,34,IO38*%
%TO.N,LCD-BLK*%
X119560000Y-101060000D03*
%TO.P,U1,35,IO39*%
%TO.N,LCD-DC*%
X120410000Y-101060000D03*
%TO.P,U1,36,IO40*%
%TO.N,LCD-CS*%
X121260000Y-101060000D03*
%TO.P,U1,37,IO41*%
%TO.N,LCD-RES*%
X122110000Y-101060000D03*
%TO.P,U1,38,IO42*%
%TO.N,buzzer 0*%
X122960000Y-101060000D03*
%TO.P,U1,39,TXD0*%
%TO.N,unconnected-(U1-TXD0-Pad39)*%
X123810000Y-101060000D03*
%TO.P,U1,40,RXD0*%
%TO.N,unconnected-(U1-RXD0-Pad40)*%
X124660000Y-101060000D03*
%TO.P,U1,41,IO45*%
%TO.N,unconnected-(U1-IO45-Pad41)*%
X125510000Y-101060000D03*
%TO.P,U1,42,GND*%
%TO.N,GND*%
X126360000Y-101060000D03*
%TO.P,U1,43,GND*%
X127210000Y-101060000D03*
%TO.P,U1,44,IO46*%
%TO.N,unconnected-(U1-IO46-Pad44)*%
X128060000Y-101060000D03*
%TO.P,U1,45,EN*%
%TO.N,Net-(U1-EN)*%
X128910000Y-101060000D03*
D18*
%TO.P,U1,46,GND*%
%TO.N,GND*%
X129960000Y-100010000D03*
%TO.P,U1,47,GND*%
X129960000Y-99160000D03*
%TO.P,U1,48,GND*%
X129960000Y-98310000D03*
%TO.P,U1,49,GND*%
X129960000Y-97460000D03*
%TO.P,U1,50,GND*%
X129960000Y-96610000D03*
%TO.P,U1,51,GND*%
X129960000Y-95760000D03*
%TO.P,U1,52,GND*%
X129960000Y-94910000D03*
%TO.P,U1,53,GND*%
X129960000Y-94060000D03*
%TO.P,U1,54,GND*%
X129960000Y-93210000D03*
%TO.P,U1,55,GND*%
X129960000Y-92360000D03*
%TO.P,U1,56,GND*%
X129960000Y-91510000D03*
%TO.P,U1,57,GND*%
X129960000Y-90660000D03*
%TO.P,U1,58,GND*%
X129960000Y-89810000D03*
%TO.P,U1,59,GND*%
X129960000Y-88960000D03*
%TO.P,U1,60,GND*%
X129960000Y-88110000D03*
D19*
%TO.P,U1,61,GND*%
X124610000Y-92410000D03*
D20*
X122960000Y-92410000D03*
X121310000Y-92410000D03*
X124610000Y-94060000D03*
X122960000Y-94060000D03*
X121310000Y-94060000D03*
X124610000Y-95710000D03*
X122960000Y-95710000D03*
X121310000Y-95710000D03*
D21*
%TO.P,U1,62,GND*%
X129960000Y-87060000D03*
%TO.P,U1,63,GND*%
X115960000Y-87060000D03*
%TO.P,U1,64,GND*%
X115960000Y-101060000D03*
%TO.P,U1,65,GND*%
X129960000Y-101060000D03*
%TD*%
D22*
%TO.P,C1,1*%
%TO.N,GND*%
X127500000Y-83275000D03*
%TO.P,C1,2*%
%TO.N,+3V3*%
X127500000Y-85000000D03*
%TD*%
D23*
%TO.P,J1,A1,GND*%
%TO.N,GND*%
X90180000Y-89300000D03*
%TO.P,J1,A4,VBUS*%
%TO.N,+5V*%
X90180000Y-90100000D03*
D24*
%TO.P,J1,A5,CC1*%
%TO.N,Net-(J1-CC1)*%
X90180000Y-91250000D03*
%TO.P,J1,A6,D+*%
%TO.N,D+*%
X90180000Y-92250000D03*
%TO.P,J1,A7,D-*%
%TO.N,D-*%
X90180000Y-92750000D03*
%TO.P,J1,A8,SBU1*%
%TO.N,unconnected-(J1-SBU1-PadA8)*%
X90180000Y-93750000D03*
D23*
%TO.P,J1,A9,VBUS*%
%TO.N,+5V*%
X90180000Y-94900000D03*
%TO.P,J1,A12,GND*%
%TO.N,GND*%
X90180000Y-95700000D03*
%TO.P,J1,B1,GND*%
X90180000Y-95700000D03*
%TO.P,J1,B4,VBUS*%
%TO.N,+5V*%
X90180000Y-94900000D03*
D24*
%TO.P,J1,B5,CC2*%
%TO.N,Net-(J1-CC2)*%
X90180000Y-94250000D03*
%TO.P,J1,B6,D+*%
%TO.N,unconnected-(J1-D+-PadB6)*%
X90180000Y-93250000D03*
%TO.P,J1,B7,D-*%
%TO.N,unconnected-(J1-D--PadB7)*%
X90180000Y-91750000D03*
%TO.P,J1,B8,SBU2*%
%TO.N,unconnected-(J1-SBU2-PadB8)*%
X90180000Y-90750000D03*
D23*
%TO.P,J1,B9,VBUS*%
%TO.N,+5V*%
X90180000Y-90100000D03*
%TO.P,J1,B12,GND*%
%TO.N,GND*%
X90180000Y-89300000D03*
D25*
%TO.P,J1,S1,SHIELD*%
X89605000Y-88180000D03*
D26*
X85425000Y-88180000D03*
D25*
X89605000Y-96820000D03*
D26*
X85425000Y-96820000D03*
%TD*%
D14*
%TO.P,R2,1*%
%TO.N,Net-(J1-CC1)*%
X91500000Y-101587500D03*
%TO.P,R2,2*%
%TO.N,GND*%
X91500000Y-103412500D03*
%TD*%
D27*
%TO.P,R1,1*%
%TO.N,+3V3*%
X129000000Y-104912500D03*
%TO.P,R1,2*%
%TO.N,Net-(U1-EN)*%
X129000000Y-103087500D03*
%TD*%
D28*
%TO.P,SW1,A,A*%
%TO.N,E1A*%
X170500000Y-144500000D03*
D10*
%TO.P,SW1,B,B*%
%TO.N,E1B*%
X170500000Y-149500000D03*
%TO.P,SW1,C,C*%
%TO.N,GND*%
X170500000Y-147000000D03*
D29*
%TO.P,SW1,MP,MP*%
X178000000Y-141400000D03*
X178000000Y-152600000D03*
D10*
%TO.P,SW1,S1,S1*%
%TO.N,S1*%
X185000000Y-149500000D03*
%TO.P,SW1,S2,S2*%
%TO.N,GND*%
X185000000Y-144500000D03*
%TD*%
D30*
%TO.P,LCD1,1,GND*%
%TO.N,Net-(J2-Pin_1)*%
X85900000Y-135900000D03*
D31*
%TO.P,LCD1,2,VCC*%
%TO.N,Net-(J2-Pin_2)*%
X85900000Y-138440000D03*
%TO.P,LCD1,3,SCL*%
%TO.N,Net-(J2-Pin_3)*%
X85900000Y-140980000D03*
%TO.P,LCD1,4,SDA*%
%TO.N,Net-(J2-Pin_4)*%
X85900000Y-143520000D03*
%TO.P,LCD1,5,RES*%
%TO.N,Net-(J2-Pin_5)*%
X85900000Y-146060000D03*
%TO.P,LCD1,6,DC*%
%TO.N,Net-(J2-Pin_6)*%
X85900000Y-148600000D03*
%TO.P,LCD1,7,CS*%
%TO.N,Net-(J2-Pin_7)*%
X85900000Y-151140000D03*
%TO.P,LCD1,8,BLK*%
%TO.N,Net-(J2-Pin_8)*%
X85900000Y-153680000D03*
%TD*%
D32*
%TO.P,J2,1,Pin_1*%
%TO.N,Net-(J2-Pin_1)*%
X77125000Y-136150000D03*
D33*
%TO.P,J2,2,Pin_2*%
%TO.N,Net-(J2-Pin_2)*%
X77125000Y-138650000D03*
%TO.P,J2,3,Pin_3*%
%TO.N,Net-(J2-Pin_3)*%
X77125000Y-141150000D03*
%TO.P,J2,4,Pin_4*%
%TO.N,Net-(J2-Pin_4)*%
X77125000Y-143650000D03*
%TO.P,J2,5,Pin_5*%
%TO.N,Net-(J2-Pin_5)*%
X77125000Y-146150000D03*
%TO.P,J2,6,Pin_6*%
%TO.N,Net-(J2-Pin_6)*%
X77125000Y-148650000D03*
%TO.P,J2,7,Pin_7*%
%TO.N,Net-(J2-Pin_7)*%
X77125000Y-151150000D03*
%TO.P,J2,8,Pin_8*%
%TO.N,Net-(J2-Pin_8)*%
X77125000Y-153650000D03*
%TD*%
D34*
%TO.P,Q2,1,E*%
%TO.N,GND*%
X127960000Y-168100000D03*
D35*
%TO.P,Q2,2,B*%
%TO.N,Net-(Q2-B)*%
X129230000Y-170170000D03*
%TO.P,Q2,3,C*%
%TO.N,Net-(BZ2--)*%
X130500000Y-168100000D03*
%TD*%
D28*
%TO.P,BZ1,1,+*%
%TO.N,+5V*%
X89700000Y-177500000D03*
D10*
%TO.P,BZ1,2,-*%
%TO.N,Net-(BZ1--)*%
X97300000Y-177500000D03*
%TD*%
D34*
%TO.P,Q1,1,E*%
%TO.N,GND*%
X120960000Y-168100000D03*
D35*
%TO.P,Q1,2,B*%
%TO.N,Net-(Q1-B)*%
X122230000Y-170170000D03*
%TO.P,Q1,3,C*%
%TO.N,Net-(BZ1--)*%
X123500000Y-168100000D03*
%TD*%
D32*
%TO.P,J4,1,Pin_1*%
%TO.N,GND*%
X164475000Y-142000000D03*
D33*
%TO.P,J4,2,Pin_2*%
%TO.N,S1*%
X164475000Y-144500000D03*
%TO.P,J4,3,Pin_3*%
%TO.N,E1A*%
X164475000Y-147000000D03*
%TO.P,J4,4,Pin_4*%
%TO.N,E1B*%
X164475000Y-149500000D03*
%TO.P,J4,5,Pin_5*%
%TO.N,Row 1*%
X164475000Y-152000000D03*
%TD*%
D36*
%TO.P,J3,1,Pin_1*%
%TO.N,GND*%
X96999999Y-166974999D03*
D12*
%TO.P,J3,2,Pin_2*%
%TO.N,+5V*%
X94499998Y-166974999D03*
%TO.P,J3,3,Pin_3*%
%TO.N,buzzer*%
X91999999Y-166975000D03*
%TO.P,J3,4,Pin_4*%
%TO.N,unconnected-(J3-Pin_4-Pad4)*%
X89499999Y-166974999D03*
%TO.P,J3,5,Pin_5*%
%TO.N,S0*%
X86999999Y-166974999D03*
%TD*%
D28*
%TO.P,BZ2,1,+*%
%TO.N,+5V*%
X121700000Y-177500000D03*
D10*
%TO.P,BZ2,2,-*%
%TO.N,Net-(BZ2--)*%
X129300000Y-177500000D03*
%TD*%
D37*
%TO.N,E1A O*%
X119000000Y-85000000D03*
X105400000Y-97000000D03*
X105400000Y-93565687D03*
%TO.N,E1B O*%
X118000000Y-85400000D03*
X106000000Y-96000000D03*
X106000000Y-93000000D03*
%TO.N,Row 1 O*%
X107000000Y-93000000D03*
X107000000Y-96000000D03*
X121000000Y-86000000D03*
%TO.N,S1 O*%
X104800000Y-93000000D03*
X104800000Y-96000000D03*
X123713908Y-86286092D03*
%TO.N,D+*%
X115000000Y-95000000D03*
X88957313Y-92201137D03*
%TO.N,D-*%
X113500000Y-95000000D03*
X89000000Y-93000000D03*
%TO.N,+3V3*%
X103000000Y-99000000D03*
X128000000Y-103000000D03*
X127000000Y-89000000D03*
%TO.N,LCD-RES*%
X117485735Y-102485735D03*
X117500000Y-100000000D03*
X105000000Y-90000000D03*
%TO.N,SCL*%
X121500000Y-80500000D03*
X124000000Y-83000000D03*
%TO.N,LCD-CS*%
X106000000Y-89000000D03*
X110500000Y-100500000D03*
X112500000Y-103500000D03*
%TO.N,LCD-BLK*%
X114013901Y-102994255D03*
X107500000Y-82500000D03*
X109400000Y-84500000D03*
X111631374Y-99368626D03*
%TO.N,LCD-DC*%
X111065687Y-99934313D03*
X113274552Y-103299816D03*
X106745258Y-88709156D03*
%TO.N,S0 O*%
X122500000Y-90000000D03*
%TO.N,Row 0 O*%
X120000000Y-90000000D03*
%TO.N,Net-(Q1-B)*%
X142500000Y-167500000D03*
X124305735Y-165694265D03*
%TO.N,Net-(Q2-B)*%
X142500000Y-172500000D03*
%TD*%
D38*
%TO.N,E1A O*%
X119560000Y-85560000D02*
X119560000Y-87060000D01*
X119000000Y-85000000D02*
X119560000Y-85560000D01*
X105400000Y-97000000D02*
X105400000Y-93565687D01*
%TO.N,E1B O*%
X118710000Y-86110000D02*
X118710000Y-87060000D01*
X118000000Y-85400000D02*
X118710000Y-86110000D01*
X106000000Y-96000000D02*
X106000000Y-93000000D01*
%TO.N,Row 1 O*%
X121000000Y-86800000D02*
X121260000Y-87060000D01*
X121000000Y-86000000D02*
X121000000Y-86800000D01*
X107000000Y-96000000D02*
X107000000Y-93000000D01*
%TO.N,S1 O*%
X104800000Y-96000000D02*
X104800000Y-93000000D01*
X123713908Y-86963908D02*
X123810000Y-87060000D01*
X123713908Y-86286092D02*
X123713908Y-86963908D01*
%TO.N,GND*%
X120960000Y-168500000D02*
X117460000Y-165000000D01*
X170500000Y-147000000D02*
X169475000Y-147000000D01*
X177400000Y-142000000D02*
X178000000Y-141400000D01*
X124460000Y-165000000D02*
X100000000Y-165000000D01*
X100000000Y-165000000D02*
X98025001Y-166974999D01*
X169475000Y-147000000D02*
X164475000Y-142000000D01*
X117460000Y-165000000D02*
X100000000Y-165000000D01*
X178000000Y-152600000D02*
X178000000Y-141400000D01*
X98025001Y-166974999D02*
X96999999Y-166974999D01*
X164475000Y-142000000D02*
X177400000Y-142000000D01*
X127960000Y-168500000D02*
X124460000Y-165000000D01*
X172400000Y-147000000D02*
X178000000Y-141400000D01*
X170500000Y-147000000D02*
X172400000Y-147000000D01*
D39*
%TO.N,+5V*%
X92800000Y-99750000D02*
X94100000Y-101050000D01*
X92500000Y-90000000D02*
X92500000Y-80000000D01*
X92800000Y-95000000D02*
X92800000Y-97705026D01*
X90180000Y-90100000D02*
X92400000Y-90100000D01*
X98351000Y-105301000D02*
X108801000Y-105301000D01*
X92400000Y-90100000D02*
X92500000Y-90000000D01*
X92500000Y-93250000D02*
X92500000Y-90000000D01*
X90180000Y-94900000D02*
X92700000Y-94900000D01*
D40*
X121700000Y-177500000D02*
X99299996Y-177500000D01*
X94499998Y-172700002D02*
X89700000Y-177500000D01*
D39*
X92800000Y-99750000D02*
X98351000Y-105301000D01*
X92800000Y-93550000D02*
X92800000Y-95000000D01*
X95100000Y-101050000D02*
X94100000Y-101050000D01*
X92800000Y-97705026D02*
X92800000Y-99750000D01*
D40*
X94499998Y-166974999D02*
X94499998Y-172700002D01*
D39*
X92700000Y-94900000D02*
X92800000Y-95000000D01*
X92800000Y-93550000D02*
X92500000Y-93250000D01*
D40*
X99299996Y-177500000D02*
X94499998Y-172700002D01*
D39*
X108801000Y-105301000D02*
X111500000Y-108000000D01*
D38*
%TO.N,D+*%
X89006176Y-92250000D02*
X90180000Y-92250000D01*
X115000000Y-95000000D02*
X115870000Y-95000000D01*
X115870000Y-95000000D02*
X115960000Y-94910000D01*
X88957313Y-92201137D02*
X89006176Y-92250000D01*
%TO.N,Net-(J1-CC2)*%
X89290406Y-94250000D02*
X90180000Y-94250000D01*
X88500000Y-101587500D02*
X88255000Y-101342500D01*
X88255000Y-101342500D02*
X88255000Y-95285406D01*
X88255000Y-95285406D02*
X89290406Y-94250000D01*
%TO.N,D-*%
X113500000Y-95000000D02*
X114440000Y-94060000D01*
X114440000Y-94060000D02*
X115960000Y-94060000D01*
X89250000Y-92750000D02*
X90180000Y-92750000D01*
X89000000Y-93000000D02*
X89250000Y-92750000D01*
%TO.N,Net-(J1-CC1)*%
X90712500Y-102375000D02*
X91500000Y-101587500D01*
X87805099Y-102375000D02*
X90712500Y-102375000D01*
X87250000Y-91250000D02*
X87000000Y-91500000D01*
X90180000Y-91250000D02*
X87250000Y-91250000D01*
X87000000Y-101569901D02*
X87805099Y-102375000D01*
X87000000Y-91500000D02*
X87000000Y-101569901D01*
%TO.N,+3V3*%
X128000000Y-104000000D02*
X128000000Y-103000000D01*
D39*
X127210000Y-87060000D02*
X127210000Y-88790000D01*
X102750000Y-98750000D02*
X103000000Y-99000000D01*
X101400000Y-98750000D02*
X102750000Y-98750000D01*
D38*
X129000000Y-104912500D02*
X128912500Y-104912500D01*
D39*
X95100000Y-98750000D02*
X101400000Y-98750000D01*
X127210000Y-87060000D02*
X127210000Y-85185000D01*
X127210000Y-88790000D02*
X127000000Y-89000000D01*
D38*
X128912500Y-104912500D02*
X128000000Y-104000000D01*
%TO.N,Net-(U1-EN)*%
X128910000Y-102997500D02*
X129000000Y-103087500D01*
X128910000Y-101060000D02*
X128910000Y-102997500D01*
%TO.N,LCD-RES*%
X104199000Y-90801000D02*
X104199000Y-96648943D01*
X105000000Y-90000000D02*
X104199000Y-90801000D01*
X117500000Y-100000000D02*
X121250000Y-100000000D01*
X117393255Y-102393255D02*
X117485735Y-102485735D01*
X109943312Y-102393255D02*
X117393255Y-102393255D01*
X121250000Y-100000000D02*
X122110000Y-100860000D01*
X104199000Y-96648943D02*
X109943312Y-102393255D01*
X122110000Y-100860000D02*
X122110000Y-101060000D01*
%TO.N,Net-(J2-Pin_1)*%
X85650000Y-136150000D02*
X85900000Y-135900000D01*
D40*
X77125000Y-136150000D02*
X85650000Y-136150000D01*
%TO.N,Net-(J2-Pin_6)*%
X77125000Y-148650000D02*
X85850000Y-148650000D01*
D38*
X85850000Y-148650000D02*
X85900000Y-148600000D01*
D40*
%TO.N,Net-(J2-Pin_7)*%
X77125000Y-151150000D02*
X85890000Y-151150000D01*
D38*
X85890000Y-151150000D02*
X85900000Y-151140000D01*
D40*
%TO.N,Net-(J2-Pin_5)*%
X77125000Y-146150000D02*
X85810000Y-146150000D01*
D38*
X85810000Y-146150000D02*
X85900000Y-146060000D01*
%TO.N,Net-(J2-Pin_4)*%
X85770000Y-143650000D02*
X85900000Y-143520000D01*
D40*
X77125000Y-143650000D02*
X85770000Y-143650000D01*
D38*
%TO.N,Net-(J2-Pin_3)*%
X85730000Y-141150000D02*
X85900000Y-140980000D01*
D40*
X77125000Y-141150000D02*
X85730000Y-141150000D01*
%TO.N,Net-(J2-Pin_2)*%
X77125000Y-138650000D02*
X85690000Y-138650000D01*
D38*
X85690000Y-138650000D02*
X85900000Y-138440000D01*
%TO.N,Net-(J2-Pin_8)*%
X85870000Y-153650000D02*
X85900000Y-153680000D01*
D40*
X77125000Y-153650000D02*
X85870000Y-153650000D01*
D38*
%TO.N,SCL*%
X124000000Y-83000000D02*
X126360000Y-85360000D01*
X95000000Y-80000000D02*
X97100000Y-77900000D01*
X121500000Y-80500000D02*
X118900000Y-77900000D01*
X126360000Y-85360000D02*
X126360000Y-87060000D01*
X97100000Y-77900000D02*
X118900000Y-77900000D01*
%TO.N,SDA*%
X117300000Y-78300000D02*
X125510000Y-86510000D01*
X99200000Y-78300000D02*
X117300000Y-78300000D01*
X97500000Y-80000000D02*
X99200000Y-78300000D01*
X125510000Y-86510000D02*
X125510000Y-87060000D01*
%TO.N,E1B*%
X164475000Y-149500000D02*
X170500000Y-149500000D01*
%TO.N,LCD-CS*%
X112500000Y-103500000D02*
X113500000Y-104500000D01*
X110500000Y-100500000D02*
X108000000Y-98000000D01*
X118170000Y-104500000D02*
X121260000Y-101410000D01*
X113500000Y-104500000D02*
X118170000Y-104500000D01*
X106000000Y-89000000D02*
X108000000Y-91000000D01*
X121260000Y-101410000D02*
X121260000Y-101060000D01*
X108000000Y-91000000D02*
X108000000Y-98000000D01*
%TO.N,LCD-BLK*%
X109400000Y-97400000D02*
X109400000Y-84400000D01*
X111500000Y-99500000D02*
X111631374Y-99368626D01*
X117320000Y-103500000D02*
X119560000Y-101260000D01*
X114013901Y-103013901D02*
X114500000Y-103500000D01*
X114500000Y-103500000D02*
X117320000Y-103500000D01*
X114013901Y-102994255D02*
X114013901Y-103013901D01*
X107500000Y-82500000D02*
X107500000Y-80000000D01*
X119560000Y-101260000D02*
X119560000Y-101060000D01*
X111500000Y-99500000D02*
X109400000Y-97400000D01*
%TO.N,LCD-DC*%
X113274552Y-103299816D02*
X113299816Y-103299816D01*
X120410000Y-101260000D02*
X120410000Y-101060000D01*
X114100000Y-104100000D02*
X117570000Y-104100000D01*
X106745258Y-88709156D02*
X109000000Y-90963898D01*
X113299816Y-103299816D02*
X114100000Y-104100000D01*
X109000000Y-98000000D02*
X111000000Y-100000000D01*
X109000000Y-90963898D02*
X109000000Y-98000000D01*
X111000000Y-100000000D02*
X111065687Y-99934313D01*
X117570000Y-104100000D02*
X120410000Y-101260000D01*
%TO.N,S0 O*%
X124660000Y-87060000D02*
X124660000Y-87840000D01*
X124660000Y-87840000D02*
X122500000Y-90000000D01*
%TO.N,Row 0 O*%
X122110000Y-87060000D02*
X122110000Y-87890000D01*
X122110000Y-87890000D02*
X120000000Y-90000000D01*
%TO.N,Net-(BZ2--)*%
X130500000Y-168500000D02*
X130500000Y-176300000D01*
X130500000Y-176300000D02*
X129300000Y-177500000D01*
%TO.N,Net-(Q1-B)*%
X142500000Y-167500000D02*
X145275000Y-170275000D01*
X122230000Y-169770000D02*
X122230000Y-167230000D01*
X122230000Y-167230000D02*
X123765735Y-165694265D01*
X145275000Y-170275000D02*
X145500000Y-170275000D01*
X123765735Y-165694265D02*
X124305735Y-165694265D01*
%TO.N,Net-(Q2-B)*%
X142500000Y-172500000D02*
X144637500Y-174637500D01*
X144637500Y-174637500D02*
X145500000Y-174637500D01*
%TO.N,buzzer*%
X140000000Y-167500000D02*
X144500000Y-172000000D01*
X95998999Y-162976000D02*
X135476000Y-162976000D01*
X91999999Y-166975000D02*
X95998999Y-162976000D01*
X135476000Y-162976000D02*
X140000000Y-167500000D01*
X140000000Y-167500000D02*
X140000000Y-170862500D01*
X140000000Y-170862500D02*
X145500000Y-176362500D01*
X144500000Y-172000000D02*
X145500000Y-172000000D01*
%TO.N,buzzer 0*%
X114000000Y-108000000D02*
X117099000Y-104901000D01*
X122960000Y-101260000D02*
X122960000Y-101060000D01*
X119319000Y-104901000D02*
X122960000Y-101260000D01*
X117099000Y-104901000D02*
X119319000Y-104901000D01*
%TO.N,unconnected-(U1-IO4-Pad8)*%
X122960000Y-87260000D02*
X122960000Y-87060000D01*
%TO.N,unconnected-(U1-IO11-Pad15)*%
X117000000Y-87070000D02*
X117010000Y-87060000D01*
%TD*%
%TA.AperFunction,Conductor*%
%TO.N,GND*%
G36*
X117066942Y-78920185D02*
G01*
X117087584Y-78936819D01*
X123481209Y-85330444D01*
X123514694Y-85391767D01*
X123509710Y-85461459D01*
X123467838Y-85517392D01*
X123440981Y-85532686D01*
X123334732Y-85576696D01*
X123334722Y-85576701D01*
X123203619Y-85664302D01*
X123203615Y-85664305D01*
X123092121Y-85775799D01*
X123092118Y-85775803D01*
X123004517Y-85906906D01*
X123004510Y-85906919D01*
X122944172Y-86052590D01*
X122944169Y-86052599D01*
X122942757Y-86059700D01*
X122910367Y-86121609D01*
X122849649Y-86156179D01*
X122821142Y-86159500D01*
X122712130Y-86159500D01*
X122712123Y-86159501D01*
X122652516Y-86165908D01*
X122578332Y-86193577D01*
X122508640Y-86198561D01*
X122491668Y-86193577D01*
X122417488Y-86165910D01*
X122417484Y-86165909D01*
X122417483Y-86165909D01*
X122357873Y-86159500D01*
X122357864Y-86159500D01*
X121924500Y-86159500D01*
X121857461Y-86139815D01*
X121811706Y-86087011D01*
X121800500Y-86035500D01*
X121800500Y-85921155D01*
X121800499Y-85921153D01*
X121792878Y-85882838D01*
X121769737Y-85766503D01*
X121767396Y-85760851D01*
X121709397Y-85620827D01*
X121709390Y-85620814D01*
X121621789Y-85489711D01*
X121621786Y-85489707D01*
X121510292Y-85378213D01*
X121510288Y-85378210D01*
X121379185Y-85290609D01*
X121379172Y-85290602D01*
X121233501Y-85230264D01*
X121233489Y-85230261D01*
X121078845Y-85199500D01*
X121078842Y-85199500D01*
X120921158Y-85199500D01*
X120921155Y-85199500D01*
X120766510Y-85230261D01*
X120766498Y-85230264D01*
X120620827Y-85290602D01*
X120620814Y-85290609D01*
X120489711Y-85378210D01*
X120489707Y-85378213D01*
X120378213Y-85489707D01*
X120378208Y-85489714D01*
X120376530Y-85492225D01*
X120375313Y-85493241D01*
X120374347Y-85494419D01*
X120374123Y-85494235D01*
X120322912Y-85537024D01*
X120253586Y-85545724D01*
X120190562Y-85515562D01*
X120153850Y-85456115D01*
X120153735Y-85455693D01*
X120119577Y-85328216D01*
X120063025Y-85230264D01*
X120040524Y-85191290D01*
X120040518Y-85191282D01*
X119834573Y-84985337D01*
X119801088Y-84924014D01*
X119800637Y-84921847D01*
X119772066Y-84778211D01*
X119769737Y-84766503D01*
X119738298Y-84690602D01*
X119709397Y-84620827D01*
X119709390Y-84620814D01*
X119621789Y-84489711D01*
X119621786Y-84489707D01*
X119510292Y-84378213D01*
X119510288Y-84378210D01*
X119379185Y-84290609D01*
X119379172Y-84290602D01*
X119233501Y-84230264D01*
X119233489Y-84230261D01*
X119078845Y-84199500D01*
X119078842Y-84199500D01*
X118921158Y-84199500D01*
X118921155Y-84199500D01*
X118766510Y-84230261D01*
X118766498Y-84230264D01*
X118620827Y-84290602D01*
X118620814Y-84290609D01*
X118489711Y-84378210D01*
X118489707Y-84378213D01*
X118378213Y-84489707D01*
X118378210Y-84489711D01*
X118324368Y-84570291D01*
X118270755Y-84615096D01*
X118201430Y-84623803D01*
X118197075Y-84623017D01*
X118078846Y-84599500D01*
X118078842Y-84599500D01*
X117921158Y-84599500D01*
X117921155Y-84599500D01*
X117766510Y-84630261D01*
X117766498Y-84630264D01*
X117620827Y-84690602D01*
X117620814Y-84690609D01*
X117489711Y-84778210D01*
X117489707Y-84778213D01*
X117378213Y-84889707D01*
X117378210Y-84889711D01*
X117290609Y-85020814D01*
X117290602Y-85020827D01*
X117230264Y-85166498D01*
X117230261Y-85166510D01*
X117199500Y-85321153D01*
X117199500Y-85478846D01*
X117230261Y-85633489D01*
X117230264Y-85633501D01*
X117290602Y-85779172D01*
X117290609Y-85779185D01*
X117378210Y-85910288D01*
X117378213Y-85910292D01*
X117423394Y-85955473D01*
X117456879Y-86016796D01*
X117451895Y-86086488D01*
X117410023Y-86142421D01*
X117344559Y-86166838D01*
X117322459Y-86166444D01*
X117317483Y-86165909D01*
X117257873Y-86159500D01*
X117257865Y-86159500D01*
X116762129Y-86159500D01*
X116762123Y-86159501D01*
X116702516Y-86165908D01*
X116627617Y-86193844D01*
X116557926Y-86198828D01*
X116540952Y-86193844D01*
X116467379Y-86166403D01*
X116467372Y-86166401D01*
X116407844Y-86160000D01*
X116210000Y-86160000D01*
X116210000Y-86936000D01*
X116190315Y-87003039D01*
X116137511Y-87048794D01*
X116086000Y-87060000D01*
X115960000Y-87060000D01*
X115960000Y-87186000D01*
X115940315Y-87253039D01*
X115887511Y-87298794D01*
X115836000Y-87310000D01*
X115060000Y-87310000D01*
X115060000Y-87507844D01*
X115066401Y-87567372D01*
X115066403Y-87567379D01*
X115093844Y-87640952D01*
X115098828Y-87710643D01*
X115093844Y-87727618D01*
X115065909Y-87802517D01*
X115059500Y-87862127D01*
X115059500Y-87862134D01*
X115059500Y-87862135D01*
X115059500Y-88357870D01*
X115059501Y-88357876D01*
X115065908Y-88417483D01*
X115093577Y-88491667D01*
X115098561Y-88561358D01*
X115093577Y-88578331D01*
X115065910Y-88652511D01*
X115065909Y-88652515D01*
X115065909Y-88652517D01*
X115059500Y-88712127D01*
X115059500Y-88712134D01*
X115059500Y-88712135D01*
X115059500Y-89207870D01*
X115059501Y-89207876D01*
X115065908Y-89267483D01*
X115093577Y-89341667D01*
X115098561Y-89411358D01*
X115093577Y-89428331D01*
X115065910Y-89502511D01*
X115065909Y-89502515D01*
X115065909Y-89502517D01*
X115059500Y-89562127D01*
X115059500Y-89562134D01*
X115059500Y-89562135D01*
X115059500Y-90057870D01*
X115059501Y-90057876D01*
X115065908Y-90117483D01*
X115093577Y-90191667D01*
X115098561Y-90261358D01*
X115093577Y-90278331D01*
X115065910Y-90352511D01*
X115065909Y-90352515D01*
X115065909Y-90352517D01*
X115059500Y-90412127D01*
X115059500Y-90412134D01*
X115059500Y-90412135D01*
X115059500Y-90907870D01*
X115059501Y-90907876D01*
X115065908Y-90967483D01*
X115093577Y-91041667D01*
X115098561Y-91111358D01*
X115093577Y-91128331D01*
X115065910Y-91202511D01*
X115065909Y-91202515D01*
X115065909Y-91202517D01*
X115059500Y-91262127D01*
X115059500Y-91262134D01*
X115059500Y-91262135D01*
X115059500Y-91757870D01*
X115059501Y-91757876D01*
X115065908Y-91817483D01*
X115093577Y-91891667D01*
X115098561Y-91961358D01*
X115093577Y-91978331D01*
X115065910Y-92052511D01*
X115065909Y-92052515D01*
X115065909Y-92052517D01*
X115059500Y-92112127D01*
X115059500Y-92112134D01*
X115059500Y-92112135D01*
X115059500Y-92607870D01*
X115059501Y-92607876D01*
X115065908Y-92667483D01*
X115093577Y-92741667D01*
X115098561Y-92811358D01*
X115093577Y-92828331D01*
X115065910Y-92902511D01*
X115065909Y-92902515D01*
X115065909Y-92902517D01*
X115059500Y-92962127D01*
X115059500Y-93208642D01*
X115059501Y-93335500D01*
X115039817Y-93402539D01*
X114987013Y-93448294D01*
X114935501Y-93459500D01*
X114526670Y-93459500D01*
X114526654Y-93459499D01*
X114519058Y-93459499D01*
X114360943Y-93459499D01*
X114299067Y-93476079D01*
X114208214Y-93500423D01*
X114208209Y-93500426D01*
X114071290Y-93579475D01*
X114071282Y-93579481D01*
X113485339Y-94165425D01*
X113424016Y-94198910D01*
X113421850Y-94199361D01*
X113266508Y-94230261D01*
X113266498Y-94230264D01*
X113120827Y-94290602D01*
X113120814Y-94290609D01*
X112989711Y-94378210D01*
X112989707Y-94378213D01*
X112878213Y-94489707D01*
X112878210Y-94489711D01*
X112790609Y-94620814D01*
X112790602Y-94620827D01*
X112730264Y-94766498D01*
X112730261Y-94766510D01*
X112699500Y-94921153D01*
X112699500Y-95078846D01*
X112730261Y-95233489D01*
X112730264Y-95233501D01*
X112790602Y-95379172D01*
X112790609Y-95379185D01*
X112878210Y-95510288D01*
X112878213Y-95510292D01*
X112989707Y-95621786D01*
X112989711Y-95621789D01*
X113120814Y-95709390D01*
X113120827Y-95709397D01*
X113219355Y-95750208D01*
X113266503Y-95769737D01*
X113383363Y-95792982D01*
X113421153Y-95800499D01*
X113421156Y-95800500D01*
X113421158Y-95800500D01*
X113578844Y-95800500D01*
X113578845Y-95800499D01*
X113733497Y-95769737D01*
X113879179Y-95709394D01*
X114010289Y-95621789D01*
X114121789Y-95510289D01*
X114129676Y-95498486D01*
X114146898Y-95472712D01*
X114200510Y-95427906D01*
X114269835Y-95419199D01*
X114332862Y-95449353D01*
X114353102Y-95472712D01*
X114378207Y-95510284D01*
X114378213Y-95510292D01*
X114489707Y-95621786D01*
X114489711Y-95621789D01*
X114620814Y-95709390D01*
X114620827Y-95709397D01*
X114719355Y-95750208D01*
X114766503Y-95769737D01*
X114883363Y-95792982D01*
X114921153Y-95800499D01*
X114921156Y-95800500D01*
X114921158Y-95800500D01*
X114935501Y-95800500D01*
X115002540Y-95820185D01*
X115048295Y-95872989D01*
X115059501Y-95924500D01*
X115059501Y-96007876D01*
X115065908Y-96067483D01*
X115093577Y-96141667D01*
X115098561Y-96211358D01*
X115093577Y-96228331D01*
X115065910Y-96302511D01*
X115065909Y-96302515D01*
X115065909Y-96302517D01*
X115059500Y-96362127D01*
X115059500Y-96362134D01*
X115059500Y-96362135D01*
X115059500Y-96857870D01*
X115059501Y-96857876D01*
X115065908Y-96917483D01*
X115093577Y-96991667D01*
X115098561Y-97061358D01*
X115093577Y-97078331D01*
X115065910Y-97152511D01*
X115065909Y-97152515D01*
X115065909Y-97152517D01*
X115059500Y-97212127D01*
X115059500Y-97212134D01*
X115059500Y-97212135D01*
X115059500Y-97707870D01*
X115059501Y-97707876D01*
X115065908Y-97767483D01*
X115093577Y-97841667D01*
X115098561Y-97911358D01*
X115093577Y-97928331D01*
X115065910Y-98002511D01*
X115065909Y-98002515D01*
X115065909Y-98002517D01*
X115059500Y-98062127D01*
X115059500Y-98062134D01*
X115059500Y-98062135D01*
X115059500Y-98557870D01*
X115059501Y-98557876D01*
X115065908Y-98617483D01*
X115093577Y-98691667D01*
X115098561Y-98761358D01*
X115093577Y-98778331D01*
X115065910Y-98852511D01*
X115065909Y-98852515D01*
X115065909Y-98852517D01*
X115059500Y-98912127D01*
X115059500Y-98912134D01*
X115059500Y-98912135D01*
X115059500Y-99407870D01*
X115059501Y-99407876D01*
X115065908Y-99467483D01*
X115093577Y-99541667D01*
X115098561Y-99611358D01*
X115093577Y-99628331D01*
X115065910Y-99702511D01*
X115065909Y-99702515D01*
X115065909Y-99702517D01*
X115059500Y-99762127D01*
X115059500Y-99762134D01*
X115059500Y-99762135D01*
X115059500Y-100257870D01*
X115059501Y-100257876D01*
X115065909Y-100317485D01*
X115093843Y-100392382D01*
X115098827Y-100462074D01*
X115093844Y-100479046D01*
X115066402Y-100552623D01*
X115066401Y-100552627D01*
X115060000Y-100612155D01*
X115060000Y-100810000D01*
X115836000Y-100810000D01*
X115903039Y-100829685D01*
X115948794Y-100882489D01*
X115960000Y-100934000D01*
X115960000Y-101186000D01*
X115940315Y-101253039D01*
X115887511Y-101298794D01*
X115836000Y-101310000D01*
X115060000Y-101310000D01*
X115060000Y-101507844D01*
X115066401Y-101567372D01*
X115066402Y-101567376D01*
X115088052Y-101625421D01*
X115093036Y-101695113D01*
X115059551Y-101756436D01*
X114998228Y-101789921D01*
X114971870Y-101792755D01*
X110243409Y-101792755D01*
X110176370Y-101773070D01*
X110155728Y-101756436D01*
X106048803Y-97649511D01*
X106015318Y-97588188D01*
X106020302Y-97518496D01*
X106033382Y-97492939D01*
X106109390Y-97379185D01*
X106109390Y-97379184D01*
X106109394Y-97379179D01*
X106118730Y-97356641D01*
X106137682Y-97310886D01*
X106169737Y-97233497D01*
X106200500Y-97078842D01*
X106200500Y-96921158D01*
X106195038Y-96893700D01*
X106197489Y-96866300D01*
X106196515Y-96838808D01*
X106200558Y-96831997D01*
X106201264Y-96824110D01*
X106218139Y-96802385D01*
X106232184Y-96778730D01*
X106240829Y-96773175D01*
X106244126Y-96768932D01*
X106261181Y-96758609D01*
X106265122Y-96756637D01*
X106379179Y-96709394D01*
X106437578Y-96670372D01*
X106444526Y-96666897D01*
X106471566Y-96662025D01*
X106497785Y-96653816D01*
X106505457Y-96655920D01*
X106513289Y-96654510D01*
X106538672Y-96665032D01*
X106565165Y-96672300D01*
X106568863Y-96674676D01*
X106620821Y-96709394D01*
X106620823Y-96709395D01*
X106620825Y-96709396D01*
X106766498Y-96769735D01*
X106766503Y-96769737D01*
X106921153Y-96800499D01*
X106921156Y-96800500D01*
X106921158Y-96800500D01*
X107078844Y-96800500D01*
X107078845Y-96800499D01*
X107233497Y-96769737D01*
X107233509Y-96769731D01*
X107239324Y-96767969D01*
X107240158Y-96770720D01*
X107297359Y-96764497D01*
X107359878Y-96795691D01*
X107395608Y-96855734D01*
X107399500Y-96886555D01*
X107399500Y-97913330D01*
X107399499Y-97913348D01*
X107399499Y-98079054D01*
X107399498Y-98079054D01*
X107440423Y-98231786D01*
X107454466Y-98256107D01*
X107454467Y-98256112D01*
X107454469Y-98256112D01*
X107468727Y-98280808D01*
X107519479Y-98368714D01*
X107519481Y-98368717D01*
X107638349Y-98487585D01*
X107638355Y-98487590D01*
X109665425Y-100514660D01*
X109698910Y-100575983D01*
X109699361Y-100578149D01*
X109730261Y-100733491D01*
X109730264Y-100733501D01*
X109790602Y-100879172D01*
X109790609Y-100879185D01*
X109878210Y-101010288D01*
X109878213Y-101010292D01*
X109989707Y-101121786D01*
X109989711Y-101121789D01*
X110120814Y-101209390D01*
X110120827Y-101209397D01*
X110266498Y-101269735D01*
X110266503Y-101269737D01*
X110421153Y-101300499D01*
X110421156Y-101300500D01*
X110421158Y-101300500D01*
X110578844Y-101300500D01*
X110578845Y-101300499D01*
X110733497Y-101269737D01*
X110879179Y-101209394D01*
X111010289Y-101121789D01*
X111121789Y-101010289D01*
X111209394Y-100879179D01*
X111209395Y-100879176D01*
X111209397Y-100879173D01*
X111258706Y-100760128D01*
X111302546Y-100705724D01*
X111325815Y-100693019D01*
X111444860Y-100643710D01*
X111444863Y-100643708D01*
X111444866Y-100643707D01*
X111575976Y-100556102D01*
X111687476Y-100444602D01*
X111775081Y-100313492D01*
X111775082Y-100313489D01*
X111775084Y-100313486D01*
X111817948Y-100210000D01*
X111824393Y-100194440D01*
X111868233Y-100140037D01*
X111891502Y-100127332D01*
X111895264Y-100125774D01*
X111944222Y-100105495D01*
X112010547Y-100078023D01*
X112010550Y-100078021D01*
X112010553Y-100078020D01*
X112141663Y-99990415D01*
X112253163Y-99878915D01*
X112340768Y-99747805D01*
X112401111Y-99602123D01*
X112431874Y-99447468D01*
X112431874Y-99289784D01*
X112431874Y-99289781D01*
X112431873Y-99289779D01*
X112422745Y-99243889D01*
X112401111Y-99135129D01*
X112377797Y-99078844D01*
X112340771Y-98989453D01*
X112340764Y-98989440D01*
X112253163Y-98858337D01*
X112253160Y-98858333D01*
X112141666Y-98746839D01*
X112141662Y-98746836D01*
X112010559Y-98659235D01*
X112010546Y-98659228D01*
X111864875Y-98598890D01*
X111864863Y-98598887D01*
X111710219Y-98568126D01*
X111710216Y-98568126D01*
X111552532Y-98568126D01*
X111522434Y-98574112D01*
X111504791Y-98577622D01*
X111435199Y-98571393D01*
X111392920Y-98543685D01*
X110036819Y-97187584D01*
X110003334Y-97126261D01*
X110000500Y-97099903D01*
X110000500Y-86612155D01*
X115060000Y-86612155D01*
X115060000Y-86810000D01*
X115710000Y-86810000D01*
X115710000Y-86160000D01*
X115512155Y-86160000D01*
X115452627Y-86166401D01*
X115452620Y-86166403D01*
X115317913Y-86216645D01*
X115317906Y-86216649D01*
X115202812Y-86302809D01*
X115202809Y-86302812D01*
X115116649Y-86417906D01*
X115116645Y-86417913D01*
X115066403Y-86552620D01*
X115066401Y-86552627D01*
X115060000Y-86612155D01*
X110000500Y-86612155D01*
X110000500Y-85079765D01*
X110020185Y-85012726D01*
X110021398Y-85010874D01*
X110109390Y-84879185D01*
X110109390Y-84879184D01*
X110109394Y-84879179D01*
X110169737Y-84733497D01*
X110200500Y-84578842D01*
X110200500Y-84421158D01*
X110200500Y-84421155D01*
X110200499Y-84421153D01*
X110174531Y-84290606D01*
X110169737Y-84266503D01*
X110158406Y-84239148D01*
X110109397Y-84120827D01*
X110109390Y-84120814D01*
X110021789Y-83989711D01*
X110021786Y-83989707D01*
X109910292Y-83878213D01*
X109910288Y-83878210D01*
X109779185Y-83790609D01*
X109779172Y-83790602D01*
X109633501Y-83730264D01*
X109633489Y-83730261D01*
X109478845Y-83699500D01*
X109478842Y-83699500D01*
X109321158Y-83699500D01*
X109321155Y-83699500D01*
X109166510Y-83730261D01*
X109166498Y-83730264D01*
X109020827Y-83790602D01*
X109020814Y-83790609D01*
X108889711Y-83878210D01*
X108889707Y-83878213D01*
X108778213Y-83989707D01*
X108778210Y-83989711D01*
X108690609Y-84120814D01*
X108690602Y-84120827D01*
X108630264Y-84266498D01*
X108630261Y-84266510D01*
X108599500Y-84421153D01*
X108599500Y-84578846D01*
X108630261Y-84733489D01*
X108630264Y-84733501D01*
X108690602Y-84879172D01*
X108690609Y-84879185D01*
X108778602Y-85010874D01*
X108799480Y-85077551D01*
X108799500Y-85079765D01*
X108799500Y-89614800D01*
X108779815Y-89681839D01*
X108727011Y-89727594D01*
X108657853Y-89737538D01*
X108594297Y-89708513D01*
X108587819Y-89702481D01*
X107579831Y-88694493D01*
X107546346Y-88633170D01*
X107545895Y-88631003D01*
X107537865Y-88590633D01*
X107514995Y-88475659D01*
X107493638Y-88424098D01*
X107454655Y-88329983D01*
X107454648Y-88329970D01*
X107367047Y-88198867D01*
X107367044Y-88198863D01*
X107255550Y-88087369D01*
X107255546Y-88087366D01*
X107124443Y-87999765D01*
X107124430Y-87999758D01*
X106978759Y-87939420D01*
X106978747Y-87939417D01*
X106824103Y-87908656D01*
X106824100Y-87908656D01*
X106666416Y-87908656D01*
X106666413Y-87908656D01*
X106511768Y-87939417D01*
X106511756Y-87939420D01*
X106366085Y-87999758D01*
X106366072Y-87999765D01*
X106234970Y-88087365D01*
X106213681Y-88108655D01*
X106159153Y-88163182D01*
X106097833Y-88196666D01*
X106071474Y-88199500D01*
X105921155Y-88199500D01*
X105766510Y-88230261D01*
X105766498Y-88230264D01*
X105620827Y-88290602D01*
X105620814Y-88290609D01*
X105489711Y-88378210D01*
X105489707Y-88378213D01*
X105378213Y-88489707D01*
X105378210Y-88489711D01*
X105290609Y-88620814D01*
X105290602Y-88620827D01*
X105230264Y-88766498D01*
X105230261Y-88766510D01*
X105199500Y-88921153D01*
X105199500Y-89075500D01*
X105179815Y-89142539D01*
X105127011Y-89188294D01*
X105075500Y-89199500D01*
X104921155Y-89199500D01*
X104766510Y-89230261D01*
X104766498Y-89230264D01*
X104620827Y-89290602D01*
X104620814Y-89290609D01*
X104489711Y-89378210D01*
X104489707Y-89378213D01*
X104378213Y-89489707D01*
X104378210Y-89489711D01*
X104290609Y-89620814D01*
X104290602Y-89620827D01*
X104230264Y-89766498D01*
X104230261Y-89766508D01*
X104199361Y-89921850D01*
X104166976Y-89983761D01*
X104165425Y-89985339D01*
X103718481Y-90432282D01*
X103718475Y-90432290D01*
X103673444Y-90510288D01*
X103673444Y-90510289D01*
X103639423Y-90569215D01*
X103598499Y-90721943D01*
X103598499Y-90721945D01*
X103598499Y-90890046D01*
X103598500Y-90890059D01*
X103598500Y-96562273D01*
X103598499Y-96562291D01*
X103598499Y-96727997D01*
X103598498Y-96727997D01*
X103598499Y-96728000D01*
X103639423Y-96880728D01*
X103639424Y-96880730D01*
X103639423Y-96880730D01*
X103651967Y-96902455D01*
X103651968Y-96902457D01*
X103718475Y-97017652D01*
X103718481Y-97017660D01*
X103837349Y-97136528D01*
X103837355Y-97136533D01*
X109458451Y-102757629D01*
X109458461Y-102757640D01*
X109462791Y-102761970D01*
X109462792Y-102761971D01*
X109574596Y-102873775D01*
X109646716Y-102915413D01*
X109711527Y-102952832D01*
X109864255Y-102993756D01*
X109864258Y-102993756D01*
X110029965Y-102993756D01*
X110029981Y-102993755D01*
X111657659Y-102993755D01*
X111724698Y-103013440D01*
X111770453Y-103066244D01*
X111780397Y-103135402D01*
X111772220Y-103165207D01*
X111730264Y-103266498D01*
X111730261Y-103266510D01*
X111699500Y-103421153D01*
X111699500Y-103578846D01*
X111730261Y-103733489D01*
X111730264Y-103733501D01*
X111790602Y-103879172D01*
X111790609Y-103879185D01*
X111878210Y-104010288D01*
X111878213Y-104010292D01*
X111989707Y-104121786D01*
X111989711Y-104121789D01*
X112120814Y-104209390D01*
X112120827Y-104209397D01*
X112262831Y-104268216D01*
X112266503Y-104269737D01*
X112331147Y-104282595D01*
X112421849Y-104300638D01*
X112483760Y-104333023D01*
X112485336Y-104334571D01*
X113131284Y-104980520D01*
X113131286Y-104980521D01*
X113131290Y-104980524D01*
X113268209Y-105059573D01*
X113268216Y-105059577D01*
X113420943Y-105100501D01*
X113420945Y-105100501D01*
X113586654Y-105100501D01*
X113586670Y-105100500D01*
X115750903Y-105100500D01*
X115817942Y-105120185D01*
X115863697Y-105172989D01*
X115873641Y-105242147D01*
X115844616Y-105305703D01*
X115838584Y-105312181D01*
X114578867Y-106571896D01*
X114517544Y-106605381D01*
X114452868Y-106602146D01*
X114316240Y-106557753D01*
X114154957Y-106532208D01*
X114106287Y-106524500D01*
X113893713Y-106524500D01*
X113845042Y-106532208D01*
X113683760Y-106557753D01*
X113481585Y-106623444D01*
X113292179Y-106719951D01*
X113120213Y-106844890D01*
X112969894Y-106995209D01*
X112969890Y-106995214D01*
X112850318Y-107159793D01*
X112794989Y-107202459D01*
X112725375Y-107208438D01*
X112663580Y-107175833D01*
X112649682Y-107159793D01*
X112530109Y-106995214D01*
X112530105Y-106995209D01*
X112379786Y-106844890D01*
X112207820Y-106719951D01*
X112018414Y-106623444D01*
X112018413Y-106623443D01*
X112018412Y-106623443D01*
X111816243Y-106557754D01*
X111816241Y-106557753D01*
X111816240Y-106557753D01*
X111654957Y-106532208D01*
X111606287Y-106524500D01*
X111393713Y-106524500D01*
X111190360Y-106556707D01*
X111121067Y-106547752D01*
X111083282Y-106521915D01*
X109279421Y-104718052D01*
X109279420Y-104718051D01*
X109191906Y-104659577D01*
X109156495Y-104635916D01*
X109156488Y-104635912D01*
X109019917Y-104579343D01*
X109019907Y-104579340D01*
X108874920Y-104550500D01*
X108874918Y-104550500D01*
X98713229Y-104550500D01*
X98646190Y-104530815D01*
X98625548Y-104514181D01*
X96340882Y-102229514D01*
X96307397Y-102168191D01*
X96312381Y-102098499D01*
X96344509Y-102054027D01*
X96342963Y-102052481D01*
X96347716Y-102047726D01*
X96347722Y-102047722D01*
X96467030Y-101899296D01*
X96551641Y-101728693D01*
X96597600Y-101543889D01*
X96600500Y-101501123D01*
X96600499Y-100598878D01*
X96597600Y-100556111D01*
X96551641Y-100371307D01*
X96524947Y-100317483D01*
X96467032Y-100200707D01*
X96467030Y-100200704D01*
X96347722Y-100052278D01*
X96347721Y-100052277D01*
X96278514Y-99996647D01*
X96238595Y-99939304D01*
X96236015Y-99869482D01*
X96271594Y-99809349D01*
X96278514Y-99803353D01*
X96312999Y-99775633D01*
X96347722Y-99747722D01*
X96467030Y-99599296D01*
X96481854Y-99569406D01*
X96529275Y-99518093D01*
X96592942Y-99500500D01*
X99775501Y-99500500D01*
X99842540Y-99520185D01*
X99888295Y-99572989D01*
X99899501Y-99624500D01*
X99899501Y-100208036D01*
X99899676Y-100210000D01*
X99910113Y-100327415D01*
X99966089Y-100523045D01*
X99966090Y-100523048D01*
X99966091Y-100523049D01*
X100060302Y-100703407D01*
X100094977Y-100745933D01*
X100188890Y-100861109D01*
X100278285Y-100934000D01*
X100346593Y-100989698D01*
X100526951Y-101083909D01*
X100722582Y-101139886D01*
X100841963Y-101150500D01*
X101958036Y-101150499D01*
X102077418Y-101139886D01*
X102273049Y-101083909D01*
X102453407Y-100989698D01*
X102611109Y-100861109D01*
X102739698Y-100703407D01*
X102833909Y-100523049D01*
X102889886Y-100327418D01*
X102900500Y-100208037D01*
X102900499Y-99924498D01*
X102920183Y-99857461D01*
X102972987Y-99811706D01*
X103024499Y-99800500D01*
X103078844Y-99800500D01*
X103078845Y-99800499D01*
X103233497Y-99769737D01*
X103379179Y-99709394D01*
X103510289Y-99621789D01*
X103621789Y-99510289D01*
X103709394Y-99379179D01*
X103769737Y-99233497D01*
X103800500Y-99078842D01*
X103800500Y-98921158D01*
X103800500Y-98921155D01*
X103800499Y-98921153D01*
X103786866Y-98852617D01*
X103769737Y-98766503D01*
X103756688Y-98735000D01*
X103709397Y-98620827D01*
X103709390Y-98620814D01*
X103621789Y-98489711D01*
X103621786Y-98489707D01*
X103510292Y-98378213D01*
X103510288Y-98378210D01*
X103379182Y-98290607D01*
X103355524Y-98280808D01*
X103315295Y-98253928D01*
X103228415Y-98167047D01*
X103228414Y-98167046D01*
X103133751Y-98103795D01*
X103133751Y-98103796D01*
X103105495Y-98084916D01*
X103105493Y-98084915D01*
X102977046Y-98031710D01*
X102922643Y-97987869D01*
X102900578Y-97921574D01*
X102900499Y-97917149D01*
X102900499Y-97291971D01*
X102900499Y-97291964D01*
X102889886Y-97172582D01*
X102838120Y-96991667D01*
X102833910Y-96976954D01*
X102833909Y-96976953D01*
X102833909Y-96976951D01*
X102739698Y-96796593D01*
X102660937Y-96700000D01*
X102611109Y-96638890D01*
X102475488Y-96528307D01*
X102453407Y-96510302D01*
X102273049Y-96416091D01*
X102273048Y-96416090D01*
X102273045Y-96416089D01*
X102155829Y-96382550D01*
X102077418Y-96360114D01*
X102077415Y-96360113D01*
X102077413Y-96360113D01*
X102011102Y-96354217D01*
X101958037Y-96349500D01*
X101958032Y-96349500D01*
X100841971Y-96349500D01*
X100841965Y-96349500D01*
X100841964Y-96349501D01*
X100830316Y-96350536D01*
X100722584Y-96360113D01*
X100526954Y-96416089D01*
X100462035Y-96450000D01*
X100346593Y-96510302D01*
X100346591Y-96510303D01*
X100346590Y-96510304D01*
X100188890Y-96638890D01*
X100072353Y-96781813D01*
X100060302Y-96796593D01*
X100027444Y-96859496D01*
X99966089Y-96976954D01*
X99910114Y-97172583D01*
X99910113Y-97172586D01*
X99899500Y-97291966D01*
X99899500Y-97875500D01*
X99879815Y-97942539D01*
X99827011Y-97988294D01*
X99775500Y-97999500D01*
X96592942Y-97999500D01*
X96525903Y-97979815D01*
X96481854Y-97930594D01*
X96467030Y-97900704D01*
X96347724Y-97752280D01*
X96347722Y-97752278D01*
X96278112Y-97696324D01*
X96238196Y-97638985D01*
X96235616Y-97569163D01*
X96271194Y-97509030D01*
X96278115Y-97503033D01*
X96347366Y-97447367D01*
X96347367Y-97447366D01*
X96466607Y-97299025D01*
X96466609Y-97299022D01*
X96551168Y-97128523D01*
X96597102Y-96943824D01*
X96600000Y-96901096D01*
X96600000Y-96700000D01*
X95224000Y-96700000D01*
X95156961Y-96680315D01*
X95111206Y-96627511D01*
X95100000Y-96576000D01*
X95100000Y-96450000D01*
X94974000Y-96450000D01*
X94906961Y-96430315D01*
X94861206Y-96377511D01*
X94850000Y-96326000D01*
X94850000Y-96200000D01*
X95350000Y-96200000D01*
X96600000Y-96200000D01*
X96600000Y-95998903D01*
X96597102Y-95956175D01*
X96551168Y-95771476D01*
X96466609Y-95600977D01*
X96466607Y-95600974D01*
X96347367Y-95452633D01*
X96347366Y-95452632D01*
X96199025Y-95333392D01*
X96199022Y-95333390D01*
X96028523Y-95248831D01*
X95843824Y-95202897D01*
X95801097Y-95200000D01*
X95350000Y-95200000D01*
X95350000Y-96200000D01*
X94850000Y-96200000D01*
X94850000Y-95200000D01*
X94398903Y-95200000D01*
X94356175Y-95202897D01*
X94171476Y-95248831D01*
X94000977Y-95333390D01*
X94000974Y-95333392D01*
X93852633Y-95452632D01*
X93852632Y-95452633D01*
X93771147Y-95554006D01*
X93713804Y-95593925D01*
X93643982Y-95596505D01*
X93583849Y-95560926D01*
X93552497Y-95498486D01*
X93550500Y-95476319D01*
X93550500Y-93476079D01*
X93521659Y-93331092D01*
X93521658Y-93331091D01*
X93521658Y-93331087D01*
X93465084Y-93194505D01*
X93414444Y-93118716D01*
X93414444Y-93118715D01*
X93382950Y-93071581D01*
X93286819Y-92975450D01*
X93253334Y-92914127D01*
X93250500Y-92887769D01*
X93250500Y-81312220D01*
X93270185Y-81245181D01*
X93301614Y-81211902D01*
X93379792Y-81155104D01*
X93530104Y-81004792D01*
X93649683Y-80840204D01*
X93705011Y-80797540D01*
X93774624Y-80791561D01*
X93836420Y-80824166D01*
X93850313Y-80840199D01*
X93879079Y-80879792D01*
X93969896Y-81004792D01*
X94120213Y-81155109D01*
X94292179Y-81280048D01*
X94292181Y-81280049D01*
X94292184Y-81280051D01*
X94481588Y-81376557D01*
X94683757Y-81442246D01*
X94893713Y-81475500D01*
X94893714Y-81475500D01*
X95106286Y-81475500D01*
X95106287Y-81475500D01*
X95316243Y-81442246D01*
X95518412Y-81376557D01*
X95707816Y-81280051D01*
X95755811Y-81245181D01*
X95879786Y-81155109D01*
X95879788Y-81155106D01*
X95879792Y-81155104D01*
X96030104Y-81004792D01*
X96149683Y-80840204D01*
X96205011Y-80797540D01*
X96274624Y-80791561D01*
X96336420Y-80824166D01*
X96350313Y-80840199D01*
X96379079Y-80879792D01*
X96469896Y-81004792D01*
X96620213Y-81155109D01*
X96792179Y-81280048D01*
X96792181Y-81280049D01*
X96792184Y-81280051D01*
X96981588Y-81376557D01*
X97183757Y-81442246D01*
X97393713Y-81475500D01*
X97393714Y-81475500D01*
X97606286Y-81475500D01*
X97606287Y-81475500D01*
X97816243Y-81442246D01*
X98018412Y-81376557D01*
X98207816Y-81280051D01*
X98255811Y-81245181D01*
X98379786Y-81155109D01*
X98379788Y-81155106D01*
X98379792Y-81155104D01*
X98530104Y-81004792D01*
X98649683Y-80840204D01*
X98705011Y-80797540D01*
X98774624Y-80791561D01*
X98836420Y-80824166D01*
X98850313Y-80840199D01*
X98879079Y-80879792D01*
X98969896Y-81004792D01*
X99120213Y-81155109D01*
X99292179Y-81280048D01*
X99292181Y-81280049D01*
X99292184Y-81280051D01*
X99481588Y-81376557D01*
X99683757Y-81442246D01*
X99893713Y-81475500D01*
X99893714Y-81475500D01*
X100106286Y-81475500D01*
X100106287Y-81475500D01*
X100316243Y-81442246D01*
X100518412Y-81376557D01*
X100707816Y-81280051D01*
X100755811Y-81245181D01*
X100879786Y-81155109D01*
X100879788Y-81155106D01*
X100879792Y-81155104D01*
X101030104Y-81004792D01*
X101149683Y-80840204D01*
X101205011Y-80797540D01*
X101274624Y-80791561D01*
X101336420Y-80824166D01*
X101350313Y-80840199D01*
X101379079Y-80879792D01*
X101469896Y-81004792D01*
X101620213Y-81155109D01*
X101792179Y-81280048D01*
X101792181Y-81280049D01*
X101792184Y-81280051D01*
X101981588Y-81376557D01*
X102183757Y-81442246D01*
X102393713Y-81475500D01*
X102393714Y-81475500D01*
X102606286Y-81475500D01*
X102606287Y-81475500D01*
X102816243Y-81442246D01*
X103018412Y-81376557D01*
X103207816Y-81280051D01*
X103255811Y-81245181D01*
X103379786Y-81155109D01*
X103379788Y-81155106D01*
X103379792Y-81155104D01*
X103530104Y-81004792D01*
X103649683Y-80840204D01*
X103705011Y-80797540D01*
X103774624Y-80791561D01*
X103836420Y-80824166D01*
X103850313Y-80840199D01*
X103879079Y-80879792D01*
X103969896Y-81004792D01*
X104120213Y-81155109D01*
X104292179Y-81280048D01*
X104292181Y-81280049D01*
X104292184Y-81280051D01*
X104481588Y-81376557D01*
X104683757Y-81442246D01*
X104893713Y-81475500D01*
X104893714Y-81475500D01*
X105106286Y-81475500D01*
X105106287Y-81475500D01*
X105316243Y-81442246D01*
X105518412Y-81376557D01*
X105707816Y-81280051D01*
X105755811Y-81245181D01*
X105879786Y-81155109D01*
X105879788Y-81155106D01*
X105879792Y-81155104D01*
X106030104Y-81004792D01*
X106149683Y-80840204D01*
X106205011Y-80797540D01*
X106274624Y-80791561D01*
X106336420Y-80824166D01*
X106350313Y-80840199D01*
X106379079Y-80879792D01*
X106469896Y-81004792D01*
X106620213Y-81155109D01*
X106792184Y-81280051D01*
X106792184Y-81280052D01*
X106831793Y-81300233D01*
X106882590Y-81348206D01*
X106899500Y-81410718D01*
X106899500Y-81920234D01*
X106879815Y-81987273D01*
X106878602Y-81989125D01*
X106790609Y-82120814D01*
X106790602Y-82120827D01*
X106730264Y-82266498D01*
X106730261Y-82266510D01*
X106699500Y-82421153D01*
X106699500Y-82578846D01*
X106730261Y-82733489D01*
X106730264Y-82733501D01*
X106790602Y-82879172D01*
X106790609Y-82879185D01*
X106878210Y-83010288D01*
X106878213Y-83010292D01*
X106989707Y-83121786D01*
X106989711Y-83121789D01*
X107120814Y-83209390D01*
X107120827Y-83209397D01*
X107266498Y-83269735D01*
X107266503Y-83269737D01*
X107421153Y-83300499D01*
X107421156Y-83300500D01*
X107421158Y-83300500D01*
X107578844Y-83300500D01*
X107578845Y-83300499D01*
X107733497Y-83269737D01*
X107879179Y-83209394D01*
X108010289Y-83121789D01*
X108121789Y-83010289D01*
X108209394Y-82879179D01*
X108269737Y-82733497D01*
X108300500Y-82578842D01*
X108300500Y-82421158D01*
X108300500Y-82421155D01*
X108300499Y-82421153D01*
X108274531Y-82290606D01*
X108269737Y-82266503D01*
X108257724Y-82237500D01*
X108209397Y-82120827D01*
X108209390Y-82120814D01*
X108121398Y-81989125D01*
X108100520Y-81922447D01*
X108100500Y-81920234D01*
X108100500Y-81410718D01*
X108120185Y-81343679D01*
X108168207Y-81300233D01*
X108207815Y-81280052D01*
X108207815Y-81280051D01*
X108207816Y-81280051D01*
X108305073Y-81209390D01*
X108379786Y-81155109D01*
X108379788Y-81155106D01*
X108379792Y-81155104D01*
X108530104Y-81004792D01*
X108530106Y-81004788D01*
X108530109Y-81004786D01*
X108655048Y-80832820D01*
X108655047Y-80832820D01*
X108655051Y-80832816D01*
X108751557Y-80643412D01*
X108817246Y-80441243D01*
X108850500Y-80231287D01*
X108850500Y-79768713D01*
X108817246Y-79558757D01*
X108751557Y-79356588D01*
X108655051Y-79167184D01*
X108620925Y-79120213D01*
X108604340Y-79097385D01*
X108580860Y-79031579D01*
X108596686Y-78963525D01*
X108646791Y-78914830D01*
X108704658Y-78900500D01*
X116999903Y-78900500D01*
X117066942Y-78920185D01*
G37*
%TD.AperFunction*%
%TA.AperFunction,Conductor*%
G36*
X130142539Y-76220185D02*
G01*
X130188294Y-76272989D01*
X130199500Y-76324500D01*
X130199500Y-87999138D01*
X130179815Y-88066177D01*
X130163181Y-88086819D01*
X130160000Y-88090000D01*
X130160000Y-100030000D01*
X130163181Y-100033181D01*
X130196666Y-100094504D01*
X130199500Y-100120862D01*
X130199500Y-102625971D01*
X130179815Y-102693010D01*
X130127011Y-102738765D01*
X130057853Y-102748709D01*
X129994297Y-102719684D01*
X129957794Y-102664976D01*
X129943160Y-102620814D01*
X129910908Y-102523484D01*
X129820340Y-102376650D01*
X129698350Y-102254660D01*
X129592769Y-102189537D01*
X129546047Y-102137591D01*
X129534824Y-102068628D01*
X129562668Y-102004546D01*
X129620736Y-101965690D01*
X129657868Y-101960000D01*
X129710000Y-101960000D01*
X129710000Y-100210000D01*
X129358069Y-100210000D01*
X129314736Y-100202182D01*
X129217486Y-100165910D01*
X129217485Y-100165909D01*
X129217483Y-100165909D01*
X129157873Y-100159500D01*
X129157863Y-100159500D01*
X128662129Y-100159500D01*
X128662123Y-100159501D01*
X128602516Y-100165908D01*
X128528332Y-100193577D01*
X128458640Y-100198561D01*
X128441668Y-100193577D01*
X128367488Y-100165910D01*
X128367484Y-100165909D01*
X128367483Y-100165909D01*
X128307873Y-100159500D01*
X128307863Y-100159500D01*
X127812129Y-100159500D01*
X127812123Y-100159501D01*
X127752516Y-100165908D01*
X127677617Y-100193844D01*
X127607926Y-100198828D01*
X127590952Y-100193844D01*
X127517379Y-100166403D01*
X127517372Y-100166401D01*
X127457844Y-100160000D01*
X127410000Y-100160000D01*
X127410000Y-100411930D01*
X127402182Y-100455263D01*
X127367320Y-100548735D01*
X127365909Y-100552517D01*
X127359500Y-100612127D01*
X127359500Y-101023486D01*
X127359501Y-101060000D01*
X127359501Y-101507876D01*
X127365908Y-101567481D01*
X127374997Y-101591850D01*
X127402182Y-101664737D01*
X127410000Y-101708068D01*
X127410000Y-101960000D01*
X127457828Y-101960000D01*
X127457844Y-101959999D01*
X127517377Y-101953597D01*
X127517379Y-101953597D01*
X127590950Y-101926156D01*
X127656699Y-101920380D01*
X127667411Y-101922348D01*
X127752517Y-101954091D01*
X127812127Y-101960500D01*
X127875000Y-101960499D01*
X127886112Y-101962542D01*
X127907616Y-101973394D01*
X127930736Y-101980182D01*
X127938249Y-101988852D01*
X127948489Y-101994020D01*
X127960713Y-102014777D01*
X127976491Y-102032985D01*
X127978123Y-102044339D01*
X127983945Y-102054224D01*
X127983006Y-102078296D01*
X127986436Y-102102144D01*
X127981670Y-102112578D01*
X127981224Y-102124041D01*
X127967419Y-102143786D01*
X127957412Y-102165700D01*
X127947763Y-102171901D01*
X127941190Y-102181303D01*
X127918900Y-102190450D01*
X127898635Y-102203475D01*
X127887890Y-102206116D01*
X127766508Y-102230261D01*
X127766498Y-102230264D01*
X127620827Y-102290602D01*
X127620814Y-102290609D01*
X127489711Y-102378210D01*
X127489707Y-102378213D01*
X127378213Y-102489707D01*
X127378210Y-102489711D01*
X127290609Y-102620814D01*
X127290602Y-102620827D01*
X127230264Y-102766498D01*
X127230261Y-102766510D01*
X127199500Y-102921153D01*
X127199500Y-103078846D01*
X127230261Y-103233489D01*
X127230264Y-103233501D01*
X127290602Y-103379172D01*
X127290609Y-103379185D01*
X127378602Y-103510874D01*
X127399480Y-103577551D01*
X127399500Y-103579765D01*
X127399500Y-103913330D01*
X127399499Y-103913348D01*
X127399499Y-104079054D01*
X127399498Y-104079054D01*
X127440424Y-104231789D01*
X127440425Y-104231790D01*
X127461455Y-104268214D01*
X127461456Y-104268216D01*
X127519475Y-104368709D01*
X127519481Y-104368717D01*
X127638349Y-104487585D01*
X127638355Y-104487590D01*
X127988181Y-104837416D01*
X128021666Y-104898739D01*
X128024500Y-104925097D01*
X128024500Y-105211668D01*
X128024501Y-105211687D01*
X128034825Y-105312752D01*
X128055130Y-105374027D01*
X128089092Y-105476516D01*
X128179660Y-105623350D01*
X128301650Y-105745340D01*
X128448484Y-105835908D01*
X128612247Y-105890174D01*
X128713323Y-105900500D01*
X129286676Y-105900499D01*
X129286684Y-105900498D01*
X129286687Y-105900498D01*
X129342030Y-105894844D01*
X129387753Y-105890174D01*
X129551516Y-105835908D01*
X129698350Y-105745340D01*
X129820340Y-105623350D01*
X129910908Y-105476516D01*
X129957794Y-105335021D01*
X129997567Y-105277578D01*
X130062083Y-105250755D01*
X130130858Y-105263070D01*
X130182058Y-105310613D01*
X130199500Y-105374027D01*
X130199500Y-111575500D01*
X130179815Y-111642539D01*
X130127011Y-111688294D01*
X130075500Y-111699500D01*
X83424500Y-111699500D01*
X83357461Y-111679815D01*
X83311706Y-111627011D01*
X83300500Y-111575500D01*
X83300500Y-107225013D01*
X89150000Y-107225013D01*
X89150000Y-107750000D01*
X90095854Y-107750000D01*
X90057370Y-107816657D01*
X90025000Y-107937465D01*
X90025000Y-108062535D01*
X90057370Y-108183343D01*
X90095854Y-108250000D01*
X89150001Y-108250000D01*
X89150001Y-108774986D01*
X89160494Y-108877697D01*
X89215641Y-109044119D01*
X89215643Y-109044124D01*
X89307684Y-109193345D01*
X89431654Y-109317315D01*
X89580875Y-109409356D01*
X89580880Y-109409358D01*
X89747302Y-109464505D01*
X89747309Y-109464506D01*
X89850019Y-109474999D01*
X90249999Y-109474999D01*
X90250000Y-109474998D01*
X90250000Y-108404145D01*
X90316657Y-108442630D01*
X90437465Y-108475000D01*
X90562535Y-108475000D01*
X90683343Y-108442630D01*
X90750000Y-108404145D01*
X90750000Y-109474999D01*
X91149972Y-109474999D01*
X91149986Y-109474998D01*
X91252697Y-109464505D01*
X91419119Y-109409358D01*
X91419124Y-109409356D01*
X91568345Y-109317315D01*
X91692317Y-109193343D01*
X91787815Y-109038516D01*
X91839763Y-108991791D01*
X91908725Y-108980568D01*
X91972808Y-109008412D01*
X91981035Y-109015931D01*
X92120213Y-109155109D01*
X92292179Y-109280048D01*
X92292181Y-109280049D01*
X92292184Y-109280051D01*
X92481588Y-109376557D01*
X92683757Y-109442246D01*
X92893713Y-109475500D01*
X92893714Y-109475500D01*
X93106286Y-109475500D01*
X93106287Y-109475500D01*
X93316243Y-109442246D01*
X93518412Y-109376557D01*
X93707816Y-109280051D01*
X93747038Y-109251555D01*
X93879786Y-109155109D01*
X93879788Y-109155106D01*
X93879792Y-109155104D01*
X94030104Y-109004792D01*
X94149683Y-108840204D01*
X94205011Y-108797540D01*
X94274624Y-108791561D01*
X94336420Y-108824166D01*
X94350313Y-108840199D01*
X94379079Y-108879792D01*
X94469896Y-109004792D01*
X94620213Y-109155109D01*
X94792179Y-109280048D01*
X94792181Y-109280049D01*
X94792184Y-109280051D01*
X94981588Y-109376557D01*
X95183757Y-109442246D01*
X95393713Y-109475500D01*
X95393714Y-109475500D01*
X95606286Y-109475500D01*
X95606287Y-109475500D01*
X95816243Y-109442246D01*
X96018412Y-109376557D01*
X96207816Y-109280051D01*
X96247038Y-109251555D01*
X96379786Y-109155109D01*
X96379788Y-109155106D01*
X96379792Y-109155104D01*
X96530104Y-109004792D01*
X96649683Y-108840204D01*
X96705011Y-108797540D01*
X96774624Y-108791561D01*
X96836420Y-108824166D01*
X96850313Y-108840199D01*
X96879079Y-108879792D01*
X96969896Y-109004792D01*
X97120213Y-109155109D01*
X97292179Y-109280048D01*
X97292181Y-109280049D01*
X97292184Y-109280051D01*
X97481588Y-109376557D01*
X97683757Y-109442246D01*
X97893713Y-109475500D01*
X97893714Y-109475500D01*
X98106286Y-109475500D01*
X98106287Y-109475500D01*
X98316243Y-109442246D01*
X98518412Y-109376557D01*
X98707816Y-109280051D01*
X98747038Y-109251555D01*
X98879786Y-109155109D01*
X98879788Y-109155106D01*
X98879792Y-109155104D01*
X99030104Y-109004792D01*
X99149683Y-108840204D01*
X99205011Y-108797540D01*
X99274624Y-108791561D01*
X99336420Y-108824166D01*
X99350313Y-108840199D01*
X99379079Y-108879792D01*
X99469896Y-109004792D01*
X99620213Y-109155109D01*
X99792179Y-109280048D01*
X99792181Y-109280049D01*
X99792184Y-109280051D01*
X99981588Y-109376557D01*
X100183757Y-109442246D01*
X100393713Y-109475500D01*
X100393714Y-109475500D01*
X100606286Y-109475500D01*
X100606287Y-109475500D01*
X100816243Y-109442246D01*
X101018412Y-109376557D01*
X101207816Y-109280051D01*
X101247038Y-109251555D01*
X101379786Y-109155109D01*
X101379788Y-109155106D01*
X101379792Y-109155104D01*
X101530104Y-109004792D01*
X101530106Y-109004788D01*
X101530109Y-109004786D01*
X101655048Y-108832820D01*
X101655047Y-108832820D01*
X101655051Y-108832816D01*
X101751557Y-108643412D01*
X101817246Y-108441243D01*
X101850500Y-108231287D01*
X101850500Y-107768713D01*
X101817246Y-107558757D01*
X101751557Y-107356588D01*
X101655051Y-107167184D01*
X101655049Y-107167181D01*
X101655048Y-107167179D01*
X101530109Y-106995213D01*
X101379786Y-106844890D01*
X101207820Y-106719951D01*
X101018414Y-106623444D01*
X101018413Y-106623443D01*
X101018412Y-106623443D01*
X100816243Y-106557754D01*
X100816241Y-106557753D01*
X100816240Y-106557753D01*
X100654957Y-106532208D01*
X100606287Y-106524500D01*
X100393713Y-106524500D01*
X100345042Y-106532208D01*
X100183760Y-106557753D01*
X99981585Y-106623444D01*
X99792179Y-106719951D01*
X99620213Y-106844890D01*
X99469894Y-106995209D01*
X99469890Y-106995214D01*
X99350318Y-107159793D01*
X99294989Y-107202459D01*
X99225375Y-107208438D01*
X99163580Y-107175833D01*
X99149682Y-107159793D01*
X99030109Y-106995214D01*
X99030105Y-106995209D01*
X98879786Y-106844890D01*
X98707820Y-106719951D01*
X98518414Y-106623444D01*
X98518413Y-106623443D01*
X98518412Y-106623443D01*
X98316243Y-106557754D01*
X98316241Y-106557753D01*
X98316240Y-106557753D01*
X98154957Y-106532208D01*
X98106287Y-106524500D01*
X97893713Y-106524500D01*
X97845042Y-106532208D01*
X97683760Y-106557753D01*
X97481585Y-106623444D01*
X97292179Y-106719951D01*
X97120213Y-106844890D01*
X96969894Y-106995209D01*
X96969890Y-106995214D01*
X96850318Y-107159793D01*
X96794989Y-107202459D01*
X96725375Y-107208438D01*
X96663580Y-107175833D01*
X96649682Y-107159793D01*
X96530109Y-106995214D01*
X96530105Y-106995209D01*
X96379786Y-106844890D01*
X96207820Y-106719951D01*
X96018414Y-106623444D01*
X96018413Y-106623443D01*
X96018412Y-106623443D01*
X95816243Y-106557754D01*
X95816241Y-106557753D01*
X95816240Y-106557753D01*
X95654957Y-106532208D01*
X95606287Y-106524500D01*
X95393713Y-106524500D01*
X95345042Y-106532208D01*
X95183760Y-106557753D01*
X94981585Y-106623444D01*
X94792179Y-106719951D01*
X94620213Y-106844890D01*
X94469894Y-106995209D01*
X94469890Y-106995214D01*
X94350318Y-107159793D01*
X94294989Y-107202459D01*
X94225375Y-107208438D01*
X94163580Y-107175833D01*
X94149682Y-107159793D01*
X94030109Y-106995214D01*
X94030105Y-106995209D01*
X93879786Y-106844890D01*
X93707820Y-106719951D01*
X93518414Y-106623444D01*
X93518413Y-106623443D01*
X93518412Y-106623443D01*
X93316243Y-106557754D01*
X93316241Y-106557753D01*
X93316240Y-106557753D01*
X93154957Y-106532208D01*
X93106287Y-106524500D01*
X92893713Y-106524500D01*
X92845042Y-106532208D01*
X92683760Y-106557753D01*
X92481585Y-106623444D01*
X92292179Y-106719951D01*
X92120215Y-106844889D01*
X91981035Y-106984069D01*
X91919712Y-107017553D01*
X91850020Y-107012569D01*
X91794087Y-106970697D01*
X91787815Y-106961484D01*
X91692315Y-106806654D01*
X91568345Y-106682684D01*
X91419124Y-106590643D01*
X91419119Y-106590641D01*
X91252697Y-106535494D01*
X91252690Y-106535493D01*
X91149986Y-106525000D01*
X90750000Y-106525000D01*
X90750000Y-107595854D01*
X90683343Y-107557370D01*
X90562535Y-107525000D01*
X90437465Y-107525000D01*
X90316657Y-107557370D01*
X90250000Y-107595854D01*
X90250000Y-106525000D01*
X89850028Y-106525000D01*
X89850012Y-106525001D01*
X89747302Y-106535494D01*
X89580880Y-106590641D01*
X89580875Y-106590643D01*
X89431654Y-106682684D01*
X89307684Y-106806654D01*
X89215643Y-106955875D01*
X89215641Y-106955880D01*
X89160494Y-107122302D01*
X89160493Y-107122309D01*
X89150000Y-107225013D01*
X83300500Y-107225013D01*
X83300500Y-103711654D01*
X87525001Y-103711654D01*
X87535319Y-103812652D01*
X87589546Y-103976300D01*
X87589551Y-103976311D01*
X87680052Y-104123034D01*
X87680055Y-104123038D01*
X87801961Y-104244944D01*
X87801965Y-104244947D01*
X87948688Y-104335448D01*
X87948699Y-104335453D01*
X88112347Y-104389680D01*
X88213352Y-104399999D01*
X88250000Y-104399999D01*
X88750000Y-104399999D01*
X88786640Y-104399999D01*
X88786654Y-104399998D01*
X88887652Y-104389680D01*
X89051300Y-104335453D01*
X89051311Y-104335448D01*
X89198034Y-104244947D01*
X89198038Y-104244944D01*
X89319944Y-104123038D01*
X89319947Y-104123034D01*
X89410448Y-103976311D01*
X89410453Y-103976300D01*
X89464680Y-103812652D01*
X89474999Y-103711654D01*
X90525001Y-103711654D01*
X90535319Y-103812652D01*
X90589546Y-103976300D01*
X90589551Y-103976311D01*
X90680052Y-104123034D01*
X90680055Y-104123038D01*
X90801961Y-104244944D01*
X90801965Y-104244947D01*
X90948688Y-104335448D01*
X90948699Y-104335453D01*
X91112347Y-104389680D01*
X91213352Y-104399999D01*
X91250000Y-104399999D01*
X91750000Y-104399999D01*
X91786640Y-104399999D01*
X91786654Y-104399998D01*
X91887652Y-104389680D01*
X92051300Y-104335453D01*
X92051311Y-104335448D01*
X92198034Y-104244947D01*
X92198038Y-104244944D01*
X92319944Y-104123038D01*
X92319947Y-104123034D01*
X92410448Y-103976311D01*
X92410453Y-103976300D01*
X92464680Y-103812652D01*
X92474999Y-103711654D01*
X92475000Y-103711641D01*
X92475000Y-103662500D01*
X91750000Y-103662500D01*
X91750000Y-104399999D01*
X91250000Y-104399999D01*
X91250000Y-103662500D01*
X90525001Y-103662500D01*
X90525001Y-103711654D01*
X89474999Y-103711654D01*
X89475000Y-103711641D01*
X89475000Y-103662500D01*
X88750000Y-103662500D01*
X88750000Y-104399999D01*
X88250000Y-104399999D01*
X88250000Y-103662500D01*
X87525001Y-103662500D01*
X87525001Y-103711654D01*
X83300500Y-103711654D01*
X83300500Y-96570000D01*
X84055138Y-96570000D01*
X84858012Y-96570000D01*
X84840795Y-96579940D01*
X84784940Y-96635795D01*
X84745444Y-96704204D01*
X84725000Y-96780504D01*
X84725000Y-96859496D01*
X84745444Y-96935796D01*
X84784940Y-97004205D01*
X84840795Y-97060060D01*
X84858012Y-97070000D01*
X84055138Y-97070000D01*
X84063430Y-97111690D01*
X84063430Y-97111692D01*
X84138807Y-97293671D01*
X84138814Y-97293684D01*
X84248248Y-97457462D01*
X84248251Y-97457466D01*
X84387533Y-97596748D01*
X84387537Y-97596751D01*
X84551315Y-97706185D01*
X84551328Y-97706192D01*
X84733306Y-97781569D01*
X84733318Y-97781572D01*
X84926504Y-97819999D01*
X84926508Y-97820000D01*
X85175000Y-97820000D01*
X85175000Y-97120000D01*
X85675000Y-97120000D01*
X85675000Y-97820000D01*
X85923492Y-97820000D01*
X85923495Y-97819999D01*
X86116681Y-97781572D01*
X86116689Y-97781570D01*
X86228047Y-97735445D01*
X86297517Y-97727976D01*
X86359996Y-97759251D01*
X86395648Y-97819340D01*
X86399500Y-97850006D01*
X86399500Y-101483231D01*
X86399499Y-101483249D01*
X86399499Y-101648955D01*
X86399498Y-101648955D01*
X86438029Y-101792755D01*
X86440423Y-101801686D01*
X86458894Y-101833678D01*
X86509408Y-101921171D01*
X86519479Y-101938615D01*
X86519481Y-101938618D01*
X86638349Y-102057486D01*
X86638355Y-102057491D01*
X87324577Y-102743713D01*
X87324579Y-102743716D01*
X87436383Y-102855520D01*
X87486672Y-102884554D01*
X87495803Y-102892539D01*
X87508310Y-102912196D01*
X87524390Y-102929060D01*
X87526715Y-102941122D01*
X87533310Y-102951488D01*
X87533203Y-102974787D01*
X87537614Y-102997667D01*
X87535430Y-103011829D01*
X87535319Y-103012346D01*
X87525000Y-103113345D01*
X87525000Y-103162500D01*
X89474999Y-103162500D01*
X89474999Y-103113360D01*
X89474998Y-103113340D01*
X89474872Y-103112108D01*
X89474921Y-103111840D01*
X89474838Y-103110198D01*
X89475230Y-103110178D01*
X89487638Y-103043415D01*
X89535516Y-102992528D01*
X89598229Y-102975500D01*
X90401770Y-102975500D01*
X90468809Y-102995185D01*
X90514564Y-103047989D01*
X90524808Y-103110178D01*
X90525161Y-103110196D01*
X90525078Y-103111818D01*
X90525127Y-103112114D01*
X90525000Y-103113353D01*
X90525000Y-103162500D01*
X92474999Y-103162500D01*
X92474999Y-103113360D01*
X92474998Y-103113345D01*
X92464680Y-103012347D01*
X92410453Y-102848699D01*
X92410448Y-102848688D01*
X92319947Y-102701965D01*
X92319944Y-102701961D01*
X92206017Y-102588034D01*
X92172532Y-102526711D01*
X92177516Y-102457019D01*
X92206013Y-102412676D01*
X92320340Y-102298350D01*
X92410908Y-102151516D01*
X92465174Y-101987753D01*
X92475500Y-101886677D01*
X92475499Y-101288324D01*
X92473600Y-101269738D01*
X92465174Y-101187247D01*
X92452997Y-101150499D01*
X92410908Y-101023484D01*
X92320340Y-100876650D01*
X92198350Y-100754660D01*
X92051516Y-100664092D01*
X91887753Y-100609826D01*
X91887751Y-100609825D01*
X91786678Y-100599500D01*
X91213330Y-100599500D01*
X91213312Y-100599501D01*
X91112247Y-100609825D01*
X90948484Y-100664092D01*
X90948481Y-100664093D01*
X90801648Y-100754661D01*
X90679661Y-100876648D01*
X90589093Y-101023481D01*
X90589092Y-101023484D01*
X90534826Y-101187247D01*
X90534826Y-101187248D01*
X90534825Y-101187248D01*
X90524500Y-101288315D01*
X90524500Y-101650500D01*
X90504815Y-101717539D01*
X90452011Y-101763294D01*
X90400500Y-101774500D01*
X89599500Y-101774500D01*
X89532461Y-101754815D01*
X89486706Y-101702011D01*
X89475500Y-101650500D01*
X89475499Y-101288330D01*
X89475498Y-101288312D01*
X89465174Y-101187247D01*
X89452997Y-101150499D01*
X89410908Y-101023484D01*
X89320340Y-100876650D01*
X89198350Y-100754660D01*
X89051516Y-100664092D01*
X88940495Y-100627303D01*
X88883051Y-100587530D01*
X88856228Y-100523014D01*
X88855500Y-100509597D01*
X88855500Y-97944000D01*
X88875185Y-97876961D01*
X88927989Y-97831206D01*
X88979500Y-97820000D01*
X89355000Y-97820000D01*
X89355000Y-97120000D01*
X89855000Y-97120000D01*
X89855000Y-97820000D01*
X90253492Y-97820000D01*
X90253495Y-97819999D01*
X90446681Y-97781572D01*
X90446693Y-97781569D01*
X90628671Y-97706192D01*
X90628684Y-97706185D01*
X90792462Y-97596751D01*
X90792466Y-97596748D01*
X90931748Y-97457466D01*
X90931751Y-97457462D01*
X91041185Y-97293684D01*
X91041192Y-97293671D01*
X91116569Y-97111692D01*
X91116569Y-97111690D01*
X91124862Y-97070000D01*
X90321988Y-97070000D01*
X90339205Y-97060060D01*
X90395060Y-97004205D01*
X90434556Y-96935796D01*
X90455000Y-96859496D01*
X90455000Y-96780504D01*
X90434556Y-96704204D01*
X90395060Y-96635795D01*
X90339205Y-96579940D01*
X90321988Y-96570000D01*
X90430000Y-96570000D01*
X91124862Y-96570000D01*
X91116569Y-96528309D01*
X91116569Y-96528307D01*
X91069008Y-96413483D01*
X91061539Y-96344014D01*
X91092814Y-96281535D01*
X91095889Y-96278348D01*
X91122683Y-96251553D01*
X91122686Y-96251550D01*
X91206281Y-96110198D01*
X91252100Y-95952486D01*
X91252295Y-95950001D01*
X91252295Y-95950000D01*
X90430000Y-95950000D01*
X90430000Y-96570000D01*
X90321988Y-96570000D01*
X90270796Y-96540444D01*
X90194496Y-96520000D01*
X89930000Y-96520000D01*
X89930000Y-95950000D01*
X89658242Y-95950000D01*
X89642875Y-95945487D01*
X89626866Y-95945965D01*
X89610039Y-95935846D01*
X89591203Y-95930315D01*
X89580715Y-95918211D01*
X89566989Y-95909957D01*
X89558304Y-95892347D01*
X89545448Y-95877511D01*
X89543168Y-95861658D01*
X89536084Y-95847294D01*
X89538298Y-95827786D01*
X89535504Y-95808353D01*
X89542248Y-95792982D01*
X89543964Y-95777870D01*
X89558111Y-95756831D01*
X89561018Y-95750208D01*
X89560543Y-95749844D01*
X89562027Y-95747908D01*
X89562152Y-95747624D01*
X89564882Y-95744277D01*
X89567984Y-95742149D01*
X89570561Y-95738319D01*
X89571262Y-95737618D01*
X89572617Y-95738973D01*
X89592221Y-95725533D01*
X89618987Y-95705977D01*
X89621176Y-95705683D01*
X89622510Y-95704769D01*
X89629551Y-95704559D01*
X89670704Y-95699036D01*
X89689306Y-95700500D01*
X89689314Y-95700500D01*
X90670686Y-95700500D01*
X90670694Y-95700500D01*
X90707569Y-95697598D01*
X90707571Y-95697597D01*
X90707573Y-95697597D01*
X90852733Y-95655424D01*
X90887328Y-95650500D01*
X91925500Y-95650500D01*
X91992539Y-95670185D01*
X92038294Y-95722989D01*
X92049500Y-95774500D01*
X92049500Y-97631108D01*
X92049500Y-99823918D01*
X92049500Y-99823920D01*
X92049499Y-99823920D01*
X92078340Y-99968907D01*
X92078343Y-99968917D01*
X92134913Y-100105489D01*
X92134914Y-100105491D01*
X92134916Y-100105495D01*
X92145184Y-100120862D01*
X92147321Y-100124060D01*
X92147320Y-100124060D01*
X92217046Y-100228414D01*
X92217052Y-100228421D01*
X93601184Y-101612552D01*
X93633837Y-101670305D01*
X93648357Y-101728689D01*
X93648360Y-101728696D01*
X93732967Y-101899292D01*
X93732969Y-101899295D01*
X93852277Y-102047721D01*
X93852278Y-102047722D01*
X94000704Y-102167030D01*
X94000707Y-102167032D01*
X94046089Y-102189539D01*
X94171307Y-102251641D01*
X94229692Y-102266160D01*
X94287446Y-102298814D01*
X97768048Y-105779415D01*
X97768049Y-105779416D01*
X97824539Y-105835906D01*
X97872585Y-105883952D01*
X97995498Y-105966080D01*
X97995511Y-105966087D01*
X98132082Y-106022656D01*
X98132087Y-106022658D01*
X98132091Y-106022658D01*
X98132092Y-106022659D01*
X98277079Y-106051500D01*
X98277082Y-106051500D01*
X108438770Y-106051500D01*
X108505809Y-106071185D01*
X108526451Y-106087819D01*
X108751951Y-106313319D01*
X108785436Y-106374642D01*
X108780452Y-106444334D01*
X108738580Y-106500267D01*
X108673116Y-106524684D01*
X108664270Y-106525000D01*
X108350029Y-106525000D01*
X108350012Y-106525001D01*
X108247302Y-106535494D01*
X108080880Y-106590641D01*
X108080875Y-106590643D01*
X107931654Y-106682684D01*
X107807684Y-106806654D01*
X107715643Y-106955875D01*
X107715641Y-106955880D01*
X107660494Y-107122302D01*
X107660493Y-107122309D01*
X107650000Y-107225013D01*
X107650000Y-107750000D01*
X108595854Y-107750000D01*
X108557370Y-107816657D01*
X108525000Y-107937465D01*
X108525000Y-108062535D01*
X108557370Y-108183343D01*
X108595854Y-108250000D01*
X107650001Y-108250000D01*
X107650001Y-108774986D01*
X107660494Y-108877697D01*
X107715641Y-109044119D01*
X107715643Y-109044124D01*
X107807684Y-109193345D01*
X107931654Y-109317315D01*
X108080875Y-109409356D01*
X108080880Y-109409358D01*
X108247302Y-109464505D01*
X108247309Y-109464506D01*
X108350019Y-109474999D01*
X108749999Y-109474999D01*
X108750000Y-109474998D01*
X108750000Y-108404145D01*
X108816657Y-108442630D01*
X108937465Y-108475000D01*
X109062535Y-108475000D01*
X109183343Y-108442630D01*
X109250000Y-108404145D01*
X109250000Y-109474999D01*
X109649972Y-109474999D01*
X109649986Y-109474998D01*
X109752697Y-109464505D01*
X109919119Y-109409358D01*
X109919124Y-109409356D01*
X110068345Y-109317315D01*
X110192317Y-109193343D01*
X110287815Y-109038516D01*
X110339763Y-108991791D01*
X110408725Y-108980568D01*
X110472808Y-109008412D01*
X110481035Y-109015931D01*
X110620213Y-109155109D01*
X110792179Y-109280048D01*
X110792181Y-109280049D01*
X110792184Y-109280051D01*
X110981588Y-109376557D01*
X111183757Y-109442246D01*
X111393713Y-109475500D01*
X111393714Y-109475500D01*
X111606286Y-109475500D01*
X111606287Y-109475500D01*
X111816243Y-109442246D01*
X112018412Y-109376557D01*
X112207816Y-109280051D01*
X112247038Y-109251555D01*
X112379786Y-109155109D01*
X112379788Y-109155106D01*
X112379792Y-109155104D01*
X112530104Y-109004792D01*
X112649683Y-108840204D01*
X112705011Y-108797540D01*
X112774624Y-108791561D01*
X112836420Y-108824166D01*
X112850313Y-108840199D01*
X112879079Y-108879792D01*
X112969896Y-109004792D01*
X113120213Y-109155109D01*
X113292179Y-109280048D01*
X113292181Y-109280049D01*
X113292184Y-109280051D01*
X113481588Y-109376557D01*
X113683757Y-109442246D01*
X113893713Y-109475500D01*
X113893714Y-109475500D01*
X114106286Y-109475500D01*
X114106287Y-109475500D01*
X114316243Y-109442246D01*
X114518412Y-109376557D01*
X114707816Y-109280051D01*
X114747038Y-109251555D01*
X114879786Y-109155109D01*
X114879788Y-109155106D01*
X114879792Y-109155104D01*
X115030104Y-109004792D01*
X115149683Y-108840204D01*
X115205011Y-108797540D01*
X115274624Y-108791561D01*
X115336420Y-108824166D01*
X115350313Y-108840199D01*
X115379079Y-108879792D01*
X115469896Y-109004792D01*
X115620213Y-109155109D01*
X115792179Y-109280048D01*
X115792181Y-109280049D01*
X115792184Y-109280051D01*
X115981588Y-109376557D01*
X116183757Y-109442246D01*
X116393713Y-109475500D01*
X116393714Y-109475500D01*
X116606286Y-109475500D01*
X116606287Y-109475500D01*
X116816243Y-109442246D01*
X117018412Y-109376557D01*
X117207816Y-109280051D01*
X117247038Y-109251555D01*
X117379786Y-109155109D01*
X117379788Y-109155106D01*
X117379792Y-109155104D01*
X117530104Y-109004792D01*
X117649683Y-108840204D01*
X117705011Y-108797540D01*
X117774624Y-108791561D01*
X117836420Y-108824166D01*
X117850313Y-108840199D01*
X117879079Y-108879792D01*
X117969896Y-109004792D01*
X118120213Y-109155109D01*
X118292179Y-109280048D01*
X118292181Y-109280049D01*
X118292184Y-109280051D01*
X118481588Y-109376557D01*
X118683757Y-109442246D01*
X118893713Y-109475500D01*
X118893714Y-109475500D01*
X119106286Y-109475500D01*
X119106287Y-109475500D01*
X119316243Y-109442246D01*
X119518412Y-109376557D01*
X119707816Y-109280051D01*
X119747038Y-109251555D01*
X119879786Y-109155109D01*
X119879788Y-109155106D01*
X119879792Y-109155104D01*
X120030104Y-109004792D01*
X120030106Y-109004788D01*
X120030109Y-109004786D01*
X120155048Y-108832820D01*
X120155047Y-108832820D01*
X120155051Y-108832816D01*
X120251557Y-108643412D01*
X120317246Y-108441243D01*
X120350500Y-108231287D01*
X120350500Y-107893713D01*
X125649500Y-107893713D01*
X125649500Y-108106287D01*
X125659534Y-108169644D01*
X125682753Y-108316239D01*
X125748444Y-108518414D01*
X125844951Y-108707820D01*
X125969890Y-108879786D01*
X126120213Y-109030109D01*
X126292179Y-109155048D01*
X126292181Y-109155049D01*
X126292184Y-109155051D01*
X126481588Y-109251557D01*
X126683757Y-109317246D01*
X126893713Y-109350500D01*
X126893714Y-109350500D01*
X127106286Y-109350500D01*
X127106287Y-109350500D01*
X127316243Y-109317246D01*
X127518412Y-109251557D01*
X127707816Y-109155051D01*
X127729789Y-109139086D01*
X127879786Y-109030109D01*
X127879788Y-109030106D01*
X127879792Y-109030104D01*
X128030104Y-108879792D01*
X128030106Y-108879788D01*
X128030109Y-108879786D01*
X128155048Y-108707820D01*
X128155047Y-108707820D01*
X128155051Y-108707816D01*
X128251557Y-108518412D01*
X128317246Y-108316243D01*
X128350500Y-108106287D01*
X128350500Y-107893713D01*
X128317246Y-107683757D01*
X128251557Y-107481588D01*
X128155051Y-107292184D01*
X128155049Y-107292181D01*
X128155048Y-107292179D01*
X128030109Y-107120213D01*
X127879786Y-106969890D01*
X127707820Y-106844951D01*
X127518414Y-106748444D01*
X127518413Y-106748443D01*
X127518412Y-106748443D01*
X127316243Y-106682754D01*
X127316241Y-106682753D01*
X127316240Y-106682753D01*
X127154957Y-106657208D01*
X127106287Y-106649500D01*
X126893713Y-106649500D01*
X126845042Y-106657208D01*
X126683760Y-106682753D01*
X126481585Y-106748444D01*
X126292179Y-106844951D01*
X126120213Y-106969890D01*
X125969890Y-107120213D01*
X125844951Y-107292179D01*
X125748444Y-107481585D01*
X125682753Y-107683760D01*
X125660781Y-107822489D01*
X125649500Y-107893713D01*
X120350500Y-107893713D01*
X120350500Y-107768713D01*
X120317246Y-107558757D01*
X120251557Y-107356588D01*
X120155051Y-107167184D01*
X120155049Y-107167181D01*
X120155048Y-107167179D01*
X120030109Y-106995213D01*
X119879786Y-106844890D01*
X119707820Y-106719951D01*
X119518414Y-106623444D01*
X119518413Y-106623443D01*
X119518412Y-106623443D01*
X119316243Y-106557754D01*
X119316241Y-106557753D01*
X119316240Y-106557753D01*
X119154957Y-106532208D01*
X119106287Y-106524500D01*
X118893713Y-106524500D01*
X118845042Y-106532208D01*
X118683760Y-106557753D01*
X118481585Y-106623444D01*
X118292179Y-106719951D01*
X118120213Y-106844890D01*
X117969894Y-106995209D01*
X117969890Y-106995214D01*
X117850318Y-107159793D01*
X117794989Y-107202459D01*
X117725375Y-107208438D01*
X117663580Y-107175833D01*
X117649682Y-107159793D01*
X117530109Y-106995214D01*
X117530105Y-106995209D01*
X117379786Y-106844890D01*
X117207820Y-106719951D01*
X117018414Y-106623444D01*
X117018413Y-106623443D01*
X117018412Y-106623443D01*
X116816243Y-106557754D01*
X116816241Y-106557753D01*
X116816239Y-106557753D01*
X116609444Y-106525000D01*
X116606287Y-106524500D01*
X116603597Y-106524074D01*
X116540462Y-106494145D01*
X116503531Y-106434833D01*
X116504529Y-106364971D01*
X116535314Y-106313920D01*
X116883148Y-105966087D01*
X117311416Y-105537819D01*
X117372739Y-105504334D01*
X117399097Y-105501500D01*
X119232331Y-105501500D01*
X119232347Y-105501501D01*
X119239943Y-105501501D01*
X119398054Y-105501501D01*
X119398057Y-105501501D01*
X119550785Y-105460577D01*
X119600904Y-105431639D01*
X119687716Y-105381520D01*
X119799520Y-105269716D01*
X119799520Y-105269714D01*
X119809728Y-105259507D01*
X119809729Y-105259504D01*
X123072417Y-101996818D01*
X123133740Y-101963333D01*
X123137390Y-101962596D01*
X123148647Y-101960499D01*
X123207872Y-101960499D01*
X123267483Y-101954091D01*
X123351732Y-101922668D01*
X123362292Y-101920701D01*
X123386792Y-101923194D01*
X123411358Y-101921438D01*
X123428327Y-101926420D01*
X123461032Y-101938618D01*
X123501192Y-101953597D01*
X123502517Y-101954091D01*
X123562127Y-101960500D01*
X124057872Y-101960499D01*
X124117483Y-101954091D01*
X124191667Y-101926421D01*
X124261358Y-101921438D01*
X124278327Y-101926420D01*
X124311032Y-101938618D01*
X124351192Y-101953597D01*
X124352517Y-101954091D01*
X124412127Y-101960500D01*
X124907872Y-101960499D01*
X124967483Y-101954091D01*
X125041667Y-101926421D01*
X125111358Y-101921438D01*
X125128327Y-101926420D01*
X125161032Y-101938618D01*
X125201192Y-101953597D01*
X125202517Y-101954091D01*
X125262127Y-101960500D01*
X125757872Y-101960499D01*
X125817483Y-101954091D01*
X125892380Y-101926155D01*
X125962071Y-101921171D01*
X125979049Y-101926156D01*
X126052621Y-101953597D01*
X126112155Y-101959999D01*
X126112172Y-101960000D01*
X126160000Y-101960000D01*
X126560000Y-101960000D01*
X126607828Y-101960000D01*
X126607844Y-101959999D01*
X126667371Y-101953598D01*
X126741666Y-101925888D01*
X126811358Y-101920904D01*
X126828334Y-101925888D01*
X126902628Y-101953598D01*
X126902627Y-101953598D01*
X126962155Y-101959999D01*
X126962172Y-101960000D01*
X127010000Y-101960000D01*
X127010000Y-101260000D01*
X126560000Y-101260000D01*
X126560000Y-101960000D01*
X126160000Y-101960000D01*
X126160000Y-101708068D01*
X126167817Y-101664737D01*
X126204091Y-101567483D01*
X126210500Y-101507873D01*
X126210499Y-100860000D01*
X126560000Y-100860000D01*
X127010000Y-100860000D01*
X127010000Y-100160000D01*
X126962155Y-100160000D01*
X126902627Y-100166401D01*
X126902617Y-100166403D01*
X126828332Y-100194110D01*
X126758641Y-100199094D01*
X126741668Y-100194110D01*
X126667382Y-100166403D01*
X126667372Y-100166401D01*
X126607844Y-100160000D01*
X126560000Y-100160000D01*
X126560000Y-100860000D01*
X126210499Y-100860000D01*
X126210499Y-100612128D01*
X126204478Y-100556113D01*
X126204091Y-100552516D01*
X126167818Y-100455263D01*
X126160000Y-100411930D01*
X126160000Y-100160000D01*
X126112155Y-100160000D01*
X126052627Y-100166401D01*
X126052623Y-100166402D01*
X125979046Y-100193844D01*
X125909354Y-100198827D01*
X125892382Y-100193843D01*
X125817488Y-100165910D01*
X125817484Y-100165909D01*
X125817483Y-100165909D01*
X125757873Y-100159500D01*
X125757863Y-100159500D01*
X125262129Y-100159500D01*
X125262123Y-100159501D01*
X125202516Y-100165908D01*
X125128332Y-100193577D01*
X125058640Y-100198561D01*
X125041668Y-100193577D01*
X124967488Y-100165910D01*
X124967484Y-100165909D01*
X124967483Y-100165909D01*
X124907873Y-100159500D01*
X124907863Y-100159500D01*
X124412129Y-100159500D01*
X124412123Y-100159501D01*
X124352516Y-100165908D01*
X124278332Y-100193577D01*
X124208640Y-100198561D01*
X124191668Y-100193577D01*
X124117488Y-100165910D01*
X124117484Y-100165909D01*
X124117483Y-100165909D01*
X124057873Y-100159500D01*
X124057863Y-100159500D01*
X123562129Y-100159500D01*
X123562123Y-100159501D01*
X123502516Y-100165908D01*
X123428332Y-100193577D01*
X123358640Y-100198561D01*
X123341668Y-100193577D01*
X123267488Y-100165910D01*
X123267484Y-100165909D01*
X123267483Y-100165909D01*
X123207873Y-100159500D01*
X123207863Y-100159500D01*
X122712129Y-100159500D01*
X122712123Y-100159501D01*
X122652516Y-100165908D01*
X122578332Y-100193577D01*
X122512292Y-100199298D01*
X122501730Y-100197330D01*
X122417483Y-100165909D01*
X122357873Y-100159500D01*
X122298646Y-100159500D01*
X122287389Y-100157403D01*
X122266034Y-100146561D01*
X122243058Y-100139815D01*
X122226563Y-100126522D01*
X122225088Y-100125774D01*
X122224600Y-100124941D01*
X122222416Y-100123181D01*
X121737590Y-99638355D01*
X121737588Y-99638352D01*
X121618717Y-99519481D01*
X121618709Y-99519475D01*
X121535287Y-99471312D01*
X121535283Y-99471310D01*
X121528654Y-99467483D01*
X121481785Y-99440423D01*
X121360200Y-99407844D01*
X129060000Y-99407844D01*
X129066401Y-99467372D01*
X129066403Y-99467382D01*
X129094110Y-99541668D01*
X129099094Y-99611359D01*
X129094110Y-99628332D01*
X129066403Y-99702617D01*
X129066401Y-99702627D01*
X129060000Y-99762155D01*
X129060000Y-99810000D01*
X129760000Y-99810000D01*
X129760000Y-99360000D01*
X129060000Y-99360000D01*
X129060000Y-99407844D01*
X121360200Y-99407844D01*
X121329057Y-99399499D01*
X121170943Y-99399499D01*
X121163347Y-99399499D01*
X121163331Y-99399500D01*
X118079766Y-99399500D01*
X118012727Y-99379815D01*
X118010875Y-99378602D01*
X117879185Y-99290609D01*
X117879172Y-99290602D01*
X117733501Y-99230264D01*
X117733489Y-99230261D01*
X117578845Y-99199500D01*
X117578842Y-99199500D01*
X117421158Y-99199500D01*
X117421155Y-99199500D01*
X117266510Y-99230261D01*
X117266498Y-99230264D01*
X117120827Y-99290602D01*
X117120809Y-99290612D01*
X117053389Y-99335661D01*
X116986712Y-99356539D01*
X116919332Y-99338054D01*
X116872642Y-99286075D01*
X116860499Y-99232561D01*
X116860499Y-98912128D01*
X116854091Y-98852517D01*
X116826421Y-98778332D01*
X116821438Y-98708642D01*
X116826420Y-98691672D01*
X116854091Y-98617483D01*
X116860500Y-98557873D01*
X116860500Y-98557844D01*
X129060000Y-98557844D01*
X129066401Y-98617372D01*
X129066403Y-98617382D01*
X129094110Y-98691668D01*
X129099094Y-98761359D01*
X129094110Y-98778332D01*
X129066403Y-98852617D01*
X129066401Y-98852627D01*
X129060000Y-98912155D01*
X129060000Y-98960000D01*
X129760000Y-98960000D01*
X129760000Y-98510000D01*
X129060000Y-98510000D01*
X129060000Y-98557844D01*
X116860500Y-98557844D01*
X116860499Y-98298877D01*
X116860499Y-98062129D01*
X116860498Y-98062123D01*
X116854091Y-98002518D01*
X116854091Y-98002517D01*
X116826421Y-97928332D01*
X116821438Y-97858642D01*
X116826420Y-97841672D01*
X116854091Y-97767483D01*
X116860500Y-97707873D01*
X116860500Y-97707844D01*
X129060000Y-97707844D01*
X129066401Y-97767372D01*
X129066403Y-97767382D01*
X129094110Y-97841668D01*
X129099094Y-97911359D01*
X129094110Y-97928332D01*
X129066403Y-98002617D01*
X129066401Y-98002627D01*
X129060000Y-98062155D01*
X129060000Y-98110000D01*
X129760000Y-98110000D01*
X129760000Y-97660000D01*
X129060000Y-97660000D01*
X129060000Y-97707844D01*
X116860500Y-97707844D01*
X116860499Y-97457466D01*
X116860499Y-97212129D01*
X116860498Y-97212123D01*
X116857860Y-97187584D01*
X116854091Y-97152517D01*
X116826421Y-97078332D01*
X116821438Y-97008642D01*
X116826420Y-96991672D01*
X116854091Y-96917483D01*
X116860500Y-96857873D01*
X116860500Y-96857844D01*
X129060000Y-96857844D01*
X129066401Y-96917372D01*
X129066403Y-96917382D01*
X129094110Y-96991668D01*
X129099094Y-97061359D01*
X129094110Y-97078332D01*
X129066403Y-97152617D01*
X129066401Y-97152627D01*
X129060000Y-97212155D01*
X129060000Y-97260000D01*
X129760000Y-97260000D01*
X129760000Y-96810000D01*
X129060000Y-96810000D01*
X129060000Y-96857844D01*
X116860500Y-96857844D01*
X116860499Y-96362128D01*
X116860038Y-96357844D01*
X120210000Y-96357844D01*
X120216401Y-96417372D01*
X120216403Y-96417379D01*
X120266645Y-96552086D01*
X120266649Y-96552093D01*
X120352809Y-96667187D01*
X120352812Y-96667190D01*
X120467906Y-96753350D01*
X120467913Y-96753354D01*
X120602620Y-96803596D01*
X120602627Y-96803598D01*
X120662155Y-96809999D01*
X120662172Y-96810000D01*
X121060000Y-96810000D01*
X121560000Y-96810000D01*
X121957828Y-96810000D01*
X121957844Y-96809999D01*
X122017371Y-96803598D01*
X122091666Y-96775888D01*
X122161358Y-96770904D01*
X122178334Y-96775888D01*
X122252628Y-96803598D01*
X122252627Y-96803598D01*
X122312155Y-96809999D01*
X122312172Y-96810000D01*
X122710000Y-96810000D01*
X123210000Y-96810000D01*
X123607828Y-96810000D01*
X123607844Y-96809999D01*
X123667371Y-96803598D01*
X123741666Y-96775888D01*
X123811358Y-96770904D01*
X123828334Y-96775888D01*
X123902628Y-96803598D01*
X123902627Y-96803598D01*
X123962155Y-96809999D01*
X123962172Y-96810000D01*
X124360000Y-96810000D01*
X124860000Y-96810000D01*
X125257828Y-96810000D01*
X125257844Y-96809999D01*
X125317372Y-96803598D01*
X125317379Y-96803596D01*
X125452086Y-96753354D01*
X125452093Y-96753350D01*
X125567187Y-96667190D01*
X125567190Y-96667187D01*
X125653350Y-96552093D01*
X125653354Y-96552086D01*
X125703596Y-96417379D01*
X125703598Y-96417372D01*
X125709999Y-96357844D01*
X125710000Y-96357827D01*
X125710000Y-96007844D01*
X129060000Y-96007844D01*
X129066401Y-96067372D01*
X129066403Y-96067382D01*
X129094110Y-96141668D01*
X129099094Y-96211359D01*
X129094110Y-96228332D01*
X129066403Y-96302617D01*
X129066401Y-96302627D01*
X129060000Y-96362155D01*
X129060000Y-96410000D01*
X129760000Y-96410000D01*
X129760000Y-95960000D01*
X129060000Y-95960000D01*
X129060000Y-96007844D01*
X125710000Y-96007844D01*
X125710000Y-95960000D01*
X124860000Y-95960000D01*
X124860000Y-96810000D01*
X124360000Y-96810000D01*
X124360000Y-95960000D01*
X123210000Y-95960000D01*
X123210000Y-96810000D01*
X122710000Y-96810000D01*
X122710000Y-95960000D01*
X121560000Y-95960000D01*
X121560000Y-96810000D01*
X121060000Y-96810000D01*
X121060000Y-95960000D01*
X120210000Y-95960000D01*
X120210000Y-96357844D01*
X116860038Y-96357844D01*
X116854091Y-96302517D01*
X116826421Y-96228332D01*
X116821438Y-96158642D01*
X116826420Y-96141672D01*
X116854091Y-96067483D01*
X116860500Y-96007873D01*
X116860499Y-95756831D01*
X116860499Y-95512129D01*
X116860498Y-95512123D01*
X116860301Y-95510292D01*
X116854091Y-95452517D01*
X116826421Y-95378332D01*
X116821438Y-95308642D01*
X116826420Y-95291672D01*
X116854091Y-95217483D01*
X116860500Y-95157873D01*
X116860499Y-94707844D01*
X120210000Y-94707844D01*
X120216401Y-94767372D01*
X120216403Y-94767382D01*
X120244110Y-94841668D01*
X120249094Y-94911359D01*
X120244110Y-94928332D01*
X120216403Y-95002617D01*
X120216401Y-95002627D01*
X120210000Y-95062155D01*
X120210000Y-95460000D01*
X121060000Y-95460000D01*
X121560000Y-95460000D01*
X122710000Y-95460000D01*
X123210000Y-95460000D01*
X124360000Y-95460000D01*
X124860000Y-95460000D01*
X125710000Y-95460000D01*
X125710000Y-95157844D01*
X129060000Y-95157844D01*
X129066401Y-95217372D01*
X129066403Y-95217382D01*
X129094110Y-95291668D01*
X129099094Y-95361359D01*
X129094110Y-95378332D01*
X129066403Y-95452617D01*
X129066401Y-95452627D01*
X129060000Y-95512155D01*
X129060000Y-95560000D01*
X129760000Y-95560000D01*
X129760000Y-95110000D01*
X129060000Y-95110000D01*
X129060000Y-95157844D01*
X125710000Y-95157844D01*
X125710000Y-95073439D01*
X125671533Y-94914100D01*
X125672885Y-94886351D01*
X125670904Y-94858642D01*
X125674899Y-94845031D01*
X125674935Y-94844313D01*
X125675233Y-94843894D01*
X125675888Y-94841666D01*
X125703598Y-94767371D01*
X125709999Y-94707844D01*
X125710000Y-94707827D01*
X125710000Y-94310000D01*
X124860000Y-94310000D01*
X124860000Y-95460000D01*
X124360000Y-95460000D01*
X124360000Y-94310000D01*
X123210000Y-94310000D01*
X123210000Y-95460000D01*
X122710000Y-95460000D01*
X122710000Y-94310000D01*
X121560000Y-94310000D01*
X121560000Y-95460000D01*
X121060000Y-95460000D01*
X121060000Y-94310000D01*
X120210000Y-94310000D01*
X120210000Y-94707844D01*
X116860499Y-94707844D01*
X116860499Y-94662128D01*
X116854091Y-94602517D01*
X116826421Y-94528332D01*
X116820675Y-94462433D01*
X116822643Y-94451799D01*
X116854091Y-94367483D01*
X116860500Y-94307873D01*
X116860500Y-94307844D01*
X129060000Y-94307844D01*
X129066401Y-94367372D01*
X129066403Y-94367382D01*
X129094110Y-94441668D01*
X129099094Y-94511359D01*
X129094110Y-94528332D01*
X129066403Y-94602617D01*
X129066401Y-94602627D01*
X129060000Y-94662155D01*
X129060000Y-94710000D01*
X129760000Y-94710000D01*
X129760000Y-94260000D01*
X129060000Y-94260000D01*
X129060000Y-94307844D01*
X116860500Y-94307844D01*
X116860499Y-93812128D01*
X116854091Y-93752517D01*
X116826421Y-93678332D01*
X116821438Y-93608642D01*
X116826420Y-93591672D01*
X116854091Y-93517483D01*
X116860500Y-93457873D01*
X116860499Y-93057844D01*
X120210000Y-93057844D01*
X120216401Y-93117372D01*
X120216403Y-93117382D01*
X120244110Y-93191668D01*
X120249094Y-93261359D01*
X120244110Y-93278332D01*
X120216403Y-93352617D01*
X120216401Y-93352627D01*
X120210000Y-93412155D01*
X120210000Y-93810000D01*
X121060000Y-93810000D01*
X121560000Y-93810000D01*
X122710000Y-93810000D01*
X123210000Y-93810000D01*
X124360000Y-93810000D01*
X124860000Y-93810000D01*
X125710000Y-93810000D01*
X125710000Y-93457844D01*
X129060000Y-93457844D01*
X129066401Y-93517372D01*
X129066403Y-93517382D01*
X129094110Y-93591668D01*
X129099094Y-93661359D01*
X129094110Y-93678332D01*
X129066403Y-93752617D01*
X129066401Y-93752627D01*
X129060000Y-93812155D01*
X129060000Y-93860000D01*
X129760000Y-93860000D01*
X129760000Y-93410000D01*
X129060000Y-93410000D01*
X129060000Y-93457844D01*
X125710000Y-93457844D01*
X125710000Y-93412172D01*
X125709999Y-93412157D01*
X125706885Y-93383200D01*
X125673246Y-93270453D01*
X125673111Y-93239507D01*
X125670904Y-93208642D01*
X125672946Y-93201684D01*
X125672942Y-93200584D01*
X125673550Y-93199628D01*
X125675888Y-93191666D01*
X125703598Y-93117371D01*
X125709999Y-93057844D01*
X125710000Y-93057827D01*
X125710000Y-92660000D01*
X124860000Y-92660000D01*
X124860000Y-93810000D01*
X124360000Y-93810000D01*
X124360000Y-92660000D01*
X123210000Y-92660000D01*
X123210000Y-93810000D01*
X122710000Y-93810000D01*
X122710000Y-92660000D01*
X121560000Y-92660000D01*
X121560000Y-93810000D01*
X121060000Y-93810000D01*
X121060000Y-92660000D01*
X120210000Y-92660000D01*
X120210000Y-93057844D01*
X116860499Y-93057844D01*
X116860499Y-92962128D01*
X116854091Y-92902517D01*
X116826421Y-92828332D01*
X116825067Y-92809397D01*
X116818774Y-92791490D01*
X116822193Y-92769210D01*
X116821438Y-92758642D01*
X116821961Y-92756341D01*
X116823736Y-92748868D01*
X116854091Y-92667483D01*
X116860500Y-92607873D01*
X116860500Y-92607844D01*
X129060000Y-92607844D01*
X129066401Y-92667372D01*
X129066403Y-92667382D01*
X129094110Y-92741668D01*
X129099094Y-92811359D01*
X129094110Y-92828332D01*
X129066403Y-92902617D01*
X129066401Y-92902627D01*
X129060000Y-92962155D01*
X129060000Y-93010000D01*
X129760000Y-93010000D01*
X129760000Y-92560000D01*
X129060000Y-92560000D01*
X129060000Y-92607844D01*
X116860500Y-92607844D01*
X116860499Y-92346182D01*
X116860499Y-92112129D01*
X116860498Y-92112123D01*
X116860320Y-92110469D01*
X116854091Y-92052517D01*
X116826421Y-91978332D01*
X116825066Y-91959382D01*
X116818772Y-91941457D01*
X116822192Y-91919193D01*
X116821438Y-91908642D01*
X116821969Y-91906308D01*
X116823742Y-91898852D01*
X116854091Y-91817483D01*
X116860040Y-91762155D01*
X120210000Y-91762155D01*
X120210000Y-92160000D01*
X121060000Y-92160000D01*
X121560000Y-92160000D01*
X122710000Y-92160000D01*
X123210000Y-92160000D01*
X124360000Y-92160000D01*
X124860000Y-92160000D01*
X125709363Y-92160000D01*
X125709362Y-92159999D01*
X125699451Y-92081075D01*
X125644429Y-91948242D01*
X125592500Y-91881395D01*
X125592495Y-91881389D01*
X125468950Y-91757844D01*
X129060000Y-91757844D01*
X129066401Y-91817372D01*
X129066403Y-91817382D01*
X129094110Y-91891668D01*
X129099094Y-91961359D01*
X129094110Y-91978332D01*
X129066403Y-92052617D01*
X129066401Y-92052627D01*
X129060000Y-92112155D01*
X129060000Y-92160000D01*
X129760000Y-92160000D01*
X129760000Y-91710000D01*
X129060000Y-91710000D01*
X129060000Y-91757844D01*
X125468950Y-91757844D01*
X125457425Y-91746319D01*
X125138612Y-91427505D01*
X125138599Y-91427494D01*
X125071758Y-91375570D01*
X124938926Y-91320549D01*
X124938922Y-91320548D01*
X124860000Y-91310634D01*
X124860000Y-92160000D01*
X124360000Y-92160000D01*
X124360000Y-91310000D01*
X123962155Y-91310000D01*
X123902627Y-91316401D01*
X123902617Y-91316403D01*
X123828332Y-91344110D01*
X123758641Y-91349094D01*
X123741668Y-91344110D01*
X123667382Y-91316403D01*
X123667372Y-91316401D01*
X123607844Y-91310000D01*
X123210000Y-91310000D01*
X123210000Y-92160000D01*
X122710000Y-92160000D01*
X122710000Y-91310000D01*
X122312155Y-91310000D01*
X122252627Y-91316401D01*
X122252617Y-91316403D01*
X122178332Y-91344110D01*
X122108641Y-91349094D01*
X122091668Y-91344110D01*
X122017382Y-91316403D01*
X122017372Y-91316401D01*
X121957844Y-91310000D01*
X121560000Y-91310000D01*
X121560000Y-92160000D01*
X121060000Y-92160000D01*
X121060000Y-91310000D01*
X120662155Y-91310000D01*
X120602627Y-91316401D01*
X120602620Y-91316403D01*
X120467913Y-91366645D01*
X120467906Y-91366649D01*
X120352812Y-91452809D01*
X120352809Y-91452812D01*
X120266649Y-91567906D01*
X120266645Y-91567913D01*
X120216403Y-91702620D01*
X120216401Y-91702627D01*
X120210000Y-91762155D01*
X116860040Y-91762155D01*
X116860500Y-91757873D01*
X116860499Y-91262128D01*
X116854091Y-91202517D01*
X116826421Y-91128332D01*
X116821438Y-91058642D01*
X116826420Y-91041672D01*
X116854091Y-90967483D01*
X116860500Y-90907873D01*
X116860500Y-90907844D01*
X129060000Y-90907844D01*
X129066401Y-90967372D01*
X129066403Y-90967382D01*
X129094110Y-91041668D01*
X129099094Y-91111359D01*
X129094110Y-91128332D01*
X129066403Y-91202617D01*
X129066401Y-91202627D01*
X129060000Y-91262155D01*
X129060000Y-91310000D01*
X129760000Y-91310000D01*
X129760000Y-90860000D01*
X129060000Y-90860000D01*
X129060000Y-90907844D01*
X116860500Y-90907844D01*
X116860499Y-90412128D01*
X116854091Y-90352517D01*
X116826421Y-90278332D01*
X116821438Y-90208642D01*
X116826420Y-90191672D01*
X116854091Y-90117483D01*
X116860500Y-90057873D01*
X116860499Y-89562128D01*
X116854091Y-89502517D01*
X116826421Y-89428332D01*
X116821438Y-89358642D01*
X116826420Y-89341672D01*
X116854091Y-89267483D01*
X116860500Y-89207873D01*
X116860499Y-88712128D01*
X116854091Y-88652517D01*
X116826421Y-88578332D01*
X116821438Y-88508642D01*
X116826420Y-88491672D01*
X116854091Y-88417483D01*
X116860500Y-88357873D01*
X116860499Y-88084497D01*
X116880183Y-88017460D01*
X116932987Y-87971705D01*
X116984499Y-87960499D01*
X117257871Y-87960499D01*
X117257872Y-87960499D01*
X117317483Y-87954091D01*
X117391667Y-87926421D01*
X117461358Y-87921438D01*
X117478327Y-87926420D01*
X117552517Y-87954091D01*
X117612127Y-87960500D01*
X118107872Y-87960499D01*
X118167483Y-87954091D01*
X118241667Y-87926421D01*
X118311358Y-87921438D01*
X118328327Y-87926420D01*
X118402517Y-87954091D01*
X118462127Y-87960500D01*
X118957872Y-87960499D01*
X119017483Y-87954091D01*
X119091667Y-87926421D01*
X119161358Y-87921438D01*
X119178327Y-87926420D01*
X119252517Y-87954091D01*
X119312127Y-87960500D01*
X119807872Y-87960499D01*
X119867483Y-87954091D01*
X119941667Y-87926421D01*
X120011358Y-87921438D01*
X120028327Y-87926420D01*
X120102517Y-87954091D01*
X120162127Y-87960500D01*
X120657872Y-87960499D01*
X120717483Y-87954091D01*
X120791667Y-87926421D01*
X120818025Y-87924536D01*
X120843846Y-87918920D01*
X120856890Y-87921757D01*
X120861358Y-87921438D01*
X120878330Y-87926421D01*
X120913174Y-87939417D01*
X120949562Y-87952989D01*
X121005496Y-87994861D01*
X121029913Y-88060325D01*
X121015061Y-88128598D01*
X120993910Y-88156852D01*
X119985339Y-89165425D01*
X119924016Y-89198910D01*
X119921850Y-89199361D01*
X119766508Y-89230261D01*
X119766498Y-89230264D01*
X119620827Y-89290602D01*
X119620814Y-89290609D01*
X119489711Y-89378210D01*
X119489707Y-89378213D01*
X119378213Y-89489707D01*
X119378210Y-89489711D01*
X119290609Y-89620814D01*
X119290602Y-89620827D01*
X119230264Y-89766498D01*
X119230261Y-89766510D01*
X119199500Y-89921153D01*
X119199500Y-90078846D01*
X119230261Y-90233489D01*
X119230264Y-90233501D01*
X119290602Y-90379172D01*
X119290609Y-90379185D01*
X119378210Y-90510288D01*
X119378213Y-90510292D01*
X119489707Y-90621786D01*
X119489711Y-90621789D01*
X119620814Y-90709390D01*
X119620827Y-90709397D01*
X119765885Y-90769481D01*
X119766503Y-90769737D01*
X119921153Y-90800499D01*
X119921156Y-90800500D01*
X119921158Y-90800500D01*
X120078844Y-90800500D01*
X120078845Y-90800499D01*
X120233497Y-90769737D01*
X120379179Y-90709394D01*
X120510289Y-90621789D01*
X120621789Y-90510289D01*
X120709394Y-90379179D01*
X120769737Y-90233497D01*
X120792836Y-90117372D01*
X120800638Y-90078150D01*
X120833023Y-90016239D01*
X120834517Y-90014717D01*
X122590520Y-88258716D01*
X122669577Y-88121784D01*
X122688168Y-88052402D01*
X122724531Y-87992745D01*
X122787377Y-87962216D01*
X122807931Y-87960499D01*
X123207872Y-87960499D01*
X123267483Y-87954091D01*
X123341667Y-87926421D01*
X123368025Y-87924536D01*
X123393844Y-87918920D01*
X123406888Y-87921757D01*
X123411358Y-87921438D01*
X123428332Y-87926422D01*
X123446410Y-87933164D01*
X123463145Y-87939406D01*
X123519079Y-87981276D01*
X123543497Y-88046740D01*
X123528646Y-88115013D01*
X123507494Y-88143269D01*
X122485339Y-89165425D01*
X122424016Y-89198910D01*
X122421850Y-89199361D01*
X122266508Y-89230261D01*
X122266498Y-89230264D01*
X122120827Y-89290602D01*
X122120814Y-89290609D01*
X121989711Y-89378210D01*
X121989707Y-89378213D01*
X121878213Y-89489707D01*
X121878210Y-89489711D01*
X121790609Y-89620814D01*
X121790602Y-89620827D01*
X121730264Y-89766498D01*
X121730261Y-89766510D01*
X121699500Y-89921153D01*
X121699500Y-90078846D01*
X121730261Y-90233489D01*
X121730264Y-90233501D01*
X121790602Y-90379172D01*
X121790609Y-90379185D01*
X121878210Y-90510288D01*
X121878213Y-90510292D01*
X121989707Y-90621786D01*
X121989711Y-90621789D01*
X122120814Y-90709390D01*
X122120827Y-90709397D01*
X122265885Y-90769481D01*
X122266503Y-90769737D01*
X122421153Y-90800499D01*
X122421156Y-90800500D01*
X122421158Y-90800500D01*
X122578844Y-90800500D01*
X122578845Y-90800499D01*
X122733497Y-90769737D01*
X122879179Y-90709394D01*
X122879186Y-90709388D01*
X122879190Y-90709387D01*
X122884950Y-90705538D01*
X122884954Y-90705536D01*
X122952408Y-90660464D01*
X123010289Y-90621789D01*
X123121789Y-90510289D01*
X123209394Y-90379179D01*
X123269737Y-90233497D01*
X123292836Y-90117372D01*
X123300638Y-90078150D01*
X123309402Y-90061393D01*
X123310174Y-90057844D01*
X129060000Y-90057844D01*
X129066401Y-90117372D01*
X129066403Y-90117382D01*
X129094110Y-90191668D01*
X129099094Y-90261359D01*
X129094110Y-90278332D01*
X129066403Y-90352617D01*
X129066401Y-90352627D01*
X129060000Y-90412155D01*
X129060000Y-90460000D01*
X129760000Y-90460000D01*
X129760000Y-90010000D01*
X129060000Y-90010000D01*
X129060000Y-90057844D01*
X123310174Y-90057844D01*
X123313423Y-90042914D01*
X123332167Y-90017875D01*
X123333023Y-90016239D01*
X123334519Y-90014715D01*
X125018506Y-88330727D01*
X125018511Y-88330724D01*
X125028714Y-88320520D01*
X125028716Y-88320520D01*
X125140520Y-88208716D01*
X125198290Y-88108655D01*
X125219577Y-88071785D01*
X125227376Y-88042678D01*
X125231513Y-88033508D01*
X125247977Y-88014328D01*
X125261133Y-87992746D01*
X125270349Y-87988268D01*
X125277024Y-87980494D01*
X125301244Y-87973260D01*
X125323980Y-87962216D01*
X125343754Y-87960564D01*
X125343972Y-87960500D01*
X125344097Y-87960536D01*
X125344533Y-87960499D01*
X125757872Y-87960499D01*
X125817483Y-87954091D01*
X125891667Y-87926421D01*
X125961358Y-87921438D01*
X125978327Y-87926420D01*
X126052517Y-87954091D01*
X126112127Y-87960500D01*
X126335500Y-87960499D01*
X126402539Y-87980183D01*
X126448294Y-88032987D01*
X126459500Y-88084499D01*
X126459500Y-88357059D01*
X126439815Y-88424098D01*
X126423181Y-88444740D01*
X126378213Y-88489707D01*
X126378210Y-88489711D01*
X126290609Y-88620814D01*
X126290602Y-88620827D01*
X126230264Y-88766498D01*
X126230261Y-88766510D01*
X126199500Y-88921153D01*
X126199500Y-89078846D01*
X126230261Y-89233489D01*
X126230264Y-89233501D01*
X126290602Y-89379172D01*
X126290609Y-89379185D01*
X126378210Y-89510288D01*
X126378213Y-89510292D01*
X126489707Y-89621786D01*
X126489711Y-89621789D01*
X126620814Y-89709390D01*
X126620827Y-89709397D01*
X126758683Y-89766498D01*
X126766503Y-89769737D01*
X126921153Y-89800499D01*
X126921156Y-89800500D01*
X126921158Y-89800500D01*
X127078844Y-89800500D01*
X127078845Y-89800499D01*
X127233497Y-89769737D01*
X127379179Y-89709394D01*
X127510289Y-89621789D01*
X127621789Y-89510289D01*
X127709394Y-89379179D01*
X127719189Y-89355528D01*
X127736725Y-89325764D01*
X127741096Y-89320270D01*
X127792952Y-89268416D01*
X127833424Y-89207844D01*
X129060000Y-89207844D01*
X129066401Y-89267372D01*
X129066403Y-89267382D01*
X129094110Y-89341668D01*
X129099094Y-89411359D01*
X129094110Y-89428332D01*
X129066403Y-89502617D01*
X129066401Y-89502627D01*
X129060000Y-89562155D01*
X129060000Y-89610000D01*
X129760000Y-89610000D01*
X129760000Y-89160000D01*
X129060000Y-89160000D01*
X129060000Y-89207844D01*
X127833424Y-89207844D01*
X127845518Y-89189744D01*
X127875084Y-89145495D01*
X127876309Y-89142539D01*
X127910006Y-89061186D01*
X127910006Y-89061185D01*
X127931658Y-89008913D01*
X127949115Y-88921153D01*
X127960500Y-88863920D01*
X127960500Y-88357844D01*
X129060000Y-88357844D01*
X129066401Y-88417372D01*
X129066403Y-88417382D01*
X129094110Y-88491668D01*
X129099094Y-88561359D01*
X129094110Y-88578332D01*
X129066403Y-88652617D01*
X129066401Y-88652627D01*
X129060000Y-88712155D01*
X129060000Y-88760000D01*
X129760000Y-88760000D01*
X129760000Y-88310000D01*
X129060000Y-88310000D01*
X129060000Y-88357844D01*
X127960500Y-88357844D01*
X127960500Y-87960000D01*
X128260000Y-87960000D01*
X128307828Y-87960000D01*
X128307844Y-87959999D01*
X128367371Y-87953598D01*
X128441666Y-87925888D01*
X128511358Y-87920904D01*
X128528334Y-87925888D01*
X128602628Y-87953598D01*
X128602627Y-87953598D01*
X128662155Y-87959999D01*
X128662172Y-87960000D01*
X128710000Y-87960000D01*
X128710000Y-87910000D01*
X129110000Y-87910000D01*
X129710000Y-87910000D01*
X129710000Y-87310000D01*
X129110000Y-87310000D01*
X129110000Y-87910000D01*
X128710000Y-87910000D01*
X128710000Y-87260000D01*
X128260000Y-87260000D01*
X128260000Y-87960000D01*
X127960500Y-87960000D01*
X127960500Y-86860000D01*
X128260000Y-86860000D01*
X128710000Y-86860000D01*
X128710000Y-86810000D01*
X129110000Y-86810000D01*
X129710000Y-86810000D01*
X129710000Y-86160000D01*
X129512155Y-86160000D01*
X129452627Y-86166401D01*
X129452617Y-86166403D01*
X129378332Y-86194110D01*
X129308641Y-86199094D01*
X129291668Y-86194110D01*
X129217382Y-86166403D01*
X129217372Y-86166401D01*
X129157844Y-86160000D01*
X129110000Y-86160000D01*
X129110000Y-86810000D01*
X128710000Y-86810000D01*
X128710000Y-86160000D01*
X128662155Y-86160000D01*
X128602627Y-86166401D01*
X128602617Y-86166403D01*
X128528332Y-86194110D01*
X128458641Y-86199094D01*
X128441668Y-86194110D01*
X128367382Y-86166403D01*
X128367372Y-86166401D01*
X128307844Y-86160000D01*
X128260000Y-86160000D01*
X128260000Y-86860000D01*
X127960500Y-86860000D01*
X127960500Y-86093109D01*
X127980185Y-86026070D01*
X128032989Y-85980315D01*
X128045499Y-85975402D01*
X128051513Y-85973409D01*
X128051513Y-85973408D01*
X128051516Y-85973408D01*
X128198350Y-85882840D01*
X128320340Y-85760850D01*
X128410908Y-85614016D01*
X128465174Y-85450253D01*
X128475500Y-85349177D01*
X128475499Y-84650824D01*
X128473398Y-84630261D01*
X128465174Y-84549747D01*
X128459593Y-84532904D01*
X128410908Y-84385984D01*
X128320340Y-84239150D01*
X128306017Y-84224827D01*
X128272532Y-84163504D01*
X128277516Y-84093812D01*
X128306021Y-84049460D01*
X128319947Y-84035535D01*
X128410448Y-83888811D01*
X128410453Y-83888800D01*
X128464680Y-83725152D01*
X128474999Y-83624154D01*
X128475000Y-83624141D01*
X128475000Y-83525000D01*
X126525001Y-83525000D01*
X126525001Y-83624154D01*
X126535319Y-83725152D01*
X126589546Y-83888800D01*
X126589551Y-83888811D01*
X126680052Y-84035534D01*
X126680055Y-84035538D01*
X126693982Y-84049465D01*
X126727467Y-84110788D01*
X126722483Y-84180480D01*
X126693984Y-84224825D01*
X126679661Y-84239148D01*
X126589093Y-84385981D01*
X126589092Y-84385984D01*
X126564250Y-84460952D01*
X126524477Y-84518397D01*
X126459960Y-84545219D01*
X126391185Y-84532904D01*
X126358863Y-84509628D01*
X124834574Y-82985339D01*
X124802088Y-82925845D01*
X126525000Y-82925845D01*
X126525000Y-83025000D01*
X127250000Y-83025000D01*
X127750000Y-83025000D01*
X128474999Y-83025000D01*
X128474999Y-82925860D01*
X128474998Y-82925845D01*
X128464680Y-82824847D01*
X128410453Y-82661199D01*
X128410448Y-82661188D01*
X128319947Y-82514465D01*
X128319944Y-82514461D01*
X128198038Y-82392555D01*
X128198034Y-82392552D01*
X128051311Y-82302051D01*
X128051300Y-82302046D01*
X127887652Y-82247819D01*
X127786654Y-82237500D01*
X127750000Y-82237500D01*
X127750000Y-83025000D01*
X127250000Y-83025000D01*
X127250000Y-82237500D01*
X127213361Y-82237500D01*
X127213343Y-82237501D01*
X127112347Y-82247819D01*
X126948699Y-82302046D01*
X126948688Y-82302051D01*
X126801965Y-82392552D01*
X126801961Y-82392555D01*
X126680055Y-82514461D01*
X126680052Y-82514465D01*
X126589551Y-82661188D01*
X126589546Y-82661199D01*
X126535319Y-82824847D01*
X126525000Y-82925845D01*
X124802088Y-82925845D01*
X124801089Y-82924016D01*
X124800638Y-82921849D01*
X124769738Y-82766510D01*
X124769737Y-82766503D01*
X124726119Y-82661199D01*
X124709397Y-82620827D01*
X124709390Y-82620814D01*
X124621789Y-82489711D01*
X124621786Y-82489707D01*
X124510292Y-82378213D01*
X124510288Y-82378210D01*
X124379185Y-82290609D01*
X124379172Y-82290602D01*
X124233501Y-82230264D01*
X124233489Y-82230261D01*
X124078845Y-82199500D01*
X124078842Y-82199500D01*
X123921158Y-82199500D01*
X123921155Y-82199500D01*
X123766510Y-82230261D01*
X123766498Y-82230264D01*
X123620827Y-82290602D01*
X123620814Y-82290609D01*
X123489711Y-82378210D01*
X123489707Y-82378213D01*
X123378213Y-82489707D01*
X123378210Y-82489711D01*
X123290609Y-82620814D01*
X123290602Y-82620827D01*
X123230264Y-82766498D01*
X123230261Y-82766510D01*
X123199500Y-82921153D01*
X123199500Y-83050903D01*
X123179815Y-83117942D01*
X123127011Y-83163697D01*
X123057853Y-83173641D01*
X122994297Y-83144616D01*
X122987819Y-83138584D01*
X121361416Y-81512181D01*
X121327931Y-81450858D01*
X121332915Y-81381166D01*
X121374787Y-81325233D01*
X121440251Y-81300816D01*
X121449097Y-81300500D01*
X121578844Y-81300500D01*
X121578845Y-81300499D01*
X121733497Y-81269737D01*
X121879179Y-81209394D01*
X122010289Y-81121789D01*
X122121789Y-81010289D01*
X122209394Y-80879179D01*
X122269737Y-80733497D01*
X122300500Y-80578842D01*
X122300500Y-80421158D01*
X122300500Y-80421155D01*
X122300499Y-80421153D01*
X122269738Y-80266510D01*
X122269737Y-80266503D01*
X122255150Y-80231286D01*
X122209397Y-80120827D01*
X122209390Y-80120814D01*
X122121789Y-79989711D01*
X122121786Y-79989707D01*
X122025792Y-79893713D01*
X125649500Y-79893713D01*
X125649500Y-80106287D01*
X125682754Y-80316243D01*
X125716841Y-80421153D01*
X125748444Y-80518414D01*
X125844951Y-80707820D01*
X125969890Y-80879786D01*
X126120213Y-81030109D01*
X126292179Y-81155048D01*
X126292181Y-81155049D01*
X126292184Y-81155051D01*
X126481588Y-81251557D01*
X126683757Y-81317246D01*
X126893713Y-81350500D01*
X126893714Y-81350500D01*
X127106286Y-81350500D01*
X127106287Y-81350500D01*
X127316243Y-81317246D01*
X127518412Y-81251557D01*
X127707816Y-81155051D01*
X127753602Y-81121786D01*
X127879786Y-81030109D01*
X127879788Y-81030106D01*
X127879792Y-81030104D01*
X128030104Y-80879792D01*
X128030106Y-80879788D01*
X128030109Y-80879786D01*
X128155048Y-80707820D01*
X128155047Y-80707820D01*
X128155051Y-80707816D01*
X128251557Y-80518412D01*
X128317246Y-80316243D01*
X128350500Y-80106287D01*
X128350500Y-79893713D01*
X128317246Y-79683757D01*
X128251557Y-79481588D01*
X128155051Y-79292184D01*
X128155049Y-79292181D01*
X128155048Y-79292179D01*
X128030109Y-79120213D01*
X127879786Y-78969890D01*
X127707820Y-78844951D01*
X127518414Y-78748444D01*
X127518413Y-78748443D01*
X127518412Y-78748443D01*
X127316243Y-78682754D01*
X127316241Y-78682753D01*
X127316240Y-78682753D01*
X127154957Y-78657208D01*
X127106287Y-78649500D01*
X126893713Y-78649500D01*
X126845042Y-78657208D01*
X126683760Y-78682753D01*
X126481585Y-78748444D01*
X126292179Y-78844951D01*
X126120213Y-78969890D01*
X125969890Y-79120213D01*
X125844951Y-79292179D01*
X125748444Y-79481585D01*
X125682753Y-79683760D01*
X125651955Y-79878210D01*
X125649500Y-79893713D01*
X122025792Y-79893713D01*
X122010292Y-79878213D01*
X122010288Y-79878210D01*
X121879185Y-79790609D01*
X121879172Y-79790602D01*
X121733501Y-79730264D01*
X121733491Y-79730261D01*
X121578149Y-79699361D01*
X121516238Y-79666976D01*
X121514660Y-79665425D01*
X119387590Y-77538355D01*
X119387588Y-77538352D01*
X119268717Y-77419481D01*
X119268716Y-77419480D01*
X119181904Y-77369360D01*
X119181904Y-77369359D01*
X119181900Y-77369358D01*
X119131785Y-77340423D01*
X118979057Y-77299499D01*
X118820943Y-77299499D01*
X118813347Y-77299499D01*
X118813331Y-77299500D01*
X97020940Y-77299500D01*
X96980019Y-77310464D01*
X96980019Y-77310465D01*
X96942751Y-77320451D01*
X96868214Y-77340423D01*
X96868209Y-77340426D01*
X96731290Y-77419475D01*
X96731282Y-77419481D01*
X96619478Y-77531286D01*
X95578867Y-78571896D01*
X95517544Y-78605381D01*
X95452868Y-78602146D01*
X95316240Y-78557753D01*
X95154957Y-78532208D01*
X95106287Y-78524500D01*
X94893713Y-78524500D01*
X94845042Y-78532208D01*
X94683760Y-78557753D01*
X94481585Y-78623444D01*
X94292179Y-78719951D01*
X94120213Y-78844890D01*
X93969894Y-78995209D01*
X93969890Y-78995214D01*
X93850318Y-79159793D01*
X93794989Y-79202459D01*
X93725375Y-79208438D01*
X93663580Y-79175833D01*
X93649682Y-79159793D01*
X93530109Y-78995214D01*
X93530105Y-78995209D01*
X93379786Y-78844890D01*
X93207820Y-78719951D01*
X93018414Y-78623444D01*
X93018413Y-78623443D01*
X93018412Y-78623443D01*
X92816243Y-78557754D01*
X92816241Y-78557753D01*
X92816240Y-78557753D01*
X92654957Y-78532208D01*
X92606287Y-78524500D01*
X92393713Y-78524500D01*
X92345042Y-78532208D01*
X92183760Y-78557753D01*
X91981585Y-78623444D01*
X91792179Y-78719951D01*
X91620215Y-78844889D01*
X91481035Y-78984069D01*
X91419712Y-79017553D01*
X91350020Y-79012569D01*
X91294087Y-78970697D01*
X91287815Y-78961484D01*
X91192315Y-78806654D01*
X91068345Y-78682684D01*
X90919124Y-78590643D01*
X90919119Y-78590641D01*
X90752697Y-78535494D01*
X90752690Y-78535493D01*
X90649986Y-78525000D01*
X90250000Y-78525000D01*
X90250000Y-79595854D01*
X90183343Y-79557370D01*
X90062535Y-79525000D01*
X89937465Y-79525000D01*
X89816657Y-79557370D01*
X89750000Y-79595854D01*
X89750000Y-78525000D01*
X89350028Y-78525000D01*
X89350012Y-78525001D01*
X89247302Y-78535494D01*
X89080880Y-78590641D01*
X89080875Y-78590643D01*
X88931654Y-78682684D01*
X88807684Y-78806654D01*
X88715643Y-78955875D01*
X88715641Y-78955880D01*
X88660494Y-79122302D01*
X88660493Y-79122309D01*
X88650000Y-79225013D01*
X88650000Y-79750000D01*
X89595854Y-79750000D01*
X89557370Y-79816657D01*
X89525000Y-79937465D01*
X89525000Y-80062535D01*
X89557370Y-80183343D01*
X89595854Y-80250000D01*
X88650001Y-80250000D01*
X88650001Y-80774986D01*
X88660494Y-80877697D01*
X88715641Y-81044119D01*
X88715643Y-81044124D01*
X88807684Y-81193345D01*
X88931654Y-81317315D01*
X89080875Y-81409356D01*
X89080880Y-81409358D01*
X89247302Y-81464505D01*
X89247309Y-81464506D01*
X89350019Y-81474999D01*
X89749999Y-81474999D01*
X89750000Y-81474998D01*
X89750000Y-80404145D01*
X89816657Y-80442630D01*
X89937465Y-80475000D01*
X90062535Y-80475000D01*
X90183343Y-80442630D01*
X90250000Y-80404145D01*
X90250000Y-81474999D01*
X90649972Y-81474999D01*
X90649986Y-81474998D01*
X90752697Y-81464505D01*
X90919119Y-81409358D01*
X90919124Y-81409356D01*
X91068345Y-81317315D01*
X91192317Y-81193343D01*
X91287815Y-81038516D01*
X91339763Y-80991791D01*
X91408725Y-80980568D01*
X91472808Y-81008412D01*
X91481035Y-81015931D01*
X91620208Y-81155104D01*
X91698384Y-81211902D01*
X91741051Y-81267231D01*
X91749500Y-81312220D01*
X91749500Y-89225500D01*
X91729815Y-89292539D01*
X91677011Y-89338294D01*
X91625500Y-89349500D01*
X90887328Y-89349500D01*
X90852733Y-89344576D01*
X90707573Y-89302402D01*
X90707567Y-89302401D01*
X90670701Y-89299500D01*
X90670694Y-89299500D01*
X89689306Y-89299500D01*
X89689295Y-89299500D01*
X89670699Y-89300964D01*
X89663959Y-89299548D01*
X89657297Y-89301292D01*
X89630205Y-89292457D01*
X89602322Y-89286599D01*
X89595831Y-89281246D01*
X89590871Y-89279629D01*
X89571949Y-89261694D01*
X89571262Y-89262382D01*
X89570561Y-89261681D01*
X89569297Y-89259367D01*
X89564894Y-89255736D01*
X89562164Y-89252390D01*
X89562050Y-89252121D01*
X89560557Y-89250174D01*
X89561065Y-89249783D01*
X89550934Y-89225737D01*
X89537076Y-89200358D01*
X89537535Y-89193936D01*
X89535035Y-89188002D01*
X89539996Y-89159513D01*
X89542060Y-89130666D01*
X89545919Y-89125510D01*
X89547024Y-89119169D01*
X89566599Y-89097885D01*
X89583932Y-89074733D01*
X89589964Y-89072483D01*
X89594323Y-89067744D01*
X89622301Y-89060421D01*
X89649396Y-89050316D01*
X89658242Y-89050000D01*
X91252295Y-89050000D01*
X91252295Y-89049998D01*
X91252100Y-89047513D01*
X91206281Y-88889801D01*
X91122685Y-88748447D01*
X91122678Y-88748438D01*
X91095888Y-88721648D01*
X91062403Y-88660325D01*
X91067387Y-88590633D01*
X91069008Y-88586514D01*
X91116570Y-88471689D01*
X91124862Y-88430000D01*
X90321988Y-88430000D01*
X90339205Y-88420060D01*
X90395060Y-88364205D01*
X90434556Y-88295796D01*
X90455000Y-88219496D01*
X90455000Y-88140504D01*
X90434556Y-88064204D01*
X90395060Y-87995795D01*
X90339205Y-87939940D01*
X90321988Y-87930000D01*
X91124862Y-87930000D01*
X91116569Y-87888309D01*
X91116569Y-87888307D01*
X91041192Y-87706328D01*
X91041185Y-87706315D01*
X90931751Y-87542537D01*
X90931748Y-87542533D01*
X90792466Y-87403251D01*
X90792462Y-87403248D01*
X90628684Y-87293814D01*
X90628671Y-87293807D01*
X90446693Y-87218430D01*
X90446681Y-87218427D01*
X90253495Y-87180000D01*
X89855000Y-87180000D01*
X89855000Y-87880000D01*
X89355000Y-87880000D01*
X89355000Y-87180000D01*
X88956504Y-87180000D01*
X88763318Y-87218427D01*
X88763306Y-87218430D01*
X88581328Y-87293807D01*
X88581315Y-87293814D01*
X88417537Y-87403248D01*
X88417533Y-87403251D01*
X88278251Y-87542533D01*
X88278248Y-87542537D01*
X88168814Y-87706315D01*
X88168807Y-87706328D01*
X88093430Y-87888307D01*
X88093430Y-87888309D01*
X88085138Y-87930000D01*
X88888012Y-87930000D01*
X88870795Y-87939940D01*
X88814940Y-87995795D01*
X88775444Y-88064204D01*
X88755000Y-88140504D01*
X88755000Y-88219496D01*
X88775444Y-88295796D01*
X88814940Y-88364205D01*
X88870795Y-88420060D01*
X88888012Y-88430000D01*
X88085138Y-88430000D01*
X88093430Y-88471690D01*
X88093430Y-88471692D01*
X88168807Y-88653671D01*
X88168814Y-88653684D01*
X88278248Y-88817462D01*
X88278251Y-88817466D01*
X88417533Y-88956748D01*
X88417537Y-88956751D01*
X88581315Y-89066185D01*
X88581328Y-89066192D01*
X88590838Y-89070131D01*
X88645243Y-89113970D01*
X88667310Y-89180264D01*
X88650033Y-89247963D01*
X88646350Y-89253405D01*
X88568719Y-89387863D01*
X88529500Y-89534234D01*
X88529500Y-89685765D01*
X88568719Y-89832136D01*
X88571125Y-89836303D01*
X88644485Y-89963365D01*
X88751635Y-90070515D01*
X88882865Y-90146281D01*
X89012596Y-90181041D01*
X89072253Y-90217404D01*
X89102444Y-90278329D01*
X89104500Y-90289478D01*
X89104500Y-90315694D01*
X89107402Y-90352569D01*
X89131305Y-90434845D01*
X89132435Y-90440970D01*
X89129450Y-90469773D01*
X89129368Y-90498730D01*
X89125244Y-90510368D01*
X89125234Y-90510467D01*
X89125189Y-90510522D01*
X89125056Y-90510896D01*
X89121934Y-90518434D01*
X89119312Y-90524765D01*
X89117085Y-90541687D01*
X89088817Y-90605584D01*
X89030492Y-90644054D01*
X88994146Y-90649500D01*
X87170940Y-90649500D01*
X87130019Y-90660464D01*
X87130019Y-90660465D01*
X87092751Y-90670451D01*
X87018214Y-90690423D01*
X87018209Y-90690426D01*
X86881290Y-90769475D01*
X86881282Y-90769481D01*
X86519481Y-91131282D01*
X86519479Y-91131285D01*
X86482301Y-91195681D01*
X86482300Y-91195683D01*
X86440423Y-91268214D01*
X86440423Y-91268215D01*
X86399499Y-91420943D01*
X86399499Y-91420945D01*
X86399499Y-91589046D01*
X86399500Y-91589059D01*
X86399500Y-95789993D01*
X86379815Y-95857032D01*
X86327011Y-95902787D01*
X86257853Y-95912731D01*
X86228048Y-95904554D01*
X86116693Y-95858430D01*
X86116681Y-95858427D01*
X85923495Y-95820000D01*
X85675000Y-95820000D01*
X85675000Y-96520000D01*
X85175000Y-96520000D01*
X85175000Y-95820000D01*
X84926504Y-95820000D01*
X84733318Y-95858427D01*
X84733306Y-95858430D01*
X84551328Y-95933807D01*
X84551315Y-95933814D01*
X84387537Y-96043248D01*
X84387533Y-96043251D01*
X84248251Y-96182533D01*
X84248248Y-96182537D01*
X84138814Y-96346315D01*
X84138807Y-96346328D01*
X84063430Y-96528307D01*
X84063430Y-96528309D01*
X84055138Y-96570000D01*
X83300500Y-96570000D01*
X83300500Y-87930000D01*
X84055138Y-87930000D01*
X84858012Y-87930000D01*
X84840795Y-87939940D01*
X84784940Y-87995795D01*
X84745444Y-88064204D01*
X84725000Y-88140504D01*
X84725000Y-88219496D01*
X84745444Y-88295796D01*
X84784940Y-88364205D01*
X84840795Y-88420060D01*
X84858012Y-88430000D01*
X84055138Y-88430000D01*
X84063430Y-88471690D01*
X84063430Y-88471692D01*
X84138807Y-88653671D01*
X84138814Y-88653684D01*
X84248248Y-88817462D01*
X84248251Y-88817466D01*
X84387533Y-88956748D01*
X84387537Y-88956751D01*
X84551315Y-89066185D01*
X84551328Y-89066192D01*
X84733306Y-89141569D01*
X84733318Y-89141572D01*
X84926504Y-89179999D01*
X84926508Y-89180000D01*
X85175000Y-89180000D01*
X85175000Y-88480000D01*
X85675000Y-88480000D01*
X85675000Y-89180000D01*
X85923492Y-89180000D01*
X85923495Y-89179999D01*
X86116681Y-89141572D01*
X86116693Y-89141569D01*
X86298671Y-89066192D01*
X86298684Y-89066185D01*
X86462462Y-88956751D01*
X86462466Y-88956748D01*
X86601748Y-88817466D01*
X86601751Y-88817462D01*
X86711185Y-88653684D01*
X86711192Y-88653671D01*
X86786569Y-88471692D01*
X86786569Y-88471690D01*
X86794862Y-88430000D01*
X85991988Y-88430000D01*
X86009205Y-88420060D01*
X86065060Y-88364205D01*
X86104556Y-88295796D01*
X86125000Y-88219496D01*
X86125000Y-88140504D01*
X86104556Y-88064204D01*
X86065060Y-87995795D01*
X86009205Y-87939940D01*
X85991988Y-87930000D01*
X86794862Y-87930000D01*
X86786569Y-87888309D01*
X86786569Y-87888307D01*
X86711192Y-87706328D01*
X86711185Y-87706315D01*
X86601751Y-87542537D01*
X86601748Y-87542533D01*
X86462466Y-87403251D01*
X86462462Y-87403248D01*
X86298684Y-87293814D01*
X86298671Y-87293807D01*
X86116693Y-87218430D01*
X86116681Y-87218427D01*
X85923495Y-87180000D01*
X85675000Y-87180000D01*
X85675000Y-87880000D01*
X85175000Y-87880000D01*
X85175000Y-87180000D01*
X84926504Y-87180000D01*
X84733318Y-87218427D01*
X84733306Y-87218430D01*
X84551328Y-87293807D01*
X84551315Y-87293814D01*
X84387537Y-87403248D01*
X84387533Y-87403251D01*
X84248251Y-87542533D01*
X84248248Y-87542537D01*
X84138814Y-87706315D01*
X84138807Y-87706328D01*
X84063430Y-87888307D01*
X84063430Y-87888309D01*
X84055138Y-87930000D01*
X83300500Y-87930000D01*
X83300500Y-76324500D01*
X83320185Y-76257461D01*
X83372989Y-76211706D01*
X83424500Y-76200500D01*
X130075500Y-76200500D01*
X130142539Y-76220185D01*
G37*
%TD.AperFunction*%
%TD*%
M02*
