%TF.GenerationSoftware,KiCad,Pcbnew,9.0.2*%
%TF.CreationDate,2025-07-24T13:27:54-05:00*%
%TF.ProjectId,clock,636c6f63-6b2e-46b6-9963-61645f706362,rev?*%
%TF.SameCoordinates,Original*%
%TF.FileFunction,Copper,L2,Bot*%
%TF.FilePolarity,Positive*%
%FSLAX46Y46*%
G04 Gerber Fmt 4.6, Leading zero omitted, Abs format (unit mm)*
G04 Created by KiCad (PCBNEW 9.0.2) date 2025-07-24 13:27:54*
%MOMM*%
%LPD*%
G01*
G04 APERTURE LIST*
G04 Aperture macros list*
%AMRoundRect*
0 Rectangle with rounded corners*
0 $1 Rounding radius*
0 $2 $3 $4 $5 $6 $7 $8 $9 X,Y pos of 4 corners*
0 Add a 4 corners polygon primitive as box body*
4,1,4,$2,$3,$4,$5,$6,$7,$8,$9,$2,$3,0*
0 Add four circle primitives for the rounded corners*
1,1,$1+$1,$2,$3*
1,1,$1+$1,$4,$5*
1,1,$1+$1,$6,$7*
1,1,$1+$1,$8,$9*
0 Add four rect primitives between the rounded corners*
20,1,$1+$1,$2,$3,$4,$5,0*
20,1,$1+$1,$4,$5,$6,$7,0*
20,1,$1+$1,$6,$7,$8,$9,0*
20,1,$1+$1,$8,$9,$2,$3,0*%
G04 Aperture macros list end*
%TA.AperFunction,ComponentPad*%
%ADD10C,2.000000*%
%TD*%
%TA.AperFunction,ComponentPad*%
%ADD11RoundRect,0.250000X0.725000X-0.600000X0.725000X0.600000X-0.725000X0.600000X-0.725000X-0.600000X0*%
%TD*%
%TA.AperFunction,ComponentPad*%
%ADD12O,1.950000X1.700000*%
%TD*%
%TA.AperFunction,HeatsinkPad*%
%ADD13O,1.000000X2.100000*%
%TD*%
%TA.AperFunction,HeatsinkPad*%
%ADD14O,1.000000X1.800000*%
%TD*%
%TA.AperFunction,ComponentPad*%
%ADD15R,2.000000X2.000000*%
%TD*%
%TA.AperFunction,ComponentPad*%
%ADD16R,2.000000X3.200000*%
%TD*%
%TA.AperFunction,ComponentPad*%
%ADD17R,1.524000X1.524000*%
%TD*%
%TA.AperFunction,ComponentPad*%
%ADD18C,1.600000*%
%TD*%
%TA.AperFunction,ComponentPad*%
%ADD19RoundRect,0.250000X-0.725000X0.600000X-0.725000X-0.600000X0.725000X-0.600000X0.725000X0.600000X0*%
%TD*%
%TA.AperFunction,ComponentPad*%
%ADD20R,1.100000X1.800000*%
%TD*%
%TA.AperFunction,ComponentPad*%
%ADD21RoundRect,0.275000X-0.275000X-0.625000X0.275000X-0.625000X0.275000X0.625000X-0.275000X0.625000X0*%
%TD*%
%TA.AperFunction,ComponentPad*%
%ADD22RoundRect,0.250000X-0.600000X-0.725000X0.600000X-0.725000X0.600000X0.725000X-0.600000X0.725000X0*%
%TD*%
%TA.AperFunction,ComponentPad*%
%ADD23O,1.700000X1.950000*%
%TD*%
%TA.AperFunction,ComponentPad*%
%ADD24RoundRect,0.250000X0.600000X0.725000X-0.600000X0.725000X-0.600000X-0.725000X0.600000X-0.725000X0*%
%TD*%
%TA.AperFunction,ViaPad*%
%ADD25C,0.600000*%
%TD*%
%TA.AperFunction,Conductor*%
%ADD26C,0.200000*%
%TD*%
%TA.AperFunction,Conductor*%
%ADD27C,0.500000*%
%TD*%
G04 APERTURE END LIST*
D10*
%TO.P,S1,1,1*%
%TO.N,S0*%
X113800001Y-171050000D03*
%TO.P,S1,2,2*%
%TO.N,GND*%
X106800001Y-170000000D03*
%TD*%
D11*
%TO.P,J8,1,Pin_1*%
%TO.N,GND*%
X104250000Y-117050000D03*
D12*
%TO.P,J8,2,Pin_2*%
%TO.N,S1 O*%
X104250000Y-114550000D03*
%TO.P,J8,3,Pin_3*%
%TO.N,E1A O*%
X104250000Y-112050000D03*
%TO.P,J8,4,Pin_4*%
%TO.N,E1B O*%
X104250000Y-109550000D03*
%TO.P,J8,5,Pin_5*%
%TO.N,unconnected-(J8-Pin_5-Pad5)*%
X104250000Y-107050000D03*
%TD*%
D11*
%TO.P,J6,1,Pin_1*%
%TO.N,GND*%
X76250000Y-117550000D03*
D12*
%TO.P,J6,2,Pin_2*%
%TO.N,+5V*%
X76250000Y-115050000D03*
%TO.P,J6,3,Pin_3*%
%TO.N,SCL*%
X76250000Y-112550000D03*
%TO.P,J6,4,Pin_4*%
%TO.N,SDA*%
X76250000Y-110050000D03*
%TO.P,J6,5,Pin_5*%
%TO.N,LCD-RES*%
X76250000Y-107550000D03*
%TO.P,J6,6,Pin_6*%
%TO.N,LCD-CS*%
X76250000Y-105050000D03*
%TO.P,J6,7,Pin_7*%
%TO.N,LCD-DC*%
X76250000Y-102550000D03*
%TO.P,J6,8,Pin_8*%
%TO.N,LCD-BLK*%
X76250000Y-100050000D03*
%TD*%
D11*
%TO.P,J5,1,Pin_1*%
%TO.N,GND*%
X104250000Y-98550000D03*
D12*
%TO.P,J5,2,Pin_2*%
%TO.N,+5V*%
X104250000Y-96050000D03*
%TO.P,J5,3,Pin_3*%
%TO.N,buzzer 0*%
X104250000Y-93550000D03*
%TO.P,J5,4,Pin_4*%
%TO.N,unconnected-(J5-Pin_4-Pad4)*%
X104250000Y-91050000D03*
%TO.P,J5,5,Pin_5*%
%TO.N,S0 O*%
X104250000Y-88550000D03*
%TD*%
D13*
%TO.P,J1,S1,SHIELD*%
%TO.N,GND*%
X84430000Y-117945000D03*
D14*
X84430000Y-122125000D03*
D13*
X93070000Y-117945000D03*
D14*
X93070000Y-122125000D03*
%TD*%
D15*
%TO.P,SW1,A,A*%
%TO.N,E1A*%
X121500000Y-114225000D03*
D10*
%TO.P,SW1,B,B*%
%TO.N,E1B*%
X126500000Y-114225000D03*
%TO.P,SW1,C,C*%
%TO.N,GND*%
X124000000Y-114225000D03*
D16*
%TO.P,SW1,MP,MP*%
X118400000Y-106725000D03*
X129600000Y-106725000D03*
D10*
%TO.P,SW1,S1,S1*%
%TO.N,S1*%
X126500000Y-99725000D03*
%TO.P,SW1,S2,S2*%
%TO.N,GND*%
X121500000Y-99725000D03*
%TD*%
D17*
%TO.P,LCD1,1,GND*%
%TO.N,Net-(J2-Pin_1)*%
X85900000Y-135750000D03*
D18*
%TO.P,LCD1,2,VCC*%
%TO.N,Net-(J2-Pin_2)*%
X85900000Y-138290000D03*
%TO.P,LCD1,3,SCL*%
%TO.N,Net-(J2-Pin_3)*%
X85900000Y-140830000D03*
%TO.P,LCD1,4,SDA*%
%TO.N,Net-(J2-Pin_4)*%
X85900000Y-143370000D03*
%TO.P,LCD1,5,RES*%
%TO.N,Net-(J2-Pin_5)*%
X85900000Y-145910000D03*
%TO.P,LCD1,6,DC*%
%TO.N,Net-(J2-Pin_6)*%
X85900000Y-148450000D03*
%TO.P,LCD1,7,CS*%
%TO.N,Net-(J2-Pin_7)*%
X85900000Y-150990000D03*
%TO.P,LCD1,8,BLK*%
%TO.N,Net-(J2-Pin_8)*%
X85900000Y-153530000D03*
%TD*%
D19*
%TO.P,J2,1,Pin_1*%
%TO.N,Net-(J2-Pin_1)*%
X77125000Y-136000000D03*
D12*
%TO.P,J2,2,Pin_2*%
%TO.N,Net-(J2-Pin_2)*%
X77125000Y-138500000D03*
%TO.P,J2,3,Pin_3*%
%TO.N,Net-(J2-Pin_3)*%
X77125000Y-141000000D03*
%TO.P,J2,4,Pin_4*%
%TO.N,Net-(J2-Pin_4)*%
X77125000Y-143500000D03*
%TO.P,J2,5,Pin_5*%
%TO.N,Net-(J2-Pin_5)*%
X77125000Y-146000000D03*
%TO.P,J2,6,Pin_6*%
%TO.N,Net-(J2-Pin_6)*%
X77125000Y-148500000D03*
%TO.P,J2,7,Pin_7*%
%TO.N,Net-(J2-Pin_7)*%
X77125000Y-151000000D03*
%TO.P,J2,8,Pin_8*%
%TO.N,Net-(J2-Pin_8)*%
X77125000Y-153500000D03*
%TD*%
D20*
%TO.P,Q2,1,E*%
%TO.N,GND*%
X128030001Y-169955000D03*
D21*
%TO.P,Q2,2,B*%
%TO.N,Net-(Q2-B)*%
X129300001Y-172025000D03*
%TO.P,Q2,3,C*%
%TO.N,Net-(BZ2--)*%
X130570001Y-169955000D03*
%TD*%
D15*
%TO.P,BZ1,1,+*%
%TO.N,+5V*%
X89700001Y-179750000D03*
D10*
%TO.P,BZ1,2,-*%
%TO.N,Net-(BZ1--)*%
X97300001Y-179750000D03*
%TD*%
D20*
%TO.P,Q1,1,E*%
%TO.N,GND*%
X120960001Y-169975000D03*
D21*
%TO.P,Q1,2,B*%
%TO.N,Net-(Q1-B)*%
X122230001Y-172045000D03*
%TO.P,Q1,3,C*%
%TO.N,Net-(BZ1--)*%
X123500001Y-169975000D03*
%TD*%
D22*
%TO.P,J4,1,Pin_1*%
%TO.N,GND*%
X119000000Y-120250000D03*
D23*
%TO.P,J4,2,Pin_2*%
%TO.N,S1*%
X121500000Y-120250000D03*
%TO.P,J4,3,Pin_3*%
%TO.N,E1A*%
X124000000Y-120250000D03*
%TO.P,J4,4,Pin_4*%
%TO.N,E1B*%
X126500000Y-120250000D03*
%TO.P,J4,5,Pin_5*%
%TO.N,Row 1*%
X129000000Y-120250000D03*
%TD*%
D24*
%TO.P,J3,1,Pin_1*%
%TO.N,GND*%
X97000000Y-169224999D03*
D23*
%TO.P,J3,2,Pin_2*%
%TO.N,+5V*%
X94500000Y-169224999D03*
%TO.P,J3,3,Pin_3*%
%TO.N,buzzer*%
X92000000Y-169224999D03*
%TO.P,J3,4,Pin_4*%
%TO.N,unconnected-(J3-Pin_4-Pad4)*%
X89500000Y-169224999D03*
%TO.P,J3,5,Pin_5*%
%TO.N,S0*%
X87000000Y-169224999D03*
%TD*%
D15*
%TO.P,BZ2,1,+*%
%TO.N,+5V*%
X121700001Y-179750000D03*
D10*
%TO.P,BZ2,2,-*%
%TO.N,Net-(BZ2--)*%
X129300001Y-179750000D03*
%TD*%
D25*
%TO.N,LCD-RES*%
X98643255Y-92936099D03*
%TO.N,+5V*%
X101551000Y-103250000D03*
X101551000Y-101250000D03*
%TO.N,E1A O*%
X81250000Y-88550000D03*
X93250000Y-102150000D03*
X89815687Y-102150000D03*
%TO.N,E1B O*%
X81650000Y-89550000D03*
X92250000Y-101550000D03*
X89250000Y-101550000D03*
%TO.N,S1 O*%
X89250000Y-102750000D03*
X92250000Y-102750000D03*
X82536092Y-83836092D03*
%TO.N,D+*%
X91250000Y-92550000D03*
X88451137Y-118592687D03*
%TO.N,D-*%
X91250000Y-94050000D03*
X89250000Y-118550000D03*
%TO.N,+3V3*%
X95250000Y-104550000D03*
X99250000Y-79550000D03*
X84500000Y-80500000D03*
%TO.N,LCD-RES*%
X98735735Y-90064265D03*
X96250000Y-90050000D03*
X86250000Y-102550000D03*
%TO.N,SCL*%
X76750000Y-86050000D03*
X79250000Y-83550000D03*
%TO.N,LCD-CS*%
X85250000Y-101550000D03*
X96750000Y-97050000D03*
X99750000Y-95050000D03*
%TO.N,LCD-BLK*%
X99244255Y-93536099D03*
X78750000Y-100050000D03*
X80750000Y-98150000D03*
X95618626Y-95918626D03*
%TO.N,LCD-DC*%
X96184313Y-96484313D03*
X99549816Y-94275448D03*
X84959156Y-100804742D03*
%TO.N,S0 O*%
X86250000Y-85050000D03*
%TO.N,Net-(Q1-B)*%
X142500001Y-169750000D03*
X124305736Y-167944265D03*
%TO.N,Net-(Q2-B)*%
X142500001Y-174750000D03*
%TD*%
D26*
%TO.N,LCD-RES*%
X98750000Y-92829354D02*
X98750000Y-90078530D01*
X98643255Y-92936099D02*
X98750000Y-92829354D01*
X98750000Y-90078530D02*
X98735735Y-90064265D01*
D27*
%TO.N,+5V*%
X101551000Y-101250000D02*
X101551000Y-103250000D01*
D26*
%TO.N,E1A O*%
X95850000Y-102150000D02*
X93250000Y-102150000D01*
X102750000Y-109050000D02*
X95850000Y-102150000D01*
X81250000Y-95681372D02*
X81250000Y-90550000D01*
X89815687Y-102150000D02*
X89850000Y-102115687D01*
X81250000Y-89998529D02*
X81050000Y-89798529D01*
X102750000Y-110550000D02*
X104250000Y-112050000D01*
X81050000Y-88750000D02*
X81250000Y-88550000D01*
X87718628Y-102150000D02*
X81250000Y-95681372D01*
X81050000Y-89798529D02*
X81050000Y-88750000D01*
X89815687Y-102150000D02*
X87718628Y-102150000D01*
X102750000Y-109050000D02*
X102750000Y-110550000D01*
X81250000Y-90550000D02*
X81250000Y-89998529D01*
%TO.N,E1B O*%
X104250000Y-109550000D02*
X96250000Y-101550000D01*
X81650000Y-95515686D02*
X81650000Y-89550000D01*
X96250000Y-101550000D02*
X92250000Y-101550000D01*
X87684314Y-101550000D02*
X81967157Y-95832843D01*
X81967157Y-95832843D02*
X81650000Y-95515686D01*
X89250000Y-101550000D02*
X87684314Y-101550000D01*
%TO.N,S1 O*%
X87752943Y-102750000D02*
X80650000Y-95647057D01*
X95884314Y-102750000D02*
X102250000Y-109115686D01*
X80650000Y-85722184D02*
X82536092Y-83836092D01*
X89250000Y-102750000D02*
X87752943Y-102750000D01*
X102250000Y-109115686D02*
X102250000Y-112550000D01*
X92250000Y-102750000D02*
X95884314Y-102750000D01*
X80650000Y-95647057D02*
X80650000Y-85722184D01*
X102250000Y-112550000D02*
X104250000Y-114550000D01*
%TO.N,S1*%
X120200000Y-118950000D02*
X120200000Y-106025000D01*
X121500000Y-120250000D02*
X120200000Y-118950000D01*
X120200000Y-106025000D02*
X126500000Y-99725000D01*
%TO.N,GND*%
X118400000Y-102825000D02*
X118400000Y-106725000D01*
X121500000Y-99725000D02*
X118400000Y-102825000D01*
X97775001Y-170000000D02*
X97000000Y-169224999D01*
X106800001Y-170000000D02*
X97775001Y-170000000D01*
%TO.N,D+*%
X88451137Y-118592687D02*
X88451137Y-118198863D01*
X90525000Y-116125000D02*
X90525000Y-93275000D01*
X88451137Y-118198863D02*
X90525000Y-116125000D01*
X90525000Y-93275000D02*
X91250000Y-92550000D01*
%TO.N,D-*%
X91250000Y-94050000D02*
X91375000Y-94175000D01*
X91375000Y-116425000D02*
X89250000Y-118550000D01*
X91375000Y-94175000D02*
X91375000Y-116425000D01*
%TO.N,S0*%
X110000001Y-167250000D02*
X113800001Y-171050000D01*
X87000000Y-169224999D02*
X88974999Y-167250000D01*
X88974999Y-167250000D02*
X110000001Y-167250000D01*
%TO.N,LCD-RES*%
X98721470Y-90050000D02*
X96250000Y-90050000D01*
X76250000Y-107550000D02*
X81250000Y-107550000D01*
X81250000Y-107550000D02*
X86250000Y-102550000D01*
X98735735Y-90064265D02*
X98721470Y-90050000D01*
%TO.N,Net-(BZ1--)*%
X123500001Y-181250000D02*
X122500001Y-182250000D01*
X122500001Y-182250000D02*
X99800001Y-182250000D01*
X99800001Y-182250000D02*
X97300001Y-179750000D01*
X123500001Y-170750000D02*
X123500001Y-181250000D01*
%TO.N,SCL*%
X76750000Y-86050000D02*
X79250000Y-83550000D01*
%TO.N,E1A*%
X124000000Y-120250000D02*
X124000000Y-116725000D01*
X124000000Y-116725000D02*
X121500000Y-114225000D01*
%TO.N,LCD-CS*%
X76250000Y-105050000D02*
X81750000Y-105050000D01*
X99750000Y-95050000D02*
X98750000Y-95050000D01*
X81750000Y-105050000D02*
X85250000Y-101550000D01*
X98750000Y-95050000D02*
X96750000Y-97050000D01*
%TO.N,LCD-BLK*%
X80650000Y-98150000D02*
X78750000Y-100050000D01*
X95618626Y-95918626D02*
X98001153Y-93536099D01*
X80750000Y-98150000D02*
X80650000Y-98150000D01*
X98001153Y-93536099D02*
X99244255Y-93536099D01*
%TO.N,LCD-DC*%
X76250000Y-102550000D02*
X83213898Y-102550000D01*
X96184313Y-96484313D02*
X98393178Y-94275448D01*
X83213898Y-102550000D02*
X84959156Y-100804742D01*
X98393178Y-94275448D02*
X99549816Y-94275448D01*
%TO.N,S0 O*%
X89750000Y-88550000D02*
X104250000Y-88550000D01*
X86250000Y-85050000D02*
X89750000Y-88550000D01*
%TO.N,Net-(Q1-B)*%
X124305736Y-167944265D02*
X125000001Y-167250000D01*
X125000001Y-167250000D02*
X140000001Y-167250000D01*
X140000001Y-167250000D02*
X142500001Y-169750000D01*
%TO.N,Net-(Q2-B)*%
X129230001Y-172020000D02*
X140632501Y-172020000D01*
X142500001Y-173887500D02*
X142500001Y-174750000D01*
X140632501Y-172020000D02*
X142500001Y-173887500D01*
%TD*%
%TA.AperFunction,Conductor*%
%TO.N,+3V3*%
G36*
X107942539Y-77520185D02*
G01*
X107988294Y-77572989D01*
X107999500Y-77624500D01*
X107999500Y-124125500D01*
X107979815Y-124192539D01*
X107927011Y-124238294D01*
X107875500Y-124249500D01*
X106631491Y-124249500D01*
X106296618Y-124287231D01*
X106296602Y-124287233D01*
X105968044Y-124362224D01*
X105968037Y-124362226D01*
X105966494Y-124362766D01*
X105966092Y-124362786D01*
X105964706Y-124363186D01*
X105964612Y-124362861D01*
X105896715Y-124366317D01*
X105863559Y-124353105D01*
X105743189Y-124283609D01*
X105743186Y-124283608D01*
X105615892Y-124249500D01*
X105484108Y-124249500D01*
X105356814Y-124283608D01*
X105356813Y-124283608D01*
X105356811Y-124283609D01*
X105356810Y-124283609D01*
X105237000Y-124352782D01*
X105169100Y-124369255D01*
X105113000Y-124352782D01*
X104993189Y-124283609D01*
X104993186Y-124283608D01*
X104865892Y-124249500D01*
X104734108Y-124249500D01*
X104606814Y-124283608D01*
X104606813Y-124283608D01*
X104606811Y-124283609D01*
X104606810Y-124283609D01*
X104487000Y-124352782D01*
X104419100Y-124369255D01*
X104363000Y-124352782D01*
X104243189Y-124283609D01*
X104243186Y-124283608D01*
X104115892Y-124249500D01*
X103984108Y-124249500D01*
X103856814Y-124283608D01*
X103856813Y-124283608D01*
X103856811Y-124283609D01*
X103856810Y-124283609D01*
X103737000Y-124352782D01*
X103669100Y-124369255D01*
X103613000Y-124352782D01*
X103493189Y-124283609D01*
X103493186Y-124283608D01*
X103365892Y-124249500D01*
X103234108Y-124249500D01*
X103106814Y-124283608D01*
X103106813Y-124283608D01*
X103106811Y-124283609D01*
X103106810Y-124283609D01*
X102987000Y-124352782D01*
X102919100Y-124369255D01*
X102863000Y-124352782D01*
X102743189Y-124283609D01*
X102743186Y-124283608D01*
X102615892Y-124249500D01*
X102484108Y-124249500D01*
X102356814Y-124283608D01*
X102356813Y-124283608D01*
X102356811Y-124283609D01*
X102356810Y-124283609D01*
X102237000Y-124352782D01*
X102169100Y-124369255D01*
X102113000Y-124352782D01*
X101993189Y-124283609D01*
X101993186Y-124283608D01*
X101865892Y-124249500D01*
X101734108Y-124249500D01*
X101606814Y-124283608D01*
X101606813Y-124283608D01*
X101606811Y-124283609D01*
X101606810Y-124283609D01*
X101487000Y-124352782D01*
X101419100Y-124369255D01*
X101363000Y-124352782D01*
X101243189Y-124283609D01*
X101243186Y-124283608D01*
X101115892Y-124249500D01*
X100984108Y-124249500D01*
X100856814Y-124283608D01*
X100856813Y-124283608D01*
X100856811Y-124283609D01*
X100856810Y-124283609D01*
X100737000Y-124352782D01*
X100669100Y-124369255D01*
X100613000Y-124352782D01*
X100493189Y-124283609D01*
X100493186Y-124283608D01*
X100365892Y-124249500D01*
X100234108Y-124249500D01*
X100106814Y-124283608D01*
X100106813Y-124283608D01*
X100106811Y-124283609D01*
X100106810Y-124283609D01*
X99987000Y-124352782D01*
X99919100Y-124369255D01*
X99863000Y-124352782D01*
X99743189Y-124283609D01*
X99743186Y-124283608D01*
X99615892Y-124249500D01*
X99484108Y-124249500D01*
X99356814Y-124283608D01*
X99356813Y-124283608D01*
X99356811Y-124283609D01*
X99356810Y-124283609D01*
X99237000Y-124352782D01*
X99169100Y-124369255D01*
X99113000Y-124352782D01*
X98993189Y-124283609D01*
X98993186Y-124283608D01*
X98865892Y-124249500D01*
X98734108Y-124249500D01*
X98606814Y-124283608D01*
X98606813Y-124283608D01*
X98606811Y-124283609D01*
X98606810Y-124283609D01*
X98487000Y-124352782D01*
X98419100Y-124369255D01*
X98363000Y-124352782D01*
X98243189Y-124283609D01*
X98243186Y-124283608D01*
X98115892Y-124249500D01*
X97984108Y-124249500D01*
X97856814Y-124283608D01*
X97856813Y-124283608D01*
X97856811Y-124283609D01*
X97856810Y-124283609D01*
X97736440Y-124353105D01*
X97668540Y-124369578D01*
X97635320Y-124363117D01*
X97635300Y-124363188D01*
X97634498Y-124362957D01*
X97633490Y-124362761D01*
X97631962Y-124362226D01*
X97631948Y-124362222D01*
X97303397Y-124287233D01*
X97303381Y-124287231D01*
X96968508Y-124249500D01*
X96968504Y-124249500D01*
X96865892Y-124249500D01*
X82865892Y-124249500D01*
X82800000Y-124249500D01*
X82631496Y-124249500D01*
X82631491Y-124249500D01*
X82296618Y-124287231D01*
X82296602Y-124287233D01*
X81968044Y-124362224D01*
X81968037Y-124362226D01*
X81966494Y-124362766D01*
X81966092Y-124362786D01*
X81964706Y-124363186D01*
X81964612Y-124362861D01*
X81896715Y-124366317D01*
X81863559Y-124353105D01*
X81743189Y-124283609D01*
X81743186Y-124283608D01*
X81615892Y-124249500D01*
X81484108Y-124249500D01*
X81356814Y-124283608D01*
X81356813Y-124283608D01*
X81356811Y-124283609D01*
X81356810Y-124283609D01*
X81237000Y-124352782D01*
X81169100Y-124369255D01*
X81113000Y-124352782D01*
X80993189Y-124283609D01*
X80993186Y-124283608D01*
X80865892Y-124249500D01*
X80734108Y-124249500D01*
X80606814Y-124283608D01*
X80606813Y-124283608D01*
X80606811Y-124283609D01*
X80606810Y-124283609D01*
X80487000Y-124352782D01*
X80419100Y-124369255D01*
X80363000Y-124352782D01*
X80243189Y-124283609D01*
X80243186Y-124283608D01*
X80115892Y-124249500D01*
X79984108Y-124249500D01*
X79856814Y-124283608D01*
X79856813Y-124283608D01*
X79856811Y-124283609D01*
X79856810Y-124283609D01*
X79737000Y-124352782D01*
X79669100Y-124369255D01*
X79613000Y-124352782D01*
X79493189Y-124283609D01*
X79493186Y-124283608D01*
X79365892Y-124249500D01*
X79234108Y-124249500D01*
X79106814Y-124283608D01*
X79106813Y-124283608D01*
X79106811Y-124283609D01*
X79106810Y-124283609D01*
X78987000Y-124352782D01*
X78919100Y-124369255D01*
X78863000Y-124352782D01*
X78743189Y-124283609D01*
X78743186Y-124283608D01*
X78615892Y-124249500D01*
X78484108Y-124249500D01*
X78356814Y-124283608D01*
X78356813Y-124283608D01*
X78356811Y-124283609D01*
X78356810Y-124283609D01*
X78237000Y-124352782D01*
X78169100Y-124369255D01*
X78113000Y-124352782D01*
X77993189Y-124283609D01*
X77993186Y-124283608D01*
X77865892Y-124249500D01*
X77734108Y-124249500D01*
X77606814Y-124283608D01*
X77606813Y-124283608D01*
X77606811Y-124283609D01*
X77606810Y-124283609D01*
X77487000Y-124352782D01*
X77419100Y-124369255D01*
X77363000Y-124352782D01*
X77243189Y-124283609D01*
X77243186Y-124283608D01*
X77115892Y-124249500D01*
X76984108Y-124249500D01*
X76856814Y-124283608D01*
X76856813Y-124283608D01*
X76856811Y-124283609D01*
X76856810Y-124283609D01*
X76737000Y-124352782D01*
X76669100Y-124369255D01*
X76613000Y-124352782D01*
X76493189Y-124283609D01*
X76493186Y-124283608D01*
X76365892Y-124249500D01*
X76234108Y-124249500D01*
X76106814Y-124283608D01*
X76106813Y-124283608D01*
X76106811Y-124283609D01*
X76106810Y-124283609D01*
X75987000Y-124352782D01*
X75919100Y-124369255D01*
X75863000Y-124352782D01*
X75743189Y-124283609D01*
X75743186Y-124283608D01*
X75615892Y-124249500D01*
X75484108Y-124249500D01*
X75356814Y-124283608D01*
X75356813Y-124283608D01*
X75356811Y-124283609D01*
X75356810Y-124283609D01*
X75237000Y-124352782D01*
X75169100Y-124369255D01*
X75113000Y-124352782D01*
X74993189Y-124283609D01*
X74993186Y-124283608D01*
X74865892Y-124249500D01*
X74734108Y-124249500D01*
X74606814Y-124283608D01*
X74606813Y-124283608D01*
X74606811Y-124283609D01*
X74606810Y-124283609D01*
X74487000Y-124352782D01*
X74419100Y-124369255D01*
X74363000Y-124352782D01*
X74243189Y-124283609D01*
X74243186Y-124283608D01*
X74115892Y-124249500D01*
X73984108Y-124249500D01*
X73856814Y-124283608D01*
X73856813Y-124283608D01*
X73856811Y-124283609D01*
X73856810Y-124283609D01*
X73736440Y-124353105D01*
X73668540Y-124369578D01*
X73635320Y-124363117D01*
X73635300Y-124363188D01*
X73634498Y-124362957D01*
X73633490Y-124362761D01*
X73631962Y-124362226D01*
X73631948Y-124362222D01*
X73303397Y-124287233D01*
X73303381Y-124287231D01*
X72968508Y-124249500D01*
X72968504Y-124249500D01*
X72865892Y-124249500D01*
X72624500Y-124249500D01*
X72557461Y-124229815D01*
X72511706Y-124177011D01*
X72500500Y-124125500D01*
X72500500Y-122623543D01*
X83429499Y-122623543D01*
X83467947Y-122816829D01*
X83467950Y-122816839D01*
X83543364Y-122998907D01*
X83543371Y-122998920D01*
X83652860Y-123162781D01*
X83652863Y-123162785D01*
X83792214Y-123302136D01*
X83792218Y-123302139D01*
X83956079Y-123411628D01*
X83956092Y-123411635D01*
X84138160Y-123487049D01*
X84138165Y-123487051D01*
X84138169Y-123487051D01*
X84138170Y-123487052D01*
X84331456Y-123525500D01*
X84331459Y-123525500D01*
X84528543Y-123525500D01*
X84658582Y-123499632D01*
X84721835Y-123487051D01*
X84903914Y-123411632D01*
X85067782Y-123302139D01*
X85207139Y-123162782D01*
X85316632Y-122998914D01*
X85392051Y-122816835D01*
X85430500Y-122623543D01*
X92069499Y-122623543D01*
X92107947Y-122816829D01*
X92107950Y-122816839D01*
X92183364Y-122998907D01*
X92183371Y-122998920D01*
X92292860Y-123162781D01*
X92292863Y-123162785D01*
X92432214Y-123302136D01*
X92432218Y-123302139D01*
X92596079Y-123411628D01*
X92596092Y-123411635D01*
X92778160Y-123487049D01*
X92778165Y-123487051D01*
X92778169Y-123487051D01*
X92778170Y-123487052D01*
X92971456Y-123525500D01*
X92971459Y-123525500D01*
X93168543Y-123525500D01*
X93298582Y-123499632D01*
X93361835Y-123487051D01*
X93543914Y-123411632D01*
X93707782Y-123302139D01*
X93847139Y-123162782D01*
X93956632Y-122998914D01*
X94032051Y-122816835D01*
X94070500Y-122623541D01*
X94070500Y-121626459D01*
X94070500Y-121626456D01*
X94032052Y-121433170D01*
X94032051Y-121433169D01*
X94032051Y-121433165D01*
X94032049Y-121433160D01*
X93956635Y-121251092D01*
X93956628Y-121251079D01*
X93847139Y-121087218D01*
X93847136Y-121087214D01*
X93707785Y-120947863D01*
X93707781Y-120947860D01*
X93543920Y-120838371D01*
X93543907Y-120838364D01*
X93361839Y-120762950D01*
X93361829Y-120762947D01*
X93168543Y-120724500D01*
X93168541Y-120724500D01*
X92971459Y-120724500D01*
X92971457Y-120724500D01*
X92778170Y-120762947D01*
X92778160Y-120762950D01*
X92596092Y-120838364D01*
X92596079Y-120838371D01*
X92432218Y-120947860D01*
X92432214Y-120947863D01*
X92292863Y-121087214D01*
X92292860Y-121087218D01*
X92183371Y-121251079D01*
X92183364Y-121251092D01*
X92107950Y-121433160D01*
X92107947Y-121433170D01*
X92069500Y-121626456D01*
X92069500Y-121626459D01*
X92069500Y-122623541D01*
X92069500Y-122623543D01*
X92069499Y-122623543D01*
X85430500Y-122623543D01*
X85430500Y-122623541D01*
X85430500Y-121626459D01*
X85430500Y-121626456D01*
X85392052Y-121433170D01*
X85392051Y-121433169D01*
X85392051Y-121433165D01*
X85392049Y-121433160D01*
X85316635Y-121251092D01*
X85316628Y-121251079D01*
X85207139Y-121087218D01*
X85207136Y-121087214D01*
X85067785Y-120947863D01*
X85067781Y-120947860D01*
X84903920Y-120838371D01*
X84903907Y-120838364D01*
X84721839Y-120762950D01*
X84721829Y-120762947D01*
X84528543Y-120724500D01*
X84528541Y-120724500D01*
X84331459Y-120724500D01*
X84331457Y-120724500D01*
X84138170Y-120762947D01*
X84138160Y-120762950D01*
X83956092Y-120838364D01*
X83956079Y-120838371D01*
X83792218Y-120947860D01*
X83792214Y-120947863D01*
X83652863Y-121087214D01*
X83652860Y-121087218D01*
X83543371Y-121251079D01*
X83543364Y-121251092D01*
X83467950Y-121433160D01*
X83467947Y-121433170D01*
X83429500Y-121626456D01*
X83429500Y-121626459D01*
X83429500Y-122623541D01*
X83429500Y-122623543D01*
X83429499Y-122623543D01*
X72500500Y-122623543D01*
X72500500Y-120331493D01*
X72500499Y-120331491D01*
X72462768Y-119996618D01*
X72462767Y-119996606D01*
X72387776Y-119668046D01*
X72387239Y-119666514D01*
X72387219Y-119666114D01*
X72386812Y-119664700D01*
X72387142Y-119664604D01*
X72383677Y-119596736D01*
X72396895Y-119563557D01*
X72400498Y-119557315D01*
X72400500Y-119557314D01*
X72466392Y-119443186D01*
X72500500Y-119315892D01*
X72500500Y-119184108D01*
X72466392Y-119056814D01*
X72400500Y-118942686D01*
X72400498Y-118942684D01*
X72397217Y-118937001D01*
X72380744Y-118869101D01*
X72397217Y-118812999D01*
X72400498Y-118807315D01*
X72400500Y-118807314D01*
X72466392Y-118693186D01*
X72500500Y-118565892D01*
X72500500Y-118434108D01*
X72466392Y-118306814D01*
X72400500Y-118192686D01*
X72400498Y-118192684D01*
X72397217Y-118187001D01*
X72380744Y-118119101D01*
X72397217Y-118062999D01*
X72400498Y-118057315D01*
X72400500Y-118057314D01*
X72466392Y-117943186D01*
X72500500Y-117815892D01*
X72500500Y-117684108D01*
X72466392Y-117556814D01*
X72400500Y-117442686D01*
X72400498Y-117442684D01*
X72397217Y-117437001D01*
X72380744Y-117369101D01*
X72397217Y-117312999D01*
X72400498Y-117307315D01*
X72400500Y-117307314D01*
X72466392Y-117193186D01*
X72500500Y-117065892D01*
X72500500Y-116934108D01*
X72466392Y-116806814D01*
X72400500Y-116692686D01*
X72400498Y-116692684D01*
X72397217Y-116687001D01*
X72380744Y-116619101D01*
X72397217Y-116562999D01*
X72400498Y-116557315D01*
X72400500Y-116557314D01*
X72466392Y-116443186D01*
X72500500Y-116315892D01*
X72500500Y-116184108D01*
X72466392Y-116056814D01*
X72400500Y-115942686D01*
X72400498Y-115942684D01*
X72397217Y-115937001D01*
X72380744Y-115869101D01*
X72397217Y-115812999D01*
X72400498Y-115807315D01*
X72400500Y-115807314D01*
X72466392Y-115693186D01*
X72500500Y-115565892D01*
X72500500Y-115434108D01*
X72466392Y-115306814D01*
X72400500Y-115192686D01*
X72400498Y-115192684D01*
X72397217Y-115187001D01*
X72380744Y-115119101D01*
X72397217Y-115062999D01*
X72400498Y-115057315D01*
X72400500Y-115057314D01*
X72466392Y-114943186D01*
X72500500Y-114815892D01*
X72500500Y-114684108D01*
X72466392Y-114556814D01*
X72400500Y-114442686D01*
X72400498Y-114442684D01*
X72397217Y-114437001D01*
X72380744Y-114369101D01*
X72397217Y-114312999D01*
X72400498Y-114307315D01*
X72400500Y-114307314D01*
X72466392Y-114193186D01*
X72500500Y-114065892D01*
X72500500Y-113934108D01*
X72466392Y-113806814D01*
X72400500Y-113692686D01*
X72400498Y-113692684D01*
X72397217Y-113687001D01*
X72380744Y-113619101D01*
X72397217Y-113562999D01*
X72400498Y-113557315D01*
X72400500Y-113557314D01*
X72466392Y-113443186D01*
X72500500Y-113315892D01*
X72500500Y-113184108D01*
X72466392Y-113056814D01*
X72400500Y-112942686D01*
X72400498Y-112942684D01*
X72397217Y-112937001D01*
X72380744Y-112869101D01*
X72397217Y-112812999D01*
X72400498Y-112807315D01*
X72400500Y-112807314D01*
X72466392Y-112693186D01*
X72500500Y-112565892D01*
X72500500Y-112434108D01*
X72466392Y-112306814D01*
X72400500Y-112192686D01*
X72400498Y-112192684D01*
X72397217Y-112187001D01*
X72380744Y-112119101D01*
X72397217Y-112062999D01*
X72400498Y-112057315D01*
X72400500Y-112057314D01*
X72466392Y-111943186D01*
X72500500Y-111815892D01*
X72500500Y-111684108D01*
X72466392Y-111556814D01*
X72400500Y-111442686D01*
X72400497Y-111442683D01*
X72396894Y-111436442D01*
X72380421Y-111368542D01*
X72386884Y-111335326D01*
X72386811Y-111335305D01*
X72387050Y-111334473D01*
X72387246Y-111333469D01*
X72387775Y-111331957D01*
X72387776Y-111331953D01*
X72395069Y-111300000D01*
X72462767Y-111003394D01*
X72500500Y-110668504D01*
X72500500Y-110500000D01*
X72500500Y-110434108D01*
X72500500Y-99943713D01*
X74774500Y-99943713D01*
X74774500Y-100156287D01*
X74784180Y-100217401D01*
X74807753Y-100366239D01*
X74807753Y-100366241D01*
X74807754Y-100366243D01*
X74870803Y-100560288D01*
X74873444Y-100568414D01*
X74969951Y-100757820D01*
X75094890Y-100929786D01*
X75245209Y-101080105D01*
X75245214Y-101080109D01*
X75409793Y-101199682D01*
X75452459Y-101255011D01*
X75458438Y-101324625D01*
X75425833Y-101386420D01*
X75409793Y-101400318D01*
X75245214Y-101519890D01*
X75245209Y-101519894D01*
X75094890Y-101670213D01*
X74969951Y-101842179D01*
X74873444Y-102031585D01*
X74807753Y-102233760D01*
X74774500Y-102443713D01*
X74774500Y-102656287D01*
X74807754Y-102866243D01*
X74870804Y-103060291D01*
X74873444Y-103068414D01*
X74969951Y-103257820D01*
X75094890Y-103429786D01*
X75245209Y-103580105D01*
X75245214Y-103580109D01*
X75409793Y-103699682D01*
X75452459Y-103755011D01*
X75458438Y-103824625D01*
X75425833Y-103886420D01*
X75409793Y-103900318D01*
X75245214Y-104019890D01*
X75245209Y-104019894D01*
X75094890Y-104170213D01*
X74969951Y-104342179D01*
X74873444Y-104531585D01*
X74807753Y-104733760D01*
X74774500Y-104943713D01*
X74774500Y-105156286D01*
X74807753Y-105366239D01*
X74873444Y-105568414D01*
X74969951Y-105757820D01*
X75094890Y-105929786D01*
X75245209Y-106080105D01*
X75245214Y-106080109D01*
X75409793Y-106199682D01*
X75452459Y-106255011D01*
X75458438Y-106324625D01*
X75425833Y-106386420D01*
X75409793Y-106400318D01*
X75245214Y-106519890D01*
X75245209Y-106519894D01*
X75094890Y-106670213D01*
X74969951Y-106842179D01*
X74873444Y-107031585D01*
X74807753Y-107233760D01*
X74786771Y-107366239D01*
X74774500Y-107443713D01*
X74774500Y-107656287D01*
X74807754Y-107866243D01*
X74861130Y-108030518D01*
X74873444Y-108068414D01*
X74969951Y-108257820D01*
X75094890Y-108429786D01*
X75245209Y-108580105D01*
X75245214Y-108580109D01*
X75409793Y-108699682D01*
X75452459Y-108755011D01*
X75458438Y-108824625D01*
X75425833Y-108886420D01*
X75409793Y-108900318D01*
X75245214Y-109019890D01*
X75245209Y-109019894D01*
X75094890Y-109170213D01*
X74969951Y-109342179D01*
X74873444Y-109531585D01*
X74807753Y-109733760D01*
X74786771Y-109866239D01*
X74774500Y-109943713D01*
X74774500Y-110156287D01*
X74807754Y-110366243D01*
X74851214Y-110500000D01*
X74873444Y-110568414D01*
X74969951Y-110757820D01*
X75094890Y-110929786D01*
X75245209Y-111080105D01*
X75245214Y-111080109D01*
X75409793Y-111199682D01*
X75452459Y-111255011D01*
X75458438Y-111324625D01*
X75425833Y-111386420D01*
X75409793Y-111400318D01*
X75245214Y-111519890D01*
X75245209Y-111519894D01*
X75094890Y-111670213D01*
X74969951Y-111842179D01*
X74873444Y-112031585D01*
X74807753Y-112233760D01*
X74776021Y-112434108D01*
X74774500Y-112443713D01*
X74774500Y-112656287D01*
X74807754Y-112866243D01*
X74863428Y-113037590D01*
X74873444Y-113068414D01*
X74969951Y-113257820D01*
X75094890Y-113429786D01*
X75245209Y-113580105D01*
X75245214Y-113580109D01*
X75409793Y-113699682D01*
X75452459Y-113755011D01*
X75458438Y-113824625D01*
X75425833Y-113886420D01*
X75409793Y-113900318D01*
X75245214Y-114019890D01*
X75245209Y-114019894D01*
X75094890Y-114170213D01*
X74969951Y-114342179D01*
X74873444Y-114531585D01*
X74807753Y-114733760D01*
X74794745Y-114815890D01*
X74774500Y-114943713D01*
X74774500Y-115156287D01*
X74807754Y-115366243D01*
X74872624Y-115565892D01*
X74873444Y-115568414D01*
X74969951Y-115757820D01*
X75094890Y-115929786D01*
X75233705Y-116068601D01*
X75267190Y-116129924D01*
X75262206Y-116199616D01*
X75220334Y-116255549D01*
X75211121Y-116261821D01*
X75056342Y-116357289D01*
X74932289Y-116481342D01*
X74840187Y-116630663D01*
X74840185Y-116630668D01*
X74812349Y-116714670D01*
X74785001Y-116797203D01*
X74785001Y-116797204D01*
X74785000Y-116797204D01*
X74774500Y-116899983D01*
X74774500Y-118200001D01*
X74774501Y-118200018D01*
X74785000Y-118302796D01*
X74785001Y-118302799D01*
X74828513Y-118434108D01*
X74840186Y-118469334D01*
X74932288Y-118618656D01*
X75056344Y-118742712D01*
X75205666Y-118834814D01*
X75372203Y-118889999D01*
X75474991Y-118900500D01*
X77025008Y-118900499D01*
X77127797Y-118889999D01*
X77294334Y-118834814D01*
X77443656Y-118742712D01*
X77567712Y-118618656D01*
X77583202Y-118593543D01*
X83429499Y-118593543D01*
X83467947Y-118786829D01*
X83467950Y-118786839D01*
X83543364Y-118968907D01*
X83543371Y-118968920D01*
X83652860Y-119132781D01*
X83652863Y-119132785D01*
X83792214Y-119272136D01*
X83792218Y-119272139D01*
X83956079Y-119381628D01*
X83956092Y-119381635D01*
X84138160Y-119457049D01*
X84138165Y-119457051D01*
X84138169Y-119457051D01*
X84138170Y-119457052D01*
X84331456Y-119495500D01*
X84331459Y-119495500D01*
X84528543Y-119495500D01*
X84658582Y-119469632D01*
X84721835Y-119457051D01*
X84903914Y-119381632D01*
X85067782Y-119272139D01*
X85207139Y-119132782D01*
X85316632Y-118968914D01*
X85320540Y-118959478D01*
X85364376Y-118905074D01*
X85430669Y-118883004D01*
X85498369Y-118900279D01*
X85503028Y-118903432D01*
X85506633Y-118905513D01*
X85506635Y-118905515D01*
X85637865Y-118981281D01*
X85784234Y-119020500D01*
X85784236Y-119020500D01*
X85935764Y-119020500D01*
X85935766Y-119020500D01*
X86082135Y-118981281D01*
X86213365Y-118905515D01*
X86320515Y-118798365D01*
X86396281Y-118667135D01*
X86435500Y-118520766D01*
X86435500Y-118369234D01*
X86396281Y-118222865D01*
X86320515Y-118091635D01*
X86213365Y-117984485D01*
X86130087Y-117936404D01*
X86082136Y-117908719D01*
X85977584Y-117880705D01*
X85935766Y-117869500D01*
X85784234Y-117869500D01*
X85637862Y-117908719D01*
X85616499Y-117921054D01*
X85548598Y-117937525D01*
X85482572Y-117914673D01*
X85439382Y-117859751D01*
X85430500Y-117813666D01*
X85430500Y-117296456D01*
X85392052Y-117103170D01*
X85392051Y-117103169D01*
X85392051Y-117103165D01*
X85322026Y-116934108D01*
X85316635Y-116921092D01*
X85316628Y-116921079D01*
X85207139Y-116757218D01*
X85207136Y-116757214D01*
X85067785Y-116617863D01*
X85067781Y-116617860D01*
X84903920Y-116508371D01*
X84903907Y-116508364D01*
X84721839Y-116432950D01*
X84721829Y-116432947D01*
X84528543Y-116394500D01*
X84528541Y-116394500D01*
X84331459Y-116394500D01*
X84331457Y-116394500D01*
X84138170Y-116432947D01*
X84138160Y-116432950D01*
X83956092Y-116508364D01*
X83956079Y-116508371D01*
X83792218Y-116617860D01*
X83792214Y-116617863D01*
X83652863Y-116757214D01*
X83652860Y-116757218D01*
X83543371Y-116921079D01*
X83543364Y-116921092D01*
X83467950Y-117103160D01*
X83467947Y-117103170D01*
X83429500Y-117296456D01*
X83429500Y-117296459D01*
X83429500Y-118593541D01*
X83429500Y-118593543D01*
X83429499Y-118593543D01*
X77583202Y-118593543D01*
X77659814Y-118469334D01*
X77714999Y-118302797D01*
X77725500Y-118200009D01*
X77725499Y-116899992D01*
X77714999Y-116797203D01*
X77659814Y-116630666D01*
X77567712Y-116481344D01*
X77443656Y-116357288D01*
X77294334Y-116265186D01*
X77294333Y-116265185D01*
X77288878Y-116261821D01*
X77242154Y-116209873D01*
X77230931Y-116140910D01*
X77258775Y-116076828D01*
X77266272Y-116068623D01*
X77405104Y-115929792D01*
X77444913Y-115875000D01*
X77530048Y-115757820D01*
X77530047Y-115757820D01*
X77530051Y-115757816D01*
X77626557Y-115568412D01*
X77692246Y-115366243D01*
X77725500Y-115156287D01*
X77725500Y-114943713D01*
X77692246Y-114733757D01*
X77626557Y-114531588D01*
X77530051Y-114342184D01*
X77530049Y-114342181D01*
X77530048Y-114342179D01*
X77405109Y-114170213D01*
X77254792Y-114019896D01*
X77254784Y-114019890D01*
X77090204Y-113900316D01*
X77047540Y-113844989D01*
X77041561Y-113775376D01*
X77074166Y-113713580D01*
X77090199Y-113699686D01*
X77254792Y-113580104D01*
X77405104Y-113429792D01*
X77405106Y-113429788D01*
X77405109Y-113429786D01*
X77530048Y-113257820D01*
X77530047Y-113257820D01*
X77530051Y-113257816D01*
X77626557Y-113068412D01*
X77692246Y-112866243D01*
X77725500Y-112656287D01*
X77725500Y-112443713D01*
X77692246Y-112233757D01*
X77626557Y-112031588D01*
X77530051Y-111842184D01*
X77530049Y-111842181D01*
X77530048Y-111842179D01*
X77405109Y-111670213D01*
X77254792Y-111519896D01*
X77254784Y-111519890D01*
X77090204Y-111400316D01*
X77047540Y-111344989D01*
X77041561Y-111275376D01*
X77074166Y-111213580D01*
X77090199Y-111199686D01*
X77254792Y-111080104D01*
X77405104Y-110929792D01*
X77405106Y-110929788D01*
X77405109Y-110929786D01*
X77530048Y-110757820D01*
X77530047Y-110757820D01*
X77530051Y-110757816D01*
X77626557Y-110568412D01*
X77692246Y-110366243D01*
X77725500Y-110156287D01*
X77725500Y-109943713D01*
X77692246Y-109733757D01*
X77626557Y-109531588D01*
X77530051Y-109342184D01*
X77530049Y-109342181D01*
X77530048Y-109342179D01*
X77405109Y-109170213D01*
X77254792Y-109019896D01*
X77254784Y-109019890D01*
X77090204Y-108900316D01*
X77047540Y-108844989D01*
X77041561Y-108775376D01*
X77074166Y-108713580D01*
X77090199Y-108699686D01*
X77254792Y-108580104D01*
X77405104Y-108429792D01*
X77405106Y-108429788D01*
X77405109Y-108429786D01*
X77466717Y-108344989D01*
X77530051Y-108257816D01*
X77530349Y-108257230D01*
X77550235Y-108218205D01*
X77598209Y-108167409D01*
X77660719Y-108150500D01*
X81163331Y-108150500D01*
X81163347Y-108150501D01*
X81170943Y-108150501D01*
X81329054Y-108150501D01*
X81329057Y-108150501D01*
X81481785Y-108109577D01*
X81532833Y-108080104D01*
X81618716Y-108030520D01*
X81730520Y-107918716D01*
X81730520Y-107918714D01*
X81740724Y-107908511D01*
X81740727Y-107908506D01*
X86264662Y-103384572D01*
X86325983Y-103351089D01*
X86328150Y-103350638D01*
X86386085Y-103339113D01*
X86483497Y-103319737D01*
X86629179Y-103259394D01*
X86760289Y-103171789D01*
X86871789Y-103060289D01*
X86924915Y-102980779D01*
X86941081Y-102967269D01*
X86953707Y-102950404D01*
X86967351Y-102945314D01*
X86978527Y-102935975D01*
X86999431Y-102933349D01*
X87019171Y-102925987D01*
X87033401Y-102929082D01*
X87047851Y-102927268D01*
X87066855Y-102936360D01*
X87087444Y-102940839D01*
X87107324Y-102955721D01*
X87110879Y-102957422D01*
X87115698Y-102961990D01*
X87268082Y-103114374D01*
X87268092Y-103114385D01*
X87272422Y-103118715D01*
X87272423Y-103118716D01*
X87384227Y-103230520D01*
X87434233Y-103259390D01*
X87471038Y-103280639D01*
X87471040Y-103280641D01*
X87521156Y-103309576D01*
X87521158Y-103309577D01*
X87673885Y-103350500D01*
X87673886Y-103350500D01*
X88670234Y-103350500D01*
X88737273Y-103370185D01*
X88739125Y-103371398D01*
X88870814Y-103459390D01*
X88870827Y-103459397D01*
X89016498Y-103519735D01*
X89016503Y-103519737D01*
X89168046Y-103549881D01*
X89171153Y-103550499D01*
X89171156Y-103550500D01*
X89171158Y-103550500D01*
X89328844Y-103550500D01*
X89328845Y-103550499D01*
X89483497Y-103519737D01*
X89629179Y-103459394D01*
X89731610Y-103390951D01*
X89798286Y-103370074D01*
X89865666Y-103388558D01*
X89912357Y-103440537D01*
X89924500Y-103494054D01*
X89924500Y-115824902D01*
X89904815Y-115891941D01*
X89888181Y-115912583D01*
X87970618Y-117830145D01*
X87970616Y-117830148D01*
X87925254Y-117908719D01*
X87920497Y-117916958D01*
X87891560Y-117967078D01*
X87878359Y-118016340D01*
X87874737Y-118024707D01*
X87861901Y-118040125D01*
X87848628Y-118063117D01*
X87829349Y-118082395D01*
X87829345Y-118082401D01*
X87741746Y-118213501D01*
X87741739Y-118213514D01*
X87681401Y-118359185D01*
X87681398Y-118359197D01*
X87650637Y-118513840D01*
X87650637Y-118671533D01*
X87681398Y-118826176D01*
X87681401Y-118826188D01*
X87741739Y-118971859D01*
X87741746Y-118971872D01*
X87829347Y-119102975D01*
X87829350Y-119102979D01*
X87940844Y-119214473D01*
X87940848Y-119214476D01*
X88071951Y-119302077D01*
X88071964Y-119302084D01*
X88217635Y-119362422D01*
X88217640Y-119362424D01*
X88314220Y-119381635D01*
X88372290Y-119393186D01*
X88372293Y-119393187D01*
X88372295Y-119393187D01*
X88529981Y-119393187D01*
X88529982Y-119393186D01*
X88684634Y-119362424D01*
X88830316Y-119302081D01*
X88830321Y-119302077D01*
X88835683Y-119299212D01*
X88836256Y-119300284D01*
X88896811Y-119281317D01*
X88946487Y-119290736D01*
X89007218Y-119315891D01*
X89016503Y-119319737D01*
X89168388Y-119349949D01*
X89171153Y-119350499D01*
X89171156Y-119350500D01*
X89171158Y-119350500D01*
X89328844Y-119350500D01*
X89328845Y-119350499D01*
X89483497Y-119319737D01*
X89629179Y-119259394D01*
X89760289Y-119171789D01*
X89871789Y-119060289D01*
X89959394Y-118929179D01*
X90019737Y-118783497D01*
X90050500Y-118628842D01*
X90050638Y-118628150D01*
X90083023Y-118566239D01*
X90084519Y-118564715D01*
X90280000Y-118369234D01*
X91064500Y-118369234D01*
X91064500Y-118520765D01*
X91103719Y-118667136D01*
X91118760Y-118693187D01*
X91179485Y-118798365D01*
X91286635Y-118905515D01*
X91417865Y-118981281D01*
X91564234Y-119020500D01*
X91564236Y-119020500D01*
X91715764Y-119020500D01*
X91715766Y-119020500D01*
X91862135Y-118981281D01*
X91993365Y-118905515D01*
X91993366Y-118905513D01*
X92000403Y-118901451D01*
X92001749Y-118903783D01*
X92054553Y-118883357D01*
X92123001Y-118897381D01*
X92173001Y-118946185D01*
X92179458Y-118959474D01*
X92183367Y-118968913D01*
X92183371Y-118968920D01*
X92292860Y-119132781D01*
X92292863Y-119132785D01*
X92432214Y-119272136D01*
X92432218Y-119272139D01*
X92596079Y-119381628D01*
X92596092Y-119381635D01*
X92778160Y-119457049D01*
X92778165Y-119457051D01*
X92778169Y-119457051D01*
X92778170Y-119457052D01*
X92971456Y-119495500D01*
X92971459Y-119495500D01*
X93168543Y-119495500D01*
X93298582Y-119469632D01*
X93361835Y-119457051D01*
X93543914Y-119381632D01*
X93707782Y-119272139D01*
X93847139Y-119132782D01*
X93956632Y-118968914D01*
X94032051Y-118786835D01*
X94065504Y-118618657D01*
X94070500Y-118593543D01*
X94070500Y-117296456D01*
X94032052Y-117103170D01*
X94032051Y-117103169D01*
X94032051Y-117103165D01*
X93962026Y-116934108D01*
X93956635Y-116921092D01*
X93956628Y-116921079D01*
X93847139Y-116757218D01*
X93847136Y-116757214D01*
X93707785Y-116617863D01*
X93707781Y-116617860D01*
X93543920Y-116508371D01*
X93543907Y-116508364D01*
X93361839Y-116432950D01*
X93361829Y-116432947D01*
X93168543Y-116394500D01*
X93168541Y-116394500D01*
X92971459Y-116394500D01*
X92971457Y-116394500D01*
X92778170Y-116432947D01*
X92778160Y-116432950D01*
X92596092Y-116508364D01*
X92596079Y-116508371D01*
X92432218Y-116617860D01*
X92432214Y-116617863D01*
X92292863Y-116757214D01*
X92292860Y-116757218D01*
X92183371Y-116921079D01*
X92183364Y-116921092D01*
X92107950Y-117103160D01*
X92107947Y-117103170D01*
X92069500Y-117296456D01*
X92069500Y-117813666D01*
X92049815Y-117880705D01*
X91997011Y-117926460D01*
X91927853Y-117936404D01*
X91883501Y-117921054D01*
X91862137Y-117908719D01*
X91757584Y-117880705D01*
X91715766Y-117869500D01*
X91564234Y-117869500D01*
X91417863Y-117908719D01*
X91286635Y-117984485D01*
X91286632Y-117984487D01*
X91179487Y-118091632D01*
X91179485Y-118091635D01*
X91103719Y-118222863D01*
X91064500Y-118369234D01*
X90280000Y-118369234D01*
X91733506Y-116915727D01*
X91733511Y-116915724D01*
X91743714Y-116905520D01*
X91743716Y-116905520D01*
X91855520Y-116793716D01*
X91918531Y-116684577D01*
X91934577Y-116656785D01*
X91975501Y-116504057D01*
X91975501Y-116345943D01*
X91975501Y-116338348D01*
X91975500Y-116338330D01*
X91975500Y-103662675D01*
X91995185Y-103595636D01*
X92047989Y-103549881D01*
X92117147Y-103539937D01*
X92123672Y-103541054D01*
X92158727Y-103548027D01*
X92171157Y-103550500D01*
X92171158Y-103550500D01*
X92328844Y-103550500D01*
X92328845Y-103550499D01*
X92483497Y-103519737D01*
X92629179Y-103459394D01*
X92629185Y-103459390D01*
X92760875Y-103371398D01*
X92827553Y-103350520D01*
X92829766Y-103350500D01*
X95584217Y-103350500D01*
X95651256Y-103370185D01*
X95671898Y-103386819D01*
X101613181Y-109328102D01*
X101646666Y-109389425D01*
X101649500Y-109415783D01*
X101649500Y-112463330D01*
X101649499Y-112463348D01*
X101649499Y-112629054D01*
X101649498Y-112629054D01*
X101690423Y-112781786D01*
X101705395Y-112807716D01*
X101705396Y-112807721D01*
X101705398Y-112807721D01*
X101769479Y-112918714D01*
X101769481Y-112918717D01*
X101888349Y-113037585D01*
X101888355Y-113037590D01*
X102821897Y-113971132D01*
X102855382Y-114032455D01*
X102852147Y-114097129D01*
X102828401Y-114170213D01*
X102807753Y-114233760D01*
X102786317Y-114369101D01*
X102774500Y-114443713D01*
X102774500Y-114656287D01*
X102807754Y-114866243D01*
X102871684Y-115062999D01*
X102873444Y-115068414D01*
X102969951Y-115257820D01*
X103094890Y-115429786D01*
X103233705Y-115568601D01*
X103267190Y-115629924D01*
X103262206Y-115699616D01*
X103220334Y-115755549D01*
X103211121Y-115761821D01*
X103056342Y-115857289D01*
X102932289Y-115981342D01*
X102840187Y-116130663D01*
X102840186Y-116130666D01*
X102785001Y-116297203D01*
X102785001Y-116297204D01*
X102785000Y-116297204D01*
X102774500Y-116399983D01*
X102774500Y-117700001D01*
X102774501Y-117700018D01*
X102785000Y-117802796D01*
X102785001Y-117802799D01*
X102831521Y-117943186D01*
X102840186Y-117969334D01*
X102932288Y-118118656D01*
X103056344Y-118242712D01*
X103205666Y-118334814D01*
X103372203Y-118389999D01*
X103474991Y-118400500D01*
X105025008Y-118400499D01*
X105127797Y-118389999D01*
X105294334Y-118334814D01*
X105443656Y-118242712D01*
X105567712Y-118118656D01*
X105659814Y-117969334D01*
X105714999Y-117802797D01*
X105725500Y-117700009D01*
X105725499Y-116399992D01*
X105714999Y-116297203D01*
X105659814Y-116130666D01*
X105567712Y-115981344D01*
X105443656Y-115857288D01*
X105294334Y-115765186D01*
X105294333Y-115765185D01*
X105288878Y-115761821D01*
X105242154Y-115709873D01*
X105230931Y-115640910D01*
X105258775Y-115576828D01*
X105266272Y-115568623D01*
X105405104Y-115429792D01*
X105530051Y-115257816D01*
X105626557Y-115068412D01*
X105692246Y-114866243D01*
X105725500Y-114656287D01*
X105725500Y-114443713D01*
X105692246Y-114233757D01*
X105626557Y-114031588D01*
X105530051Y-113842184D01*
X105530049Y-113842181D01*
X105530048Y-113842179D01*
X105405109Y-113670213D01*
X105254792Y-113519896D01*
X105090204Y-113400316D01*
X105047540Y-113344989D01*
X105041561Y-113275376D01*
X105074166Y-113213580D01*
X105090199Y-113199686D01*
X105254792Y-113080104D01*
X105405104Y-112929792D01*
X105405106Y-112929788D01*
X105405109Y-112929786D01*
X105530048Y-112757820D01*
X105530047Y-112757820D01*
X105530051Y-112757816D01*
X105626557Y-112568412D01*
X105692246Y-112366243D01*
X105725500Y-112156287D01*
X105725500Y-111943713D01*
X105692246Y-111733757D01*
X105626557Y-111531588D01*
X105530051Y-111342184D01*
X105530049Y-111342181D01*
X105530048Y-111342179D01*
X105405109Y-111170213D01*
X105254792Y-111019896D01*
X105232061Y-111003381D01*
X105090204Y-110900316D01*
X105047540Y-110844989D01*
X105041561Y-110775376D01*
X105074166Y-110713580D01*
X105090199Y-110699686D01*
X105254792Y-110580104D01*
X105405104Y-110429792D01*
X105405106Y-110429788D01*
X105405109Y-110429786D01*
X105530048Y-110257820D01*
X105530047Y-110257820D01*
X105530051Y-110257816D01*
X105626557Y-110068412D01*
X105692246Y-109866243D01*
X105725500Y-109656287D01*
X105725500Y-109443713D01*
X105692246Y-109233757D01*
X105626557Y-109031588D01*
X105530051Y-108842184D01*
X105530049Y-108842181D01*
X105530048Y-108842179D01*
X105405109Y-108670213D01*
X105254792Y-108519896D01*
X105090204Y-108400316D01*
X105047540Y-108344989D01*
X105041561Y-108275376D01*
X105074166Y-108213580D01*
X105090199Y-108199686D01*
X105254792Y-108080104D01*
X105405104Y-107929792D01*
X105405106Y-107929788D01*
X105405109Y-107929786D01*
X105530048Y-107757820D01*
X105530047Y-107757820D01*
X105530051Y-107757816D01*
X105626557Y-107568412D01*
X105692246Y-107366243D01*
X105725500Y-107156287D01*
X105725500Y-106943713D01*
X105692246Y-106733757D01*
X105626557Y-106531588D01*
X105530051Y-106342184D01*
X105530049Y-106342181D01*
X105530048Y-106342179D01*
X105405109Y-106170213D01*
X105254786Y-106019890D01*
X105082820Y-105894951D01*
X104893414Y-105798444D01*
X104893413Y-105798443D01*
X104893412Y-105798443D01*
X104691243Y-105732754D01*
X104691241Y-105732753D01*
X104691240Y-105732753D01*
X104529957Y-105707208D01*
X104481287Y-105699500D01*
X104018713Y-105699500D01*
X103970042Y-105707208D01*
X103808760Y-105732753D01*
X103606585Y-105798444D01*
X103417179Y-105894951D01*
X103245213Y-106019890D01*
X103094890Y-106170213D01*
X102969951Y-106342179D01*
X102873444Y-106531585D01*
X102807753Y-106733760D01*
X102774074Y-106946402D01*
X102744145Y-107009537D01*
X102684833Y-107046468D01*
X102614971Y-107045470D01*
X102563920Y-107014685D01*
X96737590Y-101188355D01*
X96737588Y-101188352D01*
X96720389Y-101171153D01*
X100750500Y-101171153D01*
X100750500Y-101328846D01*
X100781261Y-101483489D01*
X100781263Y-101483497D01*
X100791061Y-101507151D01*
X100800500Y-101554604D01*
X100800500Y-102945396D01*
X100791062Y-102992844D01*
X100781263Y-103016503D01*
X100781262Y-103016506D01*
X100781260Y-103016511D01*
X100750500Y-103171153D01*
X100750500Y-103328846D01*
X100781261Y-103483489D01*
X100781264Y-103483501D01*
X100841602Y-103629172D01*
X100841609Y-103629185D01*
X100929210Y-103760288D01*
X100929213Y-103760292D01*
X101040707Y-103871786D01*
X101040711Y-103871789D01*
X101171814Y-103959390D01*
X101171827Y-103959397D01*
X101317498Y-104019735D01*
X101317503Y-104019737D01*
X101472153Y-104050499D01*
X101472156Y-104050500D01*
X101472158Y-104050500D01*
X101629844Y-104050500D01*
X101629845Y-104050499D01*
X101784497Y-104019737D01*
X101930179Y-103959394D01*
X102061289Y-103871789D01*
X102172789Y-103760289D01*
X102260394Y-103629179D01*
X102320737Y-103483497D01*
X102351500Y-103328842D01*
X102351500Y-103171158D01*
X102351500Y-103171155D01*
X102351499Y-103171153D01*
X102320739Y-103016511D01*
X102320738Y-103016508D01*
X102320737Y-103016503D01*
X102310937Y-102992844D01*
X102301500Y-102945396D01*
X102301500Y-101554604D01*
X102310939Y-101507151D01*
X102320737Y-101483497D01*
X102351500Y-101328842D01*
X102351500Y-101171158D01*
X102351500Y-101171155D01*
X102351499Y-101171153D01*
X102331275Y-101069480D01*
X102320737Y-101016503D01*
X102320735Y-101016498D01*
X102260397Y-100870827D01*
X102260390Y-100870814D01*
X102172789Y-100739711D01*
X102172786Y-100739707D01*
X102061292Y-100628213D01*
X102061288Y-100628210D01*
X101930185Y-100540609D01*
X101930172Y-100540602D01*
X101784501Y-100480264D01*
X101784489Y-100480261D01*
X101629845Y-100449500D01*
X101629842Y-100449500D01*
X101472158Y-100449500D01*
X101472155Y-100449500D01*
X101317510Y-100480261D01*
X101317498Y-100480264D01*
X101171827Y-100540602D01*
X101171814Y-100540609D01*
X101040711Y-100628210D01*
X101040707Y-100628213D01*
X100929213Y-100739707D01*
X100929210Y-100739711D01*
X100841609Y-100870814D01*
X100841602Y-100870827D01*
X100781264Y-101016498D01*
X100781261Y-101016510D01*
X100750500Y-101171153D01*
X96720389Y-101171153D01*
X96618717Y-101069481D01*
X96618716Y-101069480D01*
X96526956Y-101016503D01*
X96526955Y-101016502D01*
X96481783Y-100990422D01*
X96425881Y-100975443D01*
X96329057Y-100949499D01*
X96170943Y-100949499D01*
X96163347Y-100949499D01*
X96163331Y-100949500D01*
X92829766Y-100949500D01*
X92762727Y-100929815D01*
X92760875Y-100928602D01*
X92629185Y-100840609D01*
X92629172Y-100840602D01*
X92483501Y-100780264D01*
X92483489Y-100780261D01*
X92328845Y-100749500D01*
X92328842Y-100749500D01*
X92171158Y-100749500D01*
X92171153Y-100749500D01*
X92123691Y-100758941D01*
X92054099Y-100752714D01*
X91998922Y-100709851D01*
X91975678Y-100643961D01*
X91975500Y-100637324D01*
X91975500Y-94414960D01*
X91984939Y-94367508D01*
X92019735Y-94283501D01*
X92019737Y-94283497D01*
X92050500Y-94128842D01*
X92050500Y-93971158D01*
X92050500Y-93971155D01*
X92050499Y-93971153D01*
X92039270Y-93914700D01*
X92019737Y-93816503D01*
X91968658Y-93693186D01*
X91959397Y-93670827D01*
X91959390Y-93670814D01*
X91871789Y-93539711D01*
X91871786Y-93539707D01*
X91760292Y-93428213D01*
X91760284Y-93428207D01*
X91722712Y-93403102D01*
X91677906Y-93349490D01*
X91669199Y-93280165D01*
X91699353Y-93217138D01*
X91722712Y-93196898D01*
X91749279Y-93179145D01*
X91760289Y-93171789D01*
X91871789Y-93060289D01*
X91959394Y-92929179D01*
X92019737Y-92783497D01*
X92050500Y-92628842D01*
X92050500Y-92471158D01*
X92050500Y-92471155D01*
X92050499Y-92471153D01*
X92019737Y-92316503D01*
X92015931Y-92307314D01*
X91959397Y-92170827D01*
X91959390Y-92170814D01*
X91871789Y-92039711D01*
X91871786Y-92039707D01*
X91760292Y-91928213D01*
X91760288Y-91928210D01*
X91629185Y-91840609D01*
X91629172Y-91840602D01*
X91483501Y-91780264D01*
X91483489Y-91780261D01*
X91328845Y-91749500D01*
X91328842Y-91749500D01*
X91171158Y-91749500D01*
X91171155Y-91749500D01*
X91016510Y-91780261D01*
X91016498Y-91780264D01*
X90870827Y-91840602D01*
X90870814Y-91840609D01*
X90739711Y-91928210D01*
X90739707Y-91928213D01*
X90628213Y-92039707D01*
X90628210Y-92039711D01*
X90540609Y-92170814D01*
X90540602Y-92170827D01*
X90480264Y-92316498D01*
X90480261Y-92316508D01*
X90449361Y-92471850D01*
X90416976Y-92533761D01*
X90415425Y-92535339D01*
X90044481Y-92906282D01*
X90044479Y-92906285D01*
X90031258Y-92929185D01*
X90003929Y-92976522D01*
X89994361Y-92993094D01*
X89994359Y-92993096D01*
X89965425Y-93043209D01*
X89965424Y-93043210D01*
X89961645Y-93057314D01*
X89924499Y-93195943D01*
X89924499Y-93195945D01*
X89924499Y-93364046D01*
X89924500Y-93364059D01*
X89924500Y-100805945D01*
X89904815Y-100872984D01*
X89852011Y-100918739D01*
X89782853Y-100928683D01*
X89731609Y-100909047D01*
X89629185Y-100840609D01*
X89629172Y-100840602D01*
X89483501Y-100780264D01*
X89483489Y-100780261D01*
X89328845Y-100749500D01*
X89328842Y-100749500D01*
X89171158Y-100749500D01*
X89171155Y-100749500D01*
X89016510Y-100780261D01*
X89016498Y-100780264D01*
X88870827Y-100840602D01*
X88870814Y-100840609D01*
X88739125Y-100928602D01*
X88672447Y-100949480D01*
X88670234Y-100949500D01*
X87984411Y-100949500D01*
X87917372Y-100929815D01*
X87896730Y-100913181D01*
X82454747Y-95471198D01*
X82447678Y-95464129D01*
X82447677Y-95464127D01*
X82286816Y-95303266D01*
X82253334Y-95241946D01*
X82250500Y-95215588D01*
X82250500Y-90129765D01*
X82270185Y-90062726D01*
X82271398Y-90060874D01*
X82359390Y-89929185D01*
X82359390Y-89929184D01*
X82359394Y-89929179D01*
X82419737Y-89783497D01*
X82450500Y-89628842D01*
X82450500Y-89471158D01*
X82450500Y-89471155D01*
X82450499Y-89471153D01*
X82445065Y-89443835D01*
X82419737Y-89316503D01*
X82410635Y-89294528D01*
X82359397Y-89170827D01*
X82359390Y-89170814D01*
X82271789Y-89039711D01*
X82271786Y-89039707D01*
X82160292Y-88928213D01*
X82160288Y-88928210D01*
X82079708Y-88874368D01*
X82034903Y-88820756D01*
X82026196Y-88751431D01*
X82026982Y-88747074D01*
X82050500Y-88628844D01*
X82050500Y-88471155D01*
X82050499Y-88471153D01*
X82019738Y-88316510D01*
X82019737Y-88316503D01*
X81985463Y-88233757D01*
X81959397Y-88170827D01*
X81959390Y-88170814D01*
X81871789Y-88039711D01*
X81871786Y-88039707D01*
X81760292Y-87928213D01*
X81760288Y-87928210D01*
X81629185Y-87840609D01*
X81629172Y-87840602D01*
X81483501Y-87780264D01*
X81483491Y-87780261D01*
X81350308Y-87753769D01*
X81288397Y-87721384D01*
X81253823Y-87660668D01*
X81250500Y-87632152D01*
X81250500Y-86022281D01*
X81270185Y-85955242D01*
X81286819Y-85934600D01*
X81796922Y-85424497D01*
X82250265Y-84971153D01*
X85449500Y-84971153D01*
X85449500Y-85128846D01*
X85480261Y-85283489D01*
X85480264Y-85283501D01*
X85540602Y-85429172D01*
X85540609Y-85429185D01*
X85628210Y-85560288D01*
X85628213Y-85560292D01*
X85739707Y-85671786D01*
X85739711Y-85671789D01*
X85870814Y-85759390D01*
X85870827Y-85759397D01*
X86008683Y-85816498D01*
X86016503Y-85819737D01*
X86081147Y-85832595D01*
X86171849Y-85850638D01*
X86233760Y-85883023D01*
X86235339Y-85884574D01*
X89265139Y-88914374D01*
X89265149Y-88914385D01*
X89269479Y-88918715D01*
X89269480Y-88918716D01*
X89381284Y-89030520D01*
X89381286Y-89030521D01*
X89381290Y-89030524D01*
X89518209Y-89109573D01*
X89518216Y-89109577D01*
X89630019Y-89139534D01*
X89670942Y-89150500D01*
X89670943Y-89150500D01*
X95746561Y-89150500D01*
X95813600Y-89170185D01*
X95859355Y-89222989D01*
X95869299Y-89292147D01*
X95840274Y-89355703D01*
X95815452Y-89377602D01*
X95739711Y-89428210D01*
X95739707Y-89428213D01*
X95628213Y-89539707D01*
X95628210Y-89539711D01*
X95540609Y-89670814D01*
X95540602Y-89670827D01*
X95480264Y-89816498D01*
X95480261Y-89816510D01*
X95449500Y-89971153D01*
X95449500Y-90128846D01*
X95480261Y-90283489D01*
X95480264Y-90283501D01*
X95540602Y-90429172D01*
X95540609Y-90429185D01*
X95628210Y-90560288D01*
X95628213Y-90560292D01*
X95739707Y-90671786D01*
X95739711Y-90671789D01*
X95870814Y-90759390D01*
X95870827Y-90759397D01*
X95986511Y-90807314D01*
X96016503Y-90819737D01*
X96171153Y-90850499D01*
X96171156Y-90850500D01*
X96171158Y-90850500D01*
X96328844Y-90850500D01*
X96328845Y-90850499D01*
X96483497Y-90819737D01*
X96629179Y-90759394D01*
X96667543Y-90733760D01*
X96760875Y-90671398D01*
X96827553Y-90650520D01*
X96829766Y-90650500D01*
X98025500Y-90650500D01*
X98092539Y-90670185D01*
X98138294Y-90722989D01*
X98149500Y-90774500D01*
X98149500Y-92246413D01*
X98129815Y-92313452D01*
X98113181Y-92334094D01*
X98021468Y-92425806D01*
X98021465Y-92425810D01*
X97933864Y-92556913D01*
X97933857Y-92556926D01*
X97873519Y-92702597D01*
X97873516Y-92702609D01*
X97842755Y-92857252D01*
X97842755Y-92863269D01*
X97839222Y-92875299D01*
X97840306Y-92887792D01*
X97829564Y-92908191D01*
X97823070Y-92930308D01*
X97812812Y-92940004D01*
X97807752Y-92949614D01*
X97789607Y-92961939D01*
X97779821Y-92971190D01*
X97771323Y-92975997D01*
X97769368Y-92976522D01*
X97719248Y-93005459D01*
X97718822Y-93005704D01*
X97718806Y-93005714D01*
X97632438Y-93055578D01*
X97632435Y-93055580D01*
X95603965Y-95084051D01*
X95542642Y-95117536D01*
X95540476Y-95117987D01*
X95385134Y-95148887D01*
X95385124Y-95148890D01*
X95239453Y-95209228D01*
X95239440Y-95209235D01*
X95108337Y-95296836D01*
X95108333Y-95296839D01*
X94996839Y-95408333D01*
X94996836Y-95408337D01*
X94909235Y-95539440D01*
X94909228Y-95539453D01*
X94848890Y-95685124D01*
X94848887Y-95685136D01*
X94818126Y-95839779D01*
X94818126Y-95997472D01*
X94848887Y-96152115D01*
X94848890Y-96152127D01*
X94909228Y-96297798D01*
X94909235Y-96297811D01*
X94996836Y-96428914D01*
X94996839Y-96428918D01*
X95108333Y-96540412D01*
X95108337Y-96540415D01*
X95239440Y-96628016D01*
X95239453Y-96628023D01*
X95358497Y-96677332D01*
X95412901Y-96721172D01*
X95425606Y-96744440D01*
X95474917Y-96863489D01*
X95474922Y-96863498D01*
X95562523Y-96994601D01*
X95562526Y-96994605D01*
X95674020Y-97106099D01*
X95674024Y-97106102D01*
X95805127Y-97193703D01*
X95805140Y-97193710D01*
X95924184Y-97243019D01*
X95978588Y-97286859D01*
X95991293Y-97310127D01*
X96040604Y-97429176D01*
X96040609Y-97429185D01*
X96128210Y-97560288D01*
X96128213Y-97560292D01*
X96239707Y-97671786D01*
X96239711Y-97671789D01*
X96370814Y-97759390D01*
X96370827Y-97759397D01*
X96462103Y-97797204D01*
X96516503Y-97819737D01*
X96671153Y-97850499D01*
X96671156Y-97850500D01*
X96671158Y-97850500D01*
X96828844Y-97850500D01*
X96828845Y-97850499D01*
X96983497Y-97819737D01*
X97101592Y-97770821D01*
X97129172Y-97759397D01*
X97129172Y-97759396D01*
X97129179Y-97759394D01*
X97260289Y-97671789D01*
X97371789Y-97560289D01*
X97459394Y-97429179D01*
X97519737Y-97283497D01*
X97550500Y-97128842D01*
X97550638Y-97128150D01*
X97583023Y-97066239D01*
X97584518Y-97064716D01*
X98962416Y-95686819D01*
X98989343Y-95672115D01*
X99015162Y-95655523D01*
X99021362Y-95654631D01*
X99023739Y-95653334D01*
X99050097Y-95650500D01*
X99170234Y-95650500D01*
X99237273Y-95670185D01*
X99239125Y-95671398D01*
X99370814Y-95759390D01*
X99370827Y-95759397D01*
X99516498Y-95819735D01*
X99516503Y-95819737D01*
X99671153Y-95850499D01*
X99671156Y-95850500D01*
X99671158Y-95850500D01*
X99828844Y-95850500D01*
X99828845Y-95850499D01*
X99983497Y-95819737D01*
X100129179Y-95759394D01*
X100260289Y-95671789D01*
X100371789Y-95560289D01*
X100459394Y-95429179D01*
X100519737Y-95283497D01*
X100550500Y-95128842D01*
X100550500Y-94971158D01*
X100550500Y-94971155D01*
X100550499Y-94971153D01*
X100525403Y-94844989D01*
X100519737Y-94816503D01*
X100502702Y-94775376D01*
X100459397Y-94670827D01*
X100459390Y-94670814D01*
X100371789Y-94539711D01*
X100369988Y-94537910D01*
X100369344Y-94536732D01*
X100367924Y-94535001D01*
X100368252Y-94534731D01*
X100336498Y-94476590D01*
X100336045Y-94426034D01*
X100350316Y-94354290D01*
X100350316Y-94196606D01*
X100350316Y-94196603D01*
X100350315Y-94196601D01*
X100319553Y-94041951D01*
X100282873Y-93953397D01*
X100259213Y-93896275D01*
X100259206Y-93896262D01*
X100171605Y-93765159D01*
X100171602Y-93765155D01*
X100081074Y-93674627D01*
X100047589Y-93613304D01*
X100044755Y-93586946D01*
X100044755Y-93457254D01*
X100044754Y-93457252D01*
X100038977Y-93428211D01*
X100013992Y-93302602D01*
X100012914Y-93300000D01*
X99953652Y-93156926D01*
X99953645Y-93156913D01*
X99866044Y-93025810D01*
X99866041Y-93025806D01*
X99754547Y-92914312D01*
X99754543Y-92914309D01*
X99623440Y-92826708D01*
X99623427Y-92826701D01*
X99478912Y-92766842D01*
X99455018Y-92747587D01*
X99429812Y-92730086D01*
X99426616Y-92724700D01*
X99424508Y-92723001D01*
X99411805Y-92699737D01*
X99359939Y-92574519D01*
X99350500Y-92527067D01*
X99350500Y-90622681D01*
X99370185Y-90555642D01*
X99371398Y-90553790D01*
X99445125Y-90443450D01*
X99445125Y-90443449D01*
X99445129Y-90443444D01*
X99505472Y-90297762D01*
X99536235Y-90143107D01*
X99536235Y-89985423D01*
X99536235Y-89985420D01*
X99536234Y-89985418D01*
X99533397Y-89971158D01*
X99505472Y-89830768D01*
X99451175Y-89699682D01*
X99445132Y-89685092D01*
X99445125Y-89685079D01*
X99357524Y-89553976D01*
X99357521Y-89553972D01*
X99246027Y-89442478D01*
X99246023Y-89442475D01*
X99148934Y-89377602D01*
X99104129Y-89323990D01*
X99095422Y-89254665D01*
X99125576Y-89191637D01*
X99185020Y-89154918D01*
X99217825Y-89150500D01*
X102839281Y-89150500D01*
X102906320Y-89170185D01*
X102949765Y-89218205D01*
X102969947Y-89257814D01*
X102969948Y-89257815D01*
X103094890Y-89429786D01*
X103245209Y-89580105D01*
X103245214Y-89580109D01*
X103409793Y-89699682D01*
X103452459Y-89755011D01*
X103458438Y-89824625D01*
X103425833Y-89886420D01*
X103409793Y-89900318D01*
X103245214Y-90019890D01*
X103245209Y-90019894D01*
X103094890Y-90170213D01*
X102969951Y-90342179D01*
X102873444Y-90531585D01*
X102807753Y-90733760D01*
X102786317Y-90869101D01*
X102774500Y-90943713D01*
X102774500Y-91156287D01*
X102807754Y-91366243D01*
X102871684Y-91562999D01*
X102873444Y-91568414D01*
X102969951Y-91757820D01*
X103094890Y-91929786D01*
X103245209Y-92080105D01*
X103245214Y-92080109D01*
X103409793Y-92199682D01*
X103452459Y-92255011D01*
X103458438Y-92324625D01*
X103425833Y-92386420D01*
X103409793Y-92400318D01*
X103245214Y-92519890D01*
X103245209Y-92519894D01*
X103094890Y-92670213D01*
X102969951Y-92842179D01*
X102873444Y-93031585D01*
X102873443Y-93031587D01*
X102873443Y-93031588D01*
X102865084Y-93057314D01*
X102807753Y-93233760D01*
X102788700Y-93354057D01*
X102774500Y-93443713D01*
X102774500Y-93656287D01*
X102807754Y-93866243D01*
X102864845Y-94041951D01*
X102873444Y-94068414D01*
X102969951Y-94257820D01*
X103094890Y-94429786D01*
X103245209Y-94580105D01*
X103245214Y-94580109D01*
X103409793Y-94699682D01*
X103452459Y-94755011D01*
X103458438Y-94824625D01*
X103425833Y-94886420D01*
X103409793Y-94900318D01*
X103245214Y-95019890D01*
X103245209Y-95019894D01*
X103094890Y-95170213D01*
X102969951Y-95342179D01*
X102873444Y-95531585D01*
X102873443Y-95531587D01*
X102873443Y-95531588D01*
X102864118Y-95560288D01*
X102807753Y-95733760D01*
X102779340Y-95913157D01*
X102774500Y-95943713D01*
X102774500Y-96156287D01*
X102807754Y-96366243D01*
X102864346Y-96540415D01*
X102873444Y-96568414D01*
X102969951Y-96757820D01*
X103094890Y-96929786D01*
X103233705Y-97068601D01*
X103267190Y-97129924D01*
X103262206Y-97199616D01*
X103220334Y-97255549D01*
X103211121Y-97261821D01*
X103056342Y-97357289D01*
X102932289Y-97481342D01*
X102840187Y-97630663D01*
X102840185Y-97630668D01*
X102826560Y-97671786D01*
X102785001Y-97797203D01*
X102785001Y-97797204D01*
X102785000Y-97797204D01*
X102774500Y-97899983D01*
X102774500Y-99200001D01*
X102774501Y-99200018D01*
X102785000Y-99302796D01*
X102785001Y-99302799D01*
X102826559Y-99428210D01*
X102840186Y-99469334D01*
X102932288Y-99618656D01*
X103056344Y-99742712D01*
X103205666Y-99834814D01*
X103372203Y-99889999D01*
X103474991Y-99900500D01*
X105025008Y-99900499D01*
X105127797Y-99889999D01*
X105294334Y-99834814D01*
X105443656Y-99742712D01*
X105567712Y-99618656D01*
X105659814Y-99469334D01*
X105714999Y-99302797D01*
X105725500Y-99200009D01*
X105725499Y-97899992D01*
X105714999Y-97797203D01*
X105659814Y-97630666D01*
X105567712Y-97481344D01*
X105443656Y-97357288D01*
X105294334Y-97265186D01*
X105294333Y-97265185D01*
X105288878Y-97261821D01*
X105242154Y-97209873D01*
X105230931Y-97140910D01*
X105258775Y-97076828D01*
X105266272Y-97068623D01*
X105405104Y-96929792D01*
X105453274Y-96863492D01*
X105530048Y-96757820D01*
X105530047Y-96757820D01*
X105530051Y-96757816D01*
X105626557Y-96568412D01*
X105692246Y-96366243D01*
X105725500Y-96156287D01*
X105725500Y-95943713D01*
X105692246Y-95733757D01*
X105626557Y-95531588D01*
X105530051Y-95342184D01*
X105530049Y-95342181D01*
X105530048Y-95342179D01*
X105405109Y-95170213D01*
X105254792Y-95019896D01*
X105187705Y-94971155D01*
X105090204Y-94900316D01*
X105047540Y-94844989D01*
X105041561Y-94775376D01*
X105074166Y-94713580D01*
X105090199Y-94699686D01*
X105254792Y-94580104D01*
X105405104Y-94429792D01*
X105405106Y-94429788D01*
X105405109Y-94429786D01*
X105530048Y-94257820D01*
X105530047Y-94257820D01*
X105530051Y-94257816D01*
X105626557Y-94068412D01*
X105692246Y-93866243D01*
X105725500Y-93656287D01*
X105725500Y-93443713D01*
X105692246Y-93233757D01*
X105626557Y-93031588D01*
X105530051Y-92842184D01*
X105530049Y-92842181D01*
X105530048Y-92842179D01*
X105405109Y-92670213D01*
X105254792Y-92519896D01*
X105229148Y-92501265D01*
X105090204Y-92400316D01*
X105047540Y-92344989D01*
X105041561Y-92275376D01*
X105074166Y-92213580D01*
X105090199Y-92199686D01*
X105254792Y-92080104D01*
X105405104Y-91929792D01*
X105405106Y-91929788D01*
X105405109Y-91929786D01*
X105530048Y-91757820D01*
X105530047Y-91757820D01*
X105530051Y-91757816D01*
X105626557Y-91568412D01*
X105692246Y-91366243D01*
X105725500Y-91156287D01*
X105725500Y-90943713D01*
X105692246Y-90733757D01*
X105626557Y-90531588D01*
X105530051Y-90342184D01*
X105530049Y-90342181D01*
X105530048Y-90342179D01*
X105405109Y-90170213D01*
X105254792Y-90019896D01*
X105254784Y-90019890D01*
X105090204Y-89900316D01*
X105047540Y-89844989D01*
X105041561Y-89775376D01*
X105074166Y-89713580D01*
X105090199Y-89699686D01*
X105254792Y-89580104D01*
X105405104Y-89429792D01*
X105405106Y-89429788D01*
X105405109Y-89429786D01*
X105530048Y-89257820D01*
X105530047Y-89257820D01*
X105530051Y-89257816D01*
X105626557Y-89068412D01*
X105692246Y-88866243D01*
X105725500Y-88656287D01*
X105725500Y-88443713D01*
X105692246Y-88233757D01*
X105626557Y-88031588D01*
X105530051Y-87842184D01*
X105530049Y-87842181D01*
X105530048Y-87842179D01*
X105405109Y-87670213D01*
X105254786Y-87519890D01*
X105082820Y-87394951D01*
X104893414Y-87298444D01*
X104893413Y-87298443D01*
X104893412Y-87298443D01*
X104691243Y-87232754D01*
X104691241Y-87232753D01*
X104691240Y-87232753D01*
X104529957Y-87207208D01*
X104481287Y-87199500D01*
X104018713Y-87199500D01*
X103970042Y-87207208D01*
X103808760Y-87232753D01*
X103606585Y-87298444D01*
X103417179Y-87394951D01*
X103245213Y-87519890D01*
X103094890Y-87670213D01*
X102969948Y-87842184D01*
X102969947Y-87842185D01*
X102949765Y-87881795D01*
X102901791Y-87932591D01*
X102839281Y-87949500D01*
X90050097Y-87949500D01*
X89983058Y-87929815D01*
X89962416Y-87913181D01*
X87084574Y-85035339D01*
X87051089Y-84974016D01*
X87050638Y-84971849D01*
X87019738Y-84816510D01*
X87019737Y-84816503D01*
X86964898Y-84684108D01*
X86959397Y-84670827D01*
X86959390Y-84670814D01*
X86871789Y-84539711D01*
X86871786Y-84539707D01*
X86760292Y-84428213D01*
X86760288Y-84428210D01*
X86629185Y-84340609D01*
X86629172Y-84340602D01*
X86483501Y-84280264D01*
X86483489Y-84280261D01*
X86328845Y-84249500D01*
X86328842Y-84249500D01*
X86171158Y-84249500D01*
X86171155Y-84249500D01*
X86016510Y-84280261D01*
X86016498Y-84280264D01*
X85870827Y-84340602D01*
X85870814Y-84340609D01*
X85739711Y-84428210D01*
X85739707Y-84428213D01*
X85628213Y-84539707D01*
X85628210Y-84539711D01*
X85540609Y-84670814D01*
X85540602Y-84670827D01*
X85480264Y-84816498D01*
X85480261Y-84816510D01*
X85449500Y-84971153D01*
X82250265Y-84971153D01*
X82550754Y-84670664D01*
X82612075Y-84637181D01*
X82614242Y-84636730D01*
X82672177Y-84625205D01*
X82769589Y-84605829D01*
X82915271Y-84545486D01*
X83046381Y-84457881D01*
X83157881Y-84346381D01*
X83245486Y-84215271D01*
X83305829Y-84069589D01*
X83336592Y-83914934D01*
X83336592Y-83757250D01*
X83336592Y-83757247D01*
X83336591Y-83757245D01*
X83305829Y-83602595D01*
X83277971Y-83535339D01*
X83245489Y-83456919D01*
X83245482Y-83456906D01*
X83157881Y-83325803D01*
X83157878Y-83325799D01*
X83046384Y-83214305D01*
X83046380Y-83214302D01*
X82915277Y-83126701D01*
X82915264Y-83126694D01*
X82769593Y-83066356D01*
X82769581Y-83066353D01*
X82614937Y-83035592D01*
X82614934Y-83035592D01*
X82457250Y-83035592D01*
X82457247Y-83035592D01*
X82302602Y-83066353D01*
X82302590Y-83066356D01*
X82156919Y-83126694D01*
X82156906Y-83126701D01*
X82025803Y-83214302D01*
X82025799Y-83214305D01*
X81914305Y-83325799D01*
X81914302Y-83325803D01*
X81826701Y-83456906D01*
X81826694Y-83456919D01*
X81766356Y-83602590D01*
X81766353Y-83602600D01*
X81735453Y-83757942D01*
X81703068Y-83819853D01*
X81701517Y-83821431D01*
X80169481Y-85353466D01*
X80169475Y-85353474D01*
X80128471Y-85424497D01*
X80128471Y-85424499D01*
X80090423Y-85490398D01*
X80090423Y-85490399D01*
X80049499Y-85643127D01*
X80049499Y-85643129D01*
X80049499Y-85811230D01*
X80049500Y-85811243D01*
X80049500Y-95560387D01*
X80049499Y-95560405D01*
X80049499Y-95726111D01*
X80049498Y-95726111D01*
X80090423Y-95878842D01*
X80110235Y-95913157D01*
X80110234Y-95913157D01*
X80110235Y-95913158D01*
X80169475Y-96015766D01*
X80169481Y-96015774D01*
X80288349Y-96134642D01*
X80288355Y-96134647D01*
X84309786Y-100156078D01*
X84343271Y-100217401D01*
X84338287Y-100287093D01*
X84325207Y-100312649D01*
X84249768Y-100425551D01*
X84249758Y-100425569D01*
X84189420Y-100571240D01*
X84189417Y-100571250D01*
X84158518Y-100726590D01*
X84126133Y-100788501D01*
X84124582Y-100790079D01*
X83001482Y-101913181D01*
X82940159Y-101946666D01*
X82913801Y-101949500D01*
X77660719Y-101949500D01*
X77593680Y-101929815D01*
X77550235Y-101881795D01*
X77530052Y-101842185D01*
X77530051Y-101842184D01*
X77405109Y-101670213D01*
X77254792Y-101519896D01*
X77237250Y-101507151D01*
X77090204Y-101400316D01*
X77047540Y-101344989D01*
X77041561Y-101275376D01*
X77074166Y-101213580D01*
X77090199Y-101199686D01*
X77254792Y-101080104D01*
X77405104Y-100929792D01*
X77405106Y-100929788D01*
X77405109Y-100929786D01*
X77528902Y-100759397D01*
X77530051Y-100757816D01*
X77626557Y-100568412D01*
X77692246Y-100366243D01*
X77718591Y-100199903D01*
X77748520Y-100136771D01*
X77807831Y-100099839D01*
X77877694Y-100100837D01*
X77935927Y-100139446D01*
X77962681Y-100195111D01*
X77980261Y-100283491D01*
X77980264Y-100283501D01*
X78040602Y-100429172D01*
X78040609Y-100429185D01*
X78128210Y-100560288D01*
X78128213Y-100560292D01*
X78239707Y-100671786D01*
X78239711Y-100671789D01*
X78370814Y-100759390D01*
X78370827Y-100759397D01*
X78516498Y-100819735D01*
X78516503Y-100819737D01*
X78671153Y-100850499D01*
X78671156Y-100850500D01*
X78671158Y-100850500D01*
X78828844Y-100850500D01*
X78828845Y-100850499D01*
X78983497Y-100819737D01*
X79129179Y-100759394D01*
X79260289Y-100671789D01*
X79371789Y-100560289D01*
X79459394Y-100429179D01*
X79519737Y-100283497D01*
X79545041Y-100156286D01*
X79550638Y-100128150D01*
X79583023Y-100066239D01*
X79584516Y-100064718D01*
X80662417Y-98986819D01*
X80723740Y-98953334D01*
X80750098Y-98950500D01*
X80828844Y-98950500D01*
X80828845Y-98950499D01*
X80983497Y-98919737D01*
X81129179Y-98859394D01*
X81260289Y-98771789D01*
X81371789Y-98660289D01*
X81459394Y-98529179D01*
X81519737Y-98383497D01*
X81550500Y-98228842D01*
X81550500Y-98071158D01*
X81550500Y-98071155D01*
X81550499Y-98071153D01*
X81519738Y-97916510D01*
X81519737Y-97916505D01*
X81519737Y-97916503D01*
X81519735Y-97916498D01*
X81459397Y-97770827D01*
X81459390Y-97770814D01*
X81371789Y-97639711D01*
X81371786Y-97639707D01*
X81260292Y-97528213D01*
X81260288Y-97528210D01*
X81129185Y-97440609D01*
X81129172Y-97440602D01*
X80983501Y-97380264D01*
X80983489Y-97380261D01*
X80828845Y-97349500D01*
X80828842Y-97349500D01*
X80671158Y-97349500D01*
X80671155Y-97349500D01*
X80516510Y-97380261D01*
X80516498Y-97380264D01*
X80370827Y-97440602D01*
X80370814Y-97440609D01*
X80239711Y-97528210D01*
X80239707Y-97528213D01*
X80128213Y-97639707D01*
X80128210Y-97639711D01*
X80040609Y-97770814D01*
X80040602Y-97770827D01*
X79980263Y-97916500D01*
X79980262Y-97916505D01*
X79974192Y-97947019D01*
X79941805Y-98008929D01*
X79940256Y-98010506D01*
X78735339Y-99215425D01*
X78674016Y-99248910D01*
X78671850Y-99249361D01*
X78516508Y-99280261D01*
X78516498Y-99280264D01*
X78370827Y-99340602D01*
X78370814Y-99340609D01*
X78239711Y-99428210D01*
X78239707Y-99428213D01*
X78128213Y-99539707D01*
X78128210Y-99539711D01*
X78040609Y-99670814D01*
X78040602Y-99670827D01*
X77980264Y-99816498D01*
X77980261Y-99816508D01*
X77962681Y-99904888D01*
X77930296Y-99966799D01*
X77869580Y-100001373D01*
X77799810Y-99997632D01*
X77743138Y-99956766D01*
X77718591Y-99900094D01*
X77708251Y-99834812D01*
X77692246Y-99733757D01*
X77626557Y-99531588D01*
X77530051Y-99342184D01*
X77530049Y-99342181D01*
X77530048Y-99342179D01*
X77405109Y-99170213D01*
X77254786Y-99019890D01*
X77082820Y-98894951D01*
X76893414Y-98798444D01*
X76893413Y-98798443D01*
X76893412Y-98798443D01*
X76691243Y-98732754D01*
X76691241Y-98732753D01*
X76691240Y-98732753D01*
X76529957Y-98707208D01*
X76481287Y-98699500D01*
X76018713Y-98699500D01*
X75970042Y-98707208D01*
X75808760Y-98732753D01*
X75606585Y-98798444D01*
X75417179Y-98894951D01*
X75245213Y-99019890D01*
X75094890Y-99170213D01*
X74969951Y-99342179D01*
X74873444Y-99531585D01*
X74807753Y-99733760D01*
X74781409Y-99900094D01*
X74774500Y-99943713D01*
X72500500Y-99943713D01*
X72500500Y-94684108D01*
X72500500Y-94581496D01*
X72462767Y-94246606D01*
X72387776Y-93918046D01*
X72387239Y-93916514D01*
X72387219Y-93916114D01*
X72386812Y-93914700D01*
X72387142Y-93914604D01*
X72383677Y-93846736D01*
X72396895Y-93813557D01*
X72400498Y-93807315D01*
X72400500Y-93807314D01*
X72466392Y-93693186D01*
X72500500Y-93565892D01*
X72500500Y-93434108D01*
X72466392Y-93306814D01*
X72400500Y-93192686D01*
X72400498Y-93192684D01*
X72397217Y-93187001D01*
X72380744Y-93119101D01*
X72397217Y-93062999D01*
X72400498Y-93057315D01*
X72400500Y-93057314D01*
X72466392Y-92943186D01*
X72500500Y-92815892D01*
X72500500Y-92684108D01*
X72466392Y-92556814D01*
X72400500Y-92442686D01*
X72400498Y-92442684D01*
X72397217Y-92437001D01*
X72380744Y-92369101D01*
X72397217Y-92312999D01*
X72400498Y-92307315D01*
X72400500Y-92307314D01*
X72466392Y-92193186D01*
X72500500Y-92065892D01*
X72500500Y-91934108D01*
X72466392Y-91806814D01*
X72400500Y-91692686D01*
X72400498Y-91692684D01*
X72397217Y-91687001D01*
X72380744Y-91619101D01*
X72397217Y-91562999D01*
X72400498Y-91557315D01*
X72400500Y-91557314D01*
X72466392Y-91443186D01*
X72500500Y-91315892D01*
X72500500Y-91184108D01*
X72466392Y-91056814D01*
X72400500Y-90942686D01*
X72400498Y-90942684D01*
X72397217Y-90937001D01*
X72380744Y-90869101D01*
X72397217Y-90812999D01*
X72400498Y-90807315D01*
X72400500Y-90807314D01*
X72466392Y-90693186D01*
X72500500Y-90565892D01*
X72500500Y-90434108D01*
X72466392Y-90306814D01*
X72400500Y-90192686D01*
X72400498Y-90192684D01*
X72397217Y-90187001D01*
X72380744Y-90119101D01*
X72397217Y-90062999D01*
X72400498Y-90057315D01*
X72400500Y-90057314D01*
X72466392Y-89943186D01*
X72500500Y-89815892D01*
X72500500Y-89684108D01*
X72466392Y-89556814D01*
X72464753Y-89553976D01*
X72416938Y-89471158D01*
X72400500Y-89442686D01*
X72400498Y-89442684D01*
X72397217Y-89437001D01*
X72380744Y-89369101D01*
X72397217Y-89312999D01*
X72400498Y-89307315D01*
X72400500Y-89307314D01*
X72466392Y-89193186D01*
X72500500Y-89065892D01*
X72500500Y-88934108D01*
X72466392Y-88806814D01*
X72400500Y-88692686D01*
X72400498Y-88692684D01*
X72397217Y-88687001D01*
X72380744Y-88619101D01*
X72397217Y-88562999D01*
X72400498Y-88557315D01*
X72400500Y-88557314D01*
X72466392Y-88443186D01*
X72500500Y-88315892D01*
X72500500Y-88184108D01*
X72466392Y-88056814D01*
X72400500Y-87942686D01*
X72400498Y-87942684D01*
X72397217Y-87937001D01*
X72380744Y-87869101D01*
X72397217Y-87812999D01*
X72400498Y-87807315D01*
X72400500Y-87807314D01*
X72466392Y-87693186D01*
X72500500Y-87565892D01*
X72500500Y-87434108D01*
X72466392Y-87306814D01*
X72400500Y-87192686D01*
X72400498Y-87192684D01*
X72397217Y-87187001D01*
X72380744Y-87119101D01*
X72397217Y-87062999D01*
X72400498Y-87057315D01*
X72400500Y-87057314D01*
X72466392Y-86943186D01*
X72500500Y-86815892D01*
X72500500Y-86684108D01*
X72466392Y-86556814D01*
X72400500Y-86442686D01*
X72400498Y-86442684D01*
X72397217Y-86437001D01*
X72380744Y-86369101D01*
X72397217Y-86312999D01*
X72400498Y-86307315D01*
X72400500Y-86307314D01*
X72466392Y-86193186D01*
X72500500Y-86065892D01*
X72500500Y-85971153D01*
X75949500Y-85971153D01*
X75949500Y-86128846D01*
X75980261Y-86283489D01*
X75980264Y-86283501D01*
X76040602Y-86429172D01*
X76040609Y-86429185D01*
X76128210Y-86560288D01*
X76128213Y-86560292D01*
X76239707Y-86671786D01*
X76239711Y-86671789D01*
X76370814Y-86759390D01*
X76370827Y-86759397D01*
X76507215Y-86815890D01*
X76516503Y-86819737D01*
X76671153Y-86850499D01*
X76671156Y-86850500D01*
X76671158Y-86850500D01*
X76828844Y-86850500D01*
X76828845Y-86850499D01*
X76983497Y-86819737D01*
X77129179Y-86759394D01*
X77260289Y-86671789D01*
X77371789Y-86560289D01*
X77459394Y-86429179D01*
X77519737Y-86283497D01*
X77539113Y-86186085D01*
X77550638Y-86128150D01*
X77583023Y-86066239D01*
X77584518Y-86064716D01*
X79264662Y-84384572D01*
X79325983Y-84351089D01*
X79328150Y-84350638D01*
X79386085Y-84339113D01*
X79483497Y-84319737D01*
X79629179Y-84259394D01*
X79760289Y-84171789D01*
X79871789Y-84060289D01*
X79959394Y-83929179D01*
X80019737Y-83783497D01*
X80050500Y-83628842D01*
X80050500Y-83471158D01*
X80050500Y-83471155D01*
X80050499Y-83471153D01*
X80019738Y-83316510D01*
X80019738Y-83316508D01*
X80019737Y-83316503D01*
X79977405Y-83214303D01*
X79959397Y-83170827D01*
X79959390Y-83170814D01*
X79871789Y-83039711D01*
X79871786Y-83039707D01*
X79760292Y-82928213D01*
X79760288Y-82928210D01*
X79629185Y-82840609D01*
X79629172Y-82840602D01*
X79483501Y-82780264D01*
X79483489Y-82780261D01*
X79328845Y-82749500D01*
X79328842Y-82749500D01*
X79171158Y-82749500D01*
X79171155Y-82749500D01*
X79016510Y-82780261D01*
X79016498Y-82780264D01*
X78870827Y-82840602D01*
X78870814Y-82840609D01*
X78739711Y-82928210D01*
X78739707Y-82928213D01*
X78628213Y-83039707D01*
X78628210Y-83039711D01*
X78540609Y-83170814D01*
X78540602Y-83170827D01*
X78480264Y-83316498D01*
X78480261Y-83316508D01*
X78449361Y-83471850D01*
X78416976Y-83533761D01*
X78415425Y-83535339D01*
X76735339Y-85215425D01*
X76674016Y-85248910D01*
X76671850Y-85249361D01*
X76516508Y-85280261D01*
X76516498Y-85280264D01*
X76370827Y-85340602D01*
X76370814Y-85340609D01*
X76239711Y-85428210D01*
X76239707Y-85428213D01*
X76128213Y-85539707D01*
X76128210Y-85539711D01*
X76040609Y-85670814D01*
X76040602Y-85670827D01*
X75980264Y-85816498D01*
X75980261Y-85816510D01*
X75949500Y-85971153D01*
X72500500Y-85971153D01*
X72500500Y-85934108D01*
X72466392Y-85806814D01*
X72463174Y-85801241D01*
X72456054Y-85788908D01*
X72400500Y-85692686D01*
X72400497Y-85692683D01*
X72396894Y-85686442D01*
X72380421Y-85618542D01*
X72386884Y-85585326D01*
X72386811Y-85585305D01*
X72387050Y-85584473D01*
X72387246Y-85583469D01*
X72387775Y-85581957D01*
X72387776Y-85581953D01*
X72392721Y-85560288D01*
X72462767Y-85253394D01*
X72500500Y-84918504D01*
X72500500Y-84750000D01*
X72500500Y-84684108D01*
X72500500Y-80443713D01*
X74899500Y-80443713D01*
X74899500Y-80656286D01*
X74932753Y-80866239D01*
X74998444Y-81068414D01*
X75094951Y-81257820D01*
X75219890Y-81429786D01*
X75370213Y-81580109D01*
X75542179Y-81705048D01*
X75542181Y-81705049D01*
X75542184Y-81705051D01*
X75731588Y-81801557D01*
X75933757Y-81867246D01*
X76143713Y-81900500D01*
X76143714Y-81900500D01*
X76356286Y-81900500D01*
X76356287Y-81900500D01*
X76566243Y-81867246D01*
X76768412Y-81801557D01*
X76957816Y-81705051D01*
X76979789Y-81689086D01*
X77129786Y-81580109D01*
X77129788Y-81580106D01*
X77129792Y-81580104D01*
X77280104Y-81429792D01*
X77280106Y-81429788D01*
X77280109Y-81429786D01*
X77405048Y-81257820D01*
X77405047Y-81257820D01*
X77405051Y-81257816D01*
X77501557Y-81068412D01*
X77567246Y-80866243D01*
X77600500Y-80656287D01*
X77600500Y-80443713D01*
X102899500Y-80443713D01*
X102899500Y-80656286D01*
X102932753Y-80866239D01*
X102998444Y-81068414D01*
X103094951Y-81257820D01*
X103219890Y-81429786D01*
X103370213Y-81580109D01*
X103542179Y-81705048D01*
X103542181Y-81705049D01*
X103542184Y-81705051D01*
X103731588Y-81801557D01*
X103933757Y-81867246D01*
X104143713Y-81900500D01*
X104143714Y-81900500D01*
X104356286Y-81900500D01*
X104356287Y-81900500D01*
X104566243Y-81867246D01*
X104768412Y-81801557D01*
X104957816Y-81705051D01*
X104979789Y-81689086D01*
X105129786Y-81580109D01*
X105129788Y-81580106D01*
X105129792Y-81580104D01*
X105280104Y-81429792D01*
X105280106Y-81429788D01*
X105280109Y-81429786D01*
X105405048Y-81257820D01*
X105405047Y-81257820D01*
X105405051Y-81257816D01*
X105501557Y-81068412D01*
X105567246Y-80866243D01*
X105600500Y-80656287D01*
X105600500Y-80443713D01*
X105567246Y-80233757D01*
X105501557Y-80031588D01*
X105405051Y-79842184D01*
X105405049Y-79842181D01*
X105405048Y-79842179D01*
X105280109Y-79670213D01*
X105129786Y-79519890D01*
X104957820Y-79394951D01*
X104768414Y-79298444D01*
X104768413Y-79298443D01*
X104768412Y-79298443D01*
X104566243Y-79232754D01*
X104566241Y-79232753D01*
X104566240Y-79232753D01*
X104404957Y-79207208D01*
X104356287Y-79199500D01*
X104143713Y-79199500D01*
X104095042Y-79207208D01*
X103933760Y-79232753D01*
X103731585Y-79298444D01*
X103542179Y-79394951D01*
X103370213Y-79519890D01*
X103219890Y-79670213D01*
X103094951Y-79842179D01*
X102998444Y-80031585D01*
X102932753Y-80233760D01*
X102899500Y-80443713D01*
X77600500Y-80443713D01*
X77567246Y-80233757D01*
X77501557Y-80031588D01*
X77405051Y-79842184D01*
X77405049Y-79842181D01*
X77405048Y-79842179D01*
X77280109Y-79670213D01*
X77129786Y-79519890D01*
X76957820Y-79394951D01*
X76768414Y-79298444D01*
X76768413Y-79298443D01*
X76768412Y-79298443D01*
X76566243Y-79232754D01*
X76566241Y-79232753D01*
X76566240Y-79232753D01*
X76404957Y-79207208D01*
X76356287Y-79199500D01*
X76143713Y-79199500D01*
X76095042Y-79207208D01*
X75933760Y-79232753D01*
X75731585Y-79298444D01*
X75542179Y-79394951D01*
X75370213Y-79519890D01*
X75219890Y-79670213D01*
X75094951Y-79842179D01*
X74998444Y-80031585D01*
X74932753Y-80233760D01*
X74899500Y-80443713D01*
X72500500Y-80443713D01*
X72500500Y-77624500D01*
X72520185Y-77557461D01*
X72572989Y-77511706D01*
X72624500Y-77500500D01*
X107875500Y-77500500D01*
X107942539Y-77520185D01*
G37*
%TD.AperFunction*%
%TD*%
M02*
