M48
; DRILL file {KiCad 9.0.2} date 2025-07-24T13:27:52-0500
; FORMAT={-:-/ absolute / inch / decimal}
; #@! TF.CreationDate,2025-07-24T13:27:52-05:00
; #@! TF.GenerationSoftware,Kicad,Pcbnew,9.0.2
; #@! TF.FileFunction,NonPlated,1,2,NPTH
FMAT,2
INCH
; #@! TA.AperFunction,NonPlated,NPTH,ComponentDrill
T1C0.0197
; #@! TA.AperFunction,NonPlated,NPTH,ComponentDrill
T2C0.0256
; #@! TA.AperFunction,NonPlated,NPTH,ComponentDrill
T3C0.0866
; #@! TA.AperFunction,NonPlated,NPTH,ComponentDrill
T4C0.2067
%
G90
G05
T1
X2.6378Y-3.3858
X2.6378Y-3.4154
X2.6378Y-3.4449
X2.6378Y-3.4744
X2.6378Y-3.5039
X2.6378Y-3.5335
X2.6378Y-3.563
X2.6378Y-3.5925
X2.6378Y-3.622
X2.6378Y-3.6516
X2.6378Y-3.6516
X2.6378Y-3.6811
X2.6378Y-4.3996
X2.6378Y-4.4291
X2.6378Y-4.4587
X2.6378Y-4.4882
X2.6378Y-4.5177
X2.6378Y-4.5472
X2.6378Y-4.5768
X2.6378Y-4.6063
X2.6378Y-4.6358
X2.6378Y-4.6654
X2.6378Y-4.6654
X2.6378Y-4.6949
X2.6378Y-5.5512
X2.6378Y-5.5807
X2.6378Y-5.6102
X2.6378Y-5.6398
X2.6378Y-5.6693
X2.6378Y-5.6988
X2.6378Y-5.7283
X2.6378Y-5.7579
X2.6378Y-5.7874
X2.6378Y-5.8169
X2.6378Y-5.8169
X2.6378Y-5.8465
X2.6378Y-6.7766
X2.6378Y-6.8061
X2.6378Y-6.8356
X2.6378Y-6.8652
X2.6378Y-6.8947
X2.6378Y-6.9242
X2.6378Y-6.9537
X2.6378Y-6.9833
X2.6378Y-7.0128
X2.6378Y-7.0423
X2.6378Y-7.0423
X2.6378Y-7.0719
X2.8346Y-3.3858
X2.8346Y-3.4154
X2.8346Y-3.4449
X2.8346Y-3.4744
X2.8346Y-3.5039
X2.8346Y-3.5335
X2.8346Y-3.563
X2.8346Y-3.5925
X2.8346Y-3.622
X2.8346Y-3.6516
X2.8346Y-3.6516
X2.8346Y-3.6811
X2.8346Y-4.3996
X2.8346Y-4.4291
X2.8346Y-4.4587
X2.8346Y-4.4882
X2.8346Y-4.5177
X2.8346Y-4.5472
X2.8346Y-4.5768
X2.8346Y-4.6063
X2.8346Y-4.6358
X2.8346Y-4.6654
X2.8346Y-4.6654
X2.8346Y-4.6949
X2.8346Y-5.5512
X2.8346Y-5.5807
X2.8346Y-5.6102
X2.8346Y-5.6398
X2.8346Y-5.6693
X2.8346Y-5.6988
X2.8346Y-5.7283
X2.8346Y-5.7579
X2.8346Y-5.7874
X2.8346Y-5.8169
X2.8346Y-5.8169
X2.8346Y-5.8465
X2.8346Y-6.7766
X2.8346Y-6.8061
X2.8346Y-6.8356
X2.8346Y-6.8652
X2.8346Y-6.8947
X2.8346Y-6.9242
X2.8346Y-6.9537
X2.8346Y-6.9833
X2.8346Y-7.0128
X2.8346Y-7.0423
X2.8346Y-7.0423
X2.8346Y-7.0719
X2.9154Y-4.9114
X2.9154Y-5.1083
X2.9449Y-4.9114
X2.9449Y-4.9114
X2.9449Y-5.1083
X2.9449Y-5.1083
X2.9744Y-4.9114
X2.9744Y-5.1083
X3.0039Y-4.9114
X3.0039Y-5.1083
X3.0335Y-4.9114
X3.0335Y-5.1083
X3.063Y-4.9114
X3.063Y-5.1083
X3.0925Y-4.9114
X3.0925Y-5.1083
X3.122Y-4.9114
X3.122Y-5.1083
X3.1516Y-4.9114
X3.1516Y-5.1083
X3.1811Y-4.9114
X3.1811Y-5.1083
X3.2106Y-4.9114
X3.2106Y-5.1083
X3.5551Y-6.2894
X3.5551Y-6.4862
X3.5846Y-6.2894
X3.5846Y-6.2894
X3.5846Y-6.4862
X3.5846Y-6.4862
X3.6142Y-6.2894
X3.6142Y-6.4862
X3.6437Y-6.2894
X3.6437Y-6.4862
X3.6732Y-6.2894
X3.6732Y-6.4862
X3.7028Y-6.2894
X3.7028Y-6.4862
X3.7323Y-6.2894
X3.7323Y-6.4862
X3.7618Y-6.2894
X3.7618Y-6.4862
X3.7913Y-6.2894
X3.7913Y-6.4862
X3.8209Y-6.2894
X3.8209Y-6.4862
X3.8504Y-6.2894
X3.8504Y-6.4862
X3.8602Y-4.9114
X3.8602Y-5.1083
X3.8898Y-4.9114
X3.8898Y-4.9114
X3.8898Y-5.1083
X3.8898Y-5.1083
X3.9193Y-4.9114
X3.9193Y-5.1083
X3.9488Y-4.9114
X3.9488Y-5.1083
X3.9783Y-4.9114
X3.9783Y-5.1083
X4.0079Y-4.9114
X4.0079Y-5.1083
X4.0374Y-4.9114
X4.0374Y-5.1083
X4.0669Y-4.9114
X4.0669Y-5.1083
X4.0965Y-4.9114
X4.0965Y-5.1083
X4.126Y-4.9114
X4.126Y-5.1083
X4.1555Y-4.9114
X4.1555Y-5.1083
X4.7539Y-4.9114
X4.7539Y-5.1083
X4.7835Y-4.9114
X4.7835Y-4.9114
X4.7835Y-5.1083
X4.7835Y-5.1083
X4.813Y-4.9114
X4.813Y-5.1083
X4.8425Y-4.9114
X4.8425Y-5.1083
X4.872Y-4.9114
X4.872Y-5.1083
X4.9016Y-4.9114
X4.9016Y-5.1083
X4.9311Y-4.9114
X4.9311Y-5.1083
X4.9606Y-4.9114
X4.9606Y-5.1083
X4.9902Y-4.9114
X4.9902Y-5.1083
X5.0197Y-4.9114
X5.0197Y-5.1083
X5.0492Y-4.9114
X5.0492Y-5.1083
X5.1791Y-6.2894
X5.1791Y-6.4862
X5.2087Y-6.2894
X5.2087Y-6.2894
X5.2087Y-6.4862
X5.2087Y-6.4862
X5.2382Y-6.2894
X5.2382Y-6.4862
X5.2677Y-6.2894
X5.2677Y-6.4862
X5.2972Y-6.2894
X5.2972Y-6.4862
X5.3268Y-6.2894
X5.3268Y-6.4862
X5.3563Y-6.2894
X5.3563Y-6.4862
X5.3858Y-6.2894
X5.3858Y-6.4862
X5.4154Y-6.2894
X5.4154Y-6.4862
X5.4449Y-6.2894
X5.4449Y-6.4862
X5.4744Y-6.2894
X5.4744Y-6.4862
T2
X3.3803Y-4.6632
X3.6079Y-4.6632
T3
X3.002Y-3.1713
X3.1594Y-6.9587
X4.1043Y-3.1713
X4.5669Y-3.8671
X5.4429Y-6.9587
T4
X4.3071Y-6.9193
M30
