%TF.GenerationSoftware,KiCad,Pcbnew,9.0.2*%
%TF.CreationDate,2025-07-01T18:06:57-05:00*%
%TF.ProjectId,clock,636c6f63-6b2e-46b6-9963-61645f706362,rev?*%
%TF.SameCoordinates,Original*%
%TF.FileFunction,Soldermask,Bot*%
%TF.FilePolarity,Negative*%
%FSLAX46Y46*%
G04 Gerber Fmt 4.6, Leading zero omitted, Abs format (unit mm)*
G04 Created by KiCad (PCBNEW 9.0.2) date 2025-07-01 18:06:57*
%MOMM*%
%LPD*%
G01*
G04 APERTURE LIST*
G04 Aperture macros list*
%AMRoundRect*
0 Rectangle with rounded corners*
0 $1 Rounding radius*
0 $2 $3 $4 $5 $6 $7 $8 $9 X,Y pos of 4 corners*
0 Add a 4 corners polygon primitive as box body*
4,1,4,$2,$3,$4,$5,$6,$7,$8,$9,$2,$3,0*
0 Add four circle primitives for the rounded corners*
1,1,$1+$1,$2,$3*
1,1,$1+$1,$4,$5*
1,1,$1+$1,$6,$7*
1,1,$1+$1,$8,$9*
0 Add four rect primitives between the rounded corners*
20,1,$1+$1,$2,$3,$4,$5,0*
20,1,$1+$1,$4,$5,$6,$7,0*
20,1,$1+$1,$6,$7,$8,$9,0*
20,1,$1+$1,$8,$9,$2,$3,0*%
G04 Aperture macros list end*
%ADD10C,2.200000*%
%ADD11C,5.250000*%
%ADD12C,2.000000*%
%ADD13RoundRect,0.250000X-0.600000X-0.725000X0.600000X-0.725000X0.600000X0.725000X-0.600000X0.725000X0*%
%ADD14O,1.700000X1.950000*%
%ADD15C,0.650000*%
%ADD16O,2.100000X1.000000*%
%ADD17O,1.800000X1.000000*%
%ADD18R,2.000000X2.000000*%
%ADD19R,3.200000X2.000000*%
%ADD20R,1.524000X1.524000*%
%ADD21C,1.600000*%
%ADD22RoundRect,0.250000X-0.725000X0.600000X-0.725000X-0.600000X0.725000X-0.600000X0.725000X0.600000X0*%
%ADD23O,1.950000X1.700000*%
%ADD24R,1.100000X1.800000*%
%ADD25RoundRect,0.275000X-0.275000X-0.625000X0.275000X-0.625000X0.275000X0.625000X-0.275000X0.625000X0*%
%ADD26RoundRect,0.250000X0.600000X0.725000X-0.600000X0.725000X-0.600000X-0.725000X0.600000X-0.725000X0*%
G04 APERTURE END LIST*
D10*
%TO.C,REF\u002A\u002A*%
X138250000Y-174500000D03*
%TD*%
D11*
%TO.C,S1*%
X109400000Y-173500000D03*
D12*
X113800000Y-168800000D03*
X106800000Y-167750000D03*
%TD*%
D10*
%TO.C,REF\u002A\u002A*%
X80250000Y-174500000D03*
%TD*%
D13*
%TO.C,J8*%
X90500000Y-108000000D03*
D14*
X93000000Y-108000000D03*
X95500000Y-108000000D03*
X98000000Y-108000000D03*
X100500000Y-108000000D03*
%TD*%
D10*
%TO.C,REF\u002A\u002A*%
X186500000Y-139000000D03*
%TD*%
D13*
%TO.C,J6*%
X90000000Y-80000000D03*
D14*
X92500000Y-80000000D03*
X95000000Y-80000000D03*
X97500000Y-80000000D03*
X100000000Y-80000000D03*
X102500000Y-80000000D03*
X105000000Y-80000000D03*
X107500000Y-80000000D03*
%TD*%
D13*
%TO.C,J5*%
X109000000Y-108000000D03*
D14*
X111500000Y-108000000D03*
X114000000Y-108000000D03*
X116500000Y-108000000D03*
X119000000Y-108000000D03*
%TD*%
D15*
%TO.C,J1*%
X89105000Y-89610000D03*
X89105000Y-95390000D03*
D16*
X89605000Y-88180000D03*
D17*
X85425000Y-88180000D03*
D16*
X89605000Y-96820000D03*
D17*
X85425000Y-96820000D03*
%TD*%
D10*
%TO.C,REF\u002A\u002A*%
X127000000Y-80000000D03*
%TD*%
D18*
%TO.C,SW1*%
X170500000Y-144500000D03*
D12*
X170500000Y-149500000D03*
X170500000Y-147000000D03*
D19*
X178000000Y-141400000D03*
X178000000Y-152600000D03*
D12*
X185000000Y-149500000D03*
X185000000Y-144500000D03*
%TD*%
D10*
%TO.C,REF\u002A\u002A*%
X127000000Y-108000000D03*
%TD*%
D20*
%TO.C,LCD1*%
X85900000Y-135900000D03*
D21*
X85900000Y-138440000D03*
X85900000Y-140980000D03*
X85900000Y-143520000D03*
X85900000Y-146060000D03*
X85900000Y-148600000D03*
X85900000Y-151140000D03*
X85900000Y-153680000D03*
%TD*%
D22*
%TO.C,J2*%
X77125000Y-136150000D03*
D23*
X77125000Y-138650000D03*
X77125000Y-141150000D03*
X77125000Y-143650000D03*
X77125000Y-146150000D03*
X77125000Y-148650000D03*
X77125000Y-151150000D03*
X77125000Y-153650000D03*
%TD*%
D24*
%TO.C,Q2*%
X127960000Y-168100000D03*
D25*
X129230000Y-170170000D03*
X130500000Y-168100000D03*
%TD*%
D18*
%TO.C,BZ1*%
X89700000Y-177500000D03*
D12*
X97300000Y-177500000D03*
%TD*%
D24*
%TO.C,Q1*%
X120960000Y-168100000D03*
D25*
X122230000Y-170170000D03*
X123500000Y-168100000D03*
%TD*%
D22*
%TO.C,J4*%
X164475000Y-142000000D03*
D23*
X164475000Y-144500000D03*
X164475000Y-147000000D03*
X164475000Y-149500000D03*
X164475000Y-152000000D03*
%TD*%
D26*
%TO.C,J3*%
X96999999Y-166974999D03*
D14*
X94499998Y-166974999D03*
X91999999Y-166975000D03*
X89499999Y-166974999D03*
X86999999Y-166974999D03*
%TD*%
D18*
%TO.C,BZ2*%
X121700000Y-177500000D03*
D12*
X129300000Y-177500000D03*
%TD*%
M02*
