%TF.GenerationSoftware,KiCad,Pcbnew,9.0.2*%
%TF.CreationDate,2025-07-01T18:06:57-05:00*%
%TF.ProjectId,clock,636c6f63-6b2e-46b6-9963-61645f706362,rev?*%
%TF.SameCoordinates,Original*%
%TF.FileFunction,Legend,Top*%
%TF.FilePolarity,Positive*%
%FSLAX46Y46*%
G04 Gerber Fmt 4.6, Leading zero omitted, Abs format (unit mm)*
G04 Created by KiCad (PCBNEW 9.0.2) date 2025-07-01 18:06:57*
%MOMM*%
%LPD*%
G01*
G04 APERTURE LIST*
%ADD10C,0.150000*%
%ADD11C,0.120000*%
G04 APERTURE END LIST*
D10*
X95166666Y-103904819D02*
X95166666Y-104619104D01*
X95166666Y-104619104D02*
X95119047Y-104761961D01*
X95119047Y-104761961D02*
X95023809Y-104857200D01*
X95023809Y-104857200D02*
X94880952Y-104904819D01*
X94880952Y-104904819D02*
X94785714Y-104904819D01*
X95785714Y-104333390D02*
X95690476Y-104285771D01*
X95690476Y-104285771D02*
X95642857Y-104238152D01*
X95642857Y-104238152D02*
X95595238Y-104142914D01*
X95595238Y-104142914D02*
X95595238Y-104095295D01*
X95595238Y-104095295D02*
X95642857Y-104000057D01*
X95642857Y-104000057D02*
X95690476Y-103952438D01*
X95690476Y-103952438D02*
X95785714Y-103904819D01*
X95785714Y-103904819D02*
X95976190Y-103904819D01*
X95976190Y-103904819D02*
X96071428Y-103952438D01*
X96071428Y-103952438D02*
X96119047Y-104000057D01*
X96119047Y-104000057D02*
X96166666Y-104095295D01*
X96166666Y-104095295D02*
X96166666Y-104142914D01*
X96166666Y-104142914D02*
X96119047Y-104238152D01*
X96119047Y-104238152D02*
X96071428Y-104285771D01*
X96071428Y-104285771D02*
X95976190Y-104333390D01*
X95976190Y-104333390D02*
X95785714Y-104333390D01*
X95785714Y-104333390D02*
X95690476Y-104381009D01*
X95690476Y-104381009D02*
X95642857Y-104428628D01*
X95642857Y-104428628D02*
X95595238Y-104523866D01*
X95595238Y-104523866D02*
X95595238Y-104714342D01*
X95595238Y-104714342D02*
X95642857Y-104809580D01*
X95642857Y-104809580D02*
X95690476Y-104857200D01*
X95690476Y-104857200D02*
X95785714Y-104904819D01*
X95785714Y-104904819D02*
X95976190Y-104904819D01*
X95976190Y-104904819D02*
X96071428Y-104857200D01*
X96071428Y-104857200D02*
X96119047Y-104809580D01*
X96119047Y-104809580D02*
X96166666Y-104714342D01*
X96166666Y-104714342D02*
X96166666Y-104523866D01*
X96166666Y-104523866D02*
X96119047Y-104428628D01*
X96119047Y-104428628D02*
X96071428Y-104381009D01*
X96071428Y-104381009D02*
X95976190Y-104333390D01*
X144524819Y-171304166D02*
X144048628Y-171637499D01*
X144524819Y-171875594D02*
X143524819Y-171875594D01*
X143524819Y-171875594D02*
X143524819Y-171494642D01*
X143524819Y-171494642D02*
X143572438Y-171399404D01*
X143572438Y-171399404D02*
X143620057Y-171351785D01*
X143620057Y-171351785D02*
X143715295Y-171304166D01*
X143715295Y-171304166D02*
X143858152Y-171304166D01*
X143858152Y-171304166D02*
X143953390Y-171351785D01*
X143953390Y-171351785D02*
X144001009Y-171399404D01*
X144001009Y-171399404D02*
X144048628Y-171494642D01*
X144048628Y-171494642D02*
X144048628Y-171875594D01*
X143858152Y-170447023D02*
X144524819Y-170447023D01*
X143477200Y-170685118D02*
X144191485Y-170923213D01*
X144191485Y-170923213D02*
X144191485Y-170304166D01*
X98416666Y-75904819D02*
X98416666Y-76619104D01*
X98416666Y-76619104D02*
X98369047Y-76761961D01*
X98369047Y-76761961D02*
X98273809Y-76857200D01*
X98273809Y-76857200D02*
X98130952Y-76904819D01*
X98130952Y-76904819D02*
X98035714Y-76904819D01*
X99321428Y-75904819D02*
X99130952Y-75904819D01*
X99130952Y-75904819D02*
X99035714Y-75952438D01*
X99035714Y-75952438D02*
X98988095Y-76000057D01*
X98988095Y-76000057D02*
X98892857Y-76142914D01*
X98892857Y-76142914D02*
X98845238Y-76333390D01*
X98845238Y-76333390D02*
X98845238Y-76714342D01*
X98845238Y-76714342D02*
X98892857Y-76809580D01*
X98892857Y-76809580D02*
X98940476Y-76857200D01*
X98940476Y-76857200D02*
X99035714Y-76904819D01*
X99035714Y-76904819D02*
X99226190Y-76904819D01*
X99226190Y-76904819D02*
X99321428Y-76857200D01*
X99321428Y-76857200D02*
X99369047Y-76809580D01*
X99369047Y-76809580D02*
X99416666Y-76714342D01*
X99416666Y-76714342D02*
X99416666Y-76476247D01*
X99416666Y-76476247D02*
X99369047Y-76381009D01*
X99369047Y-76381009D02*
X99321428Y-76333390D01*
X99321428Y-76333390D02*
X99226190Y-76285771D01*
X99226190Y-76285771D02*
X99035714Y-76285771D01*
X99035714Y-76285771D02*
X98940476Y-76333390D01*
X98940476Y-76333390D02*
X98892857Y-76381009D01*
X98892857Y-76381009D02*
X98845238Y-76476247D01*
X90384819Y-102666666D02*
X89908628Y-102999999D01*
X90384819Y-103238094D02*
X89384819Y-103238094D01*
X89384819Y-103238094D02*
X89384819Y-102857142D01*
X89384819Y-102857142D02*
X89432438Y-102761904D01*
X89432438Y-102761904D02*
X89480057Y-102714285D01*
X89480057Y-102714285D02*
X89575295Y-102666666D01*
X89575295Y-102666666D02*
X89718152Y-102666666D01*
X89718152Y-102666666D02*
X89813390Y-102714285D01*
X89813390Y-102714285D02*
X89861009Y-102761904D01*
X89861009Y-102761904D02*
X89908628Y-102857142D01*
X89908628Y-102857142D02*
X89908628Y-103238094D01*
X89384819Y-102333332D02*
X89384819Y-101714285D01*
X89384819Y-101714285D02*
X89765771Y-102047618D01*
X89765771Y-102047618D02*
X89765771Y-101904761D01*
X89765771Y-101904761D02*
X89813390Y-101809523D01*
X89813390Y-101809523D02*
X89861009Y-101761904D01*
X89861009Y-101761904D02*
X89956247Y-101714285D01*
X89956247Y-101714285D02*
X90194342Y-101714285D01*
X90194342Y-101714285D02*
X90289580Y-101761904D01*
X90289580Y-101761904D02*
X90337200Y-101809523D01*
X90337200Y-101809523D02*
X90384819Y-101904761D01*
X90384819Y-101904761D02*
X90384819Y-102190475D01*
X90384819Y-102190475D02*
X90337200Y-102285713D01*
X90337200Y-102285713D02*
X90289580Y-102333332D01*
X113666666Y-103904819D02*
X113666666Y-104619104D01*
X113666666Y-104619104D02*
X113619047Y-104761961D01*
X113619047Y-104761961D02*
X113523809Y-104857200D01*
X113523809Y-104857200D02*
X113380952Y-104904819D01*
X113380952Y-104904819D02*
X113285714Y-104904819D01*
X114619047Y-103904819D02*
X114142857Y-103904819D01*
X114142857Y-103904819D02*
X114095238Y-104381009D01*
X114095238Y-104381009D02*
X114142857Y-104333390D01*
X114142857Y-104333390D02*
X114238095Y-104285771D01*
X114238095Y-104285771D02*
X114476190Y-104285771D01*
X114476190Y-104285771D02*
X114571428Y-104333390D01*
X114571428Y-104333390D02*
X114619047Y-104381009D01*
X114619047Y-104381009D02*
X114666666Y-104476247D01*
X114666666Y-104476247D02*
X114666666Y-104714342D01*
X114666666Y-104714342D02*
X114619047Y-104809580D01*
X114619047Y-104809580D02*
X114571428Y-104857200D01*
X114571428Y-104857200D02*
X114476190Y-104904819D01*
X114476190Y-104904819D02*
X114238095Y-104904819D01*
X114238095Y-104904819D02*
X114142857Y-104857200D01*
X114142857Y-104857200D02*
X114095238Y-104809580D01*
X97488095Y-93704819D02*
X97488095Y-94514342D01*
X97488095Y-94514342D02*
X97535714Y-94609580D01*
X97535714Y-94609580D02*
X97583333Y-94657200D01*
X97583333Y-94657200D02*
X97678571Y-94704819D01*
X97678571Y-94704819D02*
X97869047Y-94704819D01*
X97869047Y-94704819D02*
X97964285Y-94657200D01*
X97964285Y-94657200D02*
X98011904Y-94609580D01*
X98011904Y-94609580D02*
X98059523Y-94514342D01*
X98059523Y-94514342D02*
X98059523Y-93704819D01*
X98488095Y-93800057D02*
X98535714Y-93752438D01*
X98535714Y-93752438D02*
X98630952Y-93704819D01*
X98630952Y-93704819D02*
X98869047Y-93704819D01*
X98869047Y-93704819D02*
X98964285Y-93752438D01*
X98964285Y-93752438D02*
X99011904Y-93800057D01*
X99011904Y-93800057D02*
X99059523Y-93895295D01*
X99059523Y-93895295D02*
X99059523Y-93990533D01*
X99059523Y-93990533D02*
X99011904Y-94133390D01*
X99011904Y-94133390D02*
X98440476Y-94704819D01*
X98440476Y-94704819D02*
X99059523Y-94704819D01*
X144524819Y-175666666D02*
X144048628Y-175999999D01*
X144524819Y-176238094D02*
X143524819Y-176238094D01*
X143524819Y-176238094D02*
X143524819Y-175857142D01*
X143524819Y-175857142D02*
X143572438Y-175761904D01*
X143572438Y-175761904D02*
X143620057Y-175714285D01*
X143620057Y-175714285D02*
X143715295Y-175666666D01*
X143715295Y-175666666D02*
X143858152Y-175666666D01*
X143858152Y-175666666D02*
X143953390Y-175714285D01*
X143953390Y-175714285D02*
X144001009Y-175761904D01*
X144001009Y-175761904D02*
X144048628Y-175857142D01*
X144048628Y-175857142D02*
X144048628Y-176238094D01*
X143524819Y-174761904D02*
X143524819Y-175238094D01*
X143524819Y-175238094D02*
X144001009Y-175285713D01*
X144001009Y-175285713D02*
X143953390Y-175238094D01*
X143953390Y-175238094D02*
X143905771Y-175142856D01*
X143905771Y-175142856D02*
X143905771Y-174904761D01*
X143905771Y-174904761D02*
X143953390Y-174809523D01*
X143953390Y-174809523D02*
X144001009Y-174761904D01*
X144001009Y-174761904D02*
X144096247Y-174714285D01*
X144096247Y-174714285D02*
X144334342Y-174714285D01*
X144334342Y-174714285D02*
X144429580Y-174761904D01*
X144429580Y-174761904D02*
X144477200Y-174809523D01*
X144477200Y-174809523D02*
X144524819Y-174904761D01*
X144524819Y-174904761D02*
X144524819Y-175142856D01*
X144524819Y-175142856D02*
X144477200Y-175238094D01*
X144477200Y-175238094D02*
X144429580Y-175285713D01*
X114205180Y-87348095D02*
X113395657Y-87348095D01*
X113395657Y-87348095D02*
X113300419Y-87395714D01*
X113300419Y-87395714D02*
X113252800Y-87443333D01*
X113252800Y-87443333D02*
X113205180Y-87538571D01*
X113205180Y-87538571D02*
X113205180Y-87729047D01*
X113205180Y-87729047D02*
X113252800Y-87824285D01*
X113252800Y-87824285D02*
X113300419Y-87871904D01*
X113300419Y-87871904D02*
X113395657Y-87919523D01*
X113395657Y-87919523D02*
X114205180Y-87919523D01*
X113205180Y-88919523D02*
X113205180Y-88348095D01*
X113205180Y-88633809D02*
X114205180Y-88633809D01*
X114205180Y-88633809D02*
X114062323Y-88538571D01*
X114062323Y-88538571D02*
X113967085Y-88443333D01*
X113967085Y-88443333D02*
X113919466Y-88348095D01*
X129289580Y-84304166D02*
X129337200Y-84351785D01*
X129337200Y-84351785D02*
X129384819Y-84494642D01*
X129384819Y-84494642D02*
X129384819Y-84589880D01*
X129384819Y-84589880D02*
X129337200Y-84732737D01*
X129337200Y-84732737D02*
X129241961Y-84827975D01*
X129241961Y-84827975D02*
X129146723Y-84875594D01*
X129146723Y-84875594D02*
X128956247Y-84923213D01*
X128956247Y-84923213D02*
X128813390Y-84923213D01*
X128813390Y-84923213D02*
X128622914Y-84875594D01*
X128622914Y-84875594D02*
X128527676Y-84827975D01*
X128527676Y-84827975D02*
X128432438Y-84732737D01*
X128432438Y-84732737D02*
X128384819Y-84589880D01*
X128384819Y-84589880D02*
X128384819Y-84494642D01*
X128384819Y-84494642D02*
X128432438Y-84351785D01*
X128432438Y-84351785D02*
X128480057Y-84304166D01*
X129384819Y-83351785D02*
X129384819Y-83923213D01*
X129384819Y-83637499D02*
X128384819Y-83637499D01*
X128384819Y-83637499D02*
X128527676Y-83732737D01*
X128527676Y-83732737D02*
X128622914Y-83827975D01*
X128622914Y-83827975D02*
X128670533Y-83923213D01*
X92545180Y-92166666D02*
X91830895Y-92166666D01*
X91830895Y-92166666D02*
X91688038Y-92119047D01*
X91688038Y-92119047D02*
X91592800Y-92023809D01*
X91592800Y-92023809D02*
X91545180Y-91880952D01*
X91545180Y-91880952D02*
X91545180Y-91785714D01*
X91545180Y-93166666D02*
X91545180Y-92595238D01*
X91545180Y-92880952D02*
X92545180Y-92880952D01*
X92545180Y-92880952D02*
X92402323Y-92785714D01*
X92402323Y-92785714D02*
X92307085Y-92690476D01*
X92307085Y-92690476D02*
X92259466Y-92595238D01*
X93384819Y-102666666D02*
X92908628Y-102999999D01*
X93384819Y-103238094D02*
X92384819Y-103238094D01*
X92384819Y-103238094D02*
X92384819Y-102857142D01*
X92384819Y-102857142D02*
X92432438Y-102761904D01*
X92432438Y-102761904D02*
X92480057Y-102714285D01*
X92480057Y-102714285D02*
X92575295Y-102666666D01*
X92575295Y-102666666D02*
X92718152Y-102666666D01*
X92718152Y-102666666D02*
X92813390Y-102714285D01*
X92813390Y-102714285D02*
X92861009Y-102761904D01*
X92861009Y-102761904D02*
X92908628Y-102857142D01*
X92908628Y-102857142D02*
X92908628Y-103238094D01*
X92480057Y-102285713D02*
X92432438Y-102238094D01*
X92432438Y-102238094D02*
X92384819Y-102142856D01*
X92384819Y-102142856D02*
X92384819Y-101904761D01*
X92384819Y-101904761D02*
X92432438Y-101809523D01*
X92432438Y-101809523D02*
X92480057Y-101761904D01*
X92480057Y-101761904D02*
X92575295Y-101714285D01*
X92575295Y-101714285D02*
X92670533Y-101714285D01*
X92670533Y-101714285D02*
X92813390Y-101761904D01*
X92813390Y-101761904D02*
X93384819Y-102333332D01*
X93384819Y-102333332D02*
X93384819Y-101714285D01*
X128024819Y-104166666D02*
X127548628Y-104499999D01*
X128024819Y-104738094D02*
X127024819Y-104738094D01*
X127024819Y-104738094D02*
X127024819Y-104357142D01*
X127024819Y-104357142D02*
X127072438Y-104261904D01*
X127072438Y-104261904D02*
X127120057Y-104214285D01*
X127120057Y-104214285D02*
X127215295Y-104166666D01*
X127215295Y-104166666D02*
X127358152Y-104166666D01*
X127358152Y-104166666D02*
X127453390Y-104214285D01*
X127453390Y-104214285D02*
X127501009Y-104261904D01*
X127501009Y-104261904D02*
X127548628Y-104357142D01*
X127548628Y-104357142D02*
X127548628Y-104738094D01*
X128024819Y-103214285D02*
X128024819Y-103785713D01*
X128024819Y-103499999D02*
X127024819Y-103499999D01*
X127024819Y-103499999D02*
X127167676Y-103595237D01*
X127167676Y-103595237D02*
X127262914Y-103690475D01*
X127262914Y-103690475D02*
X127310533Y-103785713D01*
X87643247Y-154346666D02*
X87681342Y-154232380D01*
X87681342Y-154232380D02*
X87719438Y-154194285D01*
X87719438Y-154194285D02*
X87795628Y-154156189D01*
X87795628Y-154156189D02*
X87909914Y-154156189D01*
X87909914Y-154156189D02*
X87986104Y-154194285D01*
X87986104Y-154194285D02*
X88024200Y-154232380D01*
X88024200Y-154232380D02*
X88062295Y-154308570D01*
X88062295Y-154308570D02*
X88062295Y-154613332D01*
X88062295Y-154613332D02*
X87262295Y-154613332D01*
X87262295Y-154613332D02*
X87262295Y-154346666D01*
X87262295Y-154346666D02*
X87300390Y-154270475D01*
X87300390Y-154270475D02*
X87338485Y-154232380D01*
X87338485Y-154232380D02*
X87414676Y-154194285D01*
X87414676Y-154194285D02*
X87490866Y-154194285D01*
X87490866Y-154194285D02*
X87567057Y-154232380D01*
X87567057Y-154232380D02*
X87605152Y-154270475D01*
X87605152Y-154270475D02*
X87643247Y-154346666D01*
X87643247Y-154346666D02*
X87643247Y-154613332D01*
X88062295Y-153432380D02*
X88062295Y-153813332D01*
X88062295Y-153813332D02*
X87262295Y-153813332D01*
X88062295Y-153165713D02*
X87262295Y-153165713D01*
X88062295Y-152708570D02*
X87605152Y-153051428D01*
X87262295Y-152708570D02*
X87719438Y-153165713D01*
X87300390Y-136509523D02*
X87262295Y-136585713D01*
X87262295Y-136585713D02*
X87262295Y-136699999D01*
X87262295Y-136699999D02*
X87300390Y-136814285D01*
X87300390Y-136814285D02*
X87376580Y-136890475D01*
X87376580Y-136890475D02*
X87452771Y-136928570D01*
X87452771Y-136928570D02*
X87605152Y-136966666D01*
X87605152Y-136966666D02*
X87719438Y-136966666D01*
X87719438Y-136966666D02*
X87871819Y-136928570D01*
X87871819Y-136928570D02*
X87948009Y-136890475D01*
X87948009Y-136890475D02*
X88024200Y-136814285D01*
X88024200Y-136814285D02*
X88062295Y-136699999D01*
X88062295Y-136699999D02*
X88062295Y-136623808D01*
X88062295Y-136623808D02*
X88024200Y-136509523D01*
X88024200Y-136509523D02*
X87986104Y-136471427D01*
X87986104Y-136471427D02*
X87719438Y-136471427D01*
X87719438Y-136471427D02*
X87719438Y-136623808D01*
X88062295Y-136128570D02*
X87262295Y-136128570D01*
X87262295Y-136128570D02*
X88062295Y-135671427D01*
X88062295Y-135671427D02*
X87262295Y-135671427D01*
X88062295Y-135290475D02*
X87262295Y-135290475D01*
X87262295Y-135290475D02*
X87262295Y-135099999D01*
X87262295Y-135099999D02*
X87300390Y-134985713D01*
X87300390Y-134985713D02*
X87376580Y-134909523D01*
X87376580Y-134909523D02*
X87452771Y-134871428D01*
X87452771Y-134871428D02*
X87605152Y-134833332D01*
X87605152Y-134833332D02*
X87719438Y-134833332D01*
X87719438Y-134833332D02*
X87871819Y-134871428D01*
X87871819Y-134871428D02*
X87948009Y-134909523D01*
X87948009Y-134909523D02*
X88024200Y-134985713D01*
X88024200Y-134985713D02*
X88062295Y-135099999D01*
X88062295Y-135099999D02*
X88062295Y-135290475D01*
X88024200Y-141932381D02*
X88062295Y-141818095D01*
X88062295Y-141818095D02*
X88062295Y-141627619D01*
X88062295Y-141627619D02*
X88024200Y-141551428D01*
X88024200Y-141551428D02*
X87986104Y-141513333D01*
X87986104Y-141513333D02*
X87909914Y-141475238D01*
X87909914Y-141475238D02*
X87833723Y-141475238D01*
X87833723Y-141475238D02*
X87757533Y-141513333D01*
X87757533Y-141513333D02*
X87719438Y-141551428D01*
X87719438Y-141551428D02*
X87681342Y-141627619D01*
X87681342Y-141627619D02*
X87643247Y-141780000D01*
X87643247Y-141780000D02*
X87605152Y-141856190D01*
X87605152Y-141856190D02*
X87567057Y-141894285D01*
X87567057Y-141894285D02*
X87490866Y-141932381D01*
X87490866Y-141932381D02*
X87414676Y-141932381D01*
X87414676Y-141932381D02*
X87338485Y-141894285D01*
X87338485Y-141894285D02*
X87300390Y-141856190D01*
X87300390Y-141856190D02*
X87262295Y-141780000D01*
X87262295Y-141780000D02*
X87262295Y-141589523D01*
X87262295Y-141589523D02*
X87300390Y-141475238D01*
X87986104Y-140675237D02*
X88024200Y-140713333D01*
X88024200Y-140713333D02*
X88062295Y-140827618D01*
X88062295Y-140827618D02*
X88062295Y-140903809D01*
X88062295Y-140903809D02*
X88024200Y-141018095D01*
X88024200Y-141018095D02*
X87948009Y-141094285D01*
X87948009Y-141094285D02*
X87871819Y-141132380D01*
X87871819Y-141132380D02*
X87719438Y-141170476D01*
X87719438Y-141170476D02*
X87605152Y-141170476D01*
X87605152Y-141170476D02*
X87452771Y-141132380D01*
X87452771Y-141132380D02*
X87376580Y-141094285D01*
X87376580Y-141094285D02*
X87300390Y-141018095D01*
X87300390Y-141018095D02*
X87262295Y-140903809D01*
X87262295Y-140903809D02*
X87262295Y-140827618D01*
X87262295Y-140827618D02*
X87300390Y-140713333D01*
X87300390Y-140713333D02*
X87338485Y-140675237D01*
X88062295Y-139951428D02*
X88062295Y-140332380D01*
X88062295Y-140332380D02*
X87262295Y-140332380D01*
X87262295Y-139506666D02*
X88062295Y-139239999D01*
X88062295Y-139239999D02*
X87262295Y-138973333D01*
X87986104Y-138249523D02*
X88024200Y-138287619D01*
X88024200Y-138287619D02*
X88062295Y-138401904D01*
X88062295Y-138401904D02*
X88062295Y-138478095D01*
X88062295Y-138478095D02*
X88024200Y-138592381D01*
X88024200Y-138592381D02*
X87948009Y-138668571D01*
X87948009Y-138668571D02*
X87871819Y-138706666D01*
X87871819Y-138706666D02*
X87719438Y-138744762D01*
X87719438Y-138744762D02*
X87605152Y-138744762D01*
X87605152Y-138744762D02*
X87452771Y-138706666D01*
X87452771Y-138706666D02*
X87376580Y-138668571D01*
X87376580Y-138668571D02*
X87300390Y-138592381D01*
X87300390Y-138592381D02*
X87262295Y-138478095D01*
X87262295Y-138478095D02*
X87262295Y-138401904D01*
X87262295Y-138401904D02*
X87300390Y-138287619D01*
X87300390Y-138287619D02*
X87338485Y-138249523D01*
X87986104Y-137449523D02*
X88024200Y-137487619D01*
X88024200Y-137487619D02*
X88062295Y-137601904D01*
X88062295Y-137601904D02*
X88062295Y-137678095D01*
X88062295Y-137678095D02*
X88024200Y-137792381D01*
X88024200Y-137792381D02*
X87948009Y-137868571D01*
X87948009Y-137868571D02*
X87871819Y-137906666D01*
X87871819Y-137906666D02*
X87719438Y-137944762D01*
X87719438Y-137944762D02*
X87605152Y-137944762D01*
X87605152Y-137944762D02*
X87452771Y-137906666D01*
X87452771Y-137906666D02*
X87376580Y-137868571D01*
X87376580Y-137868571D02*
X87300390Y-137792381D01*
X87300390Y-137792381D02*
X87262295Y-137678095D01*
X87262295Y-137678095D02*
X87262295Y-137601904D01*
X87262295Y-137601904D02*
X87300390Y-137487619D01*
X87300390Y-137487619D02*
X87338485Y-137449523D01*
X88024200Y-144491428D02*
X88062295Y-144377142D01*
X88062295Y-144377142D02*
X88062295Y-144186666D01*
X88062295Y-144186666D02*
X88024200Y-144110475D01*
X88024200Y-144110475D02*
X87986104Y-144072380D01*
X87986104Y-144072380D02*
X87909914Y-144034285D01*
X87909914Y-144034285D02*
X87833723Y-144034285D01*
X87833723Y-144034285D02*
X87757533Y-144072380D01*
X87757533Y-144072380D02*
X87719438Y-144110475D01*
X87719438Y-144110475D02*
X87681342Y-144186666D01*
X87681342Y-144186666D02*
X87643247Y-144339047D01*
X87643247Y-144339047D02*
X87605152Y-144415237D01*
X87605152Y-144415237D02*
X87567057Y-144453332D01*
X87567057Y-144453332D02*
X87490866Y-144491428D01*
X87490866Y-144491428D02*
X87414676Y-144491428D01*
X87414676Y-144491428D02*
X87338485Y-144453332D01*
X87338485Y-144453332D02*
X87300390Y-144415237D01*
X87300390Y-144415237D02*
X87262295Y-144339047D01*
X87262295Y-144339047D02*
X87262295Y-144148570D01*
X87262295Y-144148570D02*
X87300390Y-144034285D01*
X88062295Y-143691427D02*
X87262295Y-143691427D01*
X87262295Y-143691427D02*
X87262295Y-143500951D01*
X87262295Y-143500951D02*
X87300390Y-143386665D01*
X87300390Y-143386665D02*
X87376580Y-143310475D01*
X87376580Y-143310475D02*
X87452771Y-143272380D01*
X87452771Y-143272380D02*
X87605152Y-143234284D01*
X87605152Y-143234284D02*
X87719438Y-143234284D01*
X87719438Y-143234284D02*
X87871819Y-143272380D01*
X87871819Y-143272380D02*
X87948009Y-143310475D01*
X87948009Y-143310475D02*
X88024200Y-143386665D01*
X88024200Y-143386665D02*
X88062295Y-143500951D01*
X88062295Y-143500951D02*
X88062295Y-143691427D01*
X87833723Y-142929523D02*
X87833723Y-142548570D01*
X88062295Y-143005713D02*
X87262295Y-142739046D01*
X87262295Y-142739046D02*
X88062295Y-142472380D01*
X88062295Y-149209523D02*
X87262295Y-149209523D01*
X87262295Y-149209523D02*
X87262295Y-149019047D01*
X87262295Y-149019047D02*
X87300390Y-148904761D01*
X87300390Y-148904761D02*
X87376580Y-148828571D01*
X87376580Y-148828571D02*
X87452771Y-148790476D01*
X87452771Y-148790476D02*
X87605152Y-148752380D01*
X87605152Y-148752380D02*
X87719438Y-148752380D01*
X87719438Y-148752380D02*
X87871819Y-148790476D01*
X87871819Y-148790476D02*
X87948009Y-148828571D01*
X87948009Y-148828571D02*
X88024200Y-148904761D01*
X88024200Y-148904761D02*
X88062295Y-149019047D01*
X88062295Y-149019047D02*
X88062295Y-149209523D01*
X87986104Y-147952380D02*
X88024200Y-147990476D01*
X88024200Y-147990476D02*
X88062295Y-148104761D01*
X88062295Y-148104761D02*
X88062295Y-148180952D01*
X88062295Y-148180952D02*
X88024200Y-148295238D01*
X88024200Y-148295238D02*
X87948009Y-148371428D01*
X87948009Y-148371428D02*
X87871819Y-148409523D01*
X87871819Y-148409523D02*
X87719438Y-148447619D01*
X87719438Y-148447619D02*
X87605152Y-148447619D01*
X87605152Y-148447619D02*
X87452771Y-148409523D01*
X87452771Y-148409523D02*
X87376580Y-148371428D01*
X87376580Y-148371428D02*
X87300390Y-148295238D01*
X87300390Y-148295238D02*
X87262295Y-148180952D01*
X87262295Y-148180952D02*
X87262295Y-148104761D01*
X87262295Y-148104761D02*
X87300390Y-147990476D01*
X87300390Y-147990476D02*
X87338485Y-147952380D01*
X87986104Y-151273332D02*
X88024200Y-151311428D01*
X88024200Y-151311428D02*
X88062295Y-151425713D01*
X88062295Y-151425713D02*
X88062295Y-151501904D01*
X88062295Y-151501904D02*
X88024200Y-151616190D01*
X88024200Y-151616190D02*
X87948009Y-151692380D01*
X87948009Y-151692380D02*
X87871819Y-151730475D01*
X87871819Y-151730475D02*
X87719438Y-151768571D01*
X87719438Y-151768571D02*
X87605152Y-151768571D01*
X87605152Y-151768571D02*
X87452771Y-151730475D01*
X87452771Y-151730475D02*
X87376580Y-151692380D01*
X87376580Y-151692380D02*
X87300390Y-151616190D01*
X87300390Y-151616190D02*
X87262295Y-151501904D01*
X87262295Y-151501904D02*
X87262295Y-151425713D01*
X87262295Y-151425713D02*
X87300390Y-151311428D01*
X87300390Y-151311428D02*
X87338485Y-151273332D01*
X88024200Y-150968571D02*
X88062295Y-150854285D01*
X88062295Y-150854285D02*
X88062295Y-150663809D01*
X88062295Y-150663809D02*
X88024200Y-150587618D01*
X88024200Y-150587618D02*
X87986104Y-150549523D01*
X87986104Y-150549523D02*
X87909914Y-150511428D01*
X87909914Y-150511428D02*
X87833723Y-150511428D01*
X87833723Y-150511428D02*
X87757533Y-150549523D01*
X87757533Y-150549523D02*
X87719438Y-150587618D01*
X87719438Y-150587618D02*
X87681342Y-150663809D01*
X87681342Y-150663809D02*
X87643247Y-150816190D01*
X87643247Y-150816190D02*
X87605152Y-150892380D01*
X87605152Y-150892380D02*
X87567057Y-150930475D01*
X87567057Y-150930475D02*
X87490866Y-150968571D01*
X87490866Y-150968571D02*
X87414676Y-150968571D01*
X87414676Y-150968571D02*
X87338485Y-150930475D01*
X87338485Y-150930475D02*
X87300390Y-150892380D01*
X87300390Y-150892380D02*
X87262295Y-150816190D01*
X87262295Y-150816190D02*
X87262295Y-150625713D01*
X87262295Y-150625713D02*
X87300390Y-150511428D01*
X88062295Y-146555237D02*
X87681342Y-146821904D01*
X88062295Y-147012380D02*
X87262295Y-147012380D01*
X87262295Y-147012380D02*
X87262295Y-146707618D01*
X87262295Y-146707618D02*
X87300390Y-146631428D01*
X87300390Y-146631428D02*
X87338485Y-146593333D01*
X87338485Y-146593333D02*
X87414676Y-146555237D01*
X87414676Y-146555237D02*
X87528961Y-146555237D01*
X87528961Y-146555237D02*
X87605152Y-146593333D01*
X87605152Y-146593333D02*
X87643247Y-146631428D01*
X87643247Y-146631428D02*
X87681342Y-146707618D01*
X87681342Y-146707618D02*
X87681342Y-147012380D01*
X87643247Y-146212380D02*
X87643247Y-145945714D01*
X88062295Y-145831428D02*
X88062295Y-146212380D01*
X88062295Y-146212380D02*
X87262295Y-146212380D01*
X87262295Y-146212380D02*
X87262295Y-145831428D01*
X88024200Y-145526666D02*
X88062295Y-145412380D01*
X88062295Y-145412380D02*
X88062295Y-145221904D01*
X88062295Y-145221904D02*
X88024200Y-145145713D01*
X88024200Y-145145713D02*
X87986104Y-145107618D01*
X87986104Y-145107618D02*
X87909914Y-145069523D01*
X87909914Y-145069523D02*
X87833723Y-145069523D01*
X87833723Y-145069523D02*
X87757533Y-145107618D01*
X87757533Y-145107618D02*
X87719438Y-145145713D01*
X87719438Y-145145713D02*
X87681342Y-145221904D01*
X87681342Y-145221904D02*
X87643247Y-145374285D01*
X87643247Y-145374285D02*
X87605152Y-145450475D01*
X87605152Y-145450475D02*
X87567057Y-145488570D01*
X87567057Y-145488570D02*
X87490866Y-145526666D01*
X87490866Y-145526666D02*
X87414676Y-145526666D01*
X87414676Y-145526666D02*
X87338485Y-145488570D01*
X87338485Y-145488570D02*
X87300390Y-145450475D01*
X87300390Y-145450475D02*
X87262295Y-145374285D01*
X87262295Y-145374285D02*
X87262295Y-145183808D01*
X87262295Y-145183808D02*
X87300390Y-145069523D01*
D11*
%TO.C,J8*%
X87650000Y-105250000D02*
X87650000Y-106500000D01*
X87940000Y-105540000D02*
X87940000Y-111510000D01*
X87940000Y-111510000D02*
X103060000Y-111510000D01*
X87950000Y-105550000D02*
X87950000Y-106300000D01*
X87950000Y-106300000D02*
X89750000Y-106300000D01*
X87950000Y-107800000D02*
X88700000Y-107800000D01*
X88700000Y-107800000D02*
X88700000Y-110750000D01*
X88700000Y-110750000D02*
X95500000Y-110750000D01*
X88900000Y-105250000D02*
X87650000Y-105250000D01*
X89750000Y-105550000D02*
X87950000Y-105550000D01*
X89750000Y-106300000D02*
X89750000Y-105550000D01*
X91250000Y-105550000D02*
X91250000Y-106300000D01*
X91250000Y-106300000D02*
X99750000Y-106300000D01*
X99750000Y-105550000D02*
X91250000Y-105550000D01*
X99750000Y-106300000D02*
X99750000Y-105550000D01*
X101250000Y-105550000D02*
X101250000Y-106300000D01*
X101250000Y-106300000D02*
X103050000Y-106300000D01*
X102300000Y-107800000D02*
X102300000Y-110750000D01*
X102300000Y-110750000D02*
X95500000Y-110750000D01*
X103050000Y-105550000D02*
X101250000Y-105550000D01*
X103050000Y-106300000D02*
X103050000Y-105550000D01*
X103050000Y-107800000D02*
X102300000Y-107800000D01*
X103060000Y-105540000D02*
X87940000Y-105540000D01*
X103060000Y-111510000D02*
X103060000Y-105540000D01*
%TO.C,R4*%
X144990000Y-171283767D02*
X144990000Y-170991233D01*
X146010000Y-171283767D02*
X146010000Y-170991233D01*
%TO.C,J6*%
X87150000Y-77250000D02*
X87150000Y-78500000D01*
X87440000Y-77540000D02*
X87440000Y-83510000D01*
X87440000Y-83510000D02*
X110060000Y-83510000D01*
X87450000Y-77550000D02*
X87450000Y-78300000D01*
X87450000Y-78300000D02*
X89250000Y-78300000D01*
X87450000Y-79800000D02*
X88200000Y-79800000D01*
X88200000Y-79800000D02*
X88200000Y-82750000D01*
X88200000Y-82750000D02*
X98750000Y-82750000D01*
X88400000Y-77250000D02*
X87150000Y-77250000D01*
X89250000Y-77550000D02*
X87450000Y-77550000D01*
X89250000Y-78300000D02*
X89250000Y-77550000D01*
X90750000Y-77550000D02*
X90750000Y-78300000D01*
X90750000Y-78300000D02*
X106750000Y-78300000D01*
X106750000Y-77550000D02*
X90750000Y-77550000D01*
X106750000Y-78300000D02*
X106750000Y-77550000D01*
X108250000Y-77550000D02*
X108250000Y-78300000D01*
X108250000Y-78300000D02*
X110050000Y-78300000D01*
X109300000Y-79800000D02*
X109300000Y-82750000D01*
X109300000Y-82750000D02*
X98750000Y-82750000D01*
X110050000Y-77550000D02*
X108250000Y-77550000D01*
X110050000Y-78300000D02*
X110050000Y-77550000D01*
X110050000Y-79800000D02*
X109300000Y-79800000D01*
X110060000Y-77540000D02*
X87440000Y-77540000D01*
X110060000Y-83510000D02*
X110060000Y-77540000D01*
%TO.C,R3*%
X87977500Y-102245276D02*
X87977500Y-102754724D01*
X89022500Y-102245276D02*
X89022500Y-102754724D01*
%TO.C,J5*%
X106150000Y-105250000D02*
X106150000Y-106500000D01*
X106440000Y-105540000D02*
X106440000Y-111510000D01*
X106440000Y-111510000D02*
X121560000Y-111510000D01*
X106450000Y-105550000D02*
X106450000Y-106300000D01*
X106450000Y-106300000D02*
X108250000Y-106300000D01*
X106450000Y-107800000D02*
X107200000Y-107800000D01*
X107200000Y-107800000D02*
X107200000Y-110750000D01*
X107200000Y-110750000D02*
X114000000Y-110750000D01*
X107400000Y-105250000D02*
X106150000Y-105250000D01*
X108250000Y-105550000D02*
X106450000Y-105550000D01*
X108250000Y-106300000D02*
X108250000Y-105550000D01*
X109750000Y-105550000D02*
X109750000Y-106300000D01*
X109750000Y-106300000D02*
X118250000Y-106300000D01*
X118250000Y-105550000D02*
X109750000Y-105550000D01*
X118250000Y-106300000D02*
X118250000Y-105550000D01*
X119750000Y-105550000D02*
X119750000Y-106300000D01*
X119750000Y-106300000D02*
X121550000Y-106300000D01*
X120800000Y-107800000D02*
X120800000Y-110750000D01*
X120800000Y-110750000D02*
X114000000Y-110750000D01*
X121550000Y-105550000D02*
X119750000Y-105550000D01*
X121550000Y-106300000D02*
X121550000Y-105550000D01*
X121550000Y-107800000D02*
X120800000Y-107800000D01*
X121560000Y-105540000D02*
X106440000Y-105540000D01*
X121560000Y-111510000D02*
X121560000Y-105540000D01*
%TO.C,U2*%
X96400000Y-95340000D02*
X100160000Y-95340000D01*
X96400000Y-102160000D02*
X100160000Y-102160000D01*
X100160000Y-95340000D02*
X100160000Y-96600000D01*
X100160000Y-102160000D02*
X100160000Y-100900000D01*
X95120000Y-95440000D02*
X94880000Y-95110000D01*
X95360000Y-95110000D01*
X95120000Y-95440000D01*
G36*
X95120000Y-95440000D02*
G01*
X94880000Y-95110000D01*
X95360000Y-95110000D01*
X95120000Y-95440000D01*
G37*
%TO.C,R5*%
X144990000Y-175646267D02*
X144990000Y-175353733D01*
X146010000Y-175646267D02*
X146010000Y-175353733D01*
%TO.C,U1*%
X115160000Y-86260000D02*
X135860000Y-86260000D01*
X115160000Y-101860000D02*
X115160000Y-86260000D01*
X135860000Y-86260000D02*
X135860000Y-101860000D01*
X135860000Y-101860000D02*
X115160000Y-101860000D01*
X136110000Y-85985000D02*
X133660000Y-85985000D01*
X136110000Y-85985000D02*
X136110000Y-88435000D01*
X128910000Y-86085000D02*
X128670000Y-85749000D01*
X129150000Y-85749000D01*
X128910000Y-86085000D01*
G36*
X128910000Y-86085000D02*
G01*
X128670000Y-85749000D01*
X129150000Y-85749000D01*
X128910000Y-86085000D01*
G37*
%TO.C,C1*%
X126990000Y-83991233D02*
X126990000Y-84283767D01*
X128010000Y-83991233D02*
X128010000Y-84283767D01*
%TO.C,J1*%
X86600000Y-87830000D02*
X88300000Y-87830000D01*
X86600000Y-97170000D02*
X88300000Y-97170000D01*
%TO.C,R2*%
X90977500Y-102245276D02*
X90977500Y-102754724D01*
X92022500Y-102245276D02*
X92022500Y-102754724D01*
%TO.C,R1*%
X128477500Y-104254724D02*
X128477500Y-103745276D01*
X129522500Y-104254724D02*
X129522500Y-103745276D01*
%TD*%
M02*
