%TF.GenerationSoftware,KiCad,Pcbnew,9.0.2*%
%TF.CreationDate,2025-07-24T13:27:54-05:00*%
%TF.ProjectId,clock,636c6f63-6b2e-46b6-9963-61645f706362,rev?*%
%TF.SameCoordinates,Original*%
%TF.FileFunction,Paste,Top*%
%TF.FilePolarity,Positive*%
%FSLAX46Y46*%
G04 Gerber Fmt 4.6, Leading zero omitted, Abs format (unit mm)*
G04 Created by KiCad (PCBNEW 9.0.2) date 2025-07-24 13:27:54*
%MOMM*%
%LPD*%
G01*
G04 APERTURE LIST*
G04 Aperture macros list*
%AMRoundRect*
0 Rectangle with rounded corners*
0 $1 Rounding radius*
0 $2 $3 $4 $5 $6 $7 $8 $9 X,Y pos of 4 corners*
0 Add a 4 corners polygon primitive as box body*
4,1,4,$2,$3,$4,$5,$6,$7,$8,$9,$2,$3,0*
0 Add four circle primitives for the rounded corners*
1,1,$1+$1,$2,$3*
1,1,$1+$1,$4,$5*
1,1,$1+$1,$6,$7*
1,1,$1+$1,$8,$9*
0 Add four rect primitives between the rounded corners*
20,1,$1+$1,$2,$3,$4,$5,0*
20,1,$1+$1,$4,$5,$6,$7,0*
20,1,$1+$1,$6,$7,$8,$9,0*
20,1,$1+$1,$8,$9,$2,$3,0*%
%AMOutline5P*
0 Free polygon, 5 corners , with rotation*
0 The origin of the aperture is its center*
0 number of corners: always 5*
0 $1 to $10 corner X, Y*
0 $11 Rotation angle, in degrees counterclockwise*
0 create outline with 5 corners*
4,1,5,$1,$2,$3,$4,$5,$6,$7,$8,$9,$10,$1,$2,$11*%
%AMOutline6P*
0 Free polygon, 6 corners , with rotation*
0 The origin of the aperture is its center*
0 number of corners: always 6*
0 $1 to $12 corner X, Y*
0 $13 Rotation angle, in degrees counterclockwise*
0 create outline with 6 corners*
4,1,6,$1,$2,$3,$4,$5,$6,$7,$8,$9,$10,$11,$12,$1,$2,$13*%
%AMOutline7P*
0 Free polygon, 7 corners , with rotation*
0 The origin of the aperture is its center*
0 number of corners: always 7*
0 $1 to $14 corner X, Y*
0 $15 Rotation angle, in degrees counterclockwise*
0 create outline with 7 corners*
4,1,7,$1,$2,$3,$4,$5,$6,$7,$8,$9,$10,$11,$12,$13,$14,$1,$2,$15*%
%AMOutline8P*
0 Free polygon, 8 corners , with rotation*
0 The origin of the aperture is its center*
0 number of corners: always 8*
0 $1 to $16 corner X, Y*
0 $17 Rotation angle, in degrees counterclockwise*
0 create outline with 8 corners*
4,1,8,$1,$2,$3,$4,$5,$6,$7,$8,$9,$10,$11,$12,$13,$14,$15,$16,$1,$2,$17*%
G04 Aperture macros list end*
%ADD10RoundRect,0.237500X0.237500X-0.300000X0.237500X0.300000X-0.237500X0.300000X-0.237500X-0.300000X0*%
%ADD11RoundRect,0.237500X-0.250000X-0.237500X0.250000X-0.237500X0.250000X0.237500X-0.250000X0.237500X0*%
%ADD12RoundRect,0.375000X0.375000X-0.625000X0.375000X0.625000X-0.375000X0.625000X-0.375000X-0.625000X0*%
%ADD13RoundRect,0.500000X1.400000X-0.500000X1.400000X0.500000X-1.400000X0.500000X-1.400000X-0.500000X0*%
%ADD14R,0.800000X0.400000*%
%ADD15R,0.400000X0.800000*%
%ADD16Outline5P,-0.600000X0.204000X-0.204000X0.600000X0.600000X0.600000X0.600000X-0.600000X-0.600000X-0.600000X0.000000*%
%ADD17R,1.200000X1.200000*%
%ADD18R,0.800000X0.800000*%
%ADD19RoundRect,0.237500X-0.300000X-0.237500X0.300000X-0.237500X0.300000X0.237500X-0.300000X0.237500X0*%
%ADD20RoundRect,0.150000X-0.150000X-0.425000X0.150000X-0.425000X0.150000X0.425000X-0.150000X0.425000X0*%
%ADD21RoundRect,0.075000X-0.075000X-0.500000X0.075000X-0.500000X0.075000X0.500000X-0.075000X0.500000X0*%
%ADD22O,1.000000X2.100000*%
%ADD23O,1.000000X1.800000*%
%ADD24RoundRect,0.237500X0.250000X0.237500X-0.250000X0.237500X-0.250000X-0.237500X0.250000X-0.237500X0*%
G04 APERTURE END LIST*
D10*
%TO.C,R4*%
X145500001Y-174250000D03*
X145500001Y-172525000D03*
%TD*%
D11*
%TO.C,R3*%
X97837500Y-119050000D03*
X99662500Y-119050000D03*
%TD*%
D12*
%TO.C,U2*%
X92700000Y-112450000D03*
X95000000Y-112450000D03*
D13*
X95000000Y-106150000D03*
D12*
X97300000Y-112450000D03*
%TD*%
D10*
%TO.C,R5*%
X145500001Y-178612500D03*
X145500001Y-176887500D03*
%TD*%
D14*
%TO.C,U1*%
X83610000Y-78840000D03*
X83610000Y-79690000D03*
X83610000Y-80540000D03*
X83610000Y-81390000D03*
X83610000Y-82240000D03*
X83610000Y-83090000D03*
X83610000Y-83940000D03*
X83610000Y-84790000D03*
X83610000Y-85640000D03*
X83610000Y-86490000D03*
X83610000Y-87340000D03*
X83610000Y-88190000D03*
X83610000Y-89040000D03*
X83610000Y-89890000D03*
X83610000Y-90740000D03*
D15*
X84660000Y-91790000D03*
X85510000Y-91790000D03*
X86360000Y-91790000D03*
X87210000Y-91790000D03*
X88060000Y-91790000D03*
X88910000Y-91790000D03*
X89760000Y-91790000D03*
X90610000Y-91790000D03*
X91460000Y-91790000D03*
X92310000Y-91790000D03*
X93160000Y-91790000D03*
X94010000Y-91790000D03*
X94860000Y-91790000D03*
X95710000Y-91790000D03*
X96560000Y-91790000D03*
D14*
X97610000Y-90740000D03*
X97610000Y-89890000D03*
X97610000Y-89040000D03*
X97610000Y-88190000D03*
X97610000Y-87340000D03*
X97610000Y-86490000D03*
X97610000Y-85640000D03*
X97610000Y-84790000D03*
X97610000Y-83940000D03*
X97610000Y-83090000D03*
X97610000Y-82240000D03*
X97610000Y-81390000D03*
X97610000Y-80540000D03*
X97610000Y-79690000D03*
X97610000Y-78840000D03*
D15*
X96560000Y-77790000D03*
X95710000Y-77790000D03*
X94860000Y-77790000D03*
X94010000Y-77790000D03*
X93160000Y-77790000D03*
X92310000Y-77790000D03*
X91460000Y-77790000D03*
X90610000Y-77790000D03*
X89760000Y-77790000D03*
X88910000Y-77790000D03*
X88060000Y-77790000D03*
X87210000Y-77790000D03*
X86360000Y-77790000D03*
X85510000Y-77790000D03*
X84660000Y-77790000D03*
D16*
X88960000Y-83140000D03*
D17*
X88960000Y-84790000D03*
X88960000Y-86440000D03*
X90610000Y-83140000D03*
X90610000Y-84790000D03*
X90610000Y-86440000D03*
X92260000Y-83140000D03*
X92260000Y-84790000D03*
X92260000Y-86440000D03*
D18*
X83610000Y-77790000D03*
X83610000Y-91790000D03*
X97610000Y-91790000D03*
X97610000Y-77790000D03*
%TD*%
D19*
%TO.C,C1*%
X79525000Y-80050000D03*
X81250000Y-80050000D03*
%TD*%
D20*
%TO.C,J1*%
X85550000Y-117370000D03*
X86350000Y-117370000D03*
D21*
X87500000Y-117370000D03*
X88500000Y-117370000D03*
X89000000Y-117370000D03*
X90000000Y-117370000D03*
D20*
X91150000Y-117370000D03*
X91950000Y-117370000D03*
X91950000Y-117370000D03*
X91150000Y-117370000D03*
D21*
X90500000Y-117370000D03*
X89500000Y-117370000D03*
X88000000Y-117370000D03*
X87000000Y-117370000D03*
D20*
X86350000Y-117370000D03*
X85550000Y-117370000D03*
D22*
X84430000Y-117945000D03*
D23*
X84430000Y-122125000D03*
D22*
X93070000Y-117945000D03*
D23*
X93070000Y-122125000D03*
%TD*%
D11*
%TO.C,R2*%
X97837500Y-116050000D03*
X99662500Y-116050000D03*
%TD*%
D24*
%TO.C,R1*%
X101162500Y-78550000D03*
X99337500Y-78550000D03*
%TD*%
M02*
