M48
; DRILL file {KiCad 9.0.2} date 2025-07-01T18:06:56-0500
; FORMAT={-:-/ absolute / inch / decimal}
; #@! TF.CreationDate,2025-07-01T18:06:56-05:00
; #@! TF.GenerationSoftware,Kicad,Pcbnew,9.0.2
; #@! TF.FileFunction,Plated,1,2,PTH
FMAT,2
INCH
; #@! TA.AperFunction,Plated,PTH,ViaDrill
T1C0.0118
; #@! TA.AperFunction,Plated,PTH,ComponentDrill
T2C0.0236
; #@! TA.AperFunction,Plated,PTH,ComponentDrill
T3C0.0295
; #@! TA.AperFunction,Plated,PTH,ComponentDrill
T4C0.0374
; #@! TA.AperFunction,Plated,PTH,ComponentDrill
T5C0.0394
; #@! TA.AperFunction,Plated,PTH,ComponentDrill
T6C0.0472
; #@! TA.AperFunction,Plated,PTH,ComponentDrill
T7C0.0591
%
G90
G05
T1
X3.5023Y-3.63
X3.5039Y-3.6614
X4.0551Y-3.8976
X4.126Y-3.6614
X4.126Y-3.7795
X4.1339Y-3.5433
X4.1496Y-3.6837
X4.1496Y-3.8189
X4.1732Y-3.5039
X4.1732Y-3.6614
X4.1732Y-3.7795
X4.2026Y-3.4925
X4.2126Y-3.6614
X4.2126Y-3.7795
X4.2323Y-3.248
X4.3071Y-3.3268
X4.3504Y-3.9567
X4.3727Y-3.9344
X4.3949Y-3.9122
X4.4291Y-4.0748
X4.4596Y-4.0669
X4.4685Y-3.7402
X4.4887Y-4.0549
X4.5276Y-3.7402
X4.6254Y-4.0349
X4.626Y-3.937
X4.6457Y-3.3622
X4.685Y-3.3465
X4.7244Y-3.5433
X4.7638Y-3.3858
X4.7835Y-3.1693
X4.8228Y-3.5433
X4.8706Y-3.3971
X4.8819Y-3.2677
X4.8939Y-6.5234
X5.0Y-3.5039
X5.0394Y-4.0551
X5.6102Y-6.5945
X5.6102Y-6.7913
T3
X4.7622Y-6.6339
X4.8122Y-6.6839
X4.8622Y-6.6339
X5.0378Y-6.6339
X5.0878Y-6.6839
X5.1378Y-6.6339
T4
X3.0364Y-5.3602
X3.0364Y-5.4587
X3.0364Y-5.5571
X3.0364Y-5.6555
X3.0364Y-5.7539
X3.0364Y-5.8524
X3.0364Y-5.9508
X3.0364Y-6.0492
X3.4252Y-6.5738
X3.5236Y-6.5738
X3.5433Y-3.1496
X3.563Y-4.252
X3.622Y-6.5738
X3.6417Y-3.1496
X3.6614Y-4.252
X3.7205Y-6.5738
X3.7402Y-3.1496
X3.7598Y-4.252
X3.8189Y-6.5738
X3.8386Y-3.1496
X3.8583Y-4.252
X3.937Y-3.1496
X3.9567Y-4.252
X4.0354Y-3.1496
X4.1339Y-3.1496
X4.2323Y-3.1496
X4.2913Y-4.252
X4.3898Y-4.252
X4.4882Y-4.252
X4.5866Y-4.252
X4.685Y-4.252
X6.4754Y-5.5906
X6.4754Y-5.689
X6.4754Y-5.7874
X6.4754Y-5.8858
X6.4754Y-5.9843
T5
X3.3819Y-5.3504
X3.3819Y-5.4504
X3.3819Y-5.5504
X3.3819Y-5.6504
X3.3819Y-5.7504
X3.3819Y-5.8504
X3.3819Y-5.9504
X3.3819Y-6.0504
X3.5315Y-6.9882
X3.8307Y-6.9882
X4.7913Y-6.9882
X5.0906Y-6.9882
X6.7126Y-5.689
X6.7126Y-5.7874
X6.7126Y-5.8858
X7.2835Y-5.689
X7.2835Y-5.8858
T6
X4.2047Y-6.6043
X4.4803Y-6.6457
T2
G00X3.3789Y-3.4717
M15
G01X3.3474Y-3.4717
M16
G05
G00X3.3789Y-3.8118
M15
G01X3.3474Y-3.8118
M16
G05
G00X3.5494Y-3.4717
M15
G01X3.5061Y-3.4717
M16
G05
G00X3.5494Y-3.8118
M15
G01X3.5061Y-3.8118
M16
G05
T7
G00X6.9823Y-5.5669
M15
G01X7.0335Y-5.5669
M16
G05
G00X6.9823Y-6.0079
M15
G01X7.0335Y-6.0079
M16
G05
M30
