%TF.GenerationSoftware,KiCad,Pcbnew,9.0.2*%
%TF.CreationDate,2025-07-24T13:27:54-05:00*%
%TF.ProjectId,clock,636c6f63-6b2e-46b6-9963-61645f706362,rev?*%
%TF.SameCoordinates,Original*%
%TF.FileFunction,Profile,NP*%
%FSLAX46Y46*%
G04 Gerber Fmt 4.6, Leading zero omitted, Abs format (unit mm)*
G04 Created by KiCad (PCBNEW 9.0.2) date 2025-07-24 13:27:54*
%MOMM*%
%LPD*%
G01*
G04 APERTURE LIST*
%TA.AperFunction,Profile*%
%ADD10C,0.100000*%
%TD*%
G04 APERTURE END LIST*
D10*
X129500000Y-124750000D02*
X134500000Y-124750000D01*
X119500000Y-129750000D02*
X106800000Y-129750000D01*
X146800001Y-187000000D02*
X72000000Y-187000000D01*
X146800001Y-164750000D02*
X146800001Y-187000000D01*
X140300001Y-164750000D02*
X146800001Y-164750000D01*
X99050000Y-159750000D02*
X130300001Y-159750000D01*
X67000000Y-94750000D02*
X67000000Y-110500000D01*
X72000000Y-170875000D02*
X72000000Y-164750000D01*
X72000000Y-77000000D02*
X108500000Y-77000000D01*
X72000000Y-110500000D02*
X72000000Y-94750000D01*
X49000000Y-77000000D02*
X67000000Y-77000000D01*
X96800000Y-129750000D02*
X82800000Y-129750000D01*
X108500000Y-124750000D02*
X106800000Y-124750000D01*
X72000000Y-124750000D02*
X72000000Y-120500000D01*
X89050001Y-159750001D02*
X72000000Y-159750000D01*
X113500000Y-95725000D02*
X113500000Y-124750000D01*
X72000000Y-180875000D02*
X72000000Y-187000000D01*
X140300000Y-159750000D02*
X146750000Y-159750000D01*
X113500000Y-124750000D02*
X119500049Y-124750000D01*
X72000000Y-159750000D02*
X72000000Y-149750000D01*
X134500000Y-95725000D02*
X113500000Y-95725000D01*
X146750000Y-159750000D02*
X146750000Y-129750000D01*
X108500000Y-77000000D02*
X108500000Y-124750000D01*
X146750000Y-129750000D02*
X129500000Y-129750000D01*
X67000000Y-187000000D02*
X49000000Y-187000000D01*
X67000000Y-170875000D02*
X67000000Y-149750000D01*
X67000000Y-180875000D02*
X67000000Y-187000000D01*
X72800000Y-124750000D02*
X72000000Y-124750000D01*
X49000000Y-187000000D02*
X49000000Y-77000000D01*
X67000000Y-77000000D02*
X67000000Y-84750000D01*
X99050001Y-164750000D02*
X130300001Y-164750000D01*
X72000000Y-164750000D02*
X89050001Y-164750000D01*
X72000000Y-84750000D02*
X72000000Y-77000000D01*
X96800000Y-124750000D02*
X82800000Y-124750000D01*
X72000000Y-129750000D02*
X72000000Y-139750000D01*
X134500000Y-124750000D02*
X134500000Y-95725000D01*
X67000000Y-120500000D02*
X67000000Y-139750000D01*
X72800000Y-129750000D02*
X72000000Y-129750000D01*
%TO.C,mouse-bite-5mm-slot*%
X96800000Y-124750000D02*
G75*
G02*
X96800000Y-129750000I0J-2500000D01*
G01*
X106800000Y-129750000D02*
G75*
G02*
X106800000Y-124750000I0J2500000D01*
G01*
X89050001Y-159750000D02*
G75*
G02*
X89050001Y-164750000I0J-2500000D01*
G01*
X99050001Y-164750000D02*
G75*
G02*
X99050001Y-159750000I0J2500000D01*
G01*
X130300001Y-159750000D02*
G75*
G02*
X130300001Y-164750000I0J-2500000D01*
G01*
X140300001Y-164750000D02*
G75*
G02*
X140300001Y-159750000I0J2500000D01*
G01*
X67000000Y-120500000D02*
G75*
G02*
X72000000Y-120500000I2500000J0D01*
G01*
X72000000Y-110500000D02*
G75*
G02*
X67000000Y-110500000I-2500000J0D01*
G01*
X72800000Y-124750000D02*
G75*
G02*
X72800000Y-129750000I0J-2500000D01*
G01*
X82800000Y-129750000D02*
G75*
G02*
X82800000Y-124750000I0J2500000D01*
G01*
X67000000Y-180875000D02*
G75*
G02*
X72000000Y-180875000I2500000J0D01*
G01*
X72000000Y-170875000D02*
G75*
G02*
X67000000Y-170875000I-2500000J0D01*
G01*
X67000000Y-149750000D02*
G75*
G02*
X72000000Y-149750000I2500000J0D01*
G01*
X72000000Y-139750000D02*
G75*
G02*
X67000000Y-139750000I-2500000J0D01*
G01*
X119500000Y-124750000D02*
G75*
G02*
X119500000Y-129750000I0J-2500000D01*
G01*
X129500000Y-129750000D02*
G75*
G02*
X129500000Y-124750000I0J2500000D01*
G01*
%TO.C,LCD1*%
X87500000Y-131850000D02*
G75*
G02*
X85500000Y-131850000I-1000000J0D01*
G01*
X85500000Y-131850000D02*
G75*
G02*
X87500000Y-131850000I1000000J0D01*
G01*
X87500000Y-157650000D02*
G75*
G02*
X85500000Y-157650000I-1000000J0D01*
G01*
X85500000Y-157650000D02*
G75*
G02*
X87500000Y-157650000I1000000J0D01*
G01*
X145400000Y-131850000D02*
G75*
G02*
X143400000Y-131850000I-1000000J0D01*
G01*
X143400000Y-131850000D02*
G75*
G02*
X145400000Y-131850000I1000000J0D01*
G01*
X145400000Y-157650000D02*
G75*
G02*
X143400000Y-157650000I-1000000J0D01*
G01*
X143400000Y-157650000D02*
G75*
G02*
X145400000Y-157650000I1000000J0D01*
G01*
%TO.C,mouse-bite-5mm-slot*%
X67000000Y-94750000D02*
G75*
G02*
X72000000Y-94750000I2500000J0D01*
G01*
X72000000Y-84750000D02*
G75*
G02*
X67000000Y-84750000I-2500000J0D01*
G01*
%TD*%
M02*
