%TF.GenerationSoftware,KiCad,Pcbnew,9.0.2*%
%TF.CreationDate,2025-07-24T13:27:54-05:00*%
%TF.ProjectId,clock,636c6f63-6b2e-46b6-9963-61645f706362,rev?*%
%TF.SameCoordinates,Original*%
%TF.FileFunction,Legend,Top*%
%TF.FilePolarity,Positive*%
%FSLAX46Y46*%
G04 Gerber Fmt 4.6, Leading zero omitted, Abs format (unit mm)*
G04 Created by KiCad (PCBNEW 9.0.2) date 2025-07-24 13:27:54*
%MOMM*%
%LPD*%
G01*
G04 APERTURE LIST*
%ADD10C,0.300000*%
%ADD11C,0.150000*%
%ADD12C,0.120000*%
G04 APERTURE END LIST*
D10*
G36*
X75640954Y-132120187D02*
G01*
X75533353Y-132113890D01*
X75443859Y-132096361D01*
X75369569Y-132069171D01*
X75301045Y-132030160D01*
X75246056Y-131984662D01*
X75202874Y-131932517D01*
X75169619Y-131873269D01*
X75147157Y-131809978D01*
X75135280Y-131741733D01*
X75415823Y-131730467D01*
X75442893Y-131792825D01*
X75486989Y-131840560D01*
X75524685Y-131862078D01*
X75575545Y-131876354D01*
X75643427Y-131881684D01*
X75733991Y-131874717D01*
X75787042Y-131857962D01*
X75813393Y-131838877D01*
X75828242Y-131815854D01*
X75833295Y-131787528D01*
X75829043Y-131757789D01*
X75817083Y-131734863D01*
X75795944Y-131716641D01*
X75754344Y-131697128D01*
X75614850Y-131661591D01*
X75453905Y-131621095D01*
X75344748Y-131580899D01*
X75281760Y-131546373D01*
X75235284Y-131508620D01*
X75202416Y-131467692D01*
X75179350Y-131420416D01*
X75164806Y-131364441D01*
X75159643Y-131297882D01*
X75165376Y-131234089D01*
X75182253Y-131175164D01*
X75210384Y-131120013D01*
X75248817Y-131071462D01*
X75299335Y-131028856D01*
X75363891Y-130992060D01*
X75434039Y-130966547D01*
X75518719Y-130950080D01*
X75620712Y-130944158D01*
X75732515Y-130951021D01*
X75822196Y-130969831D01*
X75893745Y-130998563D01*
X75959094Y-131039558D01*
X76010821Y-131086256D01*
X76050641Y-131138880D01*
X76093567Y-131227767D01*
X76116311Y-131321330D01*
X75833295Y-131333969D01*
X75819729Y-131291519D01*
X75797300Y-131255201D01*
X75766443Y-131225388D01*
X75725950Y-131202078D01*
X75679226Y-131187833D01*
X75622452Y-131182752D01*
X75562120Y-131187488D01*
X75519835Y-131199810D01*
X75490928Y-131217832D01*
X75460616Y-131256259D01*
X75451086Y-131297882D01*
X75456707Y-131334151D01*
X75472701Y-131362363D01*
X75499901Y-131384410D01*
X75549546Y-131406418D01*
X75705617Y-131445710D01*
X75859189Y-131483053D01*
X75959691Y-131520449D01*
X76017092Y-131552881D01*
X76058756Y-131587810D01*
X76087552Y-131625229D01*
X76114793Y-131693045D01*
X76124738Y-131782491D01*
X76118112Y-131850592D01*
X76098987Y-131910155D01*
X76067585Y-131962925D01*
X76025399Y-132008038D01*
X75971088Y-132046838D01*
X75902538Y-132079246D01*
X75829470Y-132101102D01*
X75743012Y-132115163D01*
X75640954Y-132120187D01*
G37*
G36*
X76908116Y-132120187D02*
G01*
X76803279Y-132111614D01*
X76709671Y-132086800D01*
X76625283Y-132046273D01*
X76549912Y-131990756D01*
X76486461Y-131922437D01*
X76434132Y-131839918D01*
X76396774Y-131749222D01*
X76373599Y-131647329D01*
X76365531Y-131532172D01*
X76373605Y-131417080D01*
X76396785Y-131315378D01*
X76434132Y-131224976D01*
X76486422Y-131142661D01*
X76549871Y-131074297D01*
X76625283Y-131018530D01*
X76709698Y-130977742D01*
X76803303Y-130952779D01*
X76908116Y-130944158D01*
X76995417Y-130950227D01*
X77075480Y-130967930D01*
X77149459Y-130996914D01*
X77217808Y-131037132D01*
X77277228Y-131086786D01*
X77328519Y-131146482D01*
X77369188Y-131213844D01*
X77398821Y-131289835D01*
X77417179Y-131375918D01*
X77134071Y-131391031D01*
X77114711Y-131330389D01*
X77088059Y-131282731D01*
X77054479Y-131245767D01*
X77013249Y-131218029D01*
X76965879Y-131201166D01*
X76910681Y-131195300D01*
X76837370Y-131205634D01*
X76777413Y-131235322D01*
X76727499Y-131285426D01*
X76692283Y-131348850D01*
X76669500Y-131429598D01*
X76661187Y-131532172D01*
X76669502Y-131634809D01*
X76692286Y-131715585D01*
X76727499Y-131779010D01*
X76777406Y-131829059D01*
X76837363Y-131858719D01*
X76910681Y-131869044D01*
X76966612Y-131862934D01*
X77014960Y-131845292D01*
X77057410Y-131816105D01*
X77091709Y-131777279D01*
X77118554Y-131726914D01*
X77137460Y-131662415D01*
X77420568Y-131677527D01*
X77402215Y-131763717D01*
X77372519Y-131840704D01*
X77331633Y-131909802D01*
X77280114Y-131971347D01*
X77220321Y-132022794D01*
X77151474Y-132064774D01*
X77076815Y-132095249D01*
X76996100Y-132113824D01*
X76908116Y-132120187D01*
G37*
G36*
X77938516Y-132095000D02*
G01*
X77938516Y-130969437D01*
X78148534Y-130969437D01*
X78170333Y-131263444D01*
X78151007Y-131264269D01*
X78170561Y-131167985D01*
X78199859Y-131095932D01*
X78237286Y-131042984D01*
X78287153Y-131003490D01*
X78352049Y-130978523D01*
X78436588Y-130969437D01*
X78689471Y-130969437D01*
X78689471Y-131202078D01*
X78457562Y-131202078D01*
X78382566Y-131209513D01*
X78326312Y-131229647D01*
X78281141Y-131263729D01*
X78248826Y-131311530D01*
X78230196Y-131370057D01*
X78223272Y-131448183D01*
X78223272Y-132095000D01*
X77938516Y-132095000D01*
G37*
G36*
X77668872Y-132095000D02*
G01*
X77668872Y-131869044D01*
X78566006Y-131869044D01*
X78566006Y-132095000D01*
X77668872Y-132095000D01*
G37*
G36*
X77668872Y-131195300D02*
G01*
X77668872Y-130969437D01*
X78108142Y-130969437D01*
X78108142Y-131195300D01*
X77668872Y-131195300D01*
G37*
G36*
X79511868Y-130952639D02*
G01*
X79602505Y-130977235D01*
X79684516Y-131017522D01*
X79757483Y-131072524D01*
X79819367Y-131140873D01*
X79870812Y-131224152D01*
X79907370Y-131315361D01*
X79930220Y-131419225D01*
X79938224Y-131538034D01*
X79938224Y-131609475D01*
X79172980Y-131609475D01*
X79187211Y-131690558D01*
X79213115Y-131753517D01*
X79249550Y-131802091D01*
X79297318Y-131838923D01*
X79353438Y-131861245D01*
X79420368Y-131869044D01*
X79494706Y-131859235D01*
X79553907Y-131831492D01*
X79600116Y-131787588D01*
X79629470Y-131731291D01*
X79915509Y-131750983D01*
X79868307Y-131862820D01*
X79807003Y-131952740D01*
X79731502Y-132024016D01*
X79665873Y-132065117D01*
X79592082Y-132095054D01*
X79508719Y-132113685D01*
X79414048Y-132120187D01*
X79311028Y-132111841D01*
X79218891Y-132087672D01*
X79135703Y-132048196D01*
X79061566Y-131993827D01*
X78999045Y-131926165D01*
X78947391Y-131843674D01*
X78910711Y-131752997D01*
X78887812Y-131649917D01*
X78879797Y-131532172D01*
X78887689Y-131416996D01*
X78888127Y-131415027D01*
X79176735Y-131415027D01*
X79632859Y-131415027D01*
X79619473Y-131344247D01*
X79595599Y-131290521D01*
X79562242Y-131250163D01*
X79519129Y-131220132D01*
X79468469Y-131201748D01*
X79408186Y-131195300D01*
X79346831Y-131201923D01*
X79295700Y-131220751D01*
X79252573Y-131251446D01*
X79218685Y-131292424D01*
X79193157Y-131345928D01*
X79176735Y-131415027D01*
X78888127Y-131415027D01*
X78910329Y-131315285D01*
X78946750Y-131224976D01*
X78997885Y-131142487D01*
X79059752Y-131074150D01*
X79133046Y-131018530D01*
X79215397Y-130977775D01*
X79307234Y-130952801D01*
X79410659Y-130944158D01*
X79511868Y-130952639D01*
G37*
G36*
X80770695Y-130952639D02*
G01*
X80861333Y-130977235D01*
X80943344Y-131017522D01*
X81016310Y-131072524D01*
X81078194Y-131140873D01*
X81129640Y-131224152D01*
X81166198Y-131315361D01*
X81189047Y-131419225D01*
X81197051Y-131538034D01*
X81197051Y-131609475D01*
X80431808Y-131609475D01*
X80446039Y-131690558D01*
X80471943Y-131753517D01*
X80508378Y-131802091D01*
X80556146Y-131838923D01*
X80612265Y-131861245D01*
X80679195Y-131869044D01*
X80753534Y-131859235D01*
X80812735Y-131831492D01*
X80858943Y-131787588D01*
X80888298Y-131731291D01*
X81174337Y-131750983D01*
X81127135Y-131862820D01*
X81065831Y-131952740D01*
X80990330Y-132024016D01*
X80924701Y-132065117D01*
X80850910Y-132095054D01*
X80767546Y-132113685D01*
X80672875Y-132120187D01*
X80569856Y-132111841D01*
X80477718Y-132087672D01*
X80394530Y-132048196D01*
X80320394Y-131993827D01*
X80257873Y-131926165D01*
X80206219Y-131843674D01*
X80169538Y-131752997D01*
X80146639Y-131649917D01*
X80138625Y-131532172D01*
X80146517Y-131416996D01*
X80146955Y-131415027D01*
X80435563Y-131415027D01*
X80891687Y-131415027D01*
X80878301Y-131344247D01*
X80854427Y-131290521D01*
X80821070Y-131250163D01*
X80777957Y-131220132D01*
X80727297Y-131201748D01*
X80667014Y-131195300D01*
X80605659Y-131201923D01*
X80554528Y-131220751D01*
X80511400Y-131251446D01*
X80477512Y-131292424D01*
X80451985Y-131345928D01*
X80435563Y-131415027D01*
X80146955Y-131415027D01*
X80169157Y-131315285D01*
X80205578Y-131224976D01*
X80256713Y-131142487D01*
X80318579Y-131074150D01*
X80391874Y-131018530D01*
X80474225Y-130977775D01*
X80566062Y-130952801D01*
X80669487Y-130944158D01*
X80770695Y-130952639D01*
G37*
G36*
X81445355Y-132095000D02*
G01*
X81445355Y-130969437D01*
X81705290Y-130969437D01*
X81714174Y-131276816D01*
X81685598Y-131264269D01*
X81714283Y-131161131D01*
X81756489Y-131083193D01*
X81814328Y-131021122D01*
X81883618Y-130978230D01*
X81962494Y-130952897D01*
X82051779Y-130944158D01*
X82131388Y-130950772D01*
X82196691Y-130969245D01*
X82250440Y-130998380D01*
X82296920Y-131038523D01*
X82335028Y-131087798D01*
X82365112Y-131147490D01*
X82393016Y-131246975D01*
X82402939Y-131366301D01*
X82402939Y-132095000D01*
X82118183Y-132095000D01*
X82118183Y-131430506D01*
X82112354Y-131346806D01*
X82097108Y-131286808D01*
X82074860Y-131244760D01*
X82042006Y-131212304D01*
X81999649Y-131192439D01*
X81944709Y-131185317D01*
X81888622Y-131192674D01*
X81837822Y-131214535D01*
X81794646Y-131249978D01*
X81759695Y-131300813D01*
X81738055Y-131362349D01*
X81730111Y-131443146D01*
X81730111Y-132095000D01*
X81445355Y-132095000D01*
G37*
G36*
X131778613Y-99105111D02*
G01*
X131769759Y-99234621D01*
X131745338Y-99339279D01*
X131707643Y-99423616D01*
X131657622Y-99491259D01*
X131593212Y-99547857D01*
X131519067Y-99590159D01*
X131433508Y-99618626D01*
X131334214Y-99632584D01*
X131319101Y-99331066D01*
X131387486Y-99316335D01*
X131436328Y-99290892D01*
X131470318Y-99255687D01*
X131494113Y-99211091D01*
X131508846Y-99159733D01*
X131514007Y-99100074D01*
X131508363Y-99035888D01*
X131492208Y-98980364D01*
X131464008Y-98932397D01*
X131423698Y-98895917D01*
X131372498Y-98873170D01*
X131303989Y-98864868D01*
X131235851Y-98872732D01*
X131183455Y-98894452D01*
X131141419Y-98930201D01*
X131110457Y-98979906D01*
X131092225Y-99039193D01*
X131085635Y-99113446D01*
X131085635Y-99226011D01*
X130848689Y-99226011D01*
X130848689Y-99113446D01*
X130843807Y-99056800D01*
X130830005Y-99009124D01*
X130805858Y-98968239D01*
X130771203Y-98937316D01*
X130727062Y-98918094D01*
X130667247Y-98911030D01*
X130606653Y-98917424D01*
X130561435Y-98934772D01*
X130527846Y-98961863D01*
X130503464Y-98998238D01*
X130488059Y-99043747D01*
X130482508Y-99100898D01*
X130488300Y-99164610D01*
X130503915Y-99212366D01*
X130527846Y-99247902D01*
X130560821Y-99275736D01*
X130601143Y-99295383D01*
X130650486Y-99306703D01*
X130635374Y-99609045D01*
X130542317Y-99590478D01*
X130462084Y-99558937D01*
X130392648Y-99514842D01*
X130332574Y-99457645D01*
X130285583Y-99390559D01*
X130250638Y-99310162D01*
X130228343Y-99213840D01*
X130220375Y-99098333D01*
X130226155Y-98997568D01*
X130242543Y-98910244D01*
X130268460Y-98834460D01*
X130306219Y-98764556D01*
X130352653Y-98708057D01*
X130408136Y-98663276D01*
X130471648Y-98630756D01*
X130544479Y-98610609D01*
X130628688Y-98603558D01*
X130720007Y-98613766D01*
X130794567Y-98642598D01*
X130856108Y-98689471D01*
X130904261Y-98751543D01*
X130942232Y-98832482D01*
X130968857Y-98936675D01*
X130928557Y-98936675D01*
X130945405Y-98847581D01*
X130972484Y-98772647D01*
X131009013Y-98709669D01*
X131054952Y-98656956D01*
X131110450Y-98613936D01*
X131172854Y-98583073D01*
X131243492Y-98564028D01*
X131324139Y-98557397D01*
X131416546Y-98565239D01*
X131497033Y-98587725D01*
X131567771Y-98624166D01*
X131629732Y-98674178D01*
X131681734Y-98736880D01*
X131724208Y-98814035D01*
X131753555Y-98897740D01*
X131772083Y-98994062D01*
X131778613Y-99105111D01*
G37*
G36*
X75995000Y-122021611D02*
G01*
X75016441Y-122021611D01*
X75016441Y-122387059D01*
X74767771Y-122387059D01*
X74767771Y-122223294D01*
X74760737Y-122142604D01*
X74742217Y-122084992D01*
X74708857Y-122039562D01*
X74658594Y-122007597D01*
X74595302Y-121989836D01*
X74503989Y-121982959D01*
X74503989Y-121722566D01*
X75995000Y-121722566D01*
X75995000Y-122021611D01*
G37*
G36*
X75995000Y-122449158D02*
G01*
X75725355Y-122449158D01*
X75725355Y-121390823D01*
X75995000Y-121390823D01*
X75995000Y-122449158D01*
G37*
G36*
X76024355Y-166437210D02*
G01*
X76201217Y-166437210D01*
X76201217Y-166696779D01*
X76024355Y-166696779D01*
X76024355Y-166995000D01*
X75725310Y-166995000D01*
X75725310Y-166696779D01*
X75058802Y-166696779D01*
X75058802Y-166451132D01*
X75067988Y-166437210D01*
X75339345Y-166437210D01*
X75725310Y-166437210D01*
X75725310Y-165879512D01*
X75339345Y-166437210D01*
X75067988Y-166437210D01*
X75683728Y-165503989D01*
X76024355Y-165503989D01*
X76024355Y-166437210D01*
G37*
G36*
X142592415Y-134595000D02*
G01*
X142598109Y-134474607D01*
X142614290Y-134369033D01*
X142639859Y-134276446D01*
X142678480Y-134189198D01*
X142733081Y-134105874D01*
X142805273Y-134025761D01*
X142887867Y-133955268D01*
X142994972Y-133881579D01*
X143130879Y-133804569D01*
X143203374Y-133764031D01*
X143257641Y-133727724D01*
X143302705Y-133687245D01*
X143333661Y-133644193D01*
X143352476Y-133594323D01*
X143359307Y-133529887D01*
X143353281Y-133472679D01*
X143336409Y-133426572D01*
X143308222Y-133388264D01*
X143268815Y-133359161D01*
X143220490Y-133341469D01*
X143156891Y-133334981D01*
X143083988Y-133342855D01*
X143028214Y-133364467D01*
X142985524Y-133398637D01*
X142952868Y-133444192D01*
X142926764Y-133504143D01*
X142908221Y-133581911D01*
X142598277Y-133564325D01*
X142618161Y-133452016D01*
X142652620Y-133355989D01*
X142700858Y-133273679D01*
X142763141Y-133203182D01*
X142837555Y-133147329D01*
X142926727Y-133106025D01*
X143033600Y-133079756D01*
X143161928Y-133070375D01*
X143272390Y-133077163D01*
X143364549Y-133096104D01*
X143441372Y-133125604D01*
X143511222Y-133168200D01*
X143566967Y-133219605D01*
X143610266Y-133280393D01*
X143641092Y-133348826D01*
X143660149Y-133425804D01*
X143666778Y-133513034D01*
X143656730Y-133627503D01*
X143628951Y-133718839D01*
X143599358Y-133773179D01*
X143558531Y-133825787D01*
X143505028Y-133877017D01*
X143409660Y-133947140D01*
X143271105Y-134029699D01*
X143157476Y-134094974D01*
X143078122Y-134148127D01*
X143011982Y-134202031D01*
X142972243Y-134244480D01*
X142945324Y-134288109D01*
X142934691Y-134325355D01*
X143667602Y-134325355D01*
X143667602Y-134595000D01*
X142592415Y-134595000D01*
G37*
D11*
X100154819Y-112383333D02*
X100869104Y-112383333D01*
X100869104Y-112383333D02*
X101011961Y-112430952D01*
X101011961Y-112430952D02*
X101107200Y-112526190D01*
X101107200Y-112526190D02*
X101154819Y-112669047D01*
X101154819Y-112669047D02*
X101154819Y-112764285D01*
X100583390Y-111764285D02*
X100535771Y-111859523D01*
X100535771Y-111859523D02*
X100488152Y-111907142D01*
X100488152Y-111907142D02*
X100392914Y-111954761D01*
X100392914Y-111954761D02*
X100345295Y-111954761D01*
X100345295Y-111954761D02*
X100250057Y-111907142D01*
X100250057Y-111907142D02*
X100202438Y-111859523D01*
X100202438Y-111859523D02*
X100154819Y-111764285D01*
X100154819Y-111764285D02*
X100154819Y-111573809D01*
X100154819Y-111573809D02*
X100202438Y-111478571D01*
X100202438Y-111478571D02*
X100250057Y-111430952D01*
X100250057Y-111430952D02*
X100345295Y-111383333D01*
X100345295Y-111383333D02*
X100392914Y-111383333D01*
X100392914Y-111383333D02*
X100488152Y-111430952D01*
X100488152Y-111430952D02*
X100535771Y-111478571D01*
X100535771Y-111478571D02*
X100583390Y-111573809D01*
X100583390Y-111573809D02*
X100583390Y-111764285D01*
X100583390Y-111764285D02*
X100631009Y-111859523D01*
X100631009Y-111859523D02*
X100678628Y-111907142D01*
X100678628Y-111907142D02*
X100773866Y-111954761D01*
X100773866Y-111954761D02*
X100964342Y-111954761D01*
X100964342Y-111954761D02*
X101059580Y-111907142D01*
X101059580Y-111907142D02*
X101107200Y-111859523D01*
X101107200Y-111859523D02*
X101154819Y-111764285D01*
X101154819Y-111764285D02*
X101154819Y-111573809D01*
X101154819Y-111573809D02*
X101107200Y-111478571D01*
X101107200Y-111478571D02*
X101059580Y-111430952D01*
X101059580Y-111430952D02*
X100964342Y-111383333D01*
X100964342Y-111383333D02*
X100773866Y-111383333D01*
X100773866Y-111383333D02*
X100678628Y-111430952D01*
X100678628Y-111430952D02*
X100631009Y-111478571D01*
X100631009Y-111478571D02*
X100583390Y-111573809D01*
X144524820Y-173554166D02*
X144048629Y-173887499D01*
X144524820Y-174125594D02*
X143524820Y-174125594D01*
X143524820Y-174125594D02*
X143524820Y-173744642D01*
X143524820Y-173744642D02*
X143572439Y-173649404D01*
X143572439Y-173649404D02*
X143620058Y-173601785D01*
X143620058Y-173601785D02*
X143715296Y-173554166D01*
X143715296Y-173554166D02*
X143858153Y-173554166D01*
X143858153Y-173554166D02*
X143953391Y-173601785D01*
X143953391Y-173601785D02*
X144001010Y-173649404D01*
X144001010Y-173649404D02*
X144048629Y-173744642D01*
X144048629Y-173744642D02*
X144048629Y-174125594D01*
X143858153Y-172697023D02*
X144524820Y-172697023D01*
X143477201Y-172935118D02*
X144191486Y-173173213D01*
X144191486Y-173173213D02*
X144191486Y-172554166D01*
X72154819Y-109133333D02*
X72869104Y-109133333D01*
X72869104Y-109133333D02*
X73011961Y-109180952D01*
X73011961Y-109180952D02*
X73107200Y-109276190D01*
X73107200Y-109276190D02*
X73154819Y-109419047D01*
X73154819Y-109419047D02*
X73154819Y-109514285D01*
X72154819Y-108228571D02*
X72154819Y-108419047D01*
X72154819Y-108419047D02*
X72202438Y-108514285D01*
X72202438Y-108514285D02*
X72250057Y-108561904D01*
X72250057Y-108561904D02*
X72392914Y-108657142D01*
X72392914Y-108657142D02*
X72583390Y-108704761D01*
X72583390Y-108704761D02*
X72964342Y-108704761D01*
X72964342Y-108704761D02*
X73059580Y-108657142D01*
X73059580Y-108657142D02*
X73107200Y-108609523D01*
X73107200Y-108609523D02*
X73154819Y-108514285D01*
X73154819Y-108514285D02*
X73154819Y-108323809D01*
X73154819Y-108323809D02*
X73107200Y-108228571D01*
X73107200Y-108228571D02*
X73059580Y-108180952D01*
X73059580Y-108180952D02*
X72964342Y-108133333D01*
X72964342Y-108133333D02*
X72726247Y-108133333D01*
X72726247Y-108133333D02*
X72631009Y-108180952D01*
X72631009Y-108180952D02*
X72583390Y-108228571D01*
X72583390Y-108228571D02*
X72535771Y-108323809D01*
X72535771Y-108323809D02*
X72535771Y-108514285D01*
X72535771Y-108514285D02*
X72583390Y-108609523D01*
X72583390Y-108609523D02*
X72631009Y-108657142D01*
X72631009Y-108657142D02*
X72726247Y-108704761D01*
X98583333Y-118074819D02*
X98250000Y-117598628D01*
X98011905Y-118074819D02*
X98011905Y-117074819D01*
X98011905Y-117074819D02*
X98392857Y-117074819D01*
X98392857Y-117074819D02*
X98488095Y-117122438D01*
X98488095Y-117122438D02*
X98535714Y-117170057D01*
X98535714Y-117170057D02*
X98583333Y-117265295D01*
X98583333Y-117265295D02*
X98583333Y-117408152D01*
X98583333Y-117408152D02*
X98535714Y-117503390D01*
X98535714Y-117503390D02*
X98488095Y-117551009D01*
X98488095Y-117551009D02*
X98392857Y-117598628D01*
X98392857Y-117598628D02*
X98011905Y-117598628D01*
X98916667Y-117074819D02*
X99535714Y-117074819D01*
X99535714Y-117074819D02*
X99202381Y-117455771D01*
X99202381Y-117455771D02*
X99345238Y-117455771D01*
X99345238Y-117455771D02*
X99440476Y-117503390D01*
X99440476Y-117503390D02*
X99488095Y-117551009D01*
X99488095Y-117551009D02*
X99535714Y-117646247D01*
X99535714Y-117646247D02*
X99535714Y-117884342D01*
X99535714Y-117884342D02*
X99488095Y-117979580D01*
X99488095Y-117979580D02*
X99440476Y-118027200D01*
X99440476Y-118027200D02*
X99345238Y-118074819D01*
X99345238Y-118074819D02*
X99059524Y-118074819D01*
X99059524Y-118074819D02*
X98964286Y-118027200D01*
X98964286Y-118027200D02*
X98916667Y-117979580D01*
X100154819Y-93883333D02*
X100869104Y-93883333D01*
X100869104Y-93883333D02*
X101011961Y-93930952D01*
X101011961Y-93930952D02*
X101107200Y-94026190D01*
X101107200Y-94026190D02*
X101154819Y-94169047D01*
X101154819Y-94169047D02*
X101154819Y-94264285D01*
X100154819Y-92930952D02*
X100154819Y-93407142D01*
X100154819Y-93407142D02*
X100631009Y-93454761D01*
X100631009Y-93454761D02*
X100583390Y-93407142D01*
X100583390Y-93407142D02*
X100535771Y-93311904D01*
X100535771Y-93311904D02*
X100535771Y-93073809D01*
X100535771Y-93073809D02*
X100583390Y-92978571D01*
X100583390Y-92978571D02*
X100631009Y-92930952D01*
X100631009Y-92930952D02*
X100726247Y-92883333D01*
X100726247Y-92883333D02*
X100964342Y-92883333D01*
X100964342Y-92883333D02*
X101059580Y-92930952D01*
X101059580Y-92930952D02*
X101107200Y-92978571D01*
X101107200Y-92978571D02*
X101154819Y-93073809D01*
X101154819Y-93073809D02*
X101154819Y-93311904D01*
X101154819Y-93311904D02*
X101107200Y-93407142D01*
X101107200Y-93407142D02*
X101059580Y-93454761D01*
X89954819Y-110061904D02*
X90764342Y-110061904D01*
X90764342Y-110061904D02*
X90859580Y-110014285D01*
X90859580Y-110014285D02*
X90907200Y-109966666D01*
X90907200Y-109966666D02*
X90954819Y-109871428D01*
X90954819Y-109871428D02*
X90954819Y-109680952D01*
X90954819Y-109680952D02*
X90907200Y-109585714D01*
X90907200Y-109585714D02*
X90859580Y-109538095D01*
X90859580Y-109538095D02*
X90764342Y-109490476D01*
X90764342Y-109490476D02*
X89954819Y-109490476D01*
X90050057Y-109061904D02*
X90002438Y-109014285D01*
X90002438Y-109014285D02*
X89954819Y-108919047D01*
X89954819Y-108919047D02*
X89954819Y-108680952D01*
X89954819Y-108680952D02*
X90002438Y-108585714D01*
X90002438Y-108585714D02*
X90050057Y-108538095D01*
X90050057Y-108538095D02*
X90145295Y-108490476D01*
X90145295Y-108490476D02*
X90240533Y-108490476D01*
X90240533Y-108490476D02*
X90383390Y-108538095D01*
X90383390Y-108538095D02*
X90954819Y-109109523D01*
X90954819Y-109109523D02*
X90954819Y-108490476D01*
X144524820Y-177916666D02*
X144048629Y-178249999D01*
X144524820Y-178488094D02*
X143524820Y-178488094D01*
X143524820Y-178488094D02*
X143524820Y-178107142D01*
X143524820Y-178107142D02*
X143572439Y-178011904D01*
X143572439Y-178011904D02*
X143620058Y-177964285D01*
X143620058Y-177964285D02*
X143715296Y-177916666D01*
X143715296Y-177916666D02*
X143858153Y-177916666D01*
X143858153Y-177916666D02*
X143953391Y-177964285D01*
X143953391Y-177964285D02*
X144001010Y-178011904D01*
X144001010Y-178011904D02*
X144048629Y-178107142D01*
X144048629Y-178107142D02*
X144048629Y-178488094D01*
X143524820Y-177011904D02*
X143524820Y-177488094D01*
X143524820Y-177488094D02*
X144001010Y-177535713D01*
X144001010Y-177535713D02*
X143953391Y-177488094D01*
X143953391Y-177488094D02*
X143905772Y-177392856D01*
X143905772Y-177392856D02*
X143905772Y-177154761D01*
X143905772Y-177154761D02*
X143953391Y-177059523D01*
X143953391Y-177059523D02*
X144001010Y-177011904D01*
X144001010Y-177011904D02*
X144096248Y-176964285D01*
X144096248Y-176964285D02*
X144334343Y-176964285D01*
X144334343Y-176964285D02*
X144429581Y-177011904D01*
X144429581Y-177011904D02*
X144477201Y-177059523D01*
X144477201Y-177059523D02*
X144524820Y-177154761D01*
X144524820Y-177154761D02*
X144524820Y-177392856D01*
X144524820Y-177392856D02*
X144477201Y-177488094D01*
X144477201Y-177488094D02*
X144429581Y-177535713D01*
X83598095Y-93344819D02*
X83598095Y-94154342D01*
X83598095Y-94154342D02*
X83645714Y-94249580D01*
X83645714Y-94249580D02*
X83693333Y-94297200D01*
X83693333Y-94297200D02*
X83788571Y-94344819D01*
X83788571Y-94344819D02*
X83979047Y-94344819D01*
X83979047Y-94344819D02*
X84074285Y-94297200D01*
X84074285Y-94297200D02*
X84121904Y-94249580D01*
X84121904Y-94249580D02*
X84169523Y-94154342D01*
X84169523Y-94154342D02*
X84169523Y-93344819D01*
X85169523Y-94344819D02*
X84598095Y-94344819D01*
X84883809Y-94344819D02*
X84883809Y-93344819D01*
X84883809Y-93344819D02*
X84788571Y-93487676D01*
X84788571Y-93487676D02*
X84693333Y-93582914D01*
X84693333Y-93582914D02*
X84598095Y-93630533D01*
X80220833Y-78979580D02*
X80173214Y-79027200D01*
X80173214Y-79027200D02*
X80030357Y-79074819D01*
X80030357Y-79074819D02*
X79935119Y-79074819D01*
X79935119Y-79074819D02*
X79792262Y-79027200D01*
X79792262Y-79027200D02*
X79697024Y-78931961D01*
X79697024Y-78931961D02*
X79649405Y-78836723D01*
X79649405Y-78836723D02*
X79601786Y-78646247D01*
X79601786Y-78646247D02*
X79601786Y-78503390D01*
X79601786Y-78503390D02*
X79649405Y-78312914D01*
X79649405Y-78312914D02*
X79697024Y-78217676D01*
X79697024Y-78217676D02*
X79792262Y-78122438D01*
X79792262Y-78122438D02*
X79935119Y-78074819D01*
X79935119Y-78074819D02*
X80030357Y-78074819D01*
X80030357Y-78074819D02*
X80173214Y-78122438D01*
X80173214Y-78122438D02*
X80220833Y-78170057D01*
X81173214Y-79074819D02*
X80601786Y-79074819D01*
X80887500Y-79074819D02*
X80887500Y-78074819D01*
X80887500Y-78074819D02*
X80792262Y-78217676D01*
X80792262Y-78217676D02*
X80697024Y-78312914D01*
X80697024Y-78312914D02*
X80601786Y-78360533D01*
X88416666Y-115004819D02*
X88416666Y-115719104D01*
X88416666Y-115719104D02*
X88369047Y-115861961D01*
X88369047Y-115861961D02*
X88273809Y-115957200D01*
X88273809Y-115957200D02*
X88130952Y-116004819D01*
X88130952Y-116004819D02*
X88035714Y-116004819D01*
X89416666Y-116004819D02*
X88845238Y-116004819D01*
X89130952Y-116004819D02*
X89130952Y-115004819D01*
X89130952Y-115004819D02*
X89035714Y-115147676D01*
X89035714Y-115147676D02*
X88940476Y-115242914D01*
X88940476Y-115242914D02*
X88845238Y-115290533D01*
X98583333Y-115074819D02*
X98250000Y-114598628D01*
X98011905Y-115074819D02*
X98011905Y-114074819D01*
X98011905Y-114074819D02*
X98392857Y-114074819D01*
X98392857Y-114074819D02*
X98488095Y-114122438D01*
X98488095Y-114122438D02*
X98535714Y-114170057D01*
X98535714Y-114170057D02*
X98583333Y-114265295D01*
X98583333Y-114265295D02*
X98583333Y-114408152D01*
X98583333Y-114408152D02*
X98535714Y-114503390D01*
X98535714Y-114503390D02*
X98488095Y-114551009D01*
X98488095Y-114551009D02*
X98392857Y-114598628D01*
X98392857Y-114598628D02*
X98011905Y-114598628D01*
X98964286Y-114170057D02*
X99011905Y-114122438D01*
X99011905Y-114122438D02*
X99107143Y-114074819D01*
X99107143Y-114074819D02*
X99345238Y-114074819D01*
X99345238Y-114074819D02*
X99440476Y-114122438D01*
X99440476Y-114122438D02*
X99488095Y-114170057D01*
X99488095Y-114170057D02*
X99535714Y-114265295D01*
X99535714Y-114265295D02*
X99535714Y-114360533D01*
X99535714Y-114360533D02*
X99488095Y-114503390D01*
X99488095Y-114503390D02*
X98916667Y-115074819D01*
X98916667Y-115074819D02*
X99535714Y-115074819D01*
X100083333Y-80434819D02*
X99750000Y-79958628D01*
X99511905Y-80434819D02*
X99511905Y-79434819D01*
X99511905Y-79434819D02*
X99892857Y-79434819D01*
X99892857Y-79434819D02*
X99988095Y-79482438D01*
X99988095Y-79482438D02*
X100035714Y-79530057D01*
X100035714Y-79530057D02*
X100083333Y-79625295D01*
X100083333Y-79625295D02*
X100083333Y-79768152D01*
X100083333Y-79768152D02*
X100035714Y-79863390D01*
X100035714Y-79863390D02*
X99988095Y-79911009D01*
X99988095Y-79911009D02*
X99892857Y-79958628D01*
X99892857Y-79958628D02*
X99511905Y-79958628D01*
X101035714Y-80434819D02*
X100464286Y-80434819D01*
X100750000Y-80434819D02*
X100750000Y-79434819D01*
X100750000Y-79434819D02*
X100654762Y-79577676D01*
X100654762Y-79577676D02*
X100559524Y-79672914D01*
X100559524Y-79672914D02*
X100464286Y-79720533D01*
X87643247Y-154196666D02*
X87681342Y-154082380D01*
X87681342Y-154082380D02*
X87719438Y-154044285D01*
X87719438Y-154044285D02*
X87795628Y-154006189D01*
X87795628Y-154006189D02*
X87909914Y-154006189D01*
X87909914Y-154006189D02*
X87986104Y-154044285D01*
X87986104Y-154044285D02*
X88024200Y-154082380D01*
X88024200Y-154082380D02*
X88062295Y-154158570D01*
X88062295Y-154158570D02*
X88062295Y-154463332D01*
X88062295Y-154463332D02*
X87262295Y-154463332D01*
X87262295Y-154463332D02*
X87262295Y-154196666D01*
X87262295Y-154196666D02*
X87300390Y-154120475D01*
X87300390Y-154120475D02*
X87338485Y-154082380D01*
X87338485Y-154082380D02*
X87414676Y-154044285D01*
X87414676Y-154044285D02*
X87490866Y-154044285D01*
X87490866Y-154044285D02*
X87567057Y-154082380D01*
X87567057Y-154082380D02*
X87605152Y-154120475D01*
X87605152Y-154120475D02*
X87643247Y-154196666D01*
X87643247Y-154196666D02*
X87643247Y-154463332D01*
X88062295Y-153282380D02*
X88062295Y-153663332D01*
X88062295Y-153663332D02*
X87262295Y-153663332D01*
X88062295Y-153015713D02*
X87262295Y-153015713D01*
X88062295Y-152558570D02*
X87605152Y-152901428D01*
X87262295Y-152558570D02*
X87719438Y-153015713D01*
X87300390Y-136359523D02*
X87262295Y-136435713D01*
X87262295Y-136435713D02*
X87262295Y-136549999D01*
X87262295Y-136549999D02*
X87300390Y-136664285D01*
X87300390Y-136664285D02*
X87376580Y-136740475D01*
X87376580Y-136740475D02*
X87452771Y-136778570D01*
X87452771Y-136778570D02*
X87605152Y-136816666D01*
X87605152Y-136816666D02*
X87719438Y-136816666D01*
X87719438Y-136816666D02*
X87871819Y-136778570D01*
X87871819Y-136778570D02*
X87948009Y-136740475D01*
X87948009Y-136740475D02*
X88024200Y-136664285D01*
X88024200Y-136664285D02*
X88062295Y-136549999D01*
X88062295Y-136549999D02*
X88062295Y-136473808D01*
X88062295Y-136473808D02*
X88024200Y-136359523D01*
X88024200Y-136359523D02*
X87986104Y-136321427D01*
X87986104Y-136321427D02*
X87719438Y-136321427D01*
X87719438Y-136321427D02*
X87719438Y-136473808D01*
X88062295Y-135978570D02*
X87262295Y-135978570D01*
X87262295Y-135978570D02*
X88062295Y-135521427D01*
X88062295Y-135521427D02*
X87262295Y-135521427D01*
X88062295Y-135140475D02*
X87262295Y-135140475D01*
X87262295Y-135140475D02*
X87262295Y-134949999D01*
X87262295Y-134949999D02*
X87300390Y-134835713D01*
X87300390Y-134835713D02*
X87376580Y-134759523D01*
X87376580Y-134759523D02*
X87452771Y-134721428D01*
X87452771Y-134721428D02*
X87605152Y-134683332D01*
X87605152Y-134683332D02*
X87719438Y-134683332D01*
X87719438Y-134683332D02*
X87871819Y-134721428D01*
X87871819Y-134721428D02*
X87948009Y-134759523D01*
X87948009Y-134759523D02*
X88024200Y-134835713D01*
X88024200Y-134835713D02*
X88062295Y-134949999D01*
X88062295Y-134949999D02*
X88062295Y-135140475D01*
X88024200Y-141782381D02*
X88062295Y-141668095D01*
X88062295Y-141668095D02*
X88062295Y-141477619D01*
X88062295Y-141477619D02*
X88024200Y-141401428D01*
X88024200Y-141401428D02*
X87986104Y-141363333D01*
X87986104Y-141363333D02*
X87909914Y-141325238D01*
X87909914Y-141325238D02*
X87833723Y-141325238D01*
X87833723Y-141325238D02*
X87757533Y-141363333D01*
X87757533Y-141363333D02*
X87719438Y-141401428D01*
X87719438Y-141401428D02*
X87681342Y-141477619D01*
X87681342Y-141477619D02*
X87643247Y-141630000D01*
X87643247Y-141630000D02*
X87605152Y-141706190D01*
X87605152Y-141706190D02*
X87567057Y-141744285D01*
X87567057Y-141744285D02*
X87490866Y-141782381D01*
X87490866Y-141782381D02*
X87414676Y-141782381D01*
X87414676Y-141782381D02*
X87338485Y-141744285D01*
X87338485Y-141744285D02*
X87300390Y-141706190D01*
X87300390Y-141706190D02*
X87262295Y-141630000D01*
X87262295Y-141630000D02*
X87262295Y-141439523D01*
X87262295Y-141439523D02*
X87300390Y-141325238D01*
X87986104Y-140525237D02*
X88024200Y-140563333D01*
X88024200Y-140563333D02*
X88062295Y-140677618D01*
X88062295Y-140677618D02*
X88062295Y-140753809D01*
X88062295Y-140753809D02*
X88024200Y-140868095D01*
X88024200Y-140868095D02*
X87948009Y-140944285D01*
X87948009Y-140944285D02*
X87871819Y-140982380D01*
X87871819Y-140982380D02*
X87719438Y-141020476D01*
X87719438Y-141020476D02*
X87605152Y-141020476D01*
X87605152Y-141020476D02*
X87452771Y-140982380D01*
X87452771Y-140982380D02*
X87376580Y-140944285D01*
X87376580Y-140944285D02*
X87300390Y-140868095D01*
X87300390Y-140868095D02*
X87262295Y-140753809D01*
X87262295Y-140753809D02*
X87262295Y-140677618D01*
X87262295Y-140677618D02*
X87300390Y-140563333D01*
X87300390Y-140563333D02*
X87338485Y-140525237D01*
X88062295Y-139801428D02*
X88062295Y-140182380D01*
X88062295Y-140182380D02*
X87262295Y-140182380D01*
X87262295Y-139356666D02*
X88062295Y-139089999D01*
X88062295Y-139089999D02*
X87262295Y-138823333D01*
X87986104Y-138099523D02*
X88024200Y-138137619D01*
X88024200Y-138137619D02*
X88062295Y-138251904D01*
X88062295Y-138251904D02*
X88062295Y-138328095D01*
X88062295Y-138328095D02*
X88024200Y-138442381D01*
X88024200Y-138442381D02*
X87948009Y-138518571D01*
X87948009Y-138518571D02*
X87871819Y-138556666D01*
X87871819Y-138556666D02*
X87719438Y-138594762D01*
X87719438Y-138594762D02*
X87605152Y-138594762D01*
X87605152Y-138594762D02*
X87452771Y-138556666D01*
X87452771Y-138556666D02*
X87376580Y-138518571D01*
X87376580Y-138518571D02*
X87300390Y-138442381D01*
X87300390Y-138442381D02*
X87262295Y-138328095D01*
X87262295Y-138328095D02*
X87262295Y-138251904D01*
X87262295Y-138251904D02*
X87300390Y-138137619D01*
X87300390Y-138137619D02*
X87338485Y-138099523D01*
X87986104Y-137299523D02*
X88024200Y-137337619D01*
X88024200Y-137337619D02*
X88062295Y-137451904D01*
X88062295Y-137451904D02*
X88062295Y-137528095D01*
X88062295Y-137528095D02*
X88024200Y-137642381D01*
X88024200Y-137642381D02*
X87948009Y-137718571D01*
X87948009Y-137718571D02*
X87871819Y-137756666D01*
X87871819Y-137756666D02*
X87719438Y-137794762D01*
X87719438Y-137794762D02*
X87605152Y-137794762D01*
X87605152Y-137794762D02*
X87452771Y-137756666D01*
X87452771Y-137756666D02*
X87376580Y-137718571D01*
X87376580Y-137718571D02*
X87300390Y-137642381D01*
X87300390Y-137642381D02*
X87262295Y-137528095D01*
X87262295Y-137528095D02*
X87262295Y-137451904D01*
X87262295Y-137451904D02*
X87300390Y-137337619D01*
X87300390Y-137337619D02*
X87338485Y-137299523D01*
X88024200Y-144341428D02*
X88062295Y-144227142D01*
X88062295Y-144227142D02*
X88062295Y-144036666D01*
X88062295Y-144036666D02*
X88024200Y-143960475D01*
X88024200Y-143960475D02*
X87986104Y-143922380D01*
X87986104Y-143922380D02*
X87909914Y-143884285D01*
X87909914Y-143884285D02*
X87833723Y-143884285D01*
X87833723Y-143884285D02*
X87757533Y-143922380D01*
X87757533Y-143922380D02*
X87719438Y-143960475D01*
X87719438Y-143960475D02*
X87681342Y-144036666D01*
X87681342Y-144036666D02*
X87643247Y-144189047D01*
X87643247Y-144189047D02*
X87605152Y-144265237D01*
X87605152Y-144265237D02*
X87567057Y-144303332D01*
X87567057Y-144303332D02*
X87490866Y-144341428D01*
X87490866Y-144341428D02*
X87414676Y-144341428D01*
X87414676Y-144341428D02*
X87338485Y-144303332D01*
X87338485Y-144303332D02*
X87300390Y-144265237D01*
X87300390Y-144265237D02*
X87262295Y-144189047D01*
X87262295Y-144189047D02*
X87262295Y-143998570D01*
X87262295Y-143998570D02*
X87300390Y-143884285D01*
X88062295Y-143541427D02*
X87262295Y-143541427D01*
X87262295Y-143541427D02*
X87262295Y-143350951D01*
X87262295Y-143350951D02*
X87300390Y-143236665D01*
X87300390Y-143236665D02*
X87376580Y-143160475D01*
X87376580Y-143160475D02*
X87452771Y-143122380D01*
X87452771Y-143122380D02*
X87605152Y-143084284D01*
X87605152Y-143084284D02*
X87719438Y-143084284D01*
X87719438Y-143084284D02*
X87871819Y-143122380D01*
X87871819Y-143122380D02*
X87948009Y-143160475D01*
X87948009Y-143160475D02*
X88024200Y-143236665D01*
X88024200Y-143236665D02*
X88062295Y-143350951D01*
X88062295Y-143350951D02*
X88062295Y-143541427D01*
X87833723Y-142779523D02*
X87833723Y-142398570D01*
X88062295Y-142855713D02*
X87262295Y-142589046D01*
X87262295Y-142589046D02*
X88062295Y-142322380D01*
X88062295Y-149059523D02*
X87262295Y-149059523D01*
X87262295Y-149059523D02*
X87262295Y-148869047D01*
X87262295Y-148869047D02*
X87300390Y-148754761D01*
X87300390Y-148754761D02*
X87376580Y-148678571D01*
X87376580Y-148678571D02*
X87452771Y-148640476D01*
X87452771Y-148640476D02*
X87605152Y-148602380D01*
X87605152Y-148602380D02*
X87719438Y-148602380D01*
X87719438Y-148602380D02*
X87871819Y-148640476D01*
X87871819Y-148640476D02*
X87948009Y-148678571D01*
X87948009Y-148678571D02*
X88024200Y-148754761D01*
X88024200Y-148754761D02*
X88062295Y-148869047D01*
X88062295Y-148869047D02*
X88062295Y-149059523D01*
X87986104Y-147802380D02*
X88024200Y-147840476D01*
X88024200Y-147840476D02*
X88062295Y-147954761D01*
X88062295Y-147954761D02*
X88062295Y-148030952D01*
X88062295Y-148030952D02*
X88024200Y-148145238D01*
X88024200Y-148145238D02*
X87948009Y-148221428D01*
X87948009Y-148221428D02*
X87871819Y-148259523D01*
X87871819Y-148259523D02*
X87719438Y-148297619D01*
X87719438Y-148297619D02*
X87605152Y-148297619D01*
X87605152Y-148297619D02*
X87452771Y-148259523D01*
X87452771Y-148259523D02*
X87376580Y-148221428D01*
X87376580Y-148221428D02*
X87300390Y-148145238D01*
X87300390Y-148145238D02*
X87262295Y-148030952D01*
X87262295Y-148030952D02*
X87262295Y-147954761D01*
X87262295Y-147954761D02*
X87300390Y-147840476D01*
X87300390Y-147840476D02*
X87338485Y-147802380D01*
X87986104Y-151123332D02*
X88024200Y-151161428D01*
X88024200Y-151161428D02*
X88062295Y-151275713D01*
X88062295Y-151275713D02*
X88062295Y-151351904D01*
X88062295Y-151351904D02*
X88024200Y-151466190D01*
X88024200Y-151466190D02*
X87948009Y-151542380D01*
X87948009Y-151542380D02*
X87871819Y-151580475D01*
X87871819Y-151580475D02*
X87719438Y-151618571D01*
X87719438Y-151618571D02*
X87605152Y-151618571D01*
X87605152Y-151618571D02*
X87452771Y-151580475D01*
X87452771Y-151580475D02*
X87376580Y-151542380D01*
X87376580Y-151542380D02*
X87300390Y-151466190D01*
X87300390Y-151466190D02*
X87262295Y-151351904D01*
X87262295Y-151351904D02*
X87262295Y-151275713D01*
X87262295Y-151275713D02*
X87300390Y-151161428D01*
X87300390Y-151161428D02*
X87338485Y-151123332D01*
X88024200Y-150818571D02*
X88062295Y-150704285D01*
X88062295Y-150704285D02*
X88062295Y-150513809D01*
X88062295Y-150513809D02*
X88024200Y-150437618D01*
X88024200Y-150437618D02*
X87986104Y-150399523D01*
X87986104Y-150399523D02*
X87909914Y-150361428D01*
X87909914Y-150361428D02*
X87833723Y-150361428D01*
X87833723Y-150361428D02*
X87757533Y-150399523D01*
X87757533Y-150399523D02*
X87719438Y-150437618D01*
X87719438Y-150437618D02*
X87681342Y-150513809D01*
X87681342Y-150513809D02*
X87643247Y-150666190D01*
X87643247Y-150666190D02*
X87605152Y-150742380D01*
X87605152Y-150742380D02*
X87567057Y-150780475D01*
X87567057Y-150780475D02*
X87490866Y-150818571D01*
X87490866Y-150818571D02*
X87414676Y-150818571D01*
X87414676Y-150818571D02*
X87338485Y-150780475D01*
X87338485Y-150780475D02*
X87300390Y-150742380D01*
X87300390Y-150742380D02*
X87262295Y-150666190D01*
X87262295Y-150666190D02*
X87262295Y-150475713D01*
X87262295Y-150475713D02*
X87300390Y-150361428D01*
X88062295Y-146405237D02*
X87681342Y-146671904D01*
X88062295Y-146862380D02*
X87262295Y-146862380D01*
X87262295Y-146862380D02*
X87262295Y-146557618D01*
X87262295Y-146557618D02*
X87300390Y-146481428D01*
X87300390Y-146481428D02*
X87338485Y-146443333D01*
X87338485Y-146443333D02*
X87414676Y-146405237D01*
X87414676Y-146405237D02*
X87528961Y-146405237D01*
X87528961Y-146405237D02*
X87605152Y-146443333D01*
X87605152Y-146443333D02*
X87643247Y-146481428D01*
X87643247Y-146481428D02*
X87681342Y-146557618D01*
X87681342Y-146557618D02*
X87681342Y-146862380D01*
X87643247Y-146062380D02*
X87643247Y-145795714D01*
X88062295Y-145681428D02*
X88062295Y-146062380D01*
X88062295Y-146062380D02*
X87262295Y-146062380D01*
X87262295Y-146062380D02*
X87262295Y-145681428D01*
X88024200Y-145376666D02*
X88062295Y-145262380D01*
X88062295Y-145262380D02*
X88062295Y-145071904D01*
X88062295Y-145071904D02*
X88024200Y-144995713D01*
X88024200Y-144995713D02*
X87986104Y-144957618D01*
X87986104Y-144957618D02*
X87909914Y-144919523D01*
X87909914Y-144919523D02*
X87833723Y-144919523D01*
X87833723Y-144919523D02*
X87757533Y-144957618D01*
X87757533Y-144957618D02*
X87719438Y-144995713D01*
X87719438Y-144995713D02*
X87681342Y-145071904D01*
X87681342Y-145071904D02*
X87643247Y-145224285D01*
X87643247Y-145224285D02*
X87605152Y-145300475D01*
X87605152Y-145300475D02*
X87567057Y-145338570D01*
X87567057Y-145338570D02*
X87490866Y-145376666D01*
X87490866Y-145376666D02*
X87414676Y-145376666D01*
X87414676Y-145376666D02*
X87338485Y-145338570D01*
X87338485Y-145338570D02*
X87300390Y-145300475D01*
X87300390Y-145300475D02*
X87262295Y-145224285D01*
X87262295Y-145224285D02*
X87262295Y-145033808D01*
X87262295Y-145033808D02*
X87300390Y-144919523D01*
D12*
%TO.C,J8*%
X101500000Y-118650000D02*
X101500000Y-119900000D01*
X101500000Y-119900000D02*
X102750000Y-119900000D01*
X101790000Y-104490000D02*
X101790000Y-119610000D01*
X101790000Y-119610000D02*
X107760000Y-119610000D01*
X101800000Y-104500000D02*
X101800000Y-106300000D01*
X101800000Y-106300000D02*
X102550000Y-106300000D01*
X101800000Y-107800000D02*
X101800000Y-116300000D01*
X101800000Y-116300000D02*
X102550000Y-116300000D01*
X101800000Y-117800000D02*
X101800000Y-119600000D01*
X101800000Y-119600000D02*
X102550000Y-119600000D01*
X102550000Y-104500000D02*
X101800000Y-104500000D01*
X102550000Y-106300000D02*
X102550000Y-104500000D01*
X102550000Y-107800000D02*
X101800000Y-107800000D01*
X102550000Y-116300000D02*
X102550000Y-107800000D01*
X102550000Y-117800000D02*
X101800000Y-117800000D01*
X102550000Y-119600000D02*
X102550000Y-117800000D01*
X104050000Y-104500000D02*
X104050000Y-105250000D01*
X104050000Y-105250000D02*
X107000000Y-105250000D01*
X104050000Y-118850000D02*
X107000000Y-118850000D01*
X104050000Y-119600000D02*
X104050000Y-118850000D01*
X107000000Y-105250000D02*
X107000000Y-112050000D01*
X107000000Y-118850000D02*
X107000000Y-112050000D01*
X107760000Y-104490000D02*
X101790000Y-104490000D01*
X107760000Y-119610000D02*
X107760000Y-104490000D01*
%TO.C,R4*%
X144990001Y-173533767D02*
X144990001Y-173241233D01*
X146010001Y-173533767D02*
X146010001Y-173241233D01*
%TO.C,J6*%
X73500000Y-119150000D02*
X73500000Y-120400000D01*
X73500000Y-120400000D02*
X74750000Y-120400000D01*
X73790000Y-97490000D02*
X73790000Y-120110000D01*
X73790000Y-120110000D02*
X79760000Y-120110000D01*
X73800000Y-97500000D02*
X73800000Y-99300000D01*
X73800000Y-99300000D02*
X74550000Y-99300000D01*
X73800000Y-100800000D02*
X73800000Y-116800000D01*
X73800000Y-116800000D02*
X74550000Y-116800000D01*
X73800000Y-118300000D02*
X73800000Y-120100000D01*
X73800000Y-120100000D02*
X74550000Y-120100000D01*
X74550000Y-97500000D02*
X73800000Y-97500000D01*
X74550000Y-99300000D02*
X74550000Y-97500000D01*
X74550000Y-100800000D02*
X73800000Y-100800000D01*
X74550000Y-116800000D02*
X74550000Y-100800000D01*
X74550000Y-118300000D02*
X73800000Y-118300000D01*
X74550000Y-120100000D02*
X74550000Y-118300000D01*
X76050000Y-97500000D02*
X76050000Y-98250000D01*
X76050000Y-98250000D02*
X79000000Y-98250000D01*
X76050000Y-119350000D02*
X79000000Y-119350000D01*
X76050000Y-120100000D02*
X76050000Y-119350000D01*
X79000000Y-98250000D02*
X79000000Y-108800000D01*
X79000000Y-119350000D02*
X79000000Y-108800000D01*
X79760000Y-97490000D02*
X73790000Y-97490000D01*
X79760000Y-120110000D02*
X79760000Y-97490000D01*
%TO.C,R3*%
X98495276Y-118527500D02*
X99004724Y-118527500D01*
X98495276Y-119572500D02*
X99004724Y-119572500D01*
%TO.C,J5*%
X101500000Y-100150000D02*
X101500000Y-101400000D01*
X101500000Y-101400000D02*
X102750000Y-101400000D01*
X101790000Y-85990000D02*
X101790000Y-101110000D01*
X101790000Y-101110000D02*
X107760000Y-101110000D01*
X101800000Y-86000000D02*
X101800000Y-87800000D01*
X101800000Y-87800000D02*
X102550000Y-87800000D01*
X101800000Y-89300000D02*
X101800000Y-97800000D01*
X101800000Y-97800000D02*
X102550000Y-97800000D01*
X101800000Y-99300000D02*
X101800000Y-101100000D01*
X101800000Y-101100000D02*
X102550000Y-101100000D01*
X102550000Y-86000000D02*
X101800000Y-86000000D01*
X102550000Y-87800000D02*
X102550000Y-86000000D01*
X102550000Y-89300000D02*
X101800000Y-89300000D01*
X102550000Y-97800000D02*
X102550000Y-89300000D01*
X102550000Y-99300000D02*
X101800000Y-99300000D01*
X102550000Y-101100000D02*
X102550000Y-99300000D01*
X104050000Y-86000000D02*
X104050000Y-86750000D01*
X104050000Y-86750000D02*
X107000000Y-86750000D01*
X104050000Y-100350000D02*
X107000000Y-100350000D01*
X104050000Y-101100000D02*
X104050000Y-100350000D01*
X107000000Y-86750000D02*
X107000000Y-93550000D01*
X107000000Y-100350000D02*
X107000000Y-93550000D01*
X107760000Y-85990000D02*
X101790000Y-85990000D01*
X107760000Y-101110000D02*
X107760000Y-85990000D01*
%TO.C,U2*%
X91590000Y-107390000D02*
X92850000Y-107390000D01*
X91590000Y-111150000D02*
X91590000Y-107390000D01*
X98410000Y-107390000D02*
X97150000Y-107390000D01*
X98410000Y-111150000D02*
X98410000Y-107390000D01*
X91690000Y-112430000D02*
X91360000Y-112670000D01*
X91360000Y-112190000D01*
X91690000Y-112430000D01*
G36*
X91690000Y-112430000D02*
G01*
X91360000Y-112670000D01*
X91360000Y-112190000D01*
X91690000Y-112430000D01*
G37*
%TO.C,R5*%
X144990001Y-177896267D02*
X144990001Y-177603733D01*
X146010001Y-177896267D02*
X146010001Y-177603733D01*
%TO.C,U1*%
X82535000Y-71640000D02*
X82535000Y-74090000D01*
X82535000Y-71640000D02*
X84985000Y-71640000D01*
X82810000Y-71890000D02*
X98410000Y-71890000D01*
X82810000Y-92590000D02*
X82810000Y-71890000D01*
X98410000Y-71890000D02*
X98410000Y-92590000D01*
X98410000Y-92590000D02*
X82810000Y-92590000D01*
X82635000Y-78840000D02*
X82299000Y-79080000D01*
X82299000Y-78600000D01*
X82635000Y-78840000D01*
G36*
X82635000Y-78840000D02*
G01*
X82299000Y-79080000D01*
X82299000Y-78600000D01*
X82635000Y-78840000D01*
G37*
%TO.C,C1*%
X80241233Y-79540000D02*
X80533767Y-79540000D01*
X80241233Y-80560000D02*
X80533767Y-80560000D01*
%TO.C,J1*%
X84080000Y-120950000D02*
X84080000Y-119250000D01*
X93420000Y-120950000D02*
X93420000Y-119250000D01*
%TO.C,R2*%
X98495276Y-115527500D02*
X99004724Y-115527500D01*
X98495276Y-116572500D02*
X99004724Y-116572500D01*
%TO.C,R1*%
X100504724Y-78027500D02*
X99995276Y-78027500D01*
X100504724Y-79072500D02*
X99995276Y-79072500D01*
%TD*%
M02*
