%TF.GenerationSoftware,KiCad,Pcbnew,9.0.2*%
%TF.CreationDate,2025-07-01T18:06:57-05:00*%
%TF.ProjectId,clock,636c6f63-6b2e-46b6-9963-61645f706362,rev?*%
%TF.SameCoordinates,Original*%
%TF.FileFunction,Legend,Bot*%
%TF.FilePolarity,Positive*%
%FSLAX46Y46*%
G04 Gerber Fmt 4.6, Leading zero omitted, Abs format (unit mm)*
G04 Created by KiCad (PCBNEW 9.0.2) date 2025-07-01 18:06:57*
%MOMM*%
%LPD*%
G01*
G04 APERTURE LIST*
%ADD10C,0.150000*%
%ADD11C,0.120000*%
G04 APERTURE END LIST*
D10*
X73029819Y-144566666D02*
X73744104Y-144566666D01*
X73744104Y-144566666D02*
X73886961Y-144519047D01*
X73886961Y-144519047D02*
X73982200Y-144423809D01*
X73982200Y-144423809D02*
X74029819Y-144280952D01*
X74029819Y-144280952D02*
X74029819Y-144185714D01*
X73125057Y-144995238D02*
X73077438Y-145042857D01*
X73077438Y-145042857D02*
X73029819Y-145138095D01*
X73029819Y-145138095D02*
X73029819Y-145376190D01*
X73029819Y-145376190D02*
X73077438Y-145471428D01*
X73077438Y-145471428D02*
X73125057Y-145519047D01*
X73125057Y-145519047D02*
X73220295Y-145566666D01*
X73220295Y-145566666D02*
X73315533Y-145566666D01*
X73315533Y-145566666D02*
X73458390Y-145519047D01*
X73458390Y-145519047D02*
X74029819Y-144947619D01*
X74029819Y-144947619D02*
X74029819Y-145566666D01*
X129325238Y-173450057D02*
X129420476Y-173402438D01*
X129420476Y-173402438D02*
X129515714Y-173307200D01*
X129515714Y-173307200D02*
X129658571Y-173164342D01*
X129658571Y-173164342D02*
X129753809Y-173116723D01*
X129753809Y-173116723D02*
X129849047Y-173116723D01*
X129801428Y-173354819D02*
X129896666Y-173307200D01*
X129896666Y-173307200D02*
X129991904Y-173211961D01*
X129991904Y-173211961D02*
X130039523Y-173021485D01*
X130039523Y-173021485D02*
X130039523Y-172688152D01*
X130039523Y-172688152D02*
X129991904Y-172497676D01*
X129991904Y-172497676D02*
X129896666Y-172402438D01*
X129896666Y-172402438D02*
X129801428Y-172354819D01*
X129801428Y-172354819D02*
X129610952Y-172354819D01*
X129610952Y-172354819D02*
X129515714Y-172402438D01*
X129515714Y-172402438D02*
X129420476Y-172497676D01*
X129420476Y-172497676D02*
X129372857Y-172688152D01*
X129372857Y-172688152D02*
X129372857Y-173021485D01*
X129372857Y-173021485D02*
X129420476Y-173211961D01*
X129420476Y-173211961D02*
X129515714Y-173307200D01*
X129515714Y-173307200D02*
X129610952Y-173354819D01*
X129610952Y-173354819D02*
X129801428Y-173354819D01*
X128991904Y-172450057D02*
X128944285Y-172402438D01*
X128944285Y-172402438D02*
X128849047Y-172354819D01*
X128849047Y-172354819D02*
X128610952Y-172354819D01*
X128610952Y-172354819D02*
X128515714Y-172402438D01*
X128515714Y-172402438D02*
X128468095Y-172450057D01*
X128468095Y-172450057D02*
X128420476Y-172545295D01*
X128420476Y-172545295D02*
X128420476Y-172640533D01*
X128420476Y-172640533D02*
X128468095Y-172783390D01*
X128468095Y-172783390D02*
X129039523Y-173354819D01*
X129039523Y-173354819D02*
X128420476Y-173354819D01*
X94380952Y-184631009D02*
X94238095Y-184678628D01*
X94238095Y-184678628D02*
X94190476Y-184726247D01*
X94190476Y-184726247D02*
X94142857Y-184821485D01*
X94142857Y-184821485D02*
X94142857Y-184964342D01*
X94142857Y-184964342D02*
X94190476Y-185059580D01*
X94190476Y-185059580D02*
X94238095Y-185107200D01*
X94238095Y-185107200D02*
X94333333Y-185154819D01*
X94333333Y-185154819D02*
X94714285Y-185154819D01*
X94714285Y-185154819D02*
X94714285Y-184154819D01*
X94714285Y-184154819D02*
X94380952Y-184154819D01*
X94380952Y-184154819D02*
X94285714Y-184202438D01*
X94285714Y-184202438D02*
X94238095Y-184250057D01*
X94238095Y-184250057D02*
X94190476Y-184345295D01*
X94190476Y-184345295D02*
X94190476Y-184440533D01*
X94190476Y-184440533D02*
X94238095Y-184535771D01*
X94238095Y-184535771D02*
X94285714Y-184583390D01*
X94285714Y-184583390D02*
X94380952Y-184631009D01*
X94380952Y-184631009D02*
X94714285Y-184631009D01*
X93809523Y-184154819D02*
X93142857Y-184154819D01*
X93142857Y-184154819D02*
X93809523Y-185154819D01*
X93809523Y-185154819D02*
X93142857Y-185154819D01*
X92238095Y-185154819D02*
X92809523Y-185154819D01*
X92523809Y-185154819D02*
X92523809Y-184154819D01*
X92523809Y-184154819D02*
X92619047Y-184297676D01*
X92619047Y-184297676D02*
X92714285Y-184392914D01*
X92714285Y-184392914D02*
X92809523Y-184440533D01*
X90070951Y-180113866D02*
X89309047Y-180113866D01*
X89689999Y-180494819D02*
X89689999Y-179732914D01*
X122325238Y-173450057D02*
X122420476Y-173402438D01*
X122420476Y-173402438D02*
X122515714Y-173307200D01*
X122515714Y-173307200D02*
X122658571Y-173164342D01*
X122658571Y-173164342D02*
X122753809Y-173116723D01*
X122753809Y-173116723D02*
X122849047Y-173116723D01*
X122801428Y-173354819D02*
X122896666Y-173307200D01*
X122896666Y-173307200D02*
X122991904Y-173211961D01*
X122991904Y-173211961D02*
X123039523Y-173021485D01*
X123039523Y-173021485D02*
X123039523Y-172688152D01*
X123039523Y-172688152D02*
X122991904Y-172497676D01*
X122991904Y-172497676D02*
X122896666Y-172402438D01*
X122896666Y-172402438D02*
X122801428Y-172354819D01*
X122801428Y-172354819D02*
X122610952Y-172354819D01*
X122610952Y-172354819D02*
X122515714Y-172402438D01*
X122515714Y-172402438D02*
X122420476Y-172497676D01*
X122420476Y-172497676D02*
X122372857Y-172688152D01*
X122372857Y-172688152D02*
X122372857Y-173021485D01*
X122372857Y-173021485D02*
X122420476Y-173211961D01*
X122420476Y-173211961D02*
X122515714Y-173307200D01*
X122515714Y-173307200D02*
X122610952Y-173354819D01*
X122610952Y-173354819D02*
X122801428Y-173354819D01*
X121420476Y-173354819D02*
X121991904Y-173354819D01*
X121706190Y-173354819D02*
X121706190Y-172354819D01*
X121706190Y-172354819D02*
X121801428Y-172497676D01*
X121801428Y-172497676D02*
X121896666Y-172592914D01*
X121896666Y-172592914D02*
X121991904Y-172640533D01*
X160379819Y-146666666D02*
X161094104Y-146666666D01*
X161094104Y-146666666D02*
X161236961Y-146619047D01*
X161236961Y-146619047D02*
X161332200Y-146523809D01*
X161332200Y-146523809D02*
X161379819Y-146380952D01*
X161379819Y-146380952D02*
X161379819Y-146285714D01*
X160713152Y-147571428D02*
X161379819Y-147571428D01*
X160332200Y-147333333D02*
X161046485Y-147095238D01*
X161046485Y-147095238D02*
X161046485Y-147714285D01*
X92333332Y-162879819D02*
X92333332Y-163594104D01*
X92333332Y-163594104D02*
X92380951Y-163736961D01*
X92380951Y-163736961D02*
X92476189Y-163832200D01*
X92476189Y-163832200D02*
X92619046Y-163879819D01*
X92619046Y-163879819D02*
X92714284Y-163879819D01*
X91952379Y-162879819D02*
X91333332Y-162879819D01*
X91333332Y-162879819D02*
X91666665Y-163260771D01*
X91666665Y-163260771D02*
X91523808Y-163260771D01*
X91523808Y-163260771D02*
X91428570Y-163308390D01*
X91428570Y-163308390D02*
X91380951Y-163356009D01*
X91380951Y-163356009D02*
X91333332Y-163451247D01*
X91333332Y-163451247D02*
X91333332Y-163689342D01*
X91333332Y-163689342D02*
X91380951Y-163784580D01*
X91380951Y-163784580D02*
X91428570Y-163832200D01*
X91428570Y-163832200D02*
X91523808Y-163879819D01*
X91523808Y-163879819D02*
X91809522Y-163879819D01*
X91809522Y-163879819D02*
X91904760Y-163832200D01*
X91904760Y-163832200D02*
X91952379Y-163784580D01*
X126380952Y-184631009D02*
X126238095Y-184678628D01*
X126238095Y-184678628D02*
X126190476Y-184726247D01*
X126190476Y-184726247D02*
X126142857Y-184821485D01*
X126142857Y-184821485D02*
X126142857Y-184964342D01*
X126142857Y-184964342D02*
X126190476Y-185059580D01*
X126190476Y-185059580D02*
X126238095Y-185107200D01*
X126238095Y-185107200D02*
X126333333Y-185154819D01*
X126333333Y-185154819D02*
X126714285Y-185154819D01*
X126714285Y-185154819D02*
X126714285Y-184154819D01*
X126714285Y-184154819D02*
X126380952Y-184154819D01*
X126380952Y-184154819D02*
X126285714Y-184202438D01*
X126285714Y-184202438D02*
X126238095Y-184250057D01*
X126238095Y-184250057D02*
X126190476Y-184345295D01*
X126190476Y-184345295D02*
X126190476Y-184440533D01*
X126190476Y-184440533D02*
X126238095Y-184535771D01*
X126238095Y-184535771D02*
X126285714Y-184583390D01*
X126285714Y-184583390D02*
X126380952Y-184631009D01*
X126380952Y-184631009D02*
X126714285Y-184631009D01*
X125809523Y-184154819D02*
X125142857Y-184154819D01*
X125142857Y-184154819D02*
X125809523Y-185154819D01*
X125809523Y-185154819D02*
X125142857Y-185154819D01*
X124809523Y-184250057D02*
X124761904Y-184202438D01*
X124761904Y-184202438D02*
X124666666Y-184154819D01*
X124666666Y-184154819D02*
X124428571Y-184154819D01*
X124428571Y-184154819D02*
X124333333Y-184202438D01*
X124333333Y-184202438D02*
X124285714Y-184250057D01*
X124285714Y-184250057D02*
X124238095Y-184345295D01*
X124238095Y-184345295D02*
X124238095Y-184440533D01*
X124238095Y-184440533D02*
X124285714Y-184583390D01*
X124285714Y-184583390D02*
X124857142Y-185154819D01*
X124857142Y-185154819D02*
X124238095Y-185154819D01*
X122070951Y-180113866D02*
X121309047Y-180113866D01*
X121689999Y-180494819D02*
X121689999Y-179732914D01*
D11*
%TO.C,J2*%
X74375000Y-133300000D02*
X74375000Y-134550000D01*
X74665000Y-133590000D02*
X74665000Y-156210000D01*
X74665000Y-156210000D02*
X80635000Y-156210000D01*
X74675000Y-133600000D02*
X74675000Y-135400000D01*
X74675000Y-135400000D02*
X75425000Y-135400000D01*
X74675000Y-136900000D02*
X74675000Y-152900000D01*
X74675000Y-152900000D02*
X75425000Y-152900000D01*
X74675000Y-154400000D02*
X74675000Y-156200000D01*
X74675000Y-156200000D02*
X75425000Y-156200000D01*
X75425000Y-133600000D02*
X74675000Y-133600000D01*
X75425000Y-135400000D02*
X75425000Y-133600000D01*
X75425000Y-136900000D02*
X74675000Y-136900000D01*
X75425000Y-152900000D02*
X75425000Y-136900000D01*
X75425000Y-154400000D02*
X74675000Y-154400000D01*
X75425000Y-156200000D02*
X75425000Y-154400000D01*
X75625000Y-133300000D02*
X74375000Y-133300000D01*
X76925000Y-134350000D02*
X76925000Y-133600000D01*
X76925000Y-155450000D02*
X76925000Y-156200000D01*
X79875000Y-134350000D02*
X76925000Y-134350000D01*
X79875000Y-144900000D02*
X79875000Y-134350000D01*
X79875000Y-144900000D02*
X79875000Y-155450000D01*
X79875000Y-155450000D02*
X76925000Y-155450000D01*
X80635000Y-133590000D02*
X74665000Y-133590000D01*
X80635000Y-156210000D02*
X80635000Y-133590000D01*
%TO.C,Q2*%
X127430000Y-166650000D02*
X131030000Y-166650000D01*
X128410000Y-170950000D02*
G75*
G02*
X127418125Y-166658259I820000J2450000D01*
G01*
X131038445Y-166672316D02*
G75*
G02*
X130010000Y-170950000I-1808445J-1827684D01*
G01*
%TO.C,BZ1*%
X99600000Y-177500000D02*
G75*
G02*
X87400000Y-177500000I-6100000J0D01*
G01*
X87400000Y-177500000D02*
G75*
G02*
X99600000Y-177500000I6100000J0D01*
G01*
%TO.C,Q1*%
X120430000Y-166650000D02*
X124030000Y-166650000D01*
X121410000Y-170950000D02*
G75*
G02*
X120418125Y-166658259I820000J2450000D01*
G01*
X124038445Y-166672316D02*
G75*
G02*
X123010000Y-170950000I-1808445J-1827684D01*
G01*
%TO.C,J4*%
X161725000Y-139150000D02*
X161725000Y-140400000D01*
X162015000Y-139440000D02*
X162015000Y-154560000D01*
X162015000Y-154560000D02*
X167985000Y-154560000D01*
X162025000Y-139450000D02*
X162025000Y-141250000D01*
X162025000Y-141250000D02*
X162775000Y-141250000D01*
X162025000Y-142750000D02*
X162025000Y-151250000D01*
X162025000Y-151250000D02*
X162775000Y-151250000D01*
X162025000Y-152750000D02*
X162025000Y-154550000D01*
X162025000Y-154550000D02*
X162775000Y-154550000D01*
X162775000Y-139450000D02*
X162025000Y-139450000D01*
X162775000Y-141250000D02*
X162775000Y-139450000D01*
X162775000Y-142750000D02*
X162025000Y-142750000D01*
X162775000Y-151250000D02*
X162775000Y-142750000D01*
X162775000Y-152750000D02*
X162025000Y-152750000D01*
X162775000Y-154550000D02*
X162775000Y-152750000D01*
X162975000Y-139150000D02*
X161725000Y-139150000D01*
X164275000Y-140200000D02*
X164275000Y-139450000D01*
X164275000Y-153800000D02*
X164275000Y-154550000D01*
X167225000Y-140200000D02*
X164275000Y-140200000D01*
X167225000Y-147000000D02*
X167225000Y-140200000D01*
X167225000Y-147000000D02*
X167225000Y-153800000D01*
X167225000Y-153800000D02*
X164275000Y-153800000D01*
X167985000Y-139440000D02*
X162015000Y-139440000D01*
X167985000Y-154560000D02*
X167985000Y-139440000D01*
%TO.C,J3*%
X84439999Y-164514999D02*
X99559999Y-164514998D01*
X84439999Y-170485000D02*
X84439999Y-164514999D01*
X84449998Y-164525000D02*
X86249999Y-164524998D01*
X84449998Y-166775000D02*
X85199998Y-166774999D01*
X84449999Y-165275000D02*
X84449998Y-164525000D01*
X85199998Y-166774999D02*
X85199999Y-169724999D01*
X85199999Y-169724999D02*
X91999998Y-169724999D01*
X86249999Y-164524998D02*
X86249999Y-165274998D01*
X86249999Y-165274998D02*
X84449999Y-165275000D01*
X87749998Y-164524999D02*
X96249999Y-164524999D01*
X87749999Y-165274999D02*
X87749998Y-164524999D01*
X96249998Y-165274999D02*
X87749999Y-165274999D01*
X96249999Y-164524999D02*
X96249998Y-165274999D01*
X97749998Y-164524999D02*
X99549998Y-164524999D01*
X97749999Y-165274999D02*
X97749998Y-164524999D01*
X98599999Y-164224998D02*
X99850000Y-164225000D01*
X98799999Y-166775001D02*
X98799999Y-169725000D01*
X98799999Y-169725000D02*
X91999998Y-169724999D01*
X99549998Y-164524999D02*
X99549999Y-165274998D01*
X99549998Y-166774998D02*
X98799999Y-166775001D01*
X99549999Y-165274998D02*
X97749999Y-165274999D01*
X99559999Y-164514998D02*
X99559999Y-170484998D01*
X99559999Y-170484998D02*
X84439999Y-170485000D01*
X99850000Y-164225000D02*
X99849999Y-165475000D01*
%TO.C,BZ2*%
X131600000Y-177500000D02*
G75*
G02*
X119400000Y-177500000I-6100000J0D01*
G01*
X119400000Y-177500000D02*
G75*
G02*
X131600000Y-177500000I6100000J0D01*
G01*
%TD*%
M02*
