%TF.GenerationSoftware,KiCad,Pcbnew,9.0.2*%
%TF.CreationDate,2025-07-01T18:06:57-05:00*%
%TF.ProjectId,clock,636c6f63-6b2e-46b6-9963-61645f706362,rev?*%
%TF.SameCoordinates,Original*%
%TF.FileFunction,Copper,L2,Bot*%
%TF.FilePolarity,Positive*%
%FSLAX46Y46*%
G04 Gerber Fmt 4.6, Leading zero omitted, Abs format (unit mm)*
G04 Created by KiCad (PCBNEW 9.0.2) date 2025-07-01 18:06:57*
%MOMM*%
%LPD*%
G01*
G04 APERTURE LIST*
G04 Aperture macros list*
%AMRoundRect*
0 Rectangle with rounded corners*
0 $1 Rounding radius*
0 $2 $3 $4 $5 $6 $7 $8 $9 X,Y pos of 4 corners*
0 Add a 4 corners polygon primitive as box body*
4,1,4,$2,$3,$4,$5,$6,$7,$8,$9,$2,$3,0*
0 Add four circle primitives for the rounded corners*
1,1,$1+$1,$2,$3*
1,1,$1+$1,$4,$5*
1,1,$1+$1,$6,$7*
1,1,$1+$1,$8,$9*
0 Add four rect primitives between the rounded corners*
20,1,$1+$1,$2,$3,$4,$5,0*
20,1,$1+$1,$4,$5,$6,$7,0*
20,1,$1+$1,$6,$7,$8,$9,0*
20,1,$1+$1,$8,$9,$2,$3,0*%
G04 Aperture macros list end*
%TA.AperFunction,ComponentPad*%
%ADD10C,2.000000*%
%TD*%
%TA.AperFunction,ComponentPad*%
%ADD11RoundRect,0.250000X-0.600000X-0.725000X0.600000X-0.725000X0.600000X0.725000X-0.600000X0.725000X0*%
%TD*%
%TA.AperFunction,ComponentPad*%
%ADD12O,1.700000X1.950000*%
%TD*%
%TA.AperFunction,ComponentPad*%
%ADD13O,2.100000X1.000000*%
%TD*%
%TA.AperFunction,ComponentPad*%
%ADD14O,1.800000X1.000000*%
%TD*%
%TA.AperFunction,ComponentPad*%
%ADD15R,2.000000X2.000000*%
%TD*%
%TA.AperFunction,ComponentPad*%
%ADD16R,3.200000X2.000000*%
%TD*%
%TA.AperFunction,ComponentPad*%
%ADD17R,1.524000X1.524000*%
%TD*%
%TA.AperFunction,ComponentPad*%
%ADD18C,1.600000*%
%TD*%
%TA.AperFunction,ComponentPad*%
%ADD19RoundRect,0.250000X-0.725000X0.600000X-0.725000X-0.600000X0.725000X-0.600000X0.725000X0.600000X0*%
%TD*%
%TA.AperFunction,ComponentPad*%
%ADD20O,1.950000X1.700000*%
%TD*%
%TA.AperFunction,ComponentPad*%
%ADD21R,1.100000X1.800000*%
%TD*%
%TA.AperFunction,ComponentPad*%
%ADD22RoundRect,0.275000X-0.275000X-0.625000X0.275000X-0.625000X0.275000X0.625000X-0.275000X0.625000X0*%
%TD*%
%TA.AperFunction,ComponentPad*%
%ADD23RoundRect,0.250000X0.600000X0.725000X-0.600000X0.725000X-0.600000X-0.725000X0.600000X-0.725000X0*%
%TD*%
%TA.AperFunction,ViaPad*%
%ADD24C,0.600000*%
%TD*%
%TA.AperFunction,Conductor*%
%ADD25C,0.200000*%
%TD*%
G04 APERTURE END LIST*
D10*
%TO.P,S1,1,1*%
%TO.N,S0*%
X113800000Y-168800000D03*
%TO.P,S1,2,2*%
%TO.N,GND*%
X106800000Y-167750000D03*
%TD*%
D11*
%TO.P,J8,1,Pin_1*%
%TO.N,GND*%
X90500000Y-108000000D03*
D12*
%TO.P,J8,2,Pin_2*%
%TO.N,S1 O*%
X93000000Y-108000000D03*
%TO.P,J8,3,Pin_3*%
%TO.N,E1A O*%
X95500000Y-108000000D03*
%TO.P,J8,4,Pin_4*%
%TO.N,E1B O*%
X98000000Y-108000000D03*
%TO.P,J8,5,Pin_5*%
%TO.N,unconnected-(J8-Pin_5-Pad5)*%
X100500000Y-108000000D03*
%TD*%
D11*
%TO.P,J6,1,Pin_1*%
%TO.N,GND*%
X90000000Y-80000000D03*
D12*
%TO.P,J6,2,Pin_2*%
%TO.N,+5V*%
X92500000Y-80000000D03*
%TO.P,J6,3,Pin_3*%
%TO.N,SCL*%
X95000000Y-80000000D03*
%TO.P,J6,4,Pin_4*%
%TO.N,SDA*%
X97500000Y-80000000D03*
%TO.P,J6,5,Pin_5*%
%TO.N,LCD-RES*%
X100000000Y-80000000D03*
%TO.P,J6,6,Pin_6*%
%TO.N,LCD-CS*%
X102500000Y-80000000D03*
%TO.P,J6,7,Pin_7*%
%TO.N,LCD-DC*%
X105000000Y-80000000D03*
%TO.P,J6,8,Pin_8*%
%TO.N,LCD-BLK*%
X107500000Y-80000000D03*
%TD*%
D11*
%TO.P,J5,1,Pin_1*%
%TO.N,GND*%
X109000000Y-108000000D03*
D12*
%TO.P,J5,2,Pin_2*%
%TO.N,+5V*%
X111500000Y-108000000D03*
%TO.P,J5,3,Pin_3*%
%TO.N,buzzer 0*%
X114000000Y-108000000D03*
%TO.P,J5,4,Pin_4*%
%TO.N,unconnected-(J5-Pin_4-Pad4)*%
X116500000Y-108000000D03*
%TO.P,J5,5,Pin_5*%
%TO.N,S0 O*%
X119000000Y-108000000D03*
%TD*%
D13*
%TO.P,J1,S1,SHIELD*%
%TO.N,GND*%
X89605000Y-88180000D03*
D14*
X85425000Y-88180000D03*
D13*
X89605000Y-96820000D03*
D14*
X85425000Y-96820000D03*
%TD*%
D15*
%TO.P,SW1,A,A*%
%TO.N,E1A*%
X170500000Y-144500000D03*
D10*
%TO.P,SW1,B,B*%
%TO.N,E1B*%
X170500000Y-149500000D03*
%TO.P,SW1,C,C*%
%TO.N,GND*%
X170500000Y-147000000D03*
D16*
%TO.P,SW1,MP,MP*%
X178000000Y-141400000D03*
X178000000Y-152600000D03*
D10*
%TO.P,SW1,S1,S1*%
%TO.N,S1*%
X185000000Y-149500000D03*
%TO.P,SW1,S2,S2*%
%TO.N,GND*%
X185000000Y-144500000D03*
%TD*%
D17*
%TO.P,LCD1,1,GND*%
%TO.N,Net-(J2-Pin_1)*%
X85900000Y-135900000D03*
D18*
%TO.P,LCD1,2,VCC*%
%TO.N,Net-(J2-Pin_2)*%
X85900000Y-138440000D03*
%TO.P,LCD1,3,SCL*%
%TO.N,Net-(J2-Pin_3)*%
X85900000Y-140980000D03*
%TO.P,LCD1,4,SDA*%
%TO.N,Net-(J2-Pin_4)*%
X85900000Y-143520000D03*
%TO.P,LCD1,5,RES*%
%TO.N,Net-(J2-Pin_5)*%
X85900000Y-146060000D03*
%TO.P,LCD1,6,DC*%
%TO.N,Net-(J2-Pin_6)*%
X85900000Y-148600000D03*
%TO.P,LCD1,7,CS*%
%TO.N,Net-(J2-Pin_7)*%
X85900000Y-151140000D03*
%TO.P,LCD1,8,BLK*%
%TO.N,Net-(J2-Pin_8)*%
X85900000Y-153680000D03*
%TD*%
D19*
%TO.P,J2,1,Pin_1*%
%TO.N,Net-(J2-Pin_1)*%
X77125000Y-136150000D03*
D20*
%TO.P,J2,2,Pin_2*%
%TO.N,Net-(J2-Pin_2)*%
X77125000Y-138650000D03*
%TO.P,J2,3,Pin_3*%
%TO.N,Net-(J2-Pin_3)*%
X77125000Y-141150000D03*
%TO.P,J2,4,Pin_4*%
%TO.N,Net-(J2-Pin_4)*%
X77125000Y-143650000D03*
%TO.P,J2,5,Pin_5*%
%TO.N,Net-(J2-Pin_5)*%
X77125000Y-146150000D03*
%TO.P,J2,6,Pin_6*%
%TO.N,Net-(J2-Pin_6)*%
X77125000Y-148650000D03*
%TO.P,J2,7,Pin_7*%
%TO.N,Net-(J2-Pin_7)*%
X77125000Y-151150000D03*
%TO.P,J2,8,Pin_8*%
%TO.N,Net-(J2-Pin_8)*%
X77125000Y-153650000D03*
%TD*%
D21*
%TO.P,Q2,1,E*%
%TO.N,GND*%
X127960000Y-168100000D03*
D22*
%TO.P,Q2,2,B*%
%TO.N,Net-(Q2-B)*%
X129230000Y-170170000D03*
%TO.P,Q2,3,C*%
%TO.N,Net-(BZ2--)*%
X130500000Y-168100000D03*
%TD*%
D15*
%TO.P,BZ1,1,+*%
%TO.N,+5V*%
X89700000Y-177500000D03*
D10*
%TO.P,BZ1,2,-*%
%TO.N,Net-(BZ1--)*%
X97300000Y-177500000D03*
%TD*%
D21*
%TO.P,Q1,1,E*%
%TO.N,GND*%
X120960000Y-168100000D03*
D22*
%TO.P,Q1,2,B*%
%TO.N,Net-(Q1-B)*%
X122230000Y-170170000D03*
%TO.P,Q1,3,C*%
%TO.N,Net-(BZ1--)*%
X123500000Y-168100000D03*
%TD*%
D19*
%TO.P,J4,1,Pin_1*%
%TO.N,GND*%
X164475000Y-142000000D03*
D20*
%TO.P,J4,2,Pin_2*%
%TO.N,S1*%
X164475000Y-144500000D03*
%TO.P,J4,3,Pin_3*%
%TO.N,E1A*%
X164475000Y-147000000D03*
%TO.P,J4,4,Pin_4*%
%TO.N,E1B*%
X164475000Y-149500000D03*
%TO.P,J4,5,Pin_5*%
%TO.N,Row 1*%
X164475000Y-152000000D03*
%TD*%
D23*
%TO.P,J3,1,Pin_1*%
%TO.N,GND*%
X96999999Y-166974999D03*
D12*
%TO.P,J3,2,Pin_2*%
%TO.N,+5V*%
X94499998Y-166974999D03*
%TO.P,J3,3,Pin_3*%
%TO.N,buzzer*%
X91999999Y-166975000D03*
%TO.P,J3,4,Pin_4*%
%TO.N,unconnected-(J3-Pin_4-Pad4)*%
X89499999Y-166974999D03*
%TO.P,J3,5,Pin_5*%
%TO.N,S0*%
X86999999Y-166974999D03*
%TD*%
D15*
%TO.P,BZ2,1,+*%
%TO.N,+5V*%
X121700000Y-177500000D03*
D10*
%TO.P,BZ2,2,-*%
%TO.N,Net-(BZ2--)*%
X129300000Y-177500000D03*
%TD*%
D24*
%TO.N,E1A O*%
X119000000Y-85000000D03*
X105400000Y-97000000D03*
X105400000Y-93565687D03*
%TO.N,E1B O*%
X118000000Y-85400000D03*
X106000000Y-96000000D03*
X106000000Y-93000000D03*
%TO.N,Row 1 O*%
X107000000Y-93000000D03*
X107000000Y-96000000D03*
X121000000Y-86000000D03*
%TO.N,S1 O*%
X104800000Y-93000000D03*
X104800000Y-96000000D03*
X123713908Y-86286092D03*
%TO.N,D+*%
X115000000Y-95000000D03*
X88957313Y-92201137D03*
%TO.N,D-*%
X113500000Y-95000000D03*
X89000000Y-93000000D03*
%TO.N,+3V3*%
X103000000Y-99000000D03*
X128000000Y-103000000D03*
X127000000Y-89000000D03*
%TO.N,LCD-RES*%
X117485735Y-102485735D03*
X117500000Y-100000000D03*
X105000000Y-90000000D03*
%TO.N,SCL*%
X121500000Y-80500000D03*
X124000000Y-83000000D03*
%TO.N,LCD-CS*%
X106000000Y-89000000D03*
X110500000Y-100500000D03*
X112500000Y-103500000D03*
%TO.N,LCD-BLK*%
X114013901Y-102994255D03*
X107500000Y-82500000D03*
X109400000Y-84500000D03*
X111631374Y-99368626D03*
%TO.N,LCD-DC*%
X111065687Y-99934313D03*
X113274552Y-103299816D03*
X106745258Y-88709156D03*
%TO.N,S0 O*%
X122500000Y-90000000D03*
%TO.N,Row 0 O*%
X120000000Y-90000000D03*
%TO.N,Net-(Q1-B)*%
X142500000Y-167500000D03*
X124305735Y-165694265D03*
%TO.N,Net-(Q2-B)*%
X142500000Y-172500000D03*
%TD*%
D25*
%TO.N,E1A O*%
X105400000Y-99600000D02*
X105400000Y-97000000D01*
X98500000Y-106500000D02*
X105400000Y-99600000D01*
X111868628Y-85000000D02*
X117000000Y-85000000D01*
X105400000Y-93565687D02*
X105434313Y-93600000D01*
X117551471Y-85000000D02*
X117751471Y-84800000D01*
X97000000Y-106500000D02*
X95500000Y-108000000D01*
X118800000Y-84800000D02*
X119000000Y-85000000D01*
X105400000Y-91468628D02*
X111868628Y-85000000D01*
X117751471Y-84800000D02*
X118800000Y-84800000D01*
X105400000Y-93565687D02*
X105400000Y-91468628D01*
X98500000Y-106500000D02*
X97000000Y-106500000D01*
X117000000Y-85000000D02*
X117551471Y-85000000D01*
%TO.N,E1B O*%
X98000000Y-108000000D02*
X106000000Y-100000000D01*
X112034314Y-85400000D02*
X118000000Y-85400000D01*
X106000000Y-100000000D02*
X106000000Y-96000000D01*
X106000000Y-91434314D02*
X111717157Y-85717157D01*
X111717157Y-85717157D02*
X112034314Y-85400000D01*
X106000000Y-93000000D02*
X106000000Y-91434314D01*
%TO.N,Row 1 O*%
X107000000Y-101500000D02*
X107000000Y-96000000D01*
X112000000Y-86000000D02*
X121000000Y-86000000D01*
X107000000Y-91000000D02*
X112000000Y-86000000D01*
X107000000Y-93000000D02*
X107000000Y-91000000D01*
X100500000Y-108000000D02*
X107000000Y-101500000D01*
%TO.N,S1 O*%
X104800000Y-91502943D02*
X111902943Y-84400000D01*
X104800000Y-99634314D02*
X98434314Y-106000000D01*
X121827816Y-84400000D02*
X123713908Y-86286092D01*
X104800000Y-93000000D02*
X104800000Y-91502943D01*
X98434314Y-106000000D02*
X95000000Y-106000000D01*
X104800000Y-96000000D02*
X104800000Y-99634314D01*
X111902943Y-84400000D02*
X121827816Y-84400000D01*
X95000000Y-106000000D02*
X93000000Y-108000000D01*
%TO.N,S1*%
X165775000Y-143200000D02*
X178700000Y-143200000D01*
X164475000Y-144500000D02*
X165775000Y-143200000D01*
X178700000Y-143200000D02*
X185000000Y-149500000D01*
%TO.N,GND*%
X181900000Y-141400000D02*
X178000000Y-141400000D01*
X185000000Y-144500000D02*
X181900000Y-141400000D01*
X97775000Y-167750000D02*
X96999999Y-166974999D01*
X106800000Y-167750000D02*
X97775000Y-167750000D01*
%TO.N,D+*%
X88957313Y-92201137D02*
X89351137Y-92201137D01*
X91425000Y-94275000D02*
X114275000Y-94275000D01*
X89351137Y-92201137D02*
X91425000Y-94275000D01*
X114275000Y-94275000D02*
X115000000Y-95000000D01*
%TO.N,D-*%
X113500000Y-95000000D02*
X113375000Y-95125000D01*
X91125000Y-95125000D02*
X89000000Y-93000000D01*
X113375000Y-95125000D02*
X91125000Y-95125000D01*
%TO.N,S0*%
X110000000Y-165000000D02*
X113800000Y-168800000D01*
X86999999Y-166974999D02*
X88974998Y-165000000D01*
X88974998Y-165000000D02*
X110000000Y-165000000D01*
%TO.N,LCD-RES*%
X117500000Y-102471470D02*
X117500000Y-100000000D01*
X100000000Y-80000000D02*
X100000000Y-85000000D01*
X100000000Y-85000000D02*
X105000000Y-90000000D01*
X117485735Y-102485735D02*
X117500000Y-102471470D01*
%TO.N,Net-(BZ1--)*%
X123500000Y-179000000D02*
X122500000Y-180000000D01*
X122500000Y-180000000D02*
X99800000Y-180000000D01*
X99800000Y-180000000D02*
X97300000Y-177500000D01*
X123500000Y-168500000D02*
X123500000Y-179000000D01*
%TO.N,SCL*%
X121500000Y-80500000D02*
X124000000Y-83000000D01*
%TO.N,E1A*%
X164475000Y-147000000D02*
X168000000Y-147000000D01*
X168000000Y-147000000D02*
X170500000Y-144500000D01*
%TO.N,LCD-CS*%
X102500000Y-80000000D02*
X102500000Y-85500000D01*
X112500000Y-103500000D02*
X112500000Y-102500000D01*
X102500000Y-85500000D02*
X106000000Y-89000000D01*
X112500000Y-102500000D02*
X110500000Y-100500000D01*
%TO.N,LCD-BLK*%
X109400000Y-84400000D02*
X107500000Y-82500000D01*
X111631374Y-99368626D02*
X114013901Y-101751153D01*
X109400000Y-84500000D02*
X109400000Y-84400000D01*
X114013901Y-101751153D02*
X114013901Y-102994255D01*
%TO.N,LCD-DC*%
X105000000Y-80000000D02*
X105000000Y-86963898D01*
X111065687Y-99934313D02*
X113274552Y-102143178D01*
X105000000Y-86963898D02*
X106745258Y-88709156D01*
X113274552Y-102143178D02*
X113274552Y-103299816D01*
%TO.N,S0 O*%
X119000000Y-93500000D02*
X119000000Y-108000000D01*
X122500000Y-90000000D02*
X119000000Y-93500000D01*
%TO.N,Row 0 O*%
X116500000Y-108000000D02*
X116500000Y-93500000D01*
X116500000Y-93500000D02*
X120000000Y-90000000D01*
%TO.N,Net-(Q1-B)*%
X124305735Y-165694265D02*
X125000000Y-165000000D01*
X125000000Y-165000000D02*
X140000000Y-165000000D01*
X140000000Y-165000000D02*
X142500000Y-167500000D01*
%TO.N,Net-(Q2-B)*%
X129230000Y-169770000D02*
X140632500Y-169770000D01*
X142500000Y-171637500D02*
X142500000Y-172500000D01*
X140632500Y-169770000D02*
X142500000Y-171637500D01*
%TD*%
%TA.AperFunction,Conductor*%
%TO.N,+3V3*%
G36*
X130142539Y-76220185D02*
G01*
X130188294Y-76272989D01*
X130199500Y-76324500D01*
X130199500Y-111575500D01*
X130179815Y-111642539D01*
X130127011Y-111688294D01*
X130075500Y-111699500D01*
X83424500Y-111699500D01*
X83357461Y-111679815D01*
X83311706Y-111627011D01*
X83300500Y-111575500D01*
X83300500Y-96918543D01*
X84024499Y-96918543D01*
X84062947Y-97111829D01*
X84062950Y-97111839D01*
X84138364Y-97293907D01*
X84138371Y-97293920D01*
X84247860Y-97457781D01*
X84247863Y-97457785D01*
X84387214Y-97597136D01*
X84387218Y-97597139D01*
X84551079Y-97706628D01*
X84551092Y-97706635D01*
X84733160Y-97782049D01*
X84733165Y-97782051D01*
X84733169Y-97782051D01*
X84733170Y-97782052D01*
X84926456Y-97820500D01*
X84926459Y-97820500D01*
X85923543Y-97820500D01*
X86053582Y-97794632D01*
X86116835Y-97782051D01*
X86298914Y-97706632D01*
X86462782Y-97597139D01*
X86602139Y-97457782D01*
X86711632Y-97293914D01*
X86787051Y-97111835D01*
X86825500Y-96918543D01*
X88054499Y-96918543D01*
X88092947Y-97111829D01*
X88092950Y-97111839D01*
X88168364Y-97293907D01*
X88168371Y-97293920D01*
X88277860Y-97457781D01*
X88277863Y-97457785D01*
X88417214Y-97597136D01*
X88417218Y-97597139D01*
X88581079Y-97706628D01*
X88581092Y-97706635D01*
X88763160Y-97782049D01*
X88763165Y-97782051D01*
X88763169Y-97782051D01*
X88763170Y-97782052D01*
X88956456Y-97820500D01*
X88956459Y-97820500D01*
X90253543Y-97820500D01*
X90383582Y-97794632D01*
X90446835Y-97782051D01*
X90628914Y-97706632D01*
X90792782Y-97597139D01*
X90932139Y-97457782D01*
X91041632Y-97293914D01*
X91117051Y-97111835D01*
X91155500Y-96918541D01*
X91155500Y-96721459D01*
X91155500Y-96721456D01*
X91117052Y-96528170D01*
X91117051Y-96528169D01*
X91117051Y-96528165D01*
X91055342Y-96379185D01*
X91041635Y-96346092D01*
X91041628Y-96346079D01*
X90932139Y-96182218D01*
X90932136Y-96182214D01*
X90792785Y-96042863D01*
X90792781Y-96042860D01*
X90628920Y-95933371D01*
X90628907Y-95933364D01*
X90446839Y-95857950D01*
X90446829Y-95857947D01*
X90253543Y-95819500D01*
X90253541Y-95819500D01*
X89736333Y-95819500D01*
X89669294Y-95799815D01*
X89623539Y-95747011D01*
X89613595Y-95677853D01*
X89628947Y-95633499D01*
X89641278Y-95612140D01*
X89641277Y-95612140D01*
X89641281Y-95612135D01*
X89680500Y-95465766D01*
X89680500Y-95314234D01*
X89641281Y-95167865D01*
X89565515Y-95036635D01*
X89458365Y-94929485D01*
X89392750Y-94891602D01*
X89327136Y-94853719D01*
X89253950Y-94834109D01*
X89180766Y-94814500D01*
X89029234Y-94814500D01*
X88882863Y-94853719D01*
X88751635Y-94929485D01*
X88751632Y-94929487D01*
X88644487Y-95036632D01*
X88644485Y-95036635D01*
X88568719Y-95167863D01*
X88551133Y-95233497D01*
X88529500Y-95314234D01*
X88529500Y-95465766D01*
X88541430Y-95510289D01*
X88568719Y-95612136D01*
X88593836Y-95655639D01*
X88644485Y-95743365D01*
X88644486Y-95743366D01*
X88648549Y-95750403D01*
X88646220Y-95751747D01*
X88666645Y-95804584D01*
X88652603Y-95873029D01*
X88603787Y-95923016D01*
X88590528Y-95929456D01*
X88581094Y-95933363D01*
X88581079Y-95933371D01*
X88417218Y-96042860D01*
X88417214Y-96042863D01*
X88277863Y-96182214D01*
X88277860Y-96182218D01*
X88168371Y-96346079D01*
X88168364Y-96346092D01*
X88092950Y-96528160D01*
X88092947Y-96528170D01*
X88054500Y-96721456D01*
X88054500Y-96721459D01*
X88054500Y-96918541D01*
X88054500Y-96918543D01*
X88054499Y-96918543D01*
X86825500Y-96918543D01*
X86825500Y-96918541D01*
X86825500Y-96721459D01*
X86825500Y-96721456D01*
X86787052Y-96528170D01*
X86787051Y-96528169D01*
X86787051Y-96528165D01*
X86725342Y-96379185D01*
X86711635Y-96346092D01*
X86711628Y-96346079D01*
X86602139Y-96182218D01*
X86602136Y-96182214D01*
X86462785Y-96042863D01*
X86462781Y-96042860D01*
X86298920Y-95933371D01*
X86298907Y-95933364D01*
X86116839Y-95857950D01*
X86116829Y-95857947D01*
X85923543Y-95819500D01*
X85923541Y-95819500D01*
X84926459Y-95819500D01*
X84926457Y-95819500D01*
X84733170Y-95857947D01*
X84733160Y-95857950D01*
X84551092Y-95933364D01*
X84551079Y-95933371D01*
X84387218Y-96042860D01*
X84387214Y-96042863D01*
X84247863Y-96182214D01*
X84247860Y-96182218D01*
X84138371Y-96346079D01*
X84138364Y-96346092D01*
X84062950Y-96528160D01*
X84062947Y-96528170D01*
X84024500Y-96721456D01*
X84024500Y-96721459D01*
X84024500Y-96918541D01*
X84024500Y-96918543D01*
X84024499Y-96918543D01*
X83300500Y-96918543D01*
X83300500Y-92122290D01*
X88156813Y-92122290D01*
X88156813Y-92279983D01*
X88187574Y-92434626D01*
X88187577Y-92434638D01*
X88247915Y-92580308D01*
X88250792Y-92585690D01*
X88249720Y-92586262D01*
X88268682Y-92646823D01*
X88259264Y-92696485D01*
X88230263Y-92766502D01*
X88230260Y-92766511D01*
X88199500Y-92921153D01*
X88199500Y-93078846D01*
X88230261Y-93233489D01*
X88230264Y-93233501D01*
X88290602Y-93379172D01*
X88290609Y-93379185D01*
X88378210Y-93510288D01*
X88378213Y-93510292D01*
X88489707Y-93621786D01*
X88489711Y-93621789D01*
X88620814Y-93709390D01*
X88620827Y-93709397D01*
X88715799Y-93748735D01*
X88766503Y-93769737D01*
X88831147Y-93782595D01*
X88921849Y-93800638D01*
X88983760Y-93833023D01*
X88985339Y-93834574D01*
X90640139Y-95489374D01*
X90640149Y-95489385D01*
X90644479Y-95493715D01*
X90644480Y-95493716D01*
X90756284Y-95605520D01*
X90843095Y-95655639D01*
X90843097Y-95655641D01*
X90881151Y-95677611D01*
X90893215Y-95684577D01*
X91045943Y-95725501D01*
X91045946Y-95725501D01*
X91211653Y-95725501D01*
X91211669Y-95725500D01*
X103887324Y-95725500D01*
X103954363Y-95745185D01*
X104000118Y-95797989D01*
X104010062Y-95867147D01*
X104008941Y-95873691D01*
X103999500Y-95921153D01*
X103999500Y-96078846D01*
X104030261Y-96233489D01*
X104030264Y-96233501D01*
X104090602Y-96379172D01*
X104090609Y-96379185D01*
X104178602Y-96510874D01*
X104199480Y-96577551D01*
X104199500Y-96579765D01*
X104199500Y-99334217D01*
X104179815Y-99401256D01*
X104163181Y-99421898D01*
X98221898Y-105363181D01*
X98160575Y-105396666D01*
X98134217Y-105399500D01*
X95079057Y-105399500D01*
X94920943Y-105399500D01*
X94768215Y-105440423D01*
X94768214Y-105440423D01*
X94768212Y-105440424D01*
X94768209Y-105440425D01*
X94718096Y-105469359D01*
X94718095Y-105469360D01*
X94674689Y-105494420D01*
X94631285Y-105519479D01*
X94631282Y-105519481D01*
X94519478Y-105631286D01*
X93578867Y-106571896D01*
X93517544Y-106605381D01*
X93452868Y-106602146D01*
X93316240Y-106557753D01*
X93154957Y-106532208D01*
X93106287Y-106524500D01*
X92893713Y-106524500D01*
X92845042Y-106532208D01*
X92683760Y-106557753D01*
X92481585Y-106623444D01*
X92292179Y-106719951D01*
X92120215Y-106844889D01*
X91981398Y-106983706D01*
X91920075Y-107017190D01*
X91850383Y-107012206D01*
X91794450Y-106970334D01*
X91788178Y-106961120D01*
X91692712Y-106806344D01*
X91568657Y-106682289D01*
X91568656Y-106682288D01*
X91443969Y-106605381D01*
X91419336Y-106590187D01*
X91419331Y-106590185D01*
X91416603Y-106589281D01*
X91252797Y-106535001D01*
X91252795Y-106535000D01*
X91150010Y-106524500D01*
X89849998Y-106524500D01*
X89849981Y-106524501D01*
X89747203Y-106535000D01*
X89747200Y-106535001D01*
X89580668Y-106590185D01*
X89580663Y-106590187D01*
X89431342Y-106682289D01*
X89307289Y-106806342D01*
X89215187Y-106955663D01*
X89215185Y-106955668D01*
X89210325Y-106970334D01*
X89160001Y-107122203D01*
X89160001Y-107122204D01*
X89160000Y-107122204D01*
X89149500Y-107224983D01*
X89149500Y-108775001D01*
X89149501Y-108775018D01*
X89160000Y-108877796D01*
X89160001Y-108877799D01*
X89205894Y-109016294D01*
X89215186Y-109044334D01*
X89307288Y-109193656D01*
X89431344Y-109317712D01*
X89580666Y-109409814D01*
X89747203Y-109464999D01*
X89849991Y-109475500D01*
X91150008Y-109475499D01*
X91252797Y-109464999D01*
X91419334Y-109409814D01*
X91568656Y-109317712D01*
X91692712Y-109193656D01*
X91784814Y-109044334D01*
X91784814Y-109044331D01*
X91788178Y-109038879D01*
X91840126Y-108992154D01*
X91909088Y-108980931D01*
X91973170Y-109008774D01*
X91981398Y-109016294D01*
X92120213Y-109155109D01*
X92292179Y-109280048D01*
X92292181Y-109280049D01*
X92292184Y-109280051D01*
X92481588Y-109376557D01*
X92683757Y-109442246D01*
X92893713Y-109475500D01*
X92893714Y-109475500D01*
X93106286Y-109475500D01*
X93106287Y-109475500D01*
X93316243Y-109442246D01*
X93518412Y-109376557D01*
X93707816Y-109280051D01*
X93747038Y-109251555D01*
X93879786Y-109155109D01*
X93879788Y-109155106D01*
X93879792Y-109155104D01*
X94030104Y-109004792D01*
X94149683Y-108840204D01*
X94205011Y-108797540D01*
X94274624Y-108791561D01*
X94336420Y-108824166D01*
X94350313Y-108840199D01*
X94379079Y-108879792D01*
X94469896Y-109004792D01*
X94620213Y-109155109D01*
X94792179Y-109280048D01*
X94792181Y-109280049D01*
X94792184Y-109280051D01*
X94981588Y-109376557D01*
X95183757Y-109442246D01*
X95393713Y-109475500D01*
X95393714Y-109475500D01*
X95606286Y-109475500D01*
X95606287Y-109475500D01*
X95816243Y-109442246D01*
X96018412Y-109376557D01*
X96207816Y-109280051D01*
X96247038Y-109251555D01*
X96379786Y-109155109D01*
X96379788Y-109155106D01*
X96379792Y-109155104D01*
X96530104Y-109004792D01*
X96649683Y-108840204D01*
X96705011Y-108797540D01*
X96774624Y-108791561D01*
X96836420Y-108824166D01*
X96850313Y-108840199D01*
X96879079Y-108879792D01*
X96969896Y-109004792D01*
X97120213Y-109155109D01*
X97292179Y-109280048D01*
X97292181Y-109280049D01*
X97292184Y-109280051D01*
X97481588Y-109376557D01*
X97683757Y-109442246D01*
X97893713Y-109475500D01*
X97893714Y-109475500D01*
X98106286Y-109475500D01*
X98106287Y-109475500D01*
X98316243Y-109442246D01*
X98518412Y-109376557D01*
X98707816Y-109280051D01*
X98747038Y-109251555D01*
X98879786Y-109155109D01*
X98879788Y-109155106D01*
X98879792Y-109155104D01*
X99030104Y-109004792D01*
X99149683Y-108840204D01*
X99205011Y-108797540D01*
X99274624Y-108791561D01*
X99336420Y-108824166D01*
X99350313Y-108840199D01*
X99379079Y-108879792D01*
X99469896Y-109004792D01*
X99620213Y-109155109D01*
X99792179Y-109280048D01*
X99792181Y-109280049D01*
X99792184Y-109280051D01*
X99981588Y-109376557D01*
X100183757Y-109442246D01*
X100393713Y-109475500D01*
X100393714Y-109475500D01*
X100606286Y-109475500D01*
X100606287Y-109475500D01*
X100816243Y-109442246D01*
X101018412Y-109376557D01*
X101207816Y-109280051D01*
X101247038Y-109251555D01*
X101379786Y-109155109D01*
X101379788Y-109155106D01*
X101379792Y-109155104D01*
X101530104Y-109004792D01*
X101530106Y-109004788D01*
X101530109Y-109004786D01*
X101655048Y-108832820D01*
X101655047Y-108832820D01*
X101655051Y-108832816D01*
X101751557Y-108643412D01*
X101817246Y-108441243D01*
X101850500Y-108231287D01*
X101850500Y-107768713D01*
X101823469Y-107598048D01*
X101832423Y-107528758D01*
X101858258Y-107490975D01*
X107358506Y-101990728D01*
X107358511Y-101990724D01*
X107368714Y-101980520D01*
X107368716Y-101980520D01*
X107480520Y-101868716D01*
X107534937Y-101774462D01*
X107559577Y-101731785D01*
X107600500Y-101579057D01*
X107600500Y-101420943D01*
X107600500Y-100421153D01*
X109699500Y-100421153D01*
X109699500Y-100578846D01*
X109730261Y-100733489D01*
X109730264Y-100733501D01*
X109790602Y-100879172D01*
X109790609Y-100879185D01*
X109878210Y-101010288D01*
X109878213Y-101010292D01*
X109989707Y-101121786D01*
X109989711Y-101121789D01*
X110120814Y-101209390D01*
X110120827Y-101209397D01*
X110221907Y-101251265D01*
X110266503Y-101269737D01*
X110331147Y-101282595D01*
X110421849Y-101300638D01*
X110483760Y-101333023D01*
X110485339Y-101334574D01*
X111863181Y-102712416D01*
X111877884Y-102739343D01*
X111894477Y-102765162D01*
X111895368Y-102771362D01*
X111896666Y-102773739D01*
X111899500Y-102800097D01*
X111899500Y-102920234D01*
X111879815Y-102987273D01*
X111878602Y-102989125D01*
X111790609Y-103120814D01*
X111790602Y-103120827D01*
X111730264Y-103266498D01*
X111730261Y-103266510D01*
X111699500Y-103421153D01*
X111699500Y-103578846D01*
X111730261Y-103733489D01*
X111730264Y-103733501D01*
X111790602Y-103879172D01*
X111790609Y-103879185D01*
X111878210Y-104010288D01*
X111878213Y-104010292D01*
X111989707Y-104121786D01*
X111989711Y-104121789D01*
X112120814Y-104209390D01*
X112120827Y-104209397D01*
X112266498Y-104269735D01*
X112266503Y-104269737D01*
X112421153Y-104300499D01*
X112421156Y-104300500D01*
X112421158Y-104300500D01*
X112578844Y-104300500D01*
X112578845Y-104300499D01*
X112733497Y-104269737D01*
X112879179Y-104209394D01*
X113010289Y-104121789D01*
X113012091Y-104119986D01*
X113013267Y-104119344D01*
X113014993Y-104117928D01*
X113015261Y-104118255D01*
X113073409Y-104086498D01*
X113123965Y-104086045D01*
X113183371Y-104097861D01*
X113195709Y-104100316D01*
X113195710Y-104100316D01*
X113353396Y-104100316D01*
X113353397Y-104100315D01*
X113508049Y-104069553D01*
X113651126Y-104010289D01*
X113653724Y-104009213D01*
X113653724Y-104009212D01*
X113653731Y-104009210D01*
X113784841Y-103921605D01*
X113827274Y-103879172D01*
X113875373Y-103831074D01*
X113936696Y-103797589D01*
X113963054Y-103794755D01*
X114092745Y-103794755D01*
X114092746Y-103794754D01*
X114247398Y-103763992D01*
X114393080Y-103703649D01*
X114524190Y-103616044D01*
X114635690Y-103504544D01*
X114723295Y-103373434D01*
X114783638Y-103227752D01*
X114814401Y-103073097D01*
X114814401Y-102915413D01*
X114814401Y-102915410D01*
X114814400Y-102915408D01*
X114783639Y-102760765D01*
X114783638Y-102760758D01*
X114774768Y-102739343D01*
X114723298Y-102615082D01*
X114723291Y-102615069D01*
X114635299Y-102483380D01*
X114614421Y-102416702D01*
X114614401Y-102414489D01*
X114614401Y-101840212D01*
X114614402Y-101840199D01*
X114614402Y-101672098D01*
X114614402Y-101672096D01*
X114573478Y-101519368D01*
X114516652Y-101420943D01*
X114494421Y-101382437D01*
X114382617Y-101270633D01*
X114382614Y-101270631D01*
X112465948Y-99353965D01*
X112432463Y-99292642D01*
X112432012Y-99290475D01*
X112406635Y-99162901D01*
X112401111Y-99135129D01*
X112390080Y-99108498D01*
X112340771Y-98989453D01*
X112340764Y-98989440D01*
X112253163Y-98858337D01*
X112253160Y-98858333D01*
X112141666Y-98746839D01*
X112141662Y-98746836D01*
X112010559Y-98659235D01*
X112010546Y-98659228D01*
X111864875Y-98598890D01*
X111864863Y-98598887D01*
X111710219Y-98568126D01*
X111710216Y-98568126D01*
X111552532Y-98568126D01*
X111552529Y-98568126D01*
X111397884Y-98598887D01*
X111397872Y-98598890D01*
X111252201Y-98659228D01*
X111252188Y-98659235D01*
X111121085Y-98746836D01*
X111121081Y-98746839D01*
X111009587Y-98858333D01*
X111009584Y-98858337D01*
X110921983Y-98989440D01*
X110921978Y-98989450D01*
X110872667Y-99108498D01*
X110828826Y-99162901D01*
X110805559Y-99175606D01*
X110686511Y-99224917D01*
X110686501Y-99224922D01*
X110555398Y-99312523D01*
X110555394Y-99312526D01*
X110443900Y-99424020D01*
X110443897Y-99424024D01*
X110356296Y-99555127D01*
X110356291Y-99555137D01*
X110306980Y-99674185D01*
X110263139Y-99728588D01*
X110239872Y-99741293D01*
X110120824Y-99790604D01*
X110120814Y-99790609D01*
X109989711Y-99878210D01*
X109989707Y-99878213D01*
X109878213Y-99989707D01*
X109878210Y-99989711D01*
X109790609Y-100120814D01*
X109790602Y-100120827D01*
X109730264Y-100266498D01*
X109730261Y-100266510D01*
X109699500Y-100421153D01*
X107600500Y-100421153D01*
X107600500Y-96579765D01*
X107620185Y-96512726D01*
X107621398Y-96510874D01*
X107709390Y-96379185D01*
X107709390Y-96379184D01*
X107709394Y-96379179D01*
X107769737Y-96233497D01*
X107800500Y-96078842D01*
X107800500Y-95921158D01*
X107800500Y-95921155D01*
X107800499Y-95921153D01*
X107791059Y-95873691D01*
X107797286Y-95804099D01*
X107840149Y-95748922D01*
X107906039Y-95725678D01*
X107912676Y-95725500D01*
X113135040Y-95725500D01*
X113182492Y-95734939D01*
X113219826Y-95750403D01*
X113266503Y-95769737D01*
X113417714Y-95799815D01*
X113421153Y-95800499D01*
X113421156Y-95800500D01*
X113421158Y-95800500D01*
X113578844Y-95800500D01*
X113578845Y-95800499D01*
X113733497Y-95769737D01*
X113879179Y-95709394D01*
X114010289Y-95621789D01*
X114121789Y-95510289D01*
X114135764Y-95489374D01*
X114146898Y-95472712D01*
X114200510Y-95427906D01*
X114269835Y-95419199D01*
X114332862Y-95449353D01*
X114353102Y-95472712D01*
X114378207Y-95510284D01*
X114378213Y-95510292D01*
X114489707Y-95621786D01*
X114489711Y-95621789D01*
X114620814Y-95709390D01*
X114620827Y-95709397D01*
X114758695Y-95766503D01*
X114766503Y-95769737D01*
X114917714Y-95799815D01*
X114921153Y-95800499D01*
X114921156Y-95800500D01*
X114921158Y-95800500D01*
X115078844Y-95800500D01*
X115078845Y-95800499D01*
X115233497Y-95769737D01*
X115379179Y-95709394D01*
X115510289Y-95621789D01*
X115621789Y-95510289D01*
X115672398Y-95434548D01*
X115726010Y-95389743D01*
X115795335Y-95381036D01*
X115858363Y-95411190D01*
X115895082Y-95470634D01*
X115899500Y-95503439D01*
X115899500Y-106589281D01*
X115879815Y-106656320D01*
X115831795Y-106699765D01*
X115792185Y-106719947D01*
X115792184Y-106719948D01*
X115620213Y-106844890D01*
X115469894Y-106995209D01*
X115469890Y-106995214D01*
X115350318Y-107159793D01*
X115294989Y-107202459D01*
X115225375Y-107208438D01*
X115163580Y-107175833D01*
X115149682Y-107159793D01*
X115030109Y-106995214D01*
X115030105Y-106995209D01*
X114879786Y-106844890D01*
X114707820Y-106719951D01*
X114518414Y-106623444D01*
X114518413Y-106623443D01*
X114518412Y-106623443D01*
X114316243Y-106557754D01*
X114316241Y-106557753D01*
X114316240Y-106557753D01*
X114154957Y-106532208D01*
X114106287Y-106524500D01*
X113893713Y-106524500D01*
X113845042Y-106532208D01*
X113683760Y-106557753D01*
X113481585Y-106623444D01*
X113292179Y-106719951D01*
X113120213Y-106844890D01*
X112969894Y-106995209D01*
X112969890Y-106995214D01*
X112850318Y-107159793D01*
X112794989Y-107202459D01*
X112725375Y-107208438D01*
X112663580Y-107175833D01*
X112649682Y-107159793D01*
X112530109Y-106995214D01*
X112530105Y-106995209D01*
X112379786Y-106844890D01*
X112207820Y-106719951D01*
X112018414Y-106623444D01*
X112018413Y-106623443D01*
X112018412Y-106623443D01*
X111816243Y-106557754D01*
X111816241Y-106557753D01*
X111816240Y-106557753D01*
X111654957Y-106532208D01*
X111606287Y-106524500D01*
X111393713Y-106524500D01*
X111345042Y-106532208D01*
X111183760Y-106557753D01*
X110981585Y-106623444D01*
X110792179Y-106719951D01*
X110620215Y-106844889D01*
X110481398Y-106983706D01*
X110420075Y-107017190D01*
X110350383Y-107012206D01*
X110294450Y-106970334D01*
X110288178Y-106961120D01*
X110192712Y-106806344D01*
X110068657Y-106682289D01*
X110068656Y-106682288D01*
X109943969Y-106605381D01*
X109919336Y-106590187D01*
X109919331Y-106590185D01*
X109916603Y-106589281D01*
X109752797Y-106535001D01*
X109752795Y-106535000D01*
X109650010Y-106524500D01*
X108349998Y-106524500D01*
X108349981Y-106524501D01*
X108247203Y-106535000D01*
X108247200Y-106535001D01*
X108080668Y-106590185D01*
X108080663Y-106590187D01*
X107931342Y-106682289D01*
X107807289Y-106806342D01*
X107715187Y-106955663D01*
X107715185Y-106955668D01*
X107710325Y-106970334D01*
X107660001Y-107122203D01*
X107660001Y-107122204D01*
X107660000Y-107122204D01*
X107649500Y-107224983D01*
X107649500Y-108775001D01*
X107649501Y-108775018D01*
X107660000Y-108877796D01*
X107660001Y-108877799D01*
X107705894Y-109016294D01*
X107715186Y-109044334D01*
X107807288Y-109193656D01*
X107931344Y-109317712D01*
X108080666Y-109409814D01*
X108247203Y-109464999D01*
X108349991Y-109475500D01*
X109650008Y-109475499D01*
X109752797Y-109464999D01*
X109919334Y-109409814D01*
X110068656Y-109317712D01*
X110192712Y-109193656D01*
X110284814Y-109044334D01*
X110284814Y-109044331D01*
X110288178Y-109038879D01*
X110340126Y-108992154D01*
X110409088Y-108980931D01*
X110473170Y-109008774D01*
X110481398Y-109016294D01*
X110620213Y-109155109D01*
X110792179Y-109280048D01*
X110792181Y-109280049D01*
X110792184Y-109280051D01*
X110981588Y-109376557D01*
X111183757Y-109442246D01*
X111393713Y-109475500D01*
X111393714Y-109475500D01*
X111606286Y-109475500D01*
X111606287Y-109475500D01*
X111816243Y-109442246D01*
X112018412Y-109376557D01*
X112207816Y-109280051D01*
X112247038Y-109251555D01*
X112379786Y-109155109D01*
X112379788Y-109155106D01*
X112379792Y-109155104D01*
X112530104Y-109004792D01*
X112649683Y-108840204D01*
X112705011Y-108797540D01*
X112774624Y-108791561D01*
X112836420Y-108824166D01*
X112850313Y-108840199D01*
X112879079Y-108879792D01*
X112969896Y-109004792D01*
X113120213Y-109155109D01*
X113292179Y-109280048D01*
X113292181Y-109280049D01*
X113292184Y-109280051D01*
X113481588Y-109376557D01*
X113683757Y-109442246D01*
X113893713Y-109475500D01*
X113893714Y-109475500D01*
X114106286Y-109475500D01*
X114106287Y-109475500D01*
X114316243Y-109442246D01*
X114518412Y-109376557D01*
X114707816Y-109280051D01*
X114747038Y-109251555D01*
X114879786Y-109155109D01*
X114879788Y-109155106D01*
X114879792Y-109155104D01*
X115030104Y-109004792D01*
X115149683Y-108840204D01*
X115205011Y-108797540D01*
X115274624Y-108791561D01*
X115336420Y-108824166D01*
X115350313Y-108840199D01*
X115379079Y-108879792D01*
X115469896Y-109004792D01*
X115620213Y-109155109D01*
X115792179Y-109280048D01*
X115792181Y-109280049D01*
X115792184Y-109280051D01*
X115981588Y-109376557D01*
X116183757Y-109442246D01*
X116393713Y-109475500D01*
X116393714Y-109475500D01*
X116606286Y-109475500D01*
X116606287Y-109475500D01*
X116816243Y-109442246D01*
X117018412Y-109376557D01*
X117207816Y-109280051D01*
X117247038Y-109251555D01*
X117379786Y-109155109D01*
X117379788Y-109155106D01*
X117379792Y-109155104D01*
X117530104Y-109004792D01*
X117649683Y-108840204D01*
X117705011Y-108797540D01*
X117774624Y-108791561D01*
X117836420Y-108824166D01*
X117850313Y-108840199D01*
X117879079Y-108879792D01*
X117969896Y-109004792D01*
X118120213Y-109155109D01*
X118292179Y-109280048D01*
X118292181Y-109280049D01*
X118292184Y-109280051D01*
X118481588Y-109376557D01*
X118683757Y-109442246D01*
X118893713Y-109475500D01*
X118893714Y-109475500D01*
X119106286Y-109475500D01*
X119106287Y-109475500D01*
X119316243Y-109442246D01*
X119518412Y-109376557D01*
X119707816Y-109280051D01*
X119747038Y-109251555D01*
X119879786Y-109155109D01*
X119879788Y-109155106D01*
X119879792Y-109155104D01*
X120030104Y-109004792D01*
X120030106Y-109004788D01*
X120030109Y-109004786D01*
X120155048Y-108832820D01*
X120155047Y-108832820D01*
X120155051Y-108832816D01*
X120251557Y-108643412D01*
X120317246Y-108441243D01*
X120350500Y-108231287D01*
X120350500Y-107893713D01*
X125649500Y-107893713D01*
X125649500Y-108106286D01*
X125682753Y-108316239D01*
X125748444Y-108518414D01*
X125844951Y-108707820D01*
X125969890Y-108879786D01*
X126120213Y-109030109D01*
X126292179Y-109155048D01*
X126292181Y-109155049D01*
X126292184Y-109155051D01*
X126481588Y-109251557D01*
X126683757Y-109317246D01*
X126893713Y-109350500D01*
X126893714Y-109350500D01*
X127106286Y-109350500D01*
X127106287Y-109350500D01*
X127316243Y-109317246D01*
X127518412Y-109251557D01*
X127707816Y-109155051D01*
X127729789Y-109139086D01*
X127879786Y-109030109D01*
X127879788Y-109030106D01*
X127879792Y-109030104D01*
X128030104Y-108879792D01*
X128030106Y-108879788D01*
X128030109Y-108879786D01*
X128155048Y-108707820D01*
X128155047Y-108707820D01*
X128155051Y-108707816D01*
X128251557Y-108518412D01*
X128317246Y-108316243D01*
X128350500Y-108106287D01*
X128350500Y-107893713D01*
X128317246Y-107683757D01*
X128251557Y-107481588D01*
X128155051Y-107292184D01*
X128155049Y-107292181D01*
X128155048Y-107292179D01*
X128030109Y-107120213D01*
X127879786Y-106969890D01*
X127707820Y-106844951D01*
X127518414Y-106748444D01*
X127518413Y-106748443D01*
X127518412Y-106748443D01*
X127316243Y-106682754D01*
X127316241Y-106682753D01*
X127316240Y-106682753D01*
X127149346Y-106656320D01*
X127106287Y-106649500D01*
X126893713Y-106649500D01*
X126850654Y-106656320D01*
X126683760Y-106682753D01*
X126481585Y-106748444D01*
X126292179Y-106844951D01*
X126120213Y-106969890D01*
X125969890Y-107120213D01*
X125844951Y-107292179D01*
X125748444Y-107481585D01*
X125682753Y-107683760D01*
X125649500Y-107893713D01*
X120350500Y-107893713D01*
X120350500Y-107768713D01*
X120317246Y-107558757D01*
X120251557Y-107356588D01*
X120155051Y-107167184D01*
X120155049Y-107167181D01*
X120155048Y-107167179D01*
X120030109Y-106995213D01*
X119879786Y-106844890D01*
X119707815Y-106719948D01*
X119707814Y-106719947D01*
X119668205Y-106699765D01*
X119617409Y-106651791D01*
X119600500Y-106589281D01*
X119600500Y-93800097D01*
X119620185Y-93733058D01*
X119636819Y-93712416D01*
X121069256Y-92279979D01*
X122514662Y-90834572D01*
X122575983Y-90801089D01*
X122578150Y-90800638D01*
X122636085Y-90789113D01*
X122733497Y-90769737D01*
X122879179Y-90709394D01*
X123010289Y-90621789D01*
X123121789Y-90510289D01*
X123209394Y-90379179D01*
X123269737Y-90233497D01*
X123300500Y-90078842D01*
X123300500Y-89921158D01*
X123300500Y-89921155D01*
X123300499Y-89921153D01*
X123269738Y-89766510D01*
X123269738Y-89766508D01*
X123269737Y-89766503D01*
X123236295Y-89685766D01*
X123209397Y-89620827D01*
X123209390Y-89620814D01*
X123121789Y-89489711D01*
X123121786Y-89489707D01*
X123010292Y-89378213D01*
X123010288Y-89378210D01*
X122879185Y-89290609D01*
X122879172Y-89290602D01*
X122733501Y-89230264D01*
X122733489Y-89230261D01*
X122578845Y-89199500D01*
X122578842Y-89199500D01*
X122421158Y-89199500D01*
X122421155Y-89199500D01*
X122266510Y-89230261D01*
X122266498Y-89230264D01*
X122120827Y-89290602D01*
X122120814Y-89290609D01*
X121989711Y-89378210D01*
X121989707Y-89378213D01*
X121878213Y-89489707D01*
X121878210Y-89489711D01*
X121790609Y-89620814D01*
X121790602Y-89620827D01*
X121730264Y-89766498D01*
X121730261Y-89766508D01*
X121699361Y-89921850D01*
X121666976Y-89983761D01*
X121665425Y-89985339D01*
X118519481Y-93131282D01*
X118519480Y-93131284D01*
X118481556Y-93196971D01*
X118440423Y-93268215D01*
X118399499Y-93420943D01*
X118399499Y-93420945D01*
X118399499Y-93589046D01*
X118399500Y-93589059D01*
X118399500Y-99496560D01*
X118379815Y-99563599D01*
X118327011Y-99609354D01*
X118257853Y-99619298D01*
X118194297Y-99590273D01*
X118172398Y-99565451D01*
X118121789Y-99489711D01*
X118121786Y-99489707D01*
X118010292Y-99378213D01*
X118010288Y-99378210D01*
X117879185Y-99290609D01*
X117879172Y-99290602D01*
X117733501Y-99230264D01*
X117733489Y-99230261D01*
X117578845Y-99199500D01*
X117578842Y-99199500D01*
X117421158Y-99199500D01*
X117421155Y-99199500D01*
X117266510Y-99230261D01*
X117260676Y-99232031D01*
X117259873Y-99229385D01*
X117202056Y-99235396D01*
X117139687Y-99203902D01*
X117104245Y-99143689D01*
X117100500Y-99113444D01*
X117100500Y-93800097D01*
X117120185Y-93733058D01*
X117136819Y-93712416D01*
X118569256Y-92279979D01*
X120014662Y-90834572D01*
X120075983Y-90801089D01*
X120078150Y-90800638D01*
X120136085Y-90789113D01*
X120233497Y-90769737D01*
X120379179Y-90709394D01*
X120510289Y-90621789D01*
X120621789Y-90510289D01*
X120709394Y-90379179D01*
X120769737Y-90233497D01*
X120800500Y-90078842D01*
X120800500Y-89921158D01*
X120800500Y-89921155D01*
X120800499Y-89921153D01*
X120769738Y-89766510D01*
X120769738Y-89766508D01*
X120769737Y-89766503D01*
X120736295Y-89685766D01*
X120709397Y-89620827D01*
X120709390Y-89620814D01*
X120621789Y-89489711D01*
X120621786Y-89489707D01*
X120510292Y-89378213D01*
X120510288Y-89378210D01*
X120379185Y-89290609D01*
X120379172Y-89290602D01*
X120233501Y-89230264D01*
X120233489Y-89230261D01*
X120078845Y-89199500D01*
X120078842Y-89199500D01*
X119921158Y-89199500D01*
X119921155Y-89199500D01*
X119766510Y-89230261D01*
X119766498Y-89230264D01*
X119620827Y-89290602D01*
X119620814Y-89290609D01*
X119489711Y-89378210D01*
X119489707Y-89378213D01*
X119378213Y-89489707D01*
X119378210Y-89489711D01*
X119290609Y-89620814D01*
X119290602Y-89620827D01*
X119230264Y-89766498D01*
X119230261Y-89766508D01*
X119199361Y-89921850D01*
X119166976Y-89983761D01*
X119165425Y-89985339D01*
X116019481Y-93131282D01*
X116019480Y-93131284D01*
X115981556Y-93196971D01*
X115940423Y-93268215D01*
X115899499Y-93420943D01*
X115899499Y-93420945D01*
X115899499Y-93589046D01*
X115899500Y-93589059D01*
X115899500Y-94496560D01*
X115879815Y-94563599D01*
X115827011Y-94609354D01*
X115757853Y-94619298D01*
X115694297Y-94590273D01*
X115672398Y-94565451D01*
X115621789Y-94489711D01*
X115621786Y-94489707D01*
X115510292Y-94378213D01*
X115510288Y-94378210D01*
X115379185Y-94290609D01*
X115379172Y-94290602D01*
X115233501Y-94230264D01*
X115233491Y-94230261D01*
X115078149Y-94199361D01*
X115016238Y-94166976D01*
X115014660Y-94165425D01*
X114762590Y-93913355D01*
X114762588Y-93913352D01*
X114643717Y-93794481D01*
X114643716Y-93794480D01*
X114556904Y-93744360D01*
X114556904Y-93744359D01*
X114556900Y-93744358D01*
X114506785Y-93715423D01*
X114354057Y-93674499D01*
X114195943Y-93674499D01*
X114188347Y-93674499D01*
X114188331Y-93674500D01*
X107744055Y-93674500D01*
X107677016Y-93654815D01*
X107631261Y-93602011D01*
X107621317Y-93532853D01*
X107640953Y-93481609D01*
X107709390Y-93379185D01*
X107709390Y-93379184D01*
X107709394Y-93379179D01*
X107769737Y-93233497D01*
X107800500Y-93078842D01*
X107800500Y-92921158D01*
X107800500Y-92921155D01*
X107800499Y-92921153D01*
X107769737Y-92766503D01*
X107740735Y-92696485D01*
X107709397Y-92620827D01*
X107709390Y-92620814D01*
X107621398Y-92489125D01*
X107600520Y-92422447D01*
X107600500Y-92420234D01*
X107600500Y-91300097D01*
X107620185Y-91233058D01*
X107636819Y-91212416D01*
X112212416Y-86636819D01*
X112273739Y-86603334D01*
X112300097Y-86600500D01*
X120420234Y-86600500D01*
X120487273Y-86620185D01*
X120489125Y-86621398D01*
X120620814Y-86709390D01*
X120620827Y-86709397D01*
X120766498Y-86769735D01*
X120766503Y-86769737D01*
X120900446Y-86796380D01*
X120921153Y-86800499D01*
X120921156Y-86800500D01*
X120921158Y-86800500D01*
X121078844Y-86800500D01*
X121078845Y-86800499D01*
X121233497Y-86769737D01*
X121379179Y-86709394D01*
X121510289Y-86621789D01*
X121621789Y-86510289D01*
X121709394Y-86379179D01*
X121715582Y-86364241D01*
X121769735Y-86233501D01*
X121769737Y-86233497D01*
X121800500Y-86078842D01*
X121800500Y-85921158D01*
X121800500Y-85921155D01*
X121800499Y-85921153D01*
X121796368Y-85900384D01*
X121769737Y-85766503D01*
X121769718Y-85766457D01*
X121709397Y-85620827D01*
X121709390Y-85620814D01*
X121621789Y-85489711D01*
X121621786Y-85489707D01*
X121510292Y-85378213D01*
X121510288Y-85378210D01*
X121379185Y-85290609D01*
X121379172Y-85290602D01*
X121254738Y-85239061D01*
X121200334Y-85195221D01*
X121178269Y-85128926D01*
X121195548Y-85061227D01*
X121246685Y-85013616D01*
X121302190Y-85000500D01*
X121527719Y-85000500D01*
X121594758Y-85020185D01*
X121615400Y-85036819D01*
X122879333Y-86300752D01*
X122912818Y-86362075D01*
X122913269Y-86364241D01*
X122944169Y-86519583D01*
X122944172Y-86519593D01*
X123004510Y-86665264D01*
X123004517Y-86665277D01*
X123092118Y-86796380D01*
X123092121Y-86796384D01*
X123203615Y-86907878D01*
X123203619Y-86907881D01*
X123334722Y-86995482D01*
X123334735Y-86995489D01*
X123480406Y-87055827D01*
X123480411Y-87055829D01*
X123635061Y-87086591D01*
X123635064Y-87086592D01*
X123635066Y-87086592D01*
X123792752Y-87086592D01*
X123792753Y-87086591D01*
X123947405Y-87055829D01*
X124093087Y-86995486D01*
X124224197Y-86907881D01*
X124335697Y-86796381D01*
X124423302Y-86665271D01*
X124483645Y-86519589D01*
X124514408Y-86364934D01*
X124514408Y-86207250D01*
X124514408Y-86207247D01*
X124514407Y-86207245D01*
X124483645Y-86052595D01*
X124453791Y-85980520D01*
X124423305Y-85906919D01*
X124423298Y-85906906D01*
X124335697Y-85775803D01*
X124335694Y-85775799D01*
X124224200Y-85664305D01*
X124224196Y-85664302D01*
X124093093Y-85576701D01*
X124093080Y-85576694D01*
X123947409Y-85516356D01*
X123947399Y-85516353D01*
X123792057Y-85485453D01*
X123730146Y-85453068D01*
X123728568Y-85451517D01*
X122315406Y-84038355D01*
X122315404Y-84038352D01*
X122196533Y-83919481D01*
X122196532Y-83919480D01*
X122109720Y-83869360D01*
X122109720Y-83869359D01*
X122109716Y-83869358D01*
X122059601Y-83840423D01*
X121906873Y-83799499D01*
X121748759Y-83799499D01*
X121741163Y-83799499D01*
X121741147Y-83799500D01*
X111982000Y-83799500D01*
X111823885Y-83799500D01*
X111671158Y-83840423D01*
X111671157Y-83840423D01*
X111671155Y-83840424D01*
X111671152Y-83840425D01*
X111621039Y-83869359D01*
X111621038Y-83869360D01*
X111577632Y-83894420D01*
X111534228Y-83919479D01*
X111534225Y-83919481D01*
X107393921Y-88059786D01*
X107332598Y-88093271D01*
X107262906Y-88088287D01*
X107237349Y-88075207D01*
X107124443Y-87999765D01*
X107124430Y-87999758D01*
X106978759Y-87939420D01*
X106978749Y-87939417D01*
X106823409Y-87908518D01*
X106761499Y-87876133D01*
X106759920Y-87874582D01*
X105636819Y-86751481D01*
X105603334Y-86690158D01*
X105600500Y-86663800D01*
X105600500Y-81410718D01*
X105620185Y-81343679D01*
X105668207Y-81300233D01*
X105707815Y-81280052D01*
X105707815Y-81280051D01*
X105707816Y-81280051D01*
X105826728Y-81193657D01*
X105879786Y-81155109D01*
X105879788Y-81155106D01*
X105879792Y-81155104D01*
X106030104Y-81004792D01*
X106149683Y-80840204D01*
X106205011Y-80797540D01*
X106274624Y-80791561D01*
X106336420Y-80824166D01*
X106350313Y-80840199D01*
X106379079Y-80879792D01*
X106469896Y-81004792D01*
X106620213Y-81155109D01*
X106792179Y-81280048D01*
X106792181Y-81280049D01*
X106792184Y-81280051D01*
X106981588Y-81376557D01*
X107183757Y-81442246D01*
X107350095Y-81468591D01*
X107413228Y-81498520D01*
X107450160Y-81557831D01*
X107449162Y-81627694D01*
X107410552Y-81685927D01*
X107354888Y-81712681D01*
X107266508Y-81730261D01*
X107266498Y-81730264D01*
X107120827Y-81790602D01*
X107120814Y-81790609D01*
X106989711Y-81878210D01*
X106989707Y-81878213D01*
X106878213Y-81989707D01*
X106878210Y-81989711D01*
X106790609Y-82120814D01*
X106790602Y-82120827D01*
X106730264Y-82266498D01*
X106730261Y-82266510D01*
X106699500Y-82421153D01*
X106699500Y-82578846D01*
X106730261Y-82733489D01*
X106730264Y-82733501D01*
X106790602Y-82879172D01*
X106790609Y-82879185D01*
X106878210Y-83010288D01*
X106878213Y-83010292D01*
X106989707Y-83121786D01*
X106989711Y-83121789D01*
X107120814Y-83209390D01*
X107120827Y-83209397D01*
X107266498Y-83269735D01*
X107266503Y-83269737D01*
X107331147Y-83282595D01*
X107421849Y-83300638D01*
X107483760Y-83333023D01*
X107485339Y-83334574D01*
X108563181Y-84412416D01*
X108596666Y-84473739D01*
X108599500Y-84500097D01*
X108599500Y-84578846D01*
X108630261Y-84733489D01*
X108630264Y-84733501D01*
X108690602Y-84879172D01*
X108690609Y-84879185D01*
X108778210Y-85010288D01*
X108778213Y-85010292D01*
X108889707Y-85121786D01*
X108889711Y-85121789D01*
X109020814Y-85209390D01*
X109020827Y-85209397D01*
X109093716Y-85239588D01*
X109166503Y-85269737D01*
X109321153Y-85300499D01*
X109321156Y-85300500D01*
X109321158Y-85300500D01*
X109478844Y-85300500D01*
X109478845Y-85300499D01*
X109633497Y-85269737D01*
X109779179Y-85209394D01*
X109910289Y-85121789D01*
X110021789Y-85010289D01*
X110109394Y-84879179D01*
X110169737Y-84733497D01*
X110200500Y-84578842D01*
X110200500Y-84421158D01*
X110200500Y-84421155D01*
X110200499Y-84421153D01*
X110169738Y-84266510D01*
X110169737Y-84266503D01*
X110169735Y-84266498D01*
X110109397Y-84120827D01*
X110109390Y-84120814D01*
X110021789Y-83989711D01*
X110021786Y-83989707D01*
X109910292Y-83878213D01*
X109910288Y-83878210D01*
X109779185Y-83790609D01*
X109779172Y-83790602D01*
X109633499Y-83730263D01*
X109633493Y-83730261D01*
X109602980Y-83724192D01*
X109541070Y-83691806D01*
X109539492Y-83690256D01*
X108334573Y-82485337D01*
X108301088Y-82424014D01*
X108300637Y-82421847D01*
X108274531Y-82290606D01*
X108269737Y-82266503D01*
X108269735Y-82266498D01*
X108209397Y-82120827D01*
X108209390Y-82120814D01*
X108121789Y-81989711D01*
X108121786Y-81989707D01*
X108010292Y-81878213D01*
X108010288Y-81878210D01*
X107879185Y-81790609D01*
X107879172Y-81790602D01*
X107733501Y-81730264D01*
X107733491Y-81730261D01*
X107645111Y-81712681D01*
X107583200Y-81680296D01*
X107548626Y-81619580D01*
X107552367Y-81549810D01*
X107593233Y-81493139D01*
X107649903Y-81468591D01*
X107816243Y-81442246D01*
X108018412Y-81376557D01*
X108207816Y-81280051D01*
X108305068Y-81209394D01*
X108379786Y-81155109D01*
X108379788Y-81155106D01*
X108379792Y-81155104D01*
X108530104Y-81004792D01*
X108530106Y-81004788D01*
X108530109Y-81004786D01*
X108655048Y-80832820D01*
X108655047Y-80832820D01*
X108655051Y-80832816D01*
X108751557Y-80643412D01*
X108817246Y-80441243D01*
X108820428Y-80421153D01*
X120699500Y-80421153D01*
X120699500Y-80578846D01*
X120730261Y-80733489D01*
X120730264Y-80733501D01*
X120790602Y-80879172D01*
X120790609Y-80879185D01*
X120878210Y-81010288D01*
X120878213Y-81010292D01*
X120989707Y-81121786D01*
X120989711Y-81121789D01*
X121120814Y-81209390D01*
X121120827Y-81209397D01*
X121222607Y-81251555D01*
X121266503Y-81269737D01*
X121318340Y-81280048D01*
X121421849Y-81300638D01*
X121483760Y-81333023D01*
X121485339Y-81334574D01*
X123165425Y-83014660D01*
X123198910Y-83075983D01*
X123199361Y-83078149D01*
X123230261Y-83233491D01*
X123230264Y-83233501D01*
X123290602Y-83379172D01*
X123290609Y-83379185D01*
X123378210Y-83510288D01*
X123378213Y-83510292D01*
X123489707Y-83621786D01*
X123489711Y-83621789D01*
X123620814Y-83709390D01*
X123620827Y-83709397D01*
X123766498Y-83769735D01*
X123766503Y-83769737D01*
X123916126Y-83799499D01*
X123921153Y-83800499D01*
X123921156Y-83800500D01*
X123921158Y-83800500D01*
X124078844Y-83800500D01*
X124078845Y-83800499D01*
X124233497Y-83769737D01*
X124379179Y-83709394D01*
X124510289Y-83621789D01*
X124621789Y-83510289D01*
X124709394Y-83379179D01*
X124769737Y-83233497D01*
X124800500Y-83078842D01*
X124800500Y-82921158D01*
X124800500Y-82921155D01*
X124800499Y-82921153D01*
X124769738Y-82766510D01*
X124769737Y-82766503D01*
X124756062Y-82733489D01*
X124709397Y-82620827D01*
X124709390Y-82620814D01*
X124621789Y-82489711D01*
X124621786Y-82489707D01*
X124510292Y-82378213D01*
X124510288Y-82378210D01*
X124379185Y-82290609D01*
X124379172Y-82290602D01*
X124233501Y-82230264D01*
X124233491Y-82230261D01*
X124078149Y-82199361D01*
X124016238Y-82166976D01*
X124014660Y-82165425D01*
X122334574Y-80485339D01*
X122301089Y-80424016D01*
X122300638Y-80421849D01*
X122269738Y-80266510D01*
X122269737Y-80266503D01*
X122255150Y-80231287D01*
X122209397Y-80120827D01*
X122209390Y-80120814D01*
X122121789Y-79989711D01*
X122121786Y-79989707D01*
X122025792Y-79893713D01*
X125649500Y-79893713D01*
X125649500Y-80106287D01*
X125682754Y-80316243D01*
X125723368Y-80441240D01*
X125748444Y-80518414D01*
X125844951Y-80707820D01*
X125969890Y-80879786D01*
X126120213Y-81030109D01*
X126292179Y-81155048D01*
X126292181Y-81155049D01*
X126292184Y-81155051D01*
X126481588Y-81251557D01*
X126683757Y-81317246D01*
X126893713Y-81350500D01*
X126893714Y-81350500D01*
X127106286Y-81350500D01*
X127106287Y-81350500D01*
X127316243Y-81317246D01*
X127518412Y-81251557D01*
X127707816Y-81155051D01*
X127753602Y-81121786D01*
X127879786Y-81030109D01*
X127879788Y-81030106D01*
X127879792Y-81030104D01*
X128030104Y-80879792D01*
X128030106Y-80879788D01*
X128030109Y-80879786D01*
X128155048Y-80707820D01*
X128155047Y-80707820D01*
X128155051Y-80707816D01*
X128251557Y-80518412D01*
X128317246Y-80316243D01*
X128350500Y-80106287D01*
X128350500Y-79893713D01*
X128317246Y-79683757D01*
X128251557Y-79481588D01*
X128155051Y-79292184D01*
X128155049Y-79292181D01*
X128155048Y-79292179D01*
X128030109Y-79120213D01*
X127879786Y-78969890D01*
X127707820Y-78844951D01*
X127518414Y-78748444D01*
X127518413Y-78748443D01*
X127518412Y-78748443D01*
X127316243Y-78682754D01*
X127316241Y-78682753D01*
X127316240Y-78682753D01*
X127154957Y-78657208D01*
X127106287Y-78649500D01*
X126893713Y-78649500D01*
X126845042Y-78657208D01*
X126683760Y-78682753D01*
X126481585Y-78748444D01*
X126292179Y-78844951D01*
X126120213Y-78969890D01*
X125969890Y-79120213D01*
X125844951Y-79292179D01*
X125748444Y-79481585D01*
X125682753Y-79683760D01*
X125665830Y-79790609D01*
X125649500Y-79893713D01*
X122025792Y-79893713D01*
X122010292Y-79878213D01*
X122010288Y-79878210D01*
X121879185Y-79790609D01*
X121879172Y-79790602D01*
X121733501Y-79730264D01*
X121733489Y-79730261D01*
X121578845Y-79699500D01*
X121578842Y-79699500D01*
X121421158Y-79699500D01*
X121421155Y-79699500D01*
X121266510Y-79730261D01*
X121266498Y-79730264D01*
X121120827Y-79790602D01*
X121120814Y-79790609D01*
X120989711Y-79878210D01*
X120989707Y-79878213D01*
X120878213Y-79989707D01*
X120878210Y-79989711D01*
X120790609Y-80120814D01*
X120790602Y-80120827D01*
X120730264Y-80266498D01*
X120730261Y-80266510D01*
X120699500Y-80421153D01*
X108820428Y-80421153D01*
X108850500Y-80231287D01*
X108850500Y-79768713D01*
X108817246Y-79558757D01*
X108751557Y-79356588D01*
X108655051Y-79167184D01*
X108655049Y-79167181D01*
X108655048Y-79167179D01*
X108530109Y-78995213D01*
X108379786Y-78844890D01*
X108207820Y-78719951D01*
X108018414Y-78623444D01*
X108018413Y-78623443D01*
X108018412Y-78623443D01*
X107816243Y-78557754D01*
X107816241Y-78557753D01*
X107816240Y-78557753D01*
X107654957Y-78532208D01*
X107606287Y-78524500D01*
X107393713Y-78524500D01*
X107345042Y-78532208D01*
X107183760Y-78557753D01*
X106981585Y-78623444D01*
X106792179Y-78719951D01*
X106620213Y-78844890D01*
X106469894Y-78995209D01*
X106469890Y-78995214D01*
X106350318Y-79159793D01*
X106294989Y-79202459D01*
X106225375Y-79208438D01*
X106163580Y-79175833D01*
X106149682Y-79159793D01*
X106030109Y-78995214D01*
X106030105Y-78995209D01*
X105879786Y-78844890D01*
X105707820Y-78719951D01*
X105518414Y-78623444D01*
X105518413Y-78623443D01*
X105518412Y-78623443D01*
X105316243Y-78557754D01*
X105316241Y-78557753D01*
X105316240Y-78557753D01*
X105154957Y-78532208D01*
X105106287Y-78524500D01*
X104893713Y-78524500D01*
X104845042Y-78532208D01*
X104683760Y-78557753D01*
X104481585Y-78623444D01*
X104292179Y-78719951D01*
X104120213Y-78844890D01*
X103969894Y-78995209D01*
X103969890Y-78995214D01*
X103850318Y-79159793D01*
X103794989Y-79202459D01*
X103725375Y-79208438D01*
X103663580Y-79175833D01*
X103649682Y-79159793D01*
X103530109Y-78995214D01*
X103530105Y-78995209D01*
X103379786Y-78844890D01*
X103207820Y-78719951D01*
X103018414Y-78623444D01*
X103018413Y-78623443D01*
X103018412Y-78623443D01*
X102816243Y-78557754D01*
X102816241Y-78557753D01*
X102816240Y-78557753D01*
X102654957Y-78532208D01*
X102606287Y-78524500D01*
X102393713Y-78524500D01*
X102345042Y-78532208D01*
X102183760Y-78557753D01*
X101981585Y-78623444D01*
X101792179Y-78719951D01*
X101620213Y-78844890D01*
X101469894Y-78995209D01*
X101469890Y-78995214D01*
X101350318Y-79159793D01*
X101294989Y-79202459D01*
X101225375Y-79208438D01*
X101163580Y-79175833D01*
X101149682Y-79159793D01*
X101030109Y-78995214D01*
X101030105Y-78995209D01*
X100879786Y-78844890D01*
X100707820Y-78719951D01*
X100518414Y-78623444D01*
X100518413Y-78623443D01*
X100518412Y-78623443D01*
X100316243Y-78557754D01*
X100316241Y-78557753D01*
X100316240Y-78557753D01*
X100154957Y-78532208D01*
X100106287Y-78524500D01*
X99893713Y-78524500D01*
X99845042Y-78532208D01*
X99683760Y-78557753D01*
X99481585Y-78623444D01*
X99292179Y-78719951D01*
X99120213Y-78844890D01*
X98969894Y-78995209D01*
X98969890Y-78995214D01*
X98850318Y-79159793D01*
X98794989Y-79202459D01*
X98725375Y-79208438D01*
X98663580Y-79175833D01*
X98649682Y-79159793D01*
X98530109Y-78995214D01*
X98530105Y-78995209D01*
X98379786Y-78844890D01*
X98207820Y-78719951D01*
X98018414Y-78623444D01*
X98018413Y-78623443D01*
X98018412Y-78623443D01*
X97816243Y-78557754D01*
X97816241Y-78557753D01*
X97816240Y-78557753D01*
X97654957Y-78532208D01*
X97606287Y-78524500D01*
X97393713Y-78524500D01*
X97345042Y-78532208D01*
X97183760Y-78557753D01*
X96981585Y-78623444D01*
X96792179Y-78719951D01*
X96620213Y-78844890D01*
X96469894Y-78995209D01*
X96469890Y-78995214D01*
X96350318Y-79159793D01*
X96294989Y-79202459D01*
X96225375Y-79208438D01*
X96163580Y-79175833D01*
X96149682Y-79159793D01*
X96030109Y-78995214D01*
X96030105Y-78995209D01*
X95879786Y-78844890D01*
X95707820Y-78719951D01*
X95518414Y-78623444D01*
X95518413Y-78623443D01*
X95518412Y-78623443D01*
X95316243Y-78557754D01*
X95316241Y-78557753D01*
X95316240Y-78557753D01*
X95154957Y-78532208D01*
X95106287Y-78524500D01*
X94893713Y-78524500D01*
X94845042Y-78532208D01*
X94683760Y-78557753D01*
X94481585Y-78623444D01*
X94292179Y-78719951D01*
X94120213Y-78844890D01*
X93969894Y-78995209D01*
X93969890Y-78995214D01*
X93850318Y-79159793D01*
X93794989Y-79202459D01*
X93725375Y-79208438D01*
X93663580Y-79175833D01*
X93649682Y-79159793D01*
X93530109Y-78995214D01*
X93530105Y-78995209D01*
X93379786Y-78844890D01*
X93207820Y-78719951D01*
X93018414Y-78623444D01*
X93018413Y-78623443D01*
X93018412Y-78623443D01*
X92816243Y-78557754D01*
X92816241Y-78557753D01*
X92816240Y-78557753D01*
X92654957Y-78532208D01*
X92606287Y-78524500D01*
X92393713Y-78524500D01*
X92345042Y-78532208D01*
X92183760Y-78557753D01*
X91981585Y-78623444D01*
X91792179Y-78719951D01*
X91620215Y-78844889D01*
X91481398Y-78983706D01*
X91420075Y-79017190D01*
X91350383Y-79012206D01*
X91294450Y-78970334D01*
X91288178Y-78961120D01*
X91192712Y-78806344D01*
X91068657Y-78682289D01*
X91068656Y-78682288D01*
X90919334Y-78590186D01*
X90752797Y-78535001D01*
X90752795Y-78535000D01*
X90650010Y-78524500D01*
X89349998Y-78524500D01*
X89349981Y-78524501D01*
X89247203Y-78535000D01*
X89247200Y-78535001D01*
X89080668Y-78590185D01*
X89080663Y-78590187D01*
X88931342Y-78682289D01*
X88807289Y-78806342D01*
X88715187Y-78955663D01*
X88715185Y-78955668D01*
X88710325Y-78970334D01*
X88660001Y-79122203D01*
X88660001Y-79122204D01*
X88660000Y-79122204D01*
X88649500Y-79224983D01*
X88649500Y-80775001D01*
X88649501Y-80775018D01*
X88660000Y-80877796D01*
X88660001Y-80877799D01*
X88705894Y-81016294D01*
X88715186Y-81044334D01*
X88807288Y-81193656D01*
X88931344Y-81317712D01*
X89080666Y-81409814D01*
X89247203Y-81464999D01*
X89349991Y-81475500D01*
X90650008Y-81475499D01*
X90752797Y-81464999D01*
X90919334Y-81409814D01*
X91068656Y-81317712D01*
X91192712Y-81193656D01*
X91284814Y-81044334D01*
X91284814Y-81044331D01*
X91288178Y-81038879D01*
X91340126Y-80992154D01*
X91409088Y-80980931D01*
X91473170Y-81008774D01*
X91481398Y-81016294D01*
X91620213Y-81155109D01*
X91792179Y-81280048D01*
X91792181Y-81280049D01*
X91792184Y-81280051D01*
X91981588Y-81376557D01*
X92183757Y-81442246D01*
X92393713Y-81475500D01*
X92393714Y-81475500D01*
X92606286Y-81475500D01*
X92606287Y-81475500D01*
X92816243Y-81442246D01*
X93018412Y-81376557D01*
X93207816Y-81280051D01*
X93305068Y-81209394D01*
X93379786Y-81155109D01*
X93379788Y-81155106D01*
X93379792Y-81155104D01*
X93530104Y-81004792D01*
X93649683Y-80840204D01*
X93705011Y-80797540D01*
X93774624Y-80791561D01*
X93836420Y-80824166D01*
X93850313Y-80840199D01*
X93879079Y-80879792D01*
X93969896Y-81004792D01*
X94120213Y-81155109D01*
X94292179Y-81280048D01*
X94292181Y-81280049D01*
X94292184Y-81280051D01*
X94481588Y-81376557D01*
X94683757Y-81442246D01*
X94893713Y-81475500D01*
X94893714Y-81475500D01*
X95106286Y-81475500D01*
X95106287Y-81475500D01*
X95316243Y-81442246D01*
X95518412Y-81376557D01*
X95707816Y-81280051D01*
X95805068Y-81209394D01*
X95879786Y-81155109D01*
X95879788Y-81155106D01*
X95879792Y-81155104D01*
X96030104Y-81004792D01*
X96149683Y-80840204D01*
X96205011Y-80797540D01*
X96274624Y-80791561D01*
X96336420Y-80824166D01*
X96350313Y-80840199D01*
X96379079Y-80879792D01*
X96469896Y-81004792D01*
X96620213Y-81155109D01*
X96792179Y-81280048D01*
X96792181Y-81280049D01*
X96792184Y-81280051D01*
X96981588Y-81376557D01*
X97183757Y-81442246D01*
X97393713Y-81475500D01*
X97393714Y-81475500D01*
X97606286Y-81475500D01*
X97606287Y-81475500D01*
X97816243Y-81442246D01*
X98018412Y-81376557D01*
X98207816Y-81280051D01*
X98305068Y-81209394D01*
X98379786Y-81155109D01*
X98379788Y-81155106D01*
X98379792Y-81155104D01*
X98530104Y-81004792D01*
X98649683Y-80840204D01*
X98705011Y-80797540D01*
X98774624Y-80791561D01*
X98836420Y-80824166D01*
X98850313Y-80840199D01*
X98879079Y-80879792D01*
X98969896Y-81004792D01*
X99120213Y-81155109D01*
X99292184Y-81280051D01*
X99292184Y-81280052D01*
X99331793Y-81300233D01*
X99382590Y-81348206D01*
X99399500Y-81410718D01*
X99399500Y-84913330D01*
X99399499Y-84913348D01*
X99399499Y-85079054D01*
X99399498Y-85079054D01*
X99399499Y-85079057D01*
X99440423Y-85231785D01*
X99443225Y-85236638D01*
X99443226Y-85236639D01*
X99443226Y-85236640D01*
X99519477Y-85368712D01*
X99519481Y-85368717D01*
X99638349Y-85487585D01*
X99638355Y-85487590D01*
X104165425Y-90014660D01*
X104198910Y-90075983D01*
X104199361Y-90078149D01*
X104230261Y-90233491D01*
X104230264Y-90233501D01*
X104290602Y-90379172D01*
X104290609Y-90379185D01*
X104378210Y-90510288D01*
X104378213Y-90510292D01*
X104489707Y-90621786D01*
X104489711Y-90621789D01*
X104569218Y-90674915D01*
X104582727Y-90691079D01*
X104599594Y-90703706D01*
X104604684Y-90717353D01*
X104614023Y-90728528D01*
X104616648Y-90749430D01*
X104624011Y-90769171D01*
X104620915Y-90783402D01*
X104622730Y-90797853D01*
X104613637Y-90816857D01*
X104609159Y-90837444D01*
X104594274Y-90857328D01*
X104592575Y-90860880D01*
X104588009Y-90865698D01*
X104431286Y-91022421D01*
X104431285Y-91022421D01*
X104431284Y-91022422D01*
X104319481Y-91134225D01*
X104319480Y-91134227D01*
X104280046Y-91202529D01*
X104240423Y-91271158D01*
X104199499Y-91423886D01*
X104199499Y-91423888D01*
X104199499Y-91591989D01*
X104199500Y-91592002D01*
X104199500Y-92420234D01*
X104179815Y-92487273D01*
X104178602Y-92489125D01*
X104090609Y-92620814D01*
X104090602Y-92620827D01*
X104030264Y-92766498D01*
X104030261Y-92766510D01*
X103999500Y-92921153D01*
X103999500Y-93078846D01*
X104030261Y-93233489D01*
X104030264Y-93233501D01*
X104090602Y-93379172D01*
X104090609Y-93379185D01*
X104159047Y-93481609D01*
X104179925Y-93548287D01*
X104161440Y-93615667D01*
X104109462Y-93662357D01*
X104055945Y-93674500D01*
X91725097Y-93674500D01*
X91658058Y-93654815D01*
X91637416Y-93638181D01*
X89838727Y-91839492D01*
X89838725Y-91839489D01*
X89719854Y-91720618D01*
X89719853Y-91720617D01*
X89625424Y-91666099D01*
X89582922Y-91641560D01*
X89534153Y-91628491D01*
X89526231Y-91625139D01*
X89510504Y-91612265D01*
X89486878Y-91598624D01*
X89467604Y-91579349D01*
X89467601Y-91579347D01*
X89336498Y-91491746D01*
X89336485Y-91491739D01*
X89190814Y-91431401D01*
X89190802Y-91431398D01*
X89036158Y-91400637D01*
X89036155Y-91400637D01*
X88878471Y-91400637D01*
X88878468Y-91400637D01*
X88723823Y-91431398D01*
X88723811Y-91431401D01*
X88578140Y-91491739D01*
X88578127Y-91491746D01*
X88447024Y-91579347D01*
X88447020Y-91579350D01*
X88335526Y-91690844D01*
X88335523Y-91690848D01*
X88247922Y-91821951D01*
X88247915Y-91821964D01*
X88187577Y-91967635D01*
X88187574Y-91967647D01*
X88156813Y-92122290D01*
X83300500Y-92122290D01*
X83300500Y-88278543D01*
X84024499Y-88278543D01*
X84062947Y-88471829D01*
X84062950Y-88471839D01*
X84138364Y-88653907D01*
X84138371Y-88653920D01*
X84247860Y-88817781D01*
X84247863Y-88817785D01*
X84387214Y-88957136D01*
X84387218Y-88957139D01*
X84551079Y-89066628D01*
X84551092Y-89066635D01*
X84733160Y-89142049D01*
X84733165Y-89142051D01*
X84733169Y-89142051D01*
X84733170Y-89142052D01*
X84926456Y-89180500D01*
X84926459Y-89180500D01*
X85923543Y-89180500D01*
X86079462Y-89149485D01*
X86116835Y-89142051D01*
X86298914Y-89066632D01*
X86462782Y-88957139D01*
X86602139Y-88817782D01*
X86711632Y-88653914D01*
X86787051Y-88471835D01*
X86825500Y-88278543D01*
X88054499Y-88278543D01*
X88092947Y-88471829D01*
X88092950Y-88471839D01*
X88168364Y-88653907D01*
X88168371Y-88653920D01*
X88277860Y-88817781D01*
X88277863Y-88817785D01*
X88417214Y-88957136D01*
X88417218Y-88957139D01*
X88581079Y-89066628D01*
X88581083Y-89066630D01*
X88581086Y-89066632D01*
X88590523Y-89070541D01*
X88644927Y-89114378D01*
X88666995Y-89180672D01*
X88649719Y-89248372D01*
X88646565Y-89253032D01*
X88568719Y-89387863D01*
X88529500Y-89534234D01*
X88529500Y-89685765D01*
X88568719Y-89832136D01*
X88606602Y-89897750D01*
X88644485Y-89963365D01*
X88751635Y-90070515D01*
X88882865Y-90146281D01*
X89029234Y-90185500D01*
X89029236Y-90185500D01*
X89180764Y-90185500D01*
X89180766Y-90185500D01*
X89327135Y-90146281D01*
X89458365Y-90070515D01*
X89565515Y-89963365D01*
X89641281Y-89832135D01*
X89680500Y-89685766D01*
X89680500Y-89534234D01*
X89641281Y-89387865D01*
X89641278Y-89387859D01*
X89628947Y-89366501D01*
X89612473Y-89298602D01*
X89635325Y-89232574D01*
X89690245Y-89189383D01*
X89736333Y-89180500D01*
X90253543Y-89180500D01*
X90409462Y-89149485D01*
X90446835Y-89142051D01*
X90628914Y-89066632D01*
X90792782Y-88957139D01*
X90932139Y-88817782D01*
X91041632Y-88653914D01*
X91117051Y-88471835D01*
X91155500Y-88278541D01*
X91155500Y-88081459D01*
X91155500Y-88081456D01*
X91117052Y-87888170D01*
X91117051Y-87888169D01*
X91117051Y-87888165D01*
X91111425Y-87874582D01*
X91041635Y-87706092D01*
X91041628Y-87706079D01*
X90932139Y-87542218D01*
X90932136Y-87542214D01*
X90792785Y-87402863D01*
X90792781Y-87402860D01*
X90628920Y-87293371D01*
X90628907Y-87293364D01*
X90446839Y-87217950D01*
X90446829Y-87217947D01*
X90253543Y-87179500D01*
X90253541Y-87179500D01*
X88956459Y-87179500D01*
X88956457Y-87179500D01*
X88763170Y-87217947D01*
X88763160Y-87217950D01*
X88581092Y-87293364D01*
X88581079Y-87293371D01*
X88417218Y-87402860D01*
X88417214Y-87402863D01*
X88277863Y-87542214D01*
X88277860Y-87542218D01*
X88168371Y-87706079D01*
X88168364Y-87706092D01*
X88092950Y-87888160D01*
X88092947Y-87888170D01*
X88054500Y-88081456D01*
X88054500Y-88081459D01*
X88054500Y-88278541D01*
X88054500Y-88278543D01*
X88054499Y-88278543D01*
X86825500Y-88278543D01*
X86825500Y-88278541D01*
X86825500Y-88081459D01*
X86825500Y-88081456D01*
X86787052Y-87888170D01*
X86787051Y-87888169D01*
X86787051Y-87888165D01*
X86781425Y-87874582D01*
X86711635Y-87706092D01*
X86711628Y-87706079D01*
X86602139Y-87542218D01*
X86602136Y-87542214D01*
X86462785Y-87402863D01*
X86462781Y-87402860D01*
X86298920Y-87293371D01*
X86298907Y-87293364D01*
X86116839Y-87217950D01*
X86116829Y-87217947D01*
X85923543Y-87179500D01*
X85923541Y-87179500D01*
X84926459Y-87179500D01*
X84926457Y-87179500D01*
X84733170Y-87217947D01*
X84733160Y-87217950D01*
X84551092Y-87293364D01*
X84551079Y-87293371D01*
X84387218Y-87402860D01*
X84387214Y-87402863D01*
X84247863Y-87542214D01*
X84247860Y-87542218D01*
X84138371Y-87706079D01*
X84138364Y-87706092D01*
X84062950Y-87888160D01*
X84062947Y-87888170D01*
X84024500Y-88081456D01*
X84024500Y-88081459D01*
X84024500Y-88278541D01*
X84024500Y-88278543D01*
X84024499Y-88278543D01*
X83300500Y-88278543D01*
X83300500Y-76324500D01*
X83320185Y-76257461D01*
X83372989Y-76211706D01*
X83424500Y-76200500D01*
X130075500Y-76200500D01*
X130142539Y-76220185D01*
G37*
%TD.AperFunction*%
%TD*%
M02*
