%TF.GenerationSoftware,KiCad,Pcbnew,9.0.2*%
%TF.CreationDate,2025-07-24T13:27:54-05:00*%
%TF.ProjectId,clock,636c6f63-6b2e-46b6-9963-61645f706362,rev?*%
%TF.SameCoordinates,Original*%
%TF.FileFunction,Soldermask,Bot*%
%TF.FilePolarity,Negative*%
%FSLAX46Y46*%
G04 Gerber Fmt 4.6, Leading zero omitted, Abs format (unit mm)*
G04 Created by KiCad (PCBNEW 9.0.2) date 2025-07-24 13:27:54*
%MOMM*%
%LPD*%
G01*
G04 APERTURE LIST*
G04 Aperture macros list*
%AMRoundRect*
0 Rectangle with rounded corners*
0 $1 Rounding radius*
0 $2 $3 $4 $5 $6 $7 $8 $9 X,Y pos of 4 corners*
0 Add a 4 corners polygon primitive as box body*
4,1,4,$2,$3,$4,$5,$6,$7,$8,$9,$2,$3,0*
0 Add four circle primitives for the rounded corners*
1,1,$1+$1,$2,$3*
1,1,$1+$1,$4,$5*
1,1,$1+$1,$6,$7*
1,1,$1+$1,$8,$9*
0 Add four rect primitives between the rounded corners*
20,1,$1+$1,$2,$3,$4,$5,0*
20,1,$1+$1,$4,$5,$6,$7,0*
20,1,$1+$1,$6,$7,$8,$9,0*
20,1,$1+$1,$8,$9,$2,$3,0*%
G04 Aperture macros list end*
%ADD10C,2.200000*%
%ADD11C,5.250000*%
%ADD12C,2.000000*%
%ADD13C,0.500000*%
%ADD14RoundRect,0.250000X0.725000X-0.600000X0.725000X0.600000X-0.725000X0.600000X-0.725000X-0.600000X0*%
%ADD15O,1.950000X1.700000*%
%ADD16C,0.650000*%
%ADD17O,1.000000X2.100000*%
%ADD18O,1.000000X1.800000*%
%ADD19R,2.000000X2.000000*%
%ADD20R,2.000000X3.200000*%
%ADD21R,1.524000X1.524000*%
%ADD22C,1.600000*%
%ADD23RoundRect,0.250000X-0.725000X0.600000X-0.725000X-0.600000X0.725000X-0.600000X0.725000X0.600000X0*%
%ADD24R,1.100000X1.800000*%
%ADD25RoundRect,0.275000X-0.275000X-0.625000X0.275000X-0.625000X0.275000X0.625000X-0.275000X0.625000X0*%
%ADD26RoundRect,0.250000X-0.600000X-0.725000X0.600000X-0.725000X0.600000X0.725000X-0.600000X0.725000X0*%
%ADD27O,1.700000X1.950000*%
%ADD28RoundRect,0.250000X0.600000X0.725000X-0.600000X0.725000X-0.600000X-0.725000X0.600000X-0.725000X0*%
G04 APERTURE END LIST*
D10*
%TO.C,REF\u002A\u002A*%
X138250001Y-176750000D03*
%TD*%
D11*
%TO.C,S1*%
X109400001Y-175750000D03*
D12*
X113800001Y-171050000D03*
X106800001Y-170000000D03*
%TD*%
D10*
%TO.C,REF\u002A\u002A*%
X80250001Y-176750000D03*
%TD*%
D13*
%TO.C,mouse-bite-5mm-slot*%
X98050000Y-124750000D03*
X98050000Y-129750000D03*
X98800000Y-124750000D03*
X98800000Y-124750000D03*
X98800000Y-129750000D03*
X98800000Y-129750000D03*
X99550000Y-124750000D03*
X99550000Y-129750000D03*
X100300000Y-124750000D03*
X100300000Y-129750000D03*
X101050000Y-124750000D03*
X101050000Y-129750000D03*
X101800000Y-124750000D03*
X101800000Y-129750000D03*
X102550000Y-124750000D03*
X102550000Y-129750000D03*
X103300000Y-124750000D03*
X103300000Y-129750000D03*
X104050000Y-124750000D03*
X104050000Y-129750000D03*
X104800000Y-124750000D03*
X104800000Y-129750000D03*
X105550000Y-124750000D03*
X105550000Y-129750000D03*
%TD*%
%TO.C,mouse-bite-5mm-slot*%
X90300001Y-159750000D03*
X90300001Y-164750000D03*
X91050001Y-159750000D03*
X91050001Y-159750000D03*
X91050001Y-164750000D03*
X91050001Y-164750000D03*
X91800001Y-159750000D03*
X91800001Y-164750000D03*
X92550001Y-159750000D03*
X92550001Y-164750000D03*
X93300001Y-159750000D03*
X93300001Y-164750000D03*
X94050001Y-159750000D03*
X94050001Y-164750000D03*
X94800001Y-159750000D03*
X94800001Y-164750000D03*
X95550001Y-159750000D03*
X95550001Y-164750000D03*
X96300001Y-159750000D03*
X96300001Y-164750000D03*
X97050001Y-159750000D03*
X97050001Y-164750000D03*
X97800001Y-159750000D03*
X97800001Y-164750000D03*
%TD*%
D14*
%TO.C,J8*%
X104250000Y-117050000D03*
D15*
X104250000Y-114550000D03*
X104250000Y-112050000D03*
X104250000Y-109550000D03*
X104250000Y-107050000D03*
%TD*%
D10*
%TO.C,REF\u002A\u002A*%
X116000000Y-98225000D03*
%TD*%
D13*
%TO.C,mouse-bite-5mm-slot*%
X131550001Y-159750000D03*
X131550001Y-164750000D03*
X132300001Y-159750000D03*
X132300001Y-159750000D03*
X132300001Y-164750000D03*
X132300001Y-164750000D03*
X133050001Y-159750000D03*
X133050001Y-164750000D03*
X133800001Y-159750000D03*
X133800001Y-164750000D03*
X134550001Y-159750000D03*
X134550001Y-164750000D03*
X135300001Y-159750000D03*
X135300001Y-164750000D03*
X136050001Y-159750000D03*
X136050001Y-164750000D03*
X136800001Y-159750000D03*
X136800001Y-164750000D03*
X137550001Y-159750000D03*
X137550001Y-164750000D03*
X138300001Y-159750000D03*
X138300001Y-164750000D03*
X139050001Y-159750000D03*
X139050001Y-164750000D03*
%TD*%
D14*
%TO.C,J6*%
X76250000Y-117550000D03*
D15*
X76250000Y-115050000D03*
X76250000Y-112550000D03*
X76250000Y-110050000D03*
X76250000Y-107550000D03*
X76250000Y-105050000D03*
X76250000Y-102550000D03*
X76250000Y-100050000D03*
%TD*%
D13*
%TO.C,mouse-bite-5mm-slot*%
X67000000Y-119250000D03*
X72000000Y-119250000D03*
X67000000Y-118500000D03*
X67000000Y-118500000D03*
X72000000Y-118500000D03*
X72000000Y-118500000D03*
X67000000Y-117750000D03*
X72000000Y-117750000D03*
X67000000Y-117000000D03*
X72000000Y-117000000D03*
X67000000Y-116250000D03*
X72000000Y-116250000D03*
X67000000Y-115500000D03*
X72000000Y-115500000D03*
X67000000Y-114750000D03*
X72000000Y-114750000D03*
X67000000Y-114000000D03*
X72000000Y-114000000D03*
X67000000Y-113250000D03*
X72000000Y-113250000D03*
X67000000Y-112500000D03*
X72000000Y-112500000D03*
X67000000Y-111750000D03*
X72000000Y-111750000D03*
%TD*%
D14*
%TO.C,J5*%
X104250000Y-98550000D03*
D15*
X104250000Y-96050000D03*
X104250000Y-93550000D03*
X104250000Y-91050000D03*
X104250000Y-88550000D03*
%TD*%
D13*
%TO.C,mouse-bite-5mm-slot*%
X74050000Y-124750000D03*
X74050000Y-129750000D03*
X74800000Y-124750000D03*
X74800000Y-124750000D03*
X74800000Y-129750000D03*
X74800000Y-129750000D03*
X75550000Y-124750000D03*
X75550000Y-129750000D03*
X76300000Y-124750000D03*
X76300000Y-129750000D03*
X77050000Y-124750000D03*
X77050000Y-129750000D03*
X77800000Y-124750000D03*
X77800000Y-129750000D03*
X78550000Y-124750000D03*
X78550000Y-129750000D03*
X79300000Y-124750000D03*
X79300000Y-129750000D03*
X80050000Y-124750000D03*
X80050000Y-129750000D03*
X80800000Y-124750000D03*
X80800000Y-129750000D03*
X81550000Y-124750000D03*
X81550000Y-129750000D03*
%TD*%
%TO.C,mouse-bite-5mm-slot*%
X67000000Y-179625000D03*
X72000000Y-179625000D03*
X67000000Y-178875000D03*
X67000000Y-178875000D03*
X72000000Y-178875000D03*
X72000000Y-178875000D03*
X67000000Y-178125000D03*
X72000000Y-178125000D03*
X67000000Y-177375000D03*
X72000000Y-177375000D03*
X67000000Y-176625000D03*
X72000000Y-176625000D03*
X67000000Y-175875000D03*
X72000000Y-175875000D03*
X67000000Y-175125000D03*
X72000000Y-175125000D03*
X67000000Y-174375000D03*
X72000000Y-174375000D03*
X67000000Y-173625000D03*
X72000000Y-173625000D03*
X67000000Y-172875000D03*
X72000000Y-172875000D03*
X67000000Y-172125000D03*
X72000000Y-172125000D03*
%TD*%
%TO.C,mouse-bite-5mm-slot*%
X67000000Y-148500000D03*
X72000000Y-148500000D03*
X67000000Y-147750000D03*
X67000000Y-147750000D03*
X72000000Y-147750000D03*
X72000000Y-147750000D03*
X67000000Y-147000000D03*
X72000000Y-147000000D03*
X67000000Y-146250000D03*
X72000000Y-146250000D03*
X67000000Y-145500000D03*
X72000000Y-145500000D03*
X67000000Y-144750000D03*
X72000000Y-144750000D03*
X67000000Y-144000000D03*
X72000000Y-144000000D03*
X67000000Y-143250000D03*
X72000000Y-143250000D03*
X67000000Y-142500000D03*
X72000000Y-142500000D03*
X67000000Y-141750000D03*
X72000000Y-141750000D03*
X67000000Y-141000000D03*
X72000000Y-141000000D03*
%TD*%
D16*
%TO.C,J1*%
X85860000Y-118445000D03*
X91640000Y-118445000D03*
D17*
X84430000Y-117945000D03*
D18*
X84430000Y-122125000D03*
D17*
X93070000Y-117945000D03*
D18*
X93070000Y-122125000D03*
%TD*%
D10*
%TO.C,REF\u002A\u002A*%
X76250000Y-80550000D03*
%TD*%
D19*
%TO.C,SW1*%
X121500000Y-114225000D03*
D12*
X126500000Y-114225000D03*
X124000000Y-114225000D03*
D20*
X118400000Y-106725000D03*
X129600000Y-106725000D03*
D12*
X126500000Y-99725000D03*
X121500000Y-99725000D03*
%TD*%
D13*
%TO.C,mouse-bite-5mm-slot*%
X120750000Y-124750000D03*
X120750000Y-129750000D03*
X121500000Y-124750000D03*
X121500000Y-124750000D03*
X121500000Y-129750000D03*
X121500000Y-129750000D03*
X122250000Y-124750000D03*
X122250000Y-129750000D03*
X123000000Y-124750000D03*
X123000000Y-129750000D03*
X123750000Y-124750000D03*
X123750000Y-129750000D03*
X124500000Y-124750000D03*
X124500000Y-129750000D03*
X125250000Y-124750000D03*
X125250000Y-129750000D03*
X126000000Y-124750000D03*
X126000000Y-129750000D03*
X126750000Y-124750000D03*
X126750000Y-129750000D03*
X127500000Y-124750000D03*
X127500000Y-129750000D03*
X128250000Y-124750000D03*
X128250000Y-129750000D03*
%TD*%
D10*
%TO.C,REF\u002A\u002A*%
X104250000Y-80550000D03*
%TD*%
D21*
%TO.C,LCD1*%
X85900000Y-135750000D03*
D22*
X85900000Y-138290000D03*
X85900000Y-140830000D03*
X85900000Y-143370000D03*
X85900000Y-145910000D03*
X85900000Y-148450000D03*
X85900000Y-150990000D03*
X85900000Y-153530000D03*
%TD*%
D13*
%TO.C,mouse-bite-5mm-slot*%
X67000000Y-93500000D03*
X72000000Y-93500000D03*
X67000000Y-92750000D03*
X67000000Y-92750000D03*
X72000000Y-92750000D03*
X72000000Y-92750000D03*
X67000000Y-92000000D03*
X72000000Y-92000000D03*
X67000000Y-91250000D03*
X72000000Y-91250000D03*
X67000000Y-90500000D03*
X72000000Y-90500000D03*
X67000000Y-89750000D03*
X72000000Y-89750000D03*
X67000000Y-89000000D03*
X72000000Y-89000000D03*
X67000000Y-88250000D03*
X72000000Y-88250000D03*
X67000000Y-87500000D03*
X72000000Y-87500000D03*
X67000000Y-86750000D03*
X72000000Y-86750000D03*
X67000000Y-86000000D03*
X72000000Y-86000000D03*
%TD*%
D23*
%TO.C,J2*%
X77125000Y-136000000D03*
D15*
X77125000Y-138500000D03*
X77125000Y-141000000D03*
X77125000Y-143500000D03*
X77125000Y-146000000D03*
X77125000Y-148500000D03*
X77125000Y-151000000D03*
X77125000Y-153500000D03*
%TD*%
D24*
%TO.C,Q2*%
X128030001Y-169955000D03*
D25*
X129300001Y-172025000D03*
X130570001Y-169955000D03*
%TD*%
D19*
%TO.C,BZ1*%
X89700001Y-179750000D03*
D12*
X97300001Y-179750000D03*
%TD*%
D24*
%TO.C,Q1*%
X120960001Y-169975000D03*
D25*
X122230001Y-172045000D03*
X123500001Y-169975000D03*
%TD*%
D26*
%TO.C,J4*%
X119000000Y-120250000D03*
D27*
X121500000Y-120250000D03*
X124000000Y-120250000D03*
X126500000Y-120250000D03*
X129000000Y-120250000D03*
%TD*%
D28*
%TO.C,J3*%
X97000000Y-169224999D03*
D27*
X94500000Y-169224999D03*
X92000000Y-169224999D03*
X89500000Y-169224999D03*
X87000000Y-169224999D03*
%TD*%
D19*
%TO.C,BZ2*%
X121700001Y-179750000D03*
D12*
X129300001Y-179750000D03*
%TD*%
M02*
