%TF.GenerationSoftware,KiCad,Pcbnew,9.0.2*%
%TF.CreationDate,2025-07-24T13:27:54-05:00*%
%TF.ProjectId,clock,636c6f63-6b2e-46b6-9963-61645f706362,rev?*%
%TF.SameCoordinates,Original*%
%TF.FileFunction,Legend,Bot*%
%TF.FilePolarity,Positive*%
%FSLAX46Y46*%
G04 Gerber Fmt 4.6, Leading zero omitted, Abs format (unit mm)*
G04 Created by KiCad (PCBNEW 9.0.2) date 2025-07-24 13:27:54*
%MOMM*%
%LPD*%
G01*
G04 APERTURE LIST*
%ADD10C,0.300000*%
%ADD11C,0.150000*%
%ADD12C,0.120000*%
G04 APERTURE END LIST*
D10*
G36*
X106309981Y-120255805D02*
G01*
X106084026Y-120255805D01*
X106084026Y-120570786D01*
X106078578Y-120630713D01*
X106064043Y-120674555D01*
X106041986Y-120706250D01*
X106010984Y-120728829D01*
X105965912Y-120743977D01*
X105901760Y-120749755D01*
X104869437Y-120749755D01*
X104869437Y-121034512D01*
X105911835Y-121034512D01*
X106008175Y-121026834D01*
X106087633Y-121005370D01*
X106153349Y-120971555D01*
X106207674Y-120925519D01*
X106249941Y-120868605D01*
X106281814Y-120797476D01*
X106302482Y-120709024D01*
X106309981Y-120599363D01*
X106309981Y-120255805D01*
G37*
G36*
X105095300Y-120265422D02*
G01*
X104869437Y-120265422D01*
X104869437Y-120893370D01*
X105095300Y-120893370D01*
X105095300Y-120265422D01*
G37*
G36*
X104731684Y-120746000D02*
G01*
X104483014Y-120746000D01*
X104483014Y-121034054D01*
X104731684Y-121034054D01*
X104731684Y-120746000D01*
G37*
G36*
X106309981Y-121711187D02*
G01*
X105837165Y-121711187D01*
X105849662Y-121717022D01*
X105910186Y-121761379D01*
X105958156Y-121816657D01*
X105992710Y-121882920D01*
X106013066Y-121957193D01*
X106020187Y-122042930D01*
X106010924Y-122139947D01*
X105984603Y-122221826D01*
X105942060Y-122291599D01*
X105884913Y-122351223D01*
X105814994Y-122400595D01*
X105730393Y-122439885D01*
X105640113Y-122466704D01*
X105541107Y-122483324D01*
X105432172Y-122489070D01*
X105322430Y-122483301D01*
X105223269Y-122466660D01*
X105133402Y-122439885D01*
X105049160Y-122400623D01*
X104979411Y-122351256D01*
X104922285Y-122291599D01*
X104879742Y-122221826D01*
X104853421Y-122139947D01*
X104844158Y-122042930D01*
X104852426Y-121955643D01*
X105095300Y-121955643D01*
X105104895Y-122027150D01*
X105132140Y-122084503D01*
X105177458Y-122131132D01*
X105235817Y-122163217D01*
X105318187Y-122185027D01*
X105432172Y-122193322D01*
X105546222Y-122185025D01*
X105628619Y-122163214D01*
X105686979Y-122131132D01*
X105732241Y-122084510D01*
X105759459Y-122027158D01*
X105769044Y-121955643D01*
X105759856Y-121887557D01*
X105732957Y-121828515D01*
X105688528Y-121780193D01*
X105622041Y-121742053D01*
X105541586Y-121719636D01*
X105432172Y-121711187D01*
X105322864Y-121719730D01*
X105242396Y-121742419D01*
X105175802Y-121780861D01*
X105131479Y-121828973D01*
X105104524Y-121887633D01*
X105095300Y-121955643D01*
X104852426Y-121955643D01*
X104852496Y-121954901D01*
X104876219Y-121880322D01*
X104914591Y-121816516D01*
X104966573Y-121762750D01*
X105032962Y-121718079D01*
X105059159Y-121706937D01*
X104869437Y-121701112D01*
X104869437Y-121426430D01*
X106309981Y-121426430D01*
X106309981Y-121711187D01*
G37*
G36*
X105995000Y-123351400D02*
G01*
X105988551Y-123255314D01*
X105970934Y-123179253D01*
X105944043Y-123119397D01*
X105908721Y-123072688D01*
X105863114Y-123035763D01*
X105805551Y-123008016D01*
X105733337Y-122990022D01*
X105643015Y-122983478D01*
X104605197Y-122983478D01*
X104605197Y-123268235D01*
X105615355Y-123268235D01*
X105665795Y-123273029D01*
X105703323Y-123285942D01*
X105731034Y-123305787D01*
X105751198Y-123333281D01*
X105764229Y-123370160D01*
X105769044Y-123419360D01*
X105769044Y-123684883D01*
X105995000Y-123684883D01*
X105995000Y-123351400D01*
G37*
G36*
X105095300Y-122660070D02*
G01*
X104869437Y-122660070D01*
X104869437Y-123684883D01*
X105095300Y-123684883D01*
X105095300Y-122660070D01*
G37*
G36*
X142361422Y-157095000D02*
G01*
X142088389Y-157095000D01*
X142080879Y-156916946D01*
X142046816Y-156972660D01*
X142004010Y-157021185D01*
X141951735Y-157063126D01*
X141892853Y-157094201D01*
X141825102Y-157113447D01*
X141746480Y-157120187D01*
X141658235Y-157112143D01*
X141580096Y-157088863D01*
X141510083Y-157050669D01*
X141449204Y-156998786D01*
X141397237Y-156932553D01*
X141354012Y-156849719D01*
X141324424Y-156760413D01*
X141305513Y-156655451D01*
X141298783Y-156532172D01*
X141594439Y-156532172D01*
X141602123Y-156639089D01*
X141622781Y-156720423D01*
X141653881Y-156781666D01*
X141699384Y-156829946D01*
X141756439Y-156858844D01*
X141828820Y-156869044D01*
X141899164Y-156858911D01*
X141958605Y-156829385D01*
X142007027Y-156782070D01*
X142045341Y-156714530D01*
X142068271Y-156634559D01*
X142076666Y-156532172D01*
X142068408Y-156428345D01*
X142045983Y-156348074D01*
X142007906Y-156280629D01*
X141958879Y-156234043D01*
X141898463Y-156205213D01*
X141827172Y-156195300D01*
X141755859Y-156205417D01*
X141699309Y-156234157D01*
X141653881Y-156282312D01*
X141622824Y-156343279D01*
X141602147Y-156424680D01*
X141594439Y-156532172D01*
X141298783Y-156532172D01*
X141305512Y-156408956D01*
X141324422Y-156304023D01*
X141354012Y-156214718D01*
X141397242Y-156131824D01*
X141449209Y-156065562D01*
X141510083Y-156013675D01*
X141580096Y-155975482D01*
X141658235Y-155952202D01*
X141746480Y-155944158D01*
X141822883Y-155950259D01*
X141889839Y-155967766D01*
X141948988Y-155996090D01*
X142002119Y-156034611D01*
X142044293Y-156078620D01*
X142076666Y-156128531D01*
X142076666Y-155603989D01*
X142361422Y-155603989D01*
X142361422Y-157095000D01*
G37*
G36*
X140743008Y-157120187D02*
G01*
X140820534Y-157113080D01*
X140886714Y-157092818D01*
X140943746Y-157060047D01*
X140993143Y-157014125D01*
X141031127Y-156959175D01*
X141059746Y-156891526D01*
X141078239Y-156808528D01*
X141084918Y-156706928D01*
X141084918Y-155969437D01*
X140800161Y-155969437D01*
X140800161Y-156634663D01*
X140794313Y-156721148D01*
X140779224Y-156781369D01*
X140757571Y-156822058D01*
X140725336Y-156853270D01*
X140684323Y-156872318D01*
X140631725Y-156879119D01*
X140577204Y-156871810D01*
X140529392Y-156850329D01*
X140486461Y-156813632D01*
X140455023Y-156766441D01*
X140434685Y-156704340D01*
X140427202Y-156622939D01*
X140427202Y-155969437D01*
X140142445Y-155969437D01*
X140142445Y-157095000D01*
X140404945Y-157095000D01*
X140411265Y-156770767D01*
X140377651Y-156779102D01*
X140402723Y-156883651D01*
X140442581Y-156966289D01*
X140496353Y-157031161D01*
X140564444Y-157079796D01*
X140645465Y-157109666D01*
X140743008Y-157120187D01*
G37*
G36*
X139421257Y-157095000D02*
G01*
X139421257Y-155969437D01*
X139136501Y-155969437D01*
X139136501Y-157095000D01*
X139421257Y-157095000D01*
G37*
G36*
X139839554Y-157095000D02*
G01*
X139839554Y-156869044D01*
X138781127Y-156869044D01*
X138781127Y-157095000D01*
X139839554Y-157095000D01*
G37*
G36*
X139818579Y-156195300D02*
G01*
X139818579Y-155969437D01*
X139189440Y-155969437D01*
X139189440Y-156195300D01*
X139818579Y-156195300D01*
G37*
G36*
X139429134Y-155831684D02*
G01*
X139429134Y-155583014D01*
X139141080Y-155583014D01*
X139141080Y-155831684D01*
X139429134Y-155831684D01*
G37*
G36*
X138206943Y-157095000D02*
G01*
X138206943Y-155960186D01*
X138215965Y-155902372D01*
X138240374Y-155863374D01*
X138279359Y-155838962D01*
X138337094Y-155829944D01*
X138580726Y-155829944D01*
X138580726Y-155603989D01*
X138285894Y-155603989D01*
X138194976Y-155610609D01*
X138121301Y-155628924D01*
X138061673Y-155657354D01*
X138013594Y-155695396D01*
X137975551Y-155743475D01*
X137947122Y-155803103D01*
X137928807Y-155876778D01*
X137922186Y-155967697D01*
X137922186Y-157095000D01*
X138206943Y-157095000D01*
G37*
G36*
X138622675Y-157095000D02*
G01*
X138622675Y-156869044D01*
X137564340Y-156869044D01*
X137564340Y-157095000D01*
X138622675Y-157095000D01*
G37*
G36*
X136680944Y-157095000D02*
G01*
X136777030Y-157088551D01*
X136853091Y-157070934D01*
X136912947Y-157044043D01*
X136959656Y-157008721D01*
X136996581Y-156963114D01*
X137024328Y-156905551D01*
X137042322Y-156833337D01*
X137048866Y-156743015D01*
X137048866Y-155705197D01*
X136764109Y-155705197D01*
X136764109Y-156715355D01*
X136759315Y-156765795D01*
X136746401Y-156803323D01*
X136726557Y-156831034D01*
X136699063Y-156851198D01*
X136662183Y-156864229D01*
X136612984Y-156869044D01*
X136347461Y-156869044D01*
X136347461Y-157095000D01*
X136680944Y-157095000D01*
G37*
G36*
X137372274Y-156195300D02*
G01*
X137372274Y-155969437D01*
X136347461Y-155969437D01*
X136347461Y-156195300D01*
X137372274Y-156195300D01*
G37*
G36*
X136090365Y-156620375D02*
G01*
X136090365Y-156365843D01*
X135061339Y-156365843D01*
X135061339Y-156620375D01*
X136090365Y-156620375D01*
G37*
G36*
X135703118Y-157007622D02*
G01*
X135703118Y-155978688D01*
X135448586Y-155978688D01*
X135448586Y-157007622D01*
X135703118Y-157007622D01*
G37*
G36*
X134110349Y-156128531D02*
G01*
X134141548Y-156078743D01*
X134183204Y-156034741D01*
X134236653Y-155996090D01*
X134296162Y-155967776D01*
X134363572Y-155950263D01*
X134440535Y-155944158D01*
X134528782Y-155952200D01*
X134606953Y-155975479D01*
X134677023Y-156013675D01*
X134737841Y-156065556D01*
X134789779Y-156131816D01*
X134833003Y-156214718D01*
X134862593Y-156304023D01*
X134881503Y-156408956D01*
X134888232Y-156532172D01*
X134881502Y-156655451D01*
X134862591Y-156760413D01*
X134833003Y-156849719D01*
X134789784Y-156932560D01*
X134737847Y-156998793D01*
X134677023Y-157050669D01*
X134606953Y-157088866D01*
X134528782Y-157112145D01*
X134440535Y-157120187D01*
X134361352Y-157113442D01*
X134293146Y-157094190D01*
X134233906Y-157063126D01*
X134181379Y-157021070D01*
X134139071Y-156972549D01*
X134106136Y-156916946D01*
X134098626Y-157095000D01*
X133825593Y-157095000D01*
X133825593Y-156532172D01*
X134110349Y-156532172D01*
X134118580Y-156634599D01*
X134141032Y-156714530D01*
X134178967Y-156781993D01*
X134227769Y-156829385D01*
X134287750Y-156858930D01*
X134358195Y-156869044D01*
X134430576Y-156858844D01*
X134487630Y-156829946D01*
X134533134Y-156781666D01*
X134564234Y-156720423D01*
X134584892Y-156639089D01*
X134592576Y-156532172D01*
X134584868Y-156424680D01*
X134564190Y-156343279D01*
X134533134Y-156282312D01*
X134487706Y-156234157D01*
X134431156Y-156205417D01*
X134359843Y-156195300D01*
X134287620Y-156205272D01*
X134227586Y-156234043D01*
X134179003Y-156280581D01*
X134141032Y-156348074D01*
X134118607Y-156428345D01*
X134110349Y-156532172D01*
X133825593Y-156532172D01*
X133825593Y-155603989D01*
X134110349Y-155603989D01*
X134110349Y-156128531D01*
G37*
G36*
X133157454Y-155952801D02*
G01*
X133249291Y-155977775D01*
X133331642Y-156018530D01*
X133404937Y-156074150D01*
X133466803Y-156142487D01*
X133517938Y-156224976D01*
X133554359Y-156315285D01*
X133576999Y-156416996D01*
X133584891Y-156532172D01*
X133576877Y-156649917D01*
X133553978Y-156752997D01*
X133517297Y-156843674D01*
X133465643Y-156926165D01*
X133403123Y-156993827D01*
X133328986Y-157048196D01*
X133245798Y-157087672D01*
X133153660Y-157111841D01*
X133050641Y-157120187D01*
X132955970Y-157113685D01*
X132872607Y-157095054D01*
X132798815Y-157065117D01*
X132733186Y-157024016D01*
X132657685Y-156952740D01*
X132596381Y-156862820D01*
X132549180Y-156750983D01*
X132835218Y-156731291D01*
X132864573Y-156787588D01*
X132910781Y-156831492D01*
X132969982Y-156859235D01*
X133044321Y-156869044D01*
X133111251Y-156861245D01*
X133167370Y-156838923D01*
X133215138Y-156802091D01*
X133251574Y-156753517D01*
X133277477Y-156690558D01*
X133291708Y-156609475D01*
X132526465Y-156609475D01*
X132526465Y-156538034D01*
X132534469Y-156419225D01*
X132535393Y-156415027D01*
X132831830Y-156415027D01*
X133287953Y-156415027D01*
X133271531Y-156345928D01*
X133246004Y-156292424D01*
X133212116Y-156251446D01*
X133168989Y-156220751D01*
X133117858Y-156201923D01*
X133056502Y-156195300D01*
X132996220Y-156201748D01*
X132945559Y-156220132D01*
X132902446Y-156250163D01*
X132869089Y-156290521D01*
X132845215Y-156344247D01*
X132831830Y-156415027D01*
X132535393Y-156415027D01*
X132557318Y-156315361D01*
X132593876Y-156224152D01*
X132645322Y-156140873D01*
X132707206Y-156072524D01*
X132780172Y-156017522D01*
X132862183Y-155977235D01*
X132952821Y-155952639D01*
X133054030Y-155944158D01*
X133157454Y-155952801D01*
G37*
G36*
X131788424Y-157120187D02*
G01*
X131896025Y-157113890D01*
X131985519Y-157096361D01*
X132059808Y-157069171D01*
X132128333Y-157030160D01*
X132183322Y-156984662D01*
X132226504Y-156932517D01*
X132259759Y-156873269D01*
X132282221Y-156809978D01*
X132294098Y-156741733D01*
X132013555Y-156730467D01*
X131986485Y-156792825D01*
X131942389Y-156840560D01*
X131904693Y-156862078D01*
X131853833Y-156876354D01*
X131785951Y-156881684D01*
X131695387Y-156874717D01*
X131642336Y-156857962D01*
X131615985Y-156838877D01*
X131601136Y-156815854D01*
X131596083Y-156787528D01*
X131600335Y-156757789D01*
X131612295Y-156734863D01*
X131633434Y-156716641D01*
X131675034Y-156697128D01*
X131814528Y-156661591D01*
X131975473Y-156621095D01*
X132084630Y-156580899D01*
X132147618Y-156546373D01*
X132194093Y-156508620D01*
X132226962Y-156467692D01*
X132250027Y-156420416D01*
X132264572Y-156364441D01*
X132269735Y-156297882D01*
X132264002Y-156234089D01*
X132247125Y-156175164D01*
X132218994Y-156120013D01*
X132180561Y-156071462D01*
X132130043Y-156028856D01*
X132065487Y-155992060D01*
X131995339Y-155966547D01*
X131910659Y-155950080D01*
X131808666Y-155944158D01*
X131696863Y-155951021D01*
X131607181Y-155969831D01*
X131535633Y-155998563D01*
X131470284Y-156039558D01*
X131418557Y-156086256D01*
X131378737Y-156138880D01*
X131335811Y-156227767D01*
X131313066Y-156321330D01*
X131596083Y-156333969D01*
X131609649Y-156291519D01*
X131632078Y-156255201D01*
X131662935Y-156225388D01*
X131703428Y-156202078D01*
X131750152Y-156187833D01*
X131806926Y-156182752D01*
X131867258Y-156187488D01*
X131909543Y-156199810D01*
X131938450Y-156217832D01*
X131968762Y-156256259D01*
X131978292Y-156297882D01*
X131972671Y-156334151D01*
X131956677Y-156362363D01*
X131929477Y-156384410D01*
X131879832Y-156406418D01*
X131723761Y-156445710D01*
X131570189Y-156483053D01*
X131469687Y-156520449D01*
X131412286Y-156552881D01*
X131370622Y-156587810D01*
X131341826Y-156625229D01*
X131314585Y-156693045D01*
X131304640Y-156782491D01*
X131311266Y-156850592D01*
X131330391Y-156910155D01*
X131361793Y-156962925D01*
X131403979Y-157008038D01*
X131458290Y-157046838D01*
X131526840Y-157079246D01*
X131599908Y-157101102D01*
X131686366Y-157115163D01*
X131788424Y-157120187D01*
G37*
G36*
X130609464Y-157095000D02*
G01*
X130609464Y-155969437D01*
X130324707Y-155969437D01*
X130324707Y-157095000D01*
X130609464Y-157095000D01*
G37*
G36*
X131027760Y-157095000D02*
G01*
X131027760Y-156869044D01*
X129969334Y-156869044D01*
X129969334Y-157095000D01*
X131027760Y-157095000D01*
G37*
G36*
X131006786Y-156195300D02*
G01*
X131006786Y-155969437D01*
X130377647Y-155969437D01*
X130377647Y-156195300D01*
X131006786Y-156195300D01*
G37*
G36*
X130617341Y-155831684D02*
G01*
X130617341Y-155583014D01*
X130329287Y-155583014D01*
X130329287Y-155831684D01*
X130617341Y-155831684D01*
G37*
G36*
X129450977Y-155952043D02*
G01*
X129529920Y-155974999D01*
X129601779Y-156012851D01*
X129665093Y-156064020D01*
X129719221Y-156127882D01*
X129764536Y-156206108D01*
X129796426Y-156291028D01*
X129816473Y-156388372D01*
X129823521Y-156500299D01*
X129816477Y-156603863D01*
X129796193Y-156696167D01*
X129763437Y-156778919D01*
X129717569Y-156854805D01*
X129662449Y-156917408D01*
X129597566Y-156968146D01*
X129524418Y-157005715D01*
X129444880Y-157028427D01*
X129357322Y-157036198D01*
X129279820Y-157030413D01*
X129215417Y-157014222D01*
X129161775Y-156988754D01*
X129114016Y-156953342D01*
X129075584Y-156911678D01*
X129045638Y-156863183D01*
X129045638Y-156993333D01*
X129053185Y-157059199D01*
X129074102Y-157110341D01*
X129107645Y-157150229D01*
X129152063Y-157178713D01*
X129211156Y-157197299D01*
X129289270Y-157204176D01*
X129368619Y-157195949D01*
X129420978Y-157174775D01*
X129460263Y-157139848D01*
X129485000Y-157094175D01*
X129783221Y-157111761D01*
X129762318Y-157174728D01*
X129732774Y-157231366D01*
X129694378Y-157282486D01*
X129648127Y-157326724D01*
X129593157Y-157364291D01*
X129528323Y-157395235D01*
X129459420Y-157416746D01*
X129380265Y-157430366D01*
X129289270Y-157435169D01*
X129183062Y-157428813D01*
X129090569Y-157410743D01*
X129009826Y-157382046D01*
X128935936Y-157340250D01*
X128875148Y-157287450D01*
X128826003Y-157222861D01*
X128790925Y-157149523D01*
X128768760Y-157062512D01*
X128760881Y-156958895D01*
X128760881Y-156493979D01*
X129045638Y-156493979D01*
X129054758Y-156595940D01*
X129078088Y-156672258D01*
X129113141Y-156728818D01*
X129162000Y-156772755D01*
X129218712Y-156798782D01*
X129285881Y-156807770D01*
X129358022Y-156798511D01*
X129416236Y-156772247D01*
X129463843Y-156728818D01*
X129497371Y-156672467D01*
X129519574Y-156596172D01*
X129527865Y-156493979D01*
X129519723Y-156391718D01*
X129497829Y-156314513D01*
X129464667Y-156256758D01*
X129417317Y-156211907D01*
X129358891Y-156184810D01*
X129285881Y-156175242D01*
X129218033Y-156184519D01*
X129159760Y-156211604D01*
X129111954Y-156255484D01*
X129074856Y-156318857D01*
X129053112Y-156394724D01*
X129045638Y-156493979D01*
X128760881Y-156493979D01*
X128760881Y-155969437D01*
X129037303Y-155969437D01*
X129042341Y-156140712D01*
X129075764Y-156082292D01*
X129117239Y-156034323D01*
X129167271Y-155995632D01*
X129224026Y-155967590D01*
X129288760Y-155950225D01*
X129363184Y-155944158D01*
X129450977Y-155952043D01*
G37*
G36*
X128501679Y-157095000D02*
G01*
X128501679Y-155969437D01*
X128241743Y-155969437D01*
X128232859Y-156276816D01*
X128261435Y-156264269D01*
X128232750Y-156161131D01*
X128190544Y-156083193D01*
X128132705Y-156021122D01*
X128063415Y-155978230D01*
X127984539Y-155952897D01*
X127895254Y-155944158D01*
X127815646Y-155950772D01*
X127750342Y-155969245D01*
X127696593Y-155998380D01*
X127650113Y-156038523D01*
X127612005Y-156087798D01*
X127581921Y-156147490D01*
X127554017Y-156246975D01*
X127544094Y-156366301D01*
X127544094Y-157095000D01*
X127828851Y-157095000D01*
X127828851Y-156430506D01*
X127834679Y-156346806D01*
X127849925Y-156286808D01*
X127872173Y-156244760D01*
X127905027Y-156212304D01*
X127947385Y-156192439D01*
X128002324Y-156185317D01*
X128058411Y-156192674D01*
X128109211Y-156214535D01*
X128152387Y-156249978D01*
X128187338Y-156300813D01*
X128208979Y-156362349D01*
X128216922Y-156443146D01*
X128216922Y-157095000D01*
X128501679Y-157095000D01*
G37*
G36*
X126863316Y-155952801D02*
G01*
X126955153Y-155977775D01*
X127037504Y-156018530D01*
X127110799Y-156074150D01*
X127172665Y-156142487D01*
X127223800Y-156224976D01*
X127260221Y-156315285D01*
X127282861Y-156416996D01*
X127290753Y-156532172D01*
X127282739Y-156649917D01*
X127259840Y-156752997D01*
X127223159Y-156843674D01*
X127171505Y-156926165D01*
X127108984Y-156993827D01*
X127034848Y-157048196D01*
X126951660Y-157087672D01*
X126859522Y-157111841D01*
X126756502Y-157120187D01*
X126661832Y-157113685D01*
X126578468Y-157095054D01*
X126504677Y-157065117D01*
X126439048Y-157024016D01*
X126363547Y-156952740D01*
X126302243Y-156862820D01*
X126255041Y-156750983D01*
X126541080Y-156731291D01*
X126570434Y-156787588D01*
X126616643Y-156831492D01*
X126675844Y-156859235D01*
X126750183Y-156869044D01*
X126817113Y-156861245D01*
X126873232Y-156838923D01*
X126921000Y-156802091D01*
X126957435Y-156753517D01*
X126983339Y-156690558D01*
X126997570Y-156609475D01*
X126232327Y-156609475D01*
X126232327Y-156538034D01*
X126240331Y-156419225D01*
X126241255Y-156415027D01*
X126537691Y-156415027D01*
X126993815Y-156415027D01*
X126977393Y-156345928D01*
X126951866Y-156292424D01*
X126917978Y-156251446D01*
X126874850Y-156220751D01*
X126823719Y-156201923D01*
X126762364Y-156195300D01*
X126702081Y-156201748D01*
X126651421Y-156220132D01*
X126608308Y-156250163D01*
X126574951Y-156290521D01*
X126551077Y-156344247D01*
X126537691Y-156415027D01*
X126241255Y-156415027D01*
X126263180Y-156315361D01*
X126299738Y-156224152D01*
X126351184Y-156140873D01*
X126413067Y-156072524D01*
X126486034Y-156017522D01*
X126568045Y-155977235D01*
X126658683Y-155952639D01*
X126759891Y-155944158D01*
X126863316Y-155952801D01*
G37*
G36*
X125298556Y-156128531D02*
G01*
X125329754Y-156078743D01*
X125371411Y-156034741D01*
X125424860Y-155996090D01*
X125484368Y-155967776D01*
X125551779Y-155950263D01*
X125628742Y-155944158D01*
X125716988Y-155952200D01*
X125795160Y-155975479D01*
X125865230Y-156013675D01*
X125926048Y-156065556D01*
X125977985Y-156131816D01*
X126021209Y-156214718D01*
X126050799Y-156304023D01*
X126069709Y-156408956D01*
X126076439Y-156532172D01*
X126069708Y-156655451D01*
X126050797Y-156760413D01*
X126021209Y-156849719D01*
X125977990Y-156932560D01*
X125926053Y-156998793D01*
X125865230Y-157050669D01*
X125795160Y-157088866D01*
X125716988Y-157112145D01*
X125628742Y-157120187D01*
X125549558Y-157113442D01*
X125481353Y-157094190D01*
X125422112Y-157063126D01*
X125369586Y-157021070D01*
X125327278Y-156972549D01*
X125294343Y-156916946D01*
X125286832Y-157095000D01*
X125013799Y-157095000D01*
X125013799Y-156532172D01*
X125298556Y-156532172D01*
X125306786Y-156634599D01*
X125329239Y-156714530D01*
X125367174Y-156781993D01*
X125415976Y-156829385D01*
X125475957Y-156858930D01*
X125546401Y-156869044D01*
X125618782Y-156858844D01*
X125675837Y-156829946D01*
X125721340Y-156781666D01*
X125752440Y-156720423D01*
X125773098Y-156639089D01*
X125780783Y-156532172D01*
X125773075Y-156424680D01*
X125752397Y-156343279D01*
X125721340Y-156282312D01*
X125675913Y-156234157D01*
X125619362Y-156205417D01*
X125548050Y-156195300D01*
X125475826Y-156205272D01*
X125415792Y-156234043D01*
X125367209Y-156280581D01*
X125329239Y-156348074D01*
X125306813Y-156428345D01*
X125298556Y-156532172D01*
X125013799Y-156532172D01*
X125013799Y-155603989D01*
X125298556Y-155603989D01*
X125298556Y-156128531D01*
G37*
G36*
X123479008Y-157095000D02*
G01*
X123205975Y-157095000D01*
X123198464Y-156916946D01*
X123164402Y-156972660D01*
X123121596Y-157021185D01*
X123069321Y-157063126D01*
X123010439Y-157094201D01*
X122942688Y-157113447D01*
X122864065Y-157120187D01*
X122775820Y-157112143D01*
X122697681Y-157088863D01*
X122627669Y-157050669D01*
X122566789Y-156998786D01*
X122514823Y-156932553D01*
X122471598Y-156849719D01*
X122442010Y-156760413D01*
X122423099Y-156655451D01*
X122416368Y-156532172D01*
X122712024Y-156532172D01*
X122719709Y-156639089D01*
X122740367Y-156720423D01*
X122771467Y-156781666D01*
X122816970Y-156829946D01*
X122874025Y-156858844D01*
X122946406Y-156869044D01*
X123016749Y-156858911D01*
X123076190Y-156829385D01*
X123124613Y-156782070D01*
X123162927Y-156714530D01*
X123185856Y-156634559D01*
X123194251Y-156532172D01*
X123185994Y-156428345D01*
X123163568Y-156348074D01*
X123125491Y-156280629D01*
X123076465Y-156234043D01*
X123016048Y-156205213D01*
X122944757Y-156195300D01*
X122873445Y-156205417D01*
X122816894Y-156234157D01*
X122771467Y-156282312D01*
X122740410Y-156343279D01*
X122719732Y-156424680D01*
X122712024Y-156532172D01*
X122416368Y-156532172D01*
X122423098Y-156408956D01*
X122442008Y-156304023D01*
X122471598Y-156214718D01*
X122514828Y-156131824D01*
X122566795Y-156065562D01*
X122627669Y-156013675D01*
X122697681Y-155975482D01*
X122775820Y-155952202D01*
X122864065Y-155944158D01*
X122940469Y-155950259D01*
X123007425Y-155967766D01*
X123066573Y-155996090D01*
X123119704Y-156034611D01*
X123161878Y-156078620D01*
X123194251Y-156128531D01*
X123194251Y-155603989D01*
X123479008Y-155603989D01*
X123479008Y-157095000D01*
G37*
G36*
X122116865Y-157409981D02*
G01*
X122116865Y-157184026D01*
X121964824Y-157184026D01*
X121913311Y-157179522D01*
X121879553Y-157168089D01*
X121854088Y-157146376D01*
X121834582Y-157108463D01*
X121803532Y-157023558D01*
X121893383Y-157023558D01*
X122288232Y-155969437D01*
X121991660Y-155969437D01*
X121715330Y-156751441D01*
X121462447Y-155969437D01*
X121165967Y-155969437D01*
X121598551Y-157194101D01*
X121631887Y-157267400D01*
X121673053Y-157321704D01*
X121722016Y-157360430D01*
X121779532Y-157386887D01*
X121849737Y-157403868D01*
X121935423Y-157409981D01*
X122116865Y-157409981D01*
G37*
G36*
X119635297Y-157409981D02*
G01*
X119635297Y-157184026D01*
X119320315Y-157184026D01*
X119260388Y-157178578D01*
X119216546Y-157164043D01*
X119184852Y-157141986D01*
X119162272Y-157110984D01*
X119147125Y-157065912D01*
X119141346Y-157001760D01*
X119141346Y-155969437D01*
X118856590Y-155969437D01*
X118856590Y-157011835D01*
X118864267Y-157108175D01*
X118885732Y-157187633D01*
X118919547Y-157253349D01*
X118965583Y-157307674D01*
X119022496Y-157349941D01*
X119093625Y-157381814D01*
X119182078Y-157402482D01*
X119291739Y-157409981D01*
X119635297Y-157409981D01*
G37*
G36*
X119625680Y-156195300D02*
G01*
X119625680Y-155969437D01*
X118997732Y-155969437D01*
X118997732Y-156195300D01*
X119625680Y-156195300D01*
G37*
G36*
X119145102Y-155831684D02*
G01*
X119145102Y-155583014D01*
X118857048Y-155583014D01*
X118857048Y-155831684D01*
X119145102Y-155831684D01*
G37*
G36*
X118056668Y-155952560D02*
G01*
X118149218Y-155976802D01*
X118232030Y-156016240D01*
X118305723Y-156070529D01*
X118367755Y-156138066D01*
X118418876Y-156220396D01*
X118455043Y-156310743D01*
X118477696Y-156414065D01*
X118485646Y-156532722D01*
X118477736Y-156650014D01*
X118455119Y-156752900D01*
X118418876Y-156843582D01*
X118367737Y-156926152D01*
X118305702Y-156993836D01*
X118232030Y-157048196D01*
X118149224Y-157087583D01*
X118056673Y-157111795D01*
X117952311Y-157120187D01*
X117847889Y-157111791D01*
X117755342Y-157087576D01*
X117672592Y-157048196D01*
X117598857Y-156993834D01*
X117536794Y-156926179D01*
X117485655Y-156843674D01*
X117449425Y-156753048D01*
X117426802Y-156650078D01*
X117418885Y-156532539D01*
X117418952Y-156531531D01*
X117714541Y-156531531D01*
X117722492Y-156638452D01*
X117743908Y-156719942D01*
X117776273Y-156781483D01*
X117823123Y-156830020D01*
X117880640Y-156858916D01*
X117952311Y-156869044D01*
X118023922Y-156858919D01*
X118081410Y-156830026D01*
X118128258Y-156781483D01*
X118160623Y-156719942D01*
X118182039Y-156638452D01*
X118189990Y-156531531D01*
X118182026Y-156424670D01*
X118160601Y-156343452D01*
X118128258Y-156282312D01*
X118081452Y-156234105D01*
X118023965Y-156205376D01*
X117952311Y-156195300D01*
X117880596Y-156205379D01*
X117823081Y-156234111D01*
X117776273Y-156282312D01*
X117743929Y-156343452D01*
X117722504Y-156424670D01*
X117714541Y-156531531D01*
X117418952Y-156531531D01*
X117426846Y-156413571D01*
X117449509Y-156310203D01*
X117485655Y-156220030D01*
X117536759Y-156137940D01*
X117598818Y-156070516D01*
X117672592Y-156016240D01*
X117755347Y-155976808D01*
X117847894Y-155952563D01*
X117952311Y-155944158D01*
X118056668Y-155952560D01*
G37*
G36*
X117158766Y-157095000D02*
G01*
X117158766Y-155603989D01*
X116874009Y-155603989D01*
X116874009Y-156210047D01*
X116897548Y-156189439D01*
X116864878Y-156109516D01*
X116822993Y-156049579D01*
X116769549Y-156002845D01*
X116706031Y-155969986D01*
X116635073Y-155950831D01*
X116553990Y-155944158D01*
X116478303Y-155950468D01*
X116415123Y-155968227D01*
X116362107Y-155996456D01*
X116316334Y-156035490D01*
X116278632Y-156084305D01*
X116248717Y-156144376D01*
X116221176Y-156244996D01*
X116211256Y-156368866D01*
X116211256Y-157095000D01*
X116496013Y-157095000D01*
X116496013Y-156428033D01*
X116502084Y-156340823D01*
X116517677Y-156280879D01*
X116539977Y-156241004D01*
X116572729Y-156210391D01*
X116613141Y-156191863D01*
X116663625Y-156185317D01*
X116721791Y-156192778D01*
X116771436Y-156214409D01*
X116814658Y-156250805D01*
X116845946Y-156298035D01*
X116866410Y-156361615D01*
X116874009Y-156446535D01*
X116874009Y-157095000D01*
X117158766Y-157095000D01*
G37*
G36*
X115913402Y-157095000D02*
G01*
X115913402Y-155969437D01*
X115653467Y-155969437D01*
X115644583Y-156276816D01*
X115673159Y-156264269D01*
X115644474Y-156161131D01*
X115602267Y-156083193D01*
X115544429Y-156021122D01*
X115475139Y-155978230D01*
X115396263Y-155952897D01*
X115306978Y-155944158D01*
X115227369Y-155950772D01*
X115162066Y-155969245D01*
X115108317Y-155998380D01*
X115061837Y-156038523D01*
X115023728Y-156087798D01*
X114993645Y-156147490D01*
X114965741Y-156246975D01*
X114955818Y-156366301D01*
X114955818Y-157095000D01*
X115240574Y-157095000D01*
X115240574Y-156430506D01*
X115246403Y-156346806D01*
X115261649Y-156286808D01*
X115283897Y-156244760D01*
X115316751Y-156212304D01*
X115359108Y-156192439D01*
X115414048Y-156185317D01*
X115470135Y-156192674D01*
X115520935Y-156214535D01*
X115564111Y-156249978D01*
X115599062Y-156300813D01*
X115620702Y-156362349D01*
X115628646Y-156443146D01*
X115628646Y-157095000D01*
X115913402Y-157095000D01*
G37*
G36*
X112763219Y-157095000D02*
G01*
X112859304Y-157088551D01*
X112935366Y-157070934D01*
X112995221Y-157044043D01*
X113041931Y-157008721D01*
X113078856Y-156963114D01*
X113106603Y-156905551D01*
X113124597Y-156833337D01*
X113131140Y-156743015D01*
X113131140Y-155705197D01*
X112846384Y-155705197D01*
X112846384Y-156715355D01*
X112841590Y-156765795D01*
X112828676Y-156803323D01*
X112808831Y-156831034D01*
X112781338Y-156851198D01*
X112744458Y-156864229D01*
X112695259Y-156869044D01*
X112429736Y-156869044D01*
X112429736Y-157095000D01*
X112763219Y-157095000D01*
G37*
G36*
X113454549Y-156195300D02*
G01*
X113454549Y-155969437D01*
X112429736Y-155969437D01*
X112429736Y-156195300D01*
X113454549Y-156195300D01*
G37*
G36*
X111794953Y-155950946D02*
G01*
X111879507Y-155970367D01*
X111954006Y-156001545D01*
X112019958Y-156044358D01*
X112077769Y-156098583D01*
X112123095Y-156160171D01*
X112156797Y-156230041D01*
X112178960Y-156309606D01*
X111884952Y-156325543D01*
X111862684Y-156263551D01*
X111824960Y-156215359D01*
X111791659Y-156192560D01*
X111748740Y-156177989D01*
X111693435Y-156172677D01*
X111631446Y-156179884D01*
X111586330Y-156199364D01*
X111553759Y-156230013D01*
X111531357Y-156270482D01*
X111516623Y-156323820D01*
X111511169Y-156393595D01*
X111849690Y-156466685D01*
X111953681Y-156496444D01*
X112036284Y-156534719D01*
X112101107Y-156580532D01*
X112140343Y-156623169D01*
X112168585Y-156673297D01*
X112186200Y-156732413D01*
X112192424Y-156802641D01*
X112186566Y-156867173D01*
X112169715Y-156923526D01*
X112142232Y-156973275D01*
X112105169Y-157016789D01*
X112060336Y-157053069D01*
X112006769Y-157082452D01*
X111918115Y-157110503D01*
X111817725Y-157120187D01*
X111720166Y-157111009D01*
X111639030Y-157085108D01*
X111568861Y-157042889D01*
X111515199Y-156988571D01*
X111479173Y-156926011D01*
X111479001Y-156927247D01*
X111455482Y-156988387D01*
X111417706Y-157038462D01*
X111365814Y-157074849D01*
X111302939Y-157096434D01*
X111223024Y-157104250D01*
X111162390Y-157100678D01*
X111120533Y-157095000D01*
X111120533Y-156881684D01*
X111166695Y-156881684D01*
X111192738Y-156877435D01*
X111210842Y-156865747D01*
X111221802Y-156845558D01*
X111226413Y-156806854D01*
X111226413Y-156661591D01*
X111511169Y-156661591D01*
X111518804Y-156735173D01*
X111540112Y-156794123D01*
X111575671Y-156842665D01*
X111624559Y-156878112D01*
X111683912Y-156899234D01*
X111759381Y-156906871D01*
X111821716Y-156898206D01*
X111863337Y-156875181D01*
X111889940Y-156838380D01*
X111899241Y-156788444D01*
X111890991Y-156735351D01*
X111868374Y-156698135D01*
X111829977Y-156671675D01*
X111760572Y-156649775D01*
X111511169Y-156595187D01*
X111511169Y-156661591D01*
X111226413Y-156661591D01*
X111226413Y-156410356D01*
X111234494Y-156299908D01*
X111257131Y-156207862D01*
X111292737Y-156130998D01*
X111340901Y-156066798D01*
X111401583Y-156016058D01*
X111478708Y-155977934D01*
X111576045Y-155953178D01*
X111698473Y-155944158D01*
X111794953Y-155950946D01*
G37*
G36*
X110878092Y-157095000D02*
G01*
X110878092Y-155969437D01*
X110618156Y-155969437D01*
X110609272Y-156276816D01*
X110637848Y-156264269D01*
X110609163Y-156161131D01*
X110566957Y-156083193D01*
X110509118Y-156021122D01*
X110439829Y-155978230D01*
X110360952Y-155952897D01*
X110271667Y-155944158D01*
X110192059Y-155950772D01*
X110126755Y-155969245D01*
X110073006Y-155998380D01*
X110026527Y-156038523D01*
X109988418Y-156087798D01*
X109958334Y-156147490D01*
X109930431Y-156246975D01*
X109920507Y-156366301D01*
X109920507Y-157095000D01*
X110205264Y-157095000D01*
X110205264Y-156430506D01*
X110211092Y-156346806D01*
X110226338Y-156286808D01*
X110248586Y-156244760D01*
X110281440Y-156212304D01*
X110323798Y-156192439D01*
X110378737Y-156185317D01*
X110434824Y-156192674D01*
X110485624Y-156214535D01*
X110528801Y-156249978D01*
X110563751Y-156300813D01*
X110585392Y-156362349D01*
X110593335Y-156443146D01*
X110593335Y-157095000D01*
X110878092Y-157095000D01*
G37*
G36*
X109489113Y-156611124D02*
G01*
X109489113Y-156353295D01*
X108791922Y-156353295D01*
X108791922Y-156611124D01*
X109489113Y-156611124D01*
G37*
G36*
X108018470Y-155950946D02*
G01*
X108103024Y-155970367D01*
X108177523Y-156001545D01*
X108243475Y-156044358D01*
X108301286Y-156098583D01*
X108346612Y-156160171D01*
X108380314Y-156230041D01*
X108402477Y-156309606D01*
X108108469Y-156325543D01*
X108086201Y-156263551D01*
X108048477Y-156215359D01*
X108015176Y-156192560D01*
X107972257Y-156177989D01*
X107916953Y-156172677D01*
X107854963Y-156179884D01*
X107809847Y-156199364D01*
X107777276Y-156230013D01*
X107754874Y-156270482D01*
X107740140Y-156323820D01*
X107734686Y-156393595D01*
X108073207Y-156466685D01*
X108177198Y-156496444D01*
X108259801Y-156534719D01*
X108324624Y-156580532D01*
X108363860Y-156623169D01*
X108392102Y-156673297D01*
X108409717Y-156732413D01*
X108415941Y-156802641D01*
X108410083Y-156867173D01*
X108393232Y-156923526D01*
X108365749Y-156973275D01*
X108328686Y-157016789D01*
X108283853Y-157053069D01*
X108230286Y-157082452D01*
X108141632Y-157110503D01*
X108041242Y-157120187D01*
X107943683Y-157111009D01*
X107862547Y-157085108D01*
X107792379Y-157042889D01*
X107738716Y-156988571D01*
X107702690Y-156926011D01*
X107702518Y-156927247D01*
X107678999Y-156988387D01*
X107641223Y-157038462D01*
X107589331Y-157074849D01*
X107526456Y-157096434D01*
X107446541Y-157104250D01*
X107385908Y-157100678D01*
X107344050Y-157095000D01*
X107344050Y-156881684D01*
X107390212Y-156881684D01*
X107416255Y-156877435D01*
X107434359Y-156865747D01*
X107445319Y-156845558D01*
X107449930Y-156806854D01*
X107449930Y-156661591D01*
X107734686Y-156661591D01*
X107742321Y-156735173D01*
X107763629Y-156794123D01*
X107799188Y-156842665D01*
X107848076Y-156878112D01*
X107907429Y-156899234D01*
X107982898Y-156906871D01*
X108045233Y-156898206D01*
X108086854Y-156875181D01*
X108113458Y-156838380D01*
X108122758Y-156788444D01*
X108114508Y-156735351D01*
X108091892Y-156698135D01*
X108053495Y-156671675D01*
X107984089Y-156649775D01*
X107734686Y-156595187D01*
X107734686Y-156661591D01*
X107449930Y-156661591D01*
X107449930Y-156410356D01*
X107458011Y-156299908D01*
X107480648Y-156207862D01*
X107516254Y-156130998D01*
X107564419Y-156066798D01*
X107625100Y-156016058D01*
X107702225Y-155977934D01*
X107799562Y-155953178D01*
X107921990Y-155944158D01*
X108018470Y-155950946D01*
G37*
G36*
X106831965Y-157095000D02*
G01*
X106831965Y-155969437D01*
X106621946Y-155969437D01*
X106600148Y-156263444D01*
X106619474Y-156264269D01*
X106599920Y-156167985D01*
X106570621Y-156095932D01*
X106533195Y-156042984D01*
X106483328Y-156003490D01*
X106418431Y-155978523D01*
X106333893Y-155969437D01*
X106081010Y-155969437D01*
X106081010Y-156202078D01*
X106312918Y-156202078D01*
X106387915Y-156209513D01*
X106444168Y-156229647D01*
X106489339Y-156263729D01*
X106521654Y-156311530D01*
X106540285Y-156370057D01*
X106547208Y-156448183D01*
X106547208Y-157095000D01*
X106831965Y-157095000D01*
G37*
G36*
X107101609Y-157095000D02*
G01*
X107101609Y-156869044D01*
X106204474Y-156869044D01*
X106204474Y-157095000D01*
X107101609Y-157095000D01*
G37*
G36*
X107101609Y-156195300D02*
G01*
X107101609Y-155969437D01*
X106662338Y-155969437D01*
X106662338Y-156195300D01*
X107101609Y-156195300D01*
G37*
G36*
X105432911Y-157095000D02*
G01*
X105432911Y-155969437D01*
X105148155Y-155969437D01*
X105148155Y-157095000D01*
X105432911Y-157095000D01*
G37*
G36*
X105851208Y-157095000D02*
G01*
X105851208Y-156869044D01*
X104792781Y-156869044D01*
X104792781Y-157095000D01*
X105851208Y-157095000D01*
G37*
G36*
X105830233Y-156195300D02*
G01*
X105830233Y-155969437D01*
X105201094Y-155969437D01*
X105201094Y-156195300D01*
X105830233Y-156195300D01*
G37*
G36*
X105440788Y-155831684D02*
G01*
X105440788Y-155583014D01*
X105152734Y-155583014D01*
X105152734Y-155831684D01*
X105440788Y-155831684D01*
G37*
G36*
X104094216Y-157120187D02*
G01*
X104201817Y-157113890D01*
X104291311Y-157096361D01*
X104365601Y-157069171D01*
X104434125Y-157030160D01*
X104489114Y-156984662D01*
X104532296Y-156932517D01*
X104565551Y-156873269D01*
X104588013Y-156809978D01*
X104599890Y-156741733D01*
X104319347Y-156730467D01*
X104292277Y-156792825D01*
X104248181Y-156840560D01*
X104210485Y-156862078D01*
X104159625Y-156876354D01*
X104091743Y-156881684D01*
X104001179Y-156874717D01*
X103948128Y-156857962D01*
X103921777Y-156838877D01*
X103906928Y-156815854D01*
X103901875Y-156787528D01*
X103906127Y-156757789D01*
X103918087Y-156734863D01*
X103939226Y-156716641D01*
X103980826Y-156697128D01*
X104120320Y-156661591D01*
X104281265Y-156621095D01*
X104390422Y-156580899D01*
X104453410Y-156546373D01*
X104499885Y-156508620D01*
X104532754Y-156467692D01*
X104555819Y-156420416D01*
X104570364Y-156364441D01*
X104575527Y-156297882D01*
X104569794Y-156234089D01*
X104552917Y-156175164D01*
X104524786Y-156120013D01*
X104486353Y-156071462D01*
X104435835Y-156028856D01*
X104371279Y-155992060D01*
X104301131Y-155966547D01*
X104216451Y-155950080D01*
X104114458Y-155944158D01*
X104002655Y-155951021D01*
X103912973Y-155969831D01*
X103841425Y-155998563D01*
X103776076Y-156039558D01*
X103724349Y-156086256D01*
X103684529Y-156138880D01*
X103641603Y-156227767D01*
X103618859Y-156321330D01*
X103901875Y-156333969D01*
X103915441Y-156291519D01*
X103937870Y-156255201D01*
X103968727Y-156225388D01*
X104009220Y-156202078D01*
X104055944Y-156187833D01*
X104112718Y-156182752D01*
X104173050Y-156187488D01*
X104215335Y-156199810D01*
X104244242Y-156217832D01*
X104274554Y-156256259D01*
X104284084Y-156297882D01*
X104278463Y-156334151D01*
X104262469Y-156362363D01*
X104235269Y-156384410D01*
X104185624Y-156406418D01*
X104029553Y-156445710D01*
X103875981Y-156483053D01*
X103775479Y-156520449D01*
X103718078Y-156552881D01*
X103676414Y-156587810D01*
X103647618Y-156625229D01*
X103620377Y-156693045D01*
X103610432Y-156782491D01*
X103617058Y-156850592D01*
X103636183Y-156910155D01*
X103667585Y-156962925D01*
X103709771Y-157008038D01*
X103764082Y-157046838D01*
X103832632Y-157079246D01*
X103905700Y-157101102D01*
X103992158Y-157115163D01*
X104094216Y-157120187D01*
G37*
G36*
X102692598Y-157095000D02*
G01*
X102788683Y-157088551D01*
X102864745Y-157070934D01*
X102924600Y-157044043D01*
X102971310Y-157008721D01*
X103008235Y-156963114D01*
X103035982Y-156905551D01*
X103053976Y-156833337D01*
X103060519Y-156743015D01*
X103060519Y-155705197D01*
X102775763Y-155705197D01*
X102775763Y-156715355D01*
X102770969Y-156765795D01*
X102758055Y-156803323D01*
X102738210Y-156831034D01*
X102710717Y-156851198D01*
X102673837Y-156864229D01*
X102624637Y-156869044D01*
X102359115Y-156869044D01*
X102359115Y-157095000D01*
X102692598Y-157095000D01*
G37*
G36*
X103383927Y-156195300D02*
G01*
X103383927Y-155969437D01*
X102359115Y-155969437D01*
X102359115Y-156195300D01*
X103383927Y-156195300D01*
G37*
G36*
X101975623Y-157409981D02*
G01*
X101975623Y-157184026D01*
X101823582Y-157184026D01*
X101772069Y-157179522D01*
X101738311Y-157168089D01*
X101712846Y-157146376D01*
X101693340Y-157108463D01*
X101662290Y-157023558D01*
X101752141Y-157023558D01*
X102146990Y-155969437D01*
X101850418Y-155969437D01*
X101574088Y-156751441D01*
X101321205Y-155969437D01*
X101024725Y-155969437D01*
X101457309Y-157194101D01*
X101490645Y-157267400D01*
X101531811Y-157321704D01*
X101580774Y-157360430D01*
X101638290Y-157386887D01*
X101708495Y-157403868D01*
X101794181Y-157409981D01*
X101975623Y-157409981D01*
G37*
G36*
X142335319Y-154595000D02*
G01*
X142335319Y-153103989D01*
X142050562Y-153103989D01*
X142050562Y-153710047D01*
X142074101Y-153689439D01*
X142041430Y-153609516D01*
X141999546Y-153549579D01*
X141946102Y-153502845D01*
X141882584Y-153469986D01*
X141811626Y-153450831D01*
X141730543Y-153444158D01*
X141654856Y-153450468D01*
X141591676Y-153468227D01*
X141538660Y-153496456D01*
X141492886Y-153535490D01*
X141455184Y-153584305D01*
X141425270Y-153644376D01*
X141397729Y-153744996D01*
X141387809Y-153868866D01*
X141387809Y-154595000D01*
X141672566Y-154595000D01*
X141672566Y-153928033D01*
X141678637Y-153840823D01*
X141694230Y-153780879D01*
X141716530Y-153741004D01*
X141749282Y-153710391D01*
X141789693Y-153691863D01*
X141840177Y-153685317D01*
X141898344Y-153692778D01*
X141947989Y-153714409D01*
X141991211Y-153750805D01*
X142022499Y-153798035D01*
X142042962Y-153861615D01*
X142050562Y-153946535D01*
X142050562Y-154595000D01*
X142335319Y-154595000D01*
G37*
G36*
X140457427Y-154595000D02*
G01*
X140553512Y-154588551D01*
X140629574Y-154570934D01*
X140689429Y-154544043D01*
X140736139Y-154508721D01*
X140773064Y-154463114D01*
X140800811Y-154405551D01*
X140818805Y-154333337D01*
X140825348Y-154243015D01*
X140825348Y-153205197D01*
X140540592Y-153205197D01*
X140540592Y-154215355D01*
X140535798Y-154265795D01*
X140522884Y-154303323D01*
X140503039Y-154331034D01*
X140475546Y-154351198D01*
X140438666Y-154364229D01*
X140389467Y-154369044D01*
X140123944Y-154369044D01*
X140123944Y-154595000D01*
X140457427Y-154595000D01*
G37*
G36*
X141148756Y-153695300D02*
G01*
X141148756Y-153469437D01*
X140123944Y-153469437D01*
X140123944Y-153695300D01*
X141148756Y-153695300D01*
G37*
G36*
X139198599Y-154595000D02*
G01*
X139294685Y-154588551D01*
X139370746Y-154570934D01*
X139430602Y-154544043D01*
X139477311Y-154508721D01*
X139514236Y-154463114D01*
X139541983Y-154405551D01*
X139559977Y-154333337D01*
X139566521Y-154243015D01*
X139566521Y-153205197D01*
X139281764Y-153205197D01*
X139281764Y-154215355D01*
X139276970Y-154265795D01*
X139264057Y-154303323D01*
X139244212Y-154331034D01*
X139216718Y-154351198D01*
X139179839Y-154364229D01*
X139130639Y-154369044D01*
X138865116Y-154369044D01*
X138865116Y-154595000D01*
X139198599Y-154595000D01*
G37*
G36*
X139889929Y-153695300D02*
G01*
X139889929Y-153469437D01*
X138865116Y-153469437D01*
X138865116Y-153695300D01*
X139889929Y-153695300D01*
G37*
G36*
X138077443Y-153452496D02*
G01*
X138152022Y-153476219D01*
X138215827Y-153514591D01*
X138269593Y-153566573D01*
X138314264Y-153632962D01*
X138325405Y-153659161D01*
X138331232Y-153469437D01*
X138605914Y-153469437D01*
X138605914Y-154909981D01*
X138321157Y-154909981D01*
X138321157Y-154437165D01*
X138315322Y-154449662D01*
X138270965Y-154510186D01*
X138215687Y-154558156D01*
X138149424Y-154592710D01*
X138075151Y-154613066D01*
X137989414Y-154620187D01*
X137892397Y-154610924D01*
X137810518Y-154584603D01*
X137740744Y-154542060D01*
X137681121Y-154484913D01*
X137631749Y-154414994D01*
X137592459Y-154330393D01*
X137565640Y-154240113D01*
X137549020Y-154141107D01*
X137543274Y-154032172D01*
X137839022Y-154032172D01*
X137847319Y-154146222D01*
X137869130Y-154228619D01*
X137901212Y-154286979D01*
X137947834Y-154332241D01*
X138005186Y-154359459D01*
X138076700Y-154369044D01*
X138144787Y-154359856D01*
X138203829Y-154332957D01*
X138252151Y-154288528D01*
X138290291Y-154222041D01*
X138312708Y-154141586D01*
X138321157Y-154032172D01*
X138312614Y-153922864D01*
X138289924Y-153842396D01*
X138251483Y-153775802D01*
X138203371Y-153731479D01*
X138144711Y-153704524D01*
X138076700Y-153695300D01*
X138005193Y-153704895D01*
X137947841Y-153732140D01*
X137901212Y-153777458D01*
X137869127Y-153835817D01*
X137847317Y-153918187D01*
X137839022Y-154032172D01*
X137543274Y-154032172D01*
X137549042Y-153922430D01*
X137565684Y-153823269D01*
X137592459Y-153733402D01*
X137631721Y-153649160D01*
X137681088Y-153579411D01*
X137740744Y-153522285D01*
X137810518Y-153479742D01*
X137892397Y-153453421D01*
X137989414Y-153444158D01*
X138077443Y-153452496D01*
G37*
G36*
X136823735Y-154620187D02*
G01*
X136931335Y-154613890D01*
X137020829Y-154596361D01*
X137095119Y-154569171D01*
X137163644Y-154530160D01*
X137218633Y-154484662D01*
X137261815Y-154432517D01*
X137295069Y-154373269D01*
X137317531Y-154309978D01*
X137329409Y-154241733D01*
X137048866Y-154230467D01*
X137021795Y-154292825D01*
X136977699Y-154340560D01*
X136940004Y-154362078D01*
X136889144Y-154376354D01*
X136821262Y-154381684D01*
X136730698Y-154374717D01*
X136677647Y-154357962D01*
X136651296Y-154338877D01*
X136636446Y-154315854D01*
X136631393Y-154287528D01*
X136635645Y-154257789D01*
X136647605Y-154234863D01*
X136668744Y-154216641D01*
X136710345Y-154197128D01*
X136849838Y-154161591D01*
X137010783Y-154121095D01*
X137119940Y-154080899D01*
X137182928Y-154046373D01*
X137229404Y-154008620D01*
X137262273Y-153967692D01*
X137285338Y-153920416D01*
X137299882Y-153864441D01*
X137305046Y-153797882D01*
X137299313Y-153734089D01*
X137282435Y-153675164D01*
X137254304Y-153620013D01*
X137215871Y-153571462D01*
X137165354Y-153528856D01*
X137100798Y-153492060D01*
X137030650Y-153466547D01*
X136945969Y-153450080D01*
X136843976Y-153444158D01*
X136732174Y-153451021D01*
X136642492Y-153469831D01*
X136570943Y-153498563D01*
X136505594Y-153539558D01*
X136453867Y-153586256D01*
X136414048Y-153638880D01*
X136371121Y-153727767D01*
X136348377Y-153821330D01*
X136631393Y-153833969D01*
X136644959Y-153791519D01*
X136667389Y-153755201D01*
X136698246Y-153725388D01*
X136738738Y-153702078D01*
X136785462Y-153687833D01*
X136842236Y-153682752D01*
X136902569Y-153687488D01*
X136944854Y-153699810D01*
X136973761Y-153717832D01*
X137004072Y-153756259D01*
X137013603Y-153797882D01*
X137007982Y-153834151D01*
X136991987Y-153862363D01*
X136964787Y-153884410D01*
X136915143Y-153906418D01*
X136759071Y-153945710D01*
X136605500Y-153983053D01*
X136504998Y-154020449D01*
X136447597Y-154052881D01*
X136405933Y-154087810D01*
X136377137Y-154125229D01*
X136349895Y-154193045D01*
X136339951Y-154282491D01*
X136346577Y-154350592D01*
X136365702Y-154410155D01*
X136397103Y-154462925D01*
X136439290Y-154508038D01*
X136493601Y-154546838D01*
X136562151Y-154579246D01*
X136635218Y-154601102D01*
X136721677Y-154615163D01*
X136823735Y-154620187D01*
G37*
G36*
X135741311Y-154595000D02*
G01*
X135741311Y-154278369D01*
X135410393Y-154278369D01*
X135410393Y-154595000D01*
X135741311Y-154595000D01*
G37*
G36*
X135741311Y-153827100D02*
G01*
X135741311Y-153510470D01*
X135410393Y-153510470D01*
X135410393Y-153827100D01*
X135741311Y-153827100D01*
G37*
G36*
X134765592Y-154825992D02*
G01*
X134137277Y-153020000D01*
X133868457Y-153020000D01*
X134496772Y-154825992D01*
X134765592Y-154825992D01*
G37*
G36*
X133506764Y-154825992D02*
G01*
X132878449Y-153020000D01*
X132609630Y-153020000D01*
X133237944Y-154825992D01*
X133506764Y-154825992D01*
G37*
G36*
X131968632Y-153452043D02*
G01*
X132047576Y-153474999D01*
X132119434Y-153512851D01*
X132182748Y-153564020D01*
X132236876Y-153627882D01*
X132282192Y-153706108D01*
X132314082Y-153791028D01*
X132334128Y-153888372D01*
X132341176Y-154000299D01*
X132334132Y-154103863D01*
X132313848Y-154196167D01*
X132281092Y-154278919D01*
X132235224Y-154354805D01*
X132180105Y-154417408D01*
X132115221Y-154468146D01*
X132042073Y-154505715D01*
X131962536Y-154528427D01*
X131874978Y-154536198D01*
X131797475Y-154530413D01*
X131733072Y-154514222D01*
X131679431Y-154488754D01*
X131631671Y-154453342D01*
X131593239Y-154411678D01*
X131563293Y-154363183D01*
X131563293Y-154493333D01*
X131570840Y-154559199D01*
X131591758Y-154610341D01*
X131625300Y-154650229D01*
X131669718Y-154678713D01*
X131728811Y-154697299D01*
X131806926Y-154704176D01*
X131886274Y-154695949D01*
X131938633Y-154674775D01*
X131977919Y-154639848D01*
X132002656Y-154594175D01*
X132300876Y-154611761D01*
X132279973Y-154674728D01*
X132250429Y-154731366D01*
X132212033Y-154782486D01*
X132165782Y-154826724D01*
X132110812Y-154864291D01*
X132045978Y-154895235D01*
X131977076Y-154916746D01*
X131897920Y-154930366D01*
X131806926Y-154935169D01*
X131700717Y-154928813D01*
X131608224Y-154910743D01*
X131527481Y-154882046D01*
X131453591Y-154840250D01*
X131392803Y-154787450D01*
X131343658Y-154722861D01*
X131308581Y-154649523D01*
X131286415Y-154562512D01*
X131278537Y-154458895D01*
X131278537Y-153993979D01*
X131563293Y-153993979D01*
X131572413Y-154095940D01*
X131595743Y-154172258D01*
X131630796Y-154228818D01*
X131679655Y-154272755D01*
X131736367Y-154298782D01*
X131803537Y-154307770D01*
X131875677Y-154298511D01*
X131933891Y-154272247D01*
X131981498Y-154228818D01*
X132015026Y-154172467D01*
X132037229Y-154096172D01*
X132045520Y-153993979D01*
X132037378Y-153891718D01*
X132015484Y-153814513D01*
X131982322Y-153756758D01*
X131934972Y-153711907D01*
X131876546Y-153684810D01*
X131803537Y-153675242D01*
X131735688Y-153684519D01*
X131677416Y-153711604D01*
X131629609Y-153755484D01*
X131592511Y-153818857D01*
X131570768Y-153894724D01*
X131563293Y-153993979D01*
X131278537Y-153993979D01*
X131278537Y-153469437D01*
X131554959Y-153469437D01*
X131559996Y-153640712D01*
X131593420Y-153582292D01*
X131634894Y-153534323D01*
X131684926Y-153495632D01*
X131741682Y-153467590D01*
X131806415Y-153450225D01*
X131880840Y-153444158D01*
X131968632Y-153452043D01*
G37*
G36*
X130609464Y-154595000D02*
G01*
X130609464Y-153469437D01*
X130324707Y-153469437D01*
X130324707Y-154595000D01*
X130609464Y-154595000D01*
G37*
G36*
X131027760Y-154595000D02*
G01*
X131027760Y-154369044D01*
X129969334Y-154369044D01*
X129969334Y-154595000D01*
X131027760Y-154595000D01*
G37*
G36*
X131006786Y-153695300D02*
G01*
X131006786Y-153469437D01*
X130377647Y-153469437D01*
X130377647Y-153695300D01*
X131006786Y-153695300D01*
G37*
G36*
X130617341Y-153331684D02*
G01*
X130617341Y-153083014D01*
X130329287Y-153083014D01*
X130329287Y-153331684D01*
X130617341Y-153331684D01*
G37*
G36*
X129127978Y-154595000D02*
G01*
X129224064Y-154588551D01*
X129300125Y-154570934D01*
X129359981Y-154544043D01*
X129406690Y-154508721D01*
X129443615Y-154463114D01*
X129471362Y-154405551D01*
X129489356Y-154333337D01*
X129495900Y-154243015D01*
X129495900Y-153205197D01*
X129211143Y-153205197D01*
X129211143Y-154215355D01*
X129206349Y-154265795D01*
X129193436Y-154303323D01*
X129173591Y-154331034D01*
X129146097Y-154351198D01*
X129109217Y-154364229D01*
X129060018Y-154369044D01*
X128794495Y-154369044D01*
X128794495Y-154595000D01*
X129127978Y-154595000D01*
G37*
G36*
X129819308Y-153695300D02*
G01*
X129819308Y-153469437D01*
X128794495Y-153469437D01*
X128794495Y-153695300D01*
X129819308Y-153695300D01*
G37*
G36*
X128488215Y-154595000D02*
G01*
X128488215Y-153103989D01*
X128203458Y-153103989D01*
X128203458Y-153710047D01*
X128226997Y-153689439D01*
X128194327Y-153609516D01*
X128152442Y-153549579D01*
X128098998Y-153502845D01*
X128035480Y-153469986D01*
X127964522Y-153450831D01*
X127883439Y-153444158D01*
X127807752Y-153450468D01*
X127744572Y-153468227D01*
X127691556Y-153496456D01*
X127645782Y-153535490D01*
X127608080Y-153584305D01*
X127578166Y-153644376D01*
X127550625Y-153744996D01*
X127540705Y-153868866D01*
X127540705Y-154595000D01*
X127825462Y-154595000D01*
X127825462Y-153928033D01*
X127831533Y-153840823D01*
X127847126Y-153780879D01*
X127869426Y-153741004D01*
X127902178Y-153710391D01*
X127942589Y-153691863D01*
X127993073Y-153685317D01*
X128051240Y-153692778D01*
X128100885Y-153714409D01*
X128144107Y-153750805D01*
X128175395Y-153798035D01*
X128195858Y-153861615D01*
X128203458Y-153946535D01*
X128203458Y-154595000D01*
X128488215Y-154595000D01*
G37*
G36*
X126895904Y-154620187D02*
G01*
X126973430Y-154613080D01*
X127039611Y-154592818D01*
X127096642Y-154560047D01*
X127146039Y-154514125D01*
X127184023Y-154459175D01*
X127212642Y-154391526D01*
X127231135Y-154308528D01*
X127237814Y-154206928D01*
X127237814Y-153469437D01*
X126953057Y-153469437D01*
X126953057Y-154134663D01*
X126947209Y-154221148D01*
X126932120Y-154281369D01*
X126910467Y-154322058D01*
X126878232Y-154353270D01*
X126837219Y-154372318D01*
X126784621Y-154379119D01*
X126730100Y-154371810D01*
X126682288Y-154350329D01*
X126639357Y-154313632D01*
X126607919Y-154266441D01*
X126587581Y-154204340D01*
X126580098Y-154122939D01*
X126580098Y-153469437D01*
X126295341Y-153469437D01*
X126295341Y-154595000D01*
X126557841Y-154595000D01*
X126564161Y-154270767D01*
X126530547Y-154279102D01*
X126555619Y-154383651D01*
X126595477Y-154466289D01*
X126649249Y-154531161D01*
X126717340Y-154579796D01*
X126798361Y-154609666D01*
X126895904Y-154620187D01*
G37*
G36*
X125996663Y-154595000D02*
G01*
X125723630Y-154595000D01*
X125716120Y-154416946D01*
X125682057Y-154472660D01*
X125639251Y-154521185D01*
X125586976Y-154563126D01*
X125528094Y-154594201D01*
X125460343Y-154613447D01*
X125381721Y-154620187D01*
X125293475Y-154612143D01*
X125215336Y-154588863D01*
X125145324Y-154550669D01*
X125084444Y-154498786D01*
X125032478Y-154432553D01*
X124989253Y-154349719D01*
X124959665Y-154260413D01*
X124940754Y-154155451D01*
X124934023Y-154032172D01*
X125229679Y-154032172D01*
X125237364Y-154139089D01*
X125258022Y-154220423D01*
X125289122Y-154281666D01*
X125334625Y-154329946D01*
X125391680Y-154358844D01*
X125464061Y-154369044D01*
X125534405Y-154358911D01*
X125593845Y-154329385D01*
X125642268Y-154282070D01*
X125680582Y-154214530D01*
X125703511Y-154134559D01*
X125711906Y-154032172D01*
X125703649Y-153928345D01*
X125681223Y-153848074D01*
X125643147Y-153780629D01*
X125594120Y-153734043D01*
X125533703Y-153705213D01*
X125462412Y-153695300D01*
X125391100Y-153705417D01*
X125334549Y-153734157D01*
X125289122Y-153782312D01*
X125258065Y-153843279D01*
X125237387Y-153924680D01*
X125229679Y-154032172D01*
X124934023Y-154032172D01*
X124940753Y-153908956D01*
X124959663Y-153804023D01*
X124989253Y-153714718D01*
X125032483Y-153631824D01*
X125084450Y-153565562D01*
X125145324Y-153513675D01*
X125215336Y-153475482D01*
X125293475Y-153452202D01*
X125381721Y-153444158D01*
X125458124Y-153450259D01*
X125525080Y-153467766D01*
X125584228Y-153496090D01*
X125637359Y-153534611D01*
X125679533Y-153578620D01*
X125711906Y-153628531D01*
X125711906Y-153103989D01*
X125996663Y-153103989D01*
X125996663Y-154595000D01*
G37*
G36*
X124411863Y-154595000D02*
G01*
X124411863Y-154278369D01*
X124080944Y-154278369D01*
X124080944Y-154595000D01*
X124411863Y-154595000D01*
G37*
G36*
X122968296Y-154620187D02*
G01*
X123073133Y-154611614D01*
X123166742Y-154586800D01*
X123251129Y-154546273D01*
X123326500Y-154490756D01*
X123389951Y-154422437D01*
X123442280Y-154339918D01*
X123479638Y-154249222D01*
X123502813Y-154147329D01*
X123510881Y-154032172D01*
X123502807Y-153917080D01*
X123479627Y-153815378D01*
X123442280Y-153724976D01*
X123389990Y-153642661D01*
X123326541Y-153574297D01*
X123251129Y-153518530D01*
X123166715Y-153477742D01*
X123073109Y-153452779D01*
X122968296Y-153444158D01*
X122880996Y-153450227D01*
X122800932Y-153467930D01*
X122726953Y-153496914D01*
X122658605Y-153537132D01*
X122599184Y-153586786D01*
X122547893Y-153646482D01*
X122507224Y-153713844D01*
X122477591Y-153789835D01*
X122459233Y-153875918D01*
X122742341Y-153891031D01*
X122761701Y-153830389D01*
X122788353Y-153782731D01*
X122821933Y-153745767D01*
X122863164Y-153718029D01*
X122910533Y-153701166D01*
X122965731Y-153695300D01*
X123039042Y-153705634D01*
X123098999Y-153735322D01*
X123148913Y-153785426D01*
X123184129Y-153848850D01*
X123206912Y-153929598D01*
X123215225Y-154032172D01*
X123206910Y-154134809D01*
X123184126Y-154215585D01*
X123148913Y-154279010D01*
X123099006Y-154329059D01*
X123039049Y-154358719D01*
X122965731Y-154369044D01*
X122909800Y-154362934D01*
X122861452Y-154345292D01*
X122819002Y-154316105D01*
X122784703Y-154277279D01*
X122757858Y-154226914D01*
X122738952Y-154162415D01*
X122455844Y-154177527D01*
X122474197Y-154263717D01*
X122503893Y-154340704D01*
X122544779Y-154409802D01*
X122596298Y-154471347D01*
X122656092Y-154522794D01*
X122724938Y-154564774D01*
X122799597Y-154595249D01*
X122880312Y-154613824D01*
X122968296Y-154620187D01*
G37*
G36*
X121833151Y-153452560D02*
G01*
X121925701Y-153476802D01*
X122008513Y-153516240D01*
X122082205Y-153570529D01*
X122144238Y-153638066D01*
X122195359Y-153720396D01*
X122231526Y-153810743D01*
X122254179Y-153914065D01*
X122262129Y-154032722D01*
X122254219Y-154150014D01*
X122231602Y-154252900D01*
X122195359Y-154343582D01*
X122144220Y-154426152D01*
X122082185Y-154493836D01*
X122008513Y-154548196D01*
X121925706Y-154587583D01*
X121833156Y-154611795D01*
X121728794Y-154620187D01*
X121624372Y-154611791D01*
X121531824Y-154587576D01*
X121449075Y-154548196D01*
X121375340Y-154493834D01*
X121313276Y-154426179D01*
X121262137Y-154343674D01*
X121225908Y-154253048D01*
X121203285Y-154150078D01*
X121195368Y-154032539D01*
X121195435Y-154031531D01*
X121491024Y-154031531D01*
X121498975Y-154138452D01*
X121520390Y-154219942D01*
X121552756Y-154281483D01*
X121599606Y-154330020D01*
X121657123Y-154358916D01*
X121728794Y-154369044D01*
X121800405Y-154358919D01*
X121857893Y-154330026D01*
X121904740Y-154281483D01*
X121937106Y-154219942D01*
X121958522Y-154138452D01*
X121966473Y-154031531D01*
X121958509Y-153924670D01*
X121937084Y-153843452D01*
X121904740Y-153782312D01*
X121857935Y-153734105D01*
X121800448Y-153705376D01*
X121728794Y-153695300D01*
X121657079Y-153705379D01*
X121599564Y-153734111D01*
X121552756Y-153782312D01*
X121520412Y-153843452D01*
X121498987Y-153924670D01*
X121491024Y-154031531D01*
X121195435Y-154031531D01*
X121203329Y-153913571D01*
X121225992Y-153810203D01*
X121262137Y-153720030D01*
X121313242Y-153637940D01*
X121375301Y-153570516D01*
X121449075Y-153516240D01*
X121531830Y-153476808D01*
X121624377Y-153452563D01*
X121728794Y-153444158D01*
X121833151Y-153452560D01*
G37*
G36*
X121041128Y-154595000D02*
G01*
X121041128Y-153469437D01*
X120808853Y-153469437D01*
X120798778Y-153728548D01*
X120823599Y-153721862D01*
X120800212Y-153630870D01*
X120770956Y-153562974D01*
X120737046Y-153513492D01*
X120693180Y-153474676D01*
X120643723Y-153451926D01*
X120586653Y-153444158D01*
X120521248Y-153452731D01*
X120472076Y-153476432D01*
X120435070Y-153514958D01*
X120408967Y-153564584D01*
X120386976Y-153634593D01*
X120370773Y-153730655D01*
X120401914Y-153730655D01*
X120379901Y-153638767D01*
X120348829Y-153568879D01*
X120309957Y-153516606D01*
X120259960Y-153476192D01*
X120203932Y-153452321D01*
X120139781Y-153444158D01*
X120079242Y-153450274D01*
X120030087Y-153467421D01*
X119989889Y-153494886D01*
X119957148Y-153533459D01*
X119927333Y-153596114D01*
X119906659Y-153686338D01*
X119898713Y-153812903D01*
X119898713Y-154595000D01*
X120165884Y-154595000D01*
X120165884Y-153870881D01*
X120172043Y-153770081D01*
X120185393Y-153723144D01*
X120210588Y-153694741D01*
X120246942Y-153685317D01*
X120274187Y-153690024D01*
X120298142Y-153704185D01*
X120317161Y-153727131D01*
X120333404Y-153764452D01*
X120342776Y-153809124D01*
X120346410Y-153872621D01*
X120346410Y-154595000D01*
X120593431Y-154595000D01*
X120593431Y-153870881D01*
X120599346Y-153774170D01*
X120612574Y-153725617D01*
X120637942Y-153695365D01*
X120675771Y-153685317D01*
X120704122Y-153690076D01*
X120728253Y-153704185D01*
X120747004Y-153727165D01*
X120762233Y-153764452D01*
X120770676Y-153809072D01*
X120773957Y-153872621D01*
X120773957Y-154595000D01*
X121041128Y-154595000D01*
G37*
G36*
X119659660Y-154825992D02*
G01*
X119031345Y-153020000D01*
X118762526Y-153020000D01*
X119390840Y-154825992D01*
X119659660Y-154825992D01*
G37*
G36*
X118376469Y-154909981D02*
G01*
X118376469Y-154684026D01*
X118061488Y-154684026D01*
X118001561Y-154678578D01*
X117957719Y-154664043D01*
X117926024Y-154641986D01*
X117903445Y-154610984D01*
X117888297Y-154565912D01*
X117882519Y-154501760D01*
X117882519Y-153469437D01*
X117597762Y-153469437D01*
X117597762Y-154511835D01*
X117605440Y-154608175D01*
X117626904Y-154687633D01*
X117660719Y-154753349D01*
X117706755Y-154807674D01*
X117763669Y-154849941D01*
X117834798Y-154881814D01*
X117923250Y-154902482D01*
X118032911Y-154909981D01*
X118376469Y-154909981D01*
G37*
G36*
X118366852Y-153695300D02*
G01*
X118366852Y-153469437D01*
X117738904Y-153469437D01*
X117738904Y-153695300D01*
X118366852Y-153695300D01*
G37*
G36*
X117886274Y-153331684D02*
G01*
X117886274Y-153083014D01*
X117598220Y-153083014D01*
X117598220Y-153331684D01*
X117886274Y-153331684D01*
G37*
G36*
X116677373Y-153452496D02*
G01*
X116751952Y-153476219D01*
X116815758Y-153514591D01*
X116869523Y-153566573D01*
X116914194Y-153632962D01*
X116925335Y-153659161D01*
X116931162Y-153469437D01*
X117205844Y-153469437D01*
X117205844Y-154909981D01*
X116921087Y-154909981D01*
X116921087Y-154437165D01*
X116915252Y-154449662D01*
X116870895Y-154510186D01*
X116815617Y-154558156D01*
X116749354Y-154592710D01*
X116675081Y-154613066D01*
X116589344Y-154620187D01*
X116492327Y-154610924D01*
X116410448Y-154584603D01*
X116340675Y-154542060D01*
X116281051Y-154484913D01*
X116231679Y-154414994D01*
X116192389Y-154330393D01*
X116165570Y-154240113D01*
X116148950Y-154141107D01*
X116143204Y-154032172D01*
X116438952Y-154032172D01*
X116447249Y-154146222D01*
X116469060Y-154228619D01*
X116501142Y-154286979D01*
X116547764Y-154332241D01*
X116605116Y-154359459D01*
X116676631Y-154369044D01*
X116744717Y-154359856D01*
X116803759Y-154332957D01*
X116852081Y-154288528D01*
X116890221Y-154222041D01*
X116912638Y-154141586D01*
X116921087Y-154032172D01*
X116912544Y-153922864D01*
X116889855Y-153842396D01*
X116851413Y-153775802D01*
X116803301Y-153731479D01*
X116744641Y-153704524D01*
X116676631Y-153695300D01*
X116605124Y-153704895D01*
X116547771Y-153732140D01*
X116501142Y-153777458D01*
X116469057Y-153835817D01*
X116447247Y-153918187D01*
X116438952Y-154032172D01*
X116143204Y-154032172D01*
X116148973Y-153922430D01*
X116165614Y-153823269D01*
X116192389Y-153733402D01*
X116231651Y-153649160D01*
X116281018Y-153579411D01*
X116340675Y-153522285D01*
X116410448Y-153479742D01*
X116492327Y-153453421D01*
X116589344Y-153444158D01*
X116677373Y-153452496D01*
G37*
G36*
X115280874Y-154595000D02*
G01*
X115376960Y-154588551D01*
X115453021Y-154570934D01*
X115512877Y-154544043D01*
X115559586Y-154508721D01*
X115596511Y-154463114D01*
X115624258Y-154405551D01*
X115642252Y-154333337D01*
X115648796Y-154243015D01*
X115648796Y-153205197D01*
X115364039Y-153205197D01*
X115364039Y-154215355D01*
X115359245Y-154265795D01*
X115346332Y-154303323D01*
X115326487Y-154331034D01*
X115298993Y-154351198D01*
X115262113Y-154364229D01*
X115212914Y-154369044D01*
X114947391Y-154369044D01*
X114947391Y-154595000D01*
X115280874Y-154595000D01*
G37*
G36*
X115972204Y-153695300D02*
G01*
X115972204Y-153469437D01*
X114947391Y-153469437D01*
X114947391Y-153695300D01*
X115972204Y-153695300D01*
G37*
G36*
X114277403Y-154595000D02*
G01*
X114277403Y-153616441D01*
X114642851Y-153616441D01*
X114642851Y-153367771D01*
X114479086Y-153367771D01*
X114398396Y-153360737D01*
X114340784Y-153342217D01*
X114295354Y-153308857D01*
X114263389Y-153258594D01*
X114245628Y-153195302D01*
X114238751Y-153103989D01*
X113978358Y-153103989D01*
X113978358Y-154595000D01*
X114277403Y-154595000D01*
G37*
G36*
X114704950Y-154595000D02*
G01*
X114704950Y-154325355D01*
X113646615Y-154325355D01*
X113646615Y-154595000D01*
X114704950Y-154595000D01*
G37*
G36*
X113196720Y-154595000D02*
G01*
X113189958Y-154445228D01*
X113169840Y-154299567D01*
X113136453Y-154157377D01*
X113090731Y-154018449D01*
X113033563Y-153882437D01*
X112964628Y-153748973D01*
X112843013Y-153557686D01*
X112698556Y-153373633D01*
X113433574Y-153373633D01*
X113433574Y-153103989D01*
X112400335Y-153103989D01*
X112400335Y-153358520D01*
X112521468Y-153505656D01*
X112620245Y-153644742D01*
X112704205Y-153787789D01*
X112770180Y-153931422D01*
X112820321Y-154080817D01*
X112855451Y-154240542D01*
X112875454Y-154407221D01*
X112882471Y-154595000D01*
X113196720Y-154595000D01*
G37*
G36*
X112195721Y-154595000D02*
G01*
X112190027Y-154474607D01*
X112173846Y-154369033D01*
X112148277Y-154276446D01*
X112109656Y-154189198D01*
X112055055Y-154105874D01*
X111982863Y-154025761D01*
X111900268Y-153955268D01*
X111793164Y-153881579D01*
X111657257Y-153804569D01*
X111584762Y-153764031D01*
X111530495Y-153727724D01*
X111485431Y-153687245D01*
X111454474Y-153644193D01*
X111435660Y-153594323D01*
X111428829Y-153529887D01*
X111434854Y-153472679D01*
X111451727Y-153426572D01*
X111479914Y-153388264D01*
X111519321Y-153359161D01*
X111567645Y-153341469D01*
X111631245Y-153334981D01*
X111704148Y-153342855D01*
X111759922Y-153364467D01*
X111802612Y-153398637D01*
X111835268Y-153444192D01*
X111861372Y-153504143D01*
X111879915Y-153581911D01*
X112189859Y-153564325D01*
X112169975Y-153452016D01*
X112135516Y-153355989D01*
X112087278Y-153273679D01*
X112024995Y-153203182D01*
X111950580Y-153147329D01*
X111861409Y-153106025D01*
X111754536Y-153079756D01*
X111626208Y-153070375D01*
X111515746Y-153077163D01*
X111423586Y-153096104D01*
X111346763Y-153125604D01*
X111276914Y-153168200D01*
X111221169Y-153219605D01*
X111177869Y-153280393D01*
X111147044Y-153348826D01*
X111127987Y-153425804D01*
X111121358Y-153513034D01*
X111131406Y-153627503D01*
X111159185Y-153718839D01*
X111188778Y-153773179D01*
X111229604Y-153825787D01*
X111283107Y-153877017D01*
X111378476Y-153947140D01*
X111517031Y-154029699D01*
X111630660Y-154094974D01*
X111710013Y-154148127D01*
X111776153Y-154202031D01*
X111815893Y-154244480D01*
X111842811Y-154288109D01*
X111853445Y-154325355D01*
X111120533Y-154325355D01*
X111120533Y-154595000D01*
X112195721Y-154595000D01*
G37*
G36*
X110511617Y-153078152D02*
G01*
X110606694Y-153100442D01*
X110690788Y-153136320D01*
X110766751Y-153186566D01*
X110829939Y-153248380D01*
X110881481Y-153322800D01*
X110918426Y-153405688D01*
X110941460Y-153500523D01*
X110949533Y-153609663D01*
X110942530Y-153707910D01*
X110922399Y-153794910D01*
X110889907Y-153872438D01*
X110844309Y-153942577D01*
X110788307Y-154000702D01*
X110721013Y-154047926D01*
X110645934Y-154081922D01*
X110561186Y-154102968D01*
X110464833Y-154110300D01*
X110355290Y-154099874D01*
X110266996Y-154070824D01*
X110190429Y-154024921D01*
X110161161Y-153997426D01*
X110169673Y-154059393D01*
X110189785Y-154138693D01*
X110220666Y-154213931D01*
X110256363Y-154269825D01*
X110296397Y-154310060D01*
X110344380Y-154339891D01*
X110397500Y-154357844D01*
X110457231Y-154364007D01*
X110512070Y-154359193D01*
X110552853Y-154346280D01*
X110582894Y-154326638D01*
X110618034Y-154284931D01*
X110640779Y-154233764D01*
X110943213Y-154255655D01*
X110908214Y-154358301D01*
X110858583Y-154447355D01*
X110816010Y-154499080D01*
X110764422Y-154543199D01*
X110702786Y-154580070D01*
X110635648Y-154605964D01*
X110554699Y-154622629D01*
X110457231Y-154628613D01*
X110349240Y-154620570D01*
X110256750Y-154597757D01*
X110177145Y-154561386D01*
X110105311Y-154511010D01*
X110042807Y-154448893D01*
X109989017Y-154373899D01*
X109945830Y-154291394D01*
X109910245Y-154198420D01*
X109882680Y-154093722D01*
X109857749Y-153930192D01*
X109849066Y-153747874D01*
X109856813Y-153604254D01*
X109858088Y-153597115D01*
X110154889Y-153597115D01*
X110163000Y-153671265D01*
X110186030Y-153732761D01*
X110223621Y-153784298D01*
X110274232Y-153822887D01*
X110335059Y-153846569D01*
X110409420Y-153854944D01*
X110482386Y-153846448D01*
X110538910Y-153822894D01*
X110582894Y-153785060D01*
X110614835Y-153735335D01*
X110634891Y-153674487D01*
X110642062Y-153599588D01*
X110634081Y-153517684D01*
X110612268Y-153454806D01*
X110578223Y-153406605D01*
X110531672Y-153370656D01*
X110472691Y-153348134D01*
X110397605Y-153340019D01*
X110324232Y-153349049D01*
X110265806Y-153374457D01*
X110218118Y-153414833D01*
X110183282Y-153467330D01*
X110162156Y-153528180D01*
X110154889Y-153597115D01*
X109858088Y-153597115D01*
X109878517Y-153482696D01*
X109912356Y-153379952D01*
X109962381Y-153285266D01*
X110024313Y-153209298D01*
X110098652Y-153149601D01*
X110183999Y-153106781D01*
X110284497Y-153079893D01*
X110403467Y-153070375D01*
X110511617Y-153078152D01*
G37*
G36*
X109589039Y-154825992D02*
G01*
X108960724Y-153020000D01*
X108691905Y-153020000D01*
X109320219Y-154825992D01*
X109589039Y-154825992D01*
G37*
G36*
X108472178Y-154595000D02*
G01*
X108063956Y-153103989D01*
X107699424Y-153103989D01*
X107291111Y-154595000D01*
X107592720Y-154595000D01*
X107881690Y-153464308D01*
X108170568Y-154595000D01*
X108472178Y-154595000D01*
G37*
G36*
X108196672Y-154277911D02*
G01*
X108121017Y-154017060D01*
X107642271Y-154017060D01*
X107566617Y-154277911D01*
X108196672Y-154277911D01*
G37*
G36*
X106736252Y-154595000D02*
G01*
X106736252Y-153460186D01*
X106745274Y-153402372D01*
X106769683Y-153363374D01*
X106808668Y-153338962D01*
X106866403Y-153329944D01*
X107110035Y-153329944D01*
X107110035Y-153103989D01*
X106815204Y-153103989D01*
X106724285Y-153110609D01*
X106650610Y-153128924D01*
X106590982Y-153157354D01*
X106542903Y-153195396D01*
X106504860Y-153243475D01*
X106476431Y-153303103D01*
X106458116Y-153376778D01*
X106451495Y-153467697D01*
X106451495Y-154595000D01*
X106736252Y-154595000D01*
G37*
G36*
X107151984Y-154595000D02*
G01*
X107151984Y-154369044D01*
X106093649Y-154369044D01*
X106093649Y-154595000D01*
X107151984Y-154595000D01*
G37*
G36*
X105500815Y-153450946D02*
G01*
X105585368Y-153470367D01*
X105659868Y-153501545D01*
X105725819Y-153544358D01*
X105783631Y-153598583D01*
X105828957Y-153660171D01*
X105862659Y-153730041D01*
X105884822Y-153809606D01*
X105590814Y-153825543D01*
X105568546Y-153763551D01*
X105530822Y-153715359D01*
X105497520Y-153692560D01*
X105454602Y-153677989D01*
X105399297Y-153672677D01*
X105337308Y-153679884D01*
X105292192Y-153699364D01*
X105259621Y-153730013D01*
X105237219Y-153770482D01*
X105222485Y-153823820D01*
X105217031Y-153893595D01*
X105555552Y-153966685D01*
X105659543Y-153996444D01*
X105742146Y-154034719D01*
X105806969Y-154080532D01*
X105846204Y-154123169D01*
X105874447Y-154173297D01*
X105892062Y-154232413D01*
X105898285Y-154302641D01*
X105892428Y-154367173D01*
X105875577Y-154423526D01*
X105848094Y-154473275D01*
X105811031Y-154516789D01*
X105766198Y-154553069D01*
X105712630Y-154582452D01*
X105623976Y-154610503D01*
X105523586Y-154620187D01*
X105426028Y-154611009D01*
X105344892Y-154585108D01*
X105274723Y-154542889D01*
X105221061Y-154488571D01*
X105185035Y-154426011D01*
X105184863Y-154427247D01*
X105161344Y-154488387D01*
X105123568Y-154538462D01*
X105071676Y-154574849D01*
X105008801Y-154596434D01*
X104928886Y-154604250D01*
X104868252Y-154600678D01*
X104826395Y-154595000D01*
X104826395Y-154381684D01*
X104872557Y-154381684D01*
X104898600Y-154377435D01*
X104916704Y-154365747D01*
X104927664Y-154345558D01*
X104932274Y-154306854D01*
X104932274Y-154161591D01*
X105217031Y-154161591D01*
X105224666Y-154235173D01*
X105245974Y-154294123D01*
X105281533Y-154342665D01*
X105330421Y-154378112D01*
X105389774Y-154399234D01*
X105465243Y-154406871D01*
X105527578Y-154398206D01*
X105569199Y-154375181D01*
X105595802Y-154338380D01*
X105605102Y-154288444D01*
X105596852Y-154235351D01*
X105574236Y-154198135D01*
X105535839Y-154171675D01*
X105466434Y-154149775D01*
X105217031Y-154095187D01*
X105217031Y-154161591D01*
X104932274Y-154161591D01*
X104932274Y-153910356D01*
X104940355Y-153799908D01*
X104962993Y-153707862D01*
X104998599Y-153630998D01*
X105046763Y-153566798D01*
X105107445Y-153516058D01*
X105184570Y-153477934D01*
X105281907Y-153453178D01*
X105404335Y-153444158D01*
X105500815Y-153450946D01*
G37*
G36*
X104314310Y-154595000D02*
G01*
X104314310Y-153469437D01*
X104104291Y-153469437D01*
X104082493Y-153763444D01*
X104101818Y-153764269D01*
X104082265Y-153667985D01*
X104052966Y-153595932D01*
X104015539Y-153542984D01*
X103965672Y-153503490D01*
X103900776Y-153478523D01*
X103816237Y-153469437D01*
X103563354Y-153469437D01*
X103563354Y-153702078D01*
X103795263Y-153702078D01*
X103870260Y-153709513D01*
X103926513Y-153729647D01*
X103971684Y-153763729D01*
X104003999Y-153811530D01*
X104022629Y-153870057D01*
X104029553Y-153948183D01*
X104029553Y-154595000D01*
X104314310Y-154595000D01*
G37*
G36*
X104583954Y-154595000D02*
G01*
X104583954Y-154369044D01*
X103686819Y-154369044D01*
X103686819Y-154595000D01*
X104583954Y-154595000D01*
G37*
G36*
X104583954Y-153695300D02*
G01*
X104583954Y-153469437D01*
X104144683Y-153469437D01*
X104144683Y-153695300D01*
X104583954Y-153695300D01*
G37*
G36*
X103417541Y-154595000D02*
G01*
X103417541Y-153469437D01*
X103185266Y-153469437D01*
X103175191Y-153728548D01*
X103200013Y-153721862D01*
X103176625Y-153630870D01*
X103147369Y-153562974D01*
X103113459Y-153513492D01*
X103069593Y-153474676D01*
X103020137Y-153451926D01*
X102963066Y-153444158D01*
X102897662Y-153452731D01*
X102848489Y-153476432D01*
X102811483Y-153514958D01*
X102785381Y-153564584D01*
X102763390Y-153634593D01*
X102747186Y-153730655D01*
X102778327Y-153730655D01*
X102756314Y-153638767D01*
X102725242Y-153568879D01*
X102686370Y-153516606D01*
X102636373Y-153476192D01*
X102580345Y-153452321D01*
X102516194Y-153444158D01*
X102455655Y-153450274D01*
X102406500Y-153467421D01*
X102366302Y-153494886D01*
X102333561Y-153533459D01*
X102303747Y-153596114D01*
X102283072Y-153686338D01*
X102275126Y-153812903D01*
X102275126Y-154595000D01*
X102542297Y-154595000D01*
X102542297Y-153870881D01*
X102548456Y-153770081D01*
X102561806Y-153723144D01*
X102587001Y-153694741D01*
X102623355Y-153685317D01*
X102650600Y-153690024D01*
X102674555Y-153704185D01*
X102693574Y-153727131D01*
X102709817Y-153764452D01*
X102719189Y-153809124D01*
X102722823Y-153872621D01*
X102722823Y-154595000D01*
X102969844Y-154595000D01*
X102969844Y-153870881D01*
X102975759Y-153774170D01*
X102988987Y-153725617D01*
X103014355Y-153695365D01*
X103052185Y-153685317D01*
X103080535Y-153690076D01*
X103104666Y-153704185D01*
X103123417Y-153727165D01*
X103138647Y-153764452D01*
X103147089Y-153809072D01*
X103150370Y-153872621D01*
X103150370Y-154595000D01*
X103417541Y-154595000D01*
G37*
G36*
X101936147Y-154111124D02*
G01*
X101936147Y-153853295D01*
X101238956Y-153853295D01*
X101238956Y-154111124D01*
X101936147Y-154111124D01*
G37*
G36*
X100319474Y-154628613D02*
G01*
X100409946Y-154622356D01*
X100490828Y-154604306D01*
X100563587Y-154575095D01*
X100629418Y-154534733D01*
X100706056Y-154465180D01*
X100771001Y-154376815D01*
X100824323Y-154266554D01*
X100860351Y-154148482D01*
X100883316Y-154011163D01*
X100891460Y-153851555D01*
X100883317Y-153691452D01*
X100860351Y-153553674D01*
X100824323Y-153435182D01*
X100771010Y-153324452D01*
X100706061Y-153235529D01*
X100629418Y-153165355D01*
X100563525Y-153124488D01*
X100490748Y-153094942D01*
X100409890Y-153076697D01*
X100319474Y-153070375D01*
X100212980Y-153079809D01*
X100119195Y-153107027D01*
X100035711Y-153151481D01*
X99960803Y-153214081D01*
X99899454Y-153289273D01*
X99848629Y-153380553D01*
X99808740Y-153490586D01*
X99781010Y-153622669D01*
X100086374Y-153636591D01*
X100107804Y-153540472D01*
X100136405Y-153467250D01*
X100170821Y-153412467D01*
X100215945Y-153368415D01*
X100264851Y-153343353D01*
X100319474Y-153334981D01*
X100374035Y-153341796D01*
X100421593Y-153361685D01*
X100463913Y-153395248D01*
X100498073Y-153438531D01*
X100528120Y-153496015D01*
X100553397Y-153570828D01*
X100575665Y-153692617D01*
X100583989Y-153851555D01*
X100575685Y-154008665D01*
X100553397Y-154129900D01*
X100528111Y-154204388D01*
X100498064Y-154261496D01*
X100463913Y-154304381D01*
X100421639Y-154337560D01*
X100374079Y-154357253D01*
X100319474Y-154364007D01*
X100264227Y-154355214D01*
X100213830Y-154328619D01*
X100166333Y-154281300D01*
X100130475Y-154222790D01*
X100101309Y-154144463D01*
X100080421Y-154041423D01*
X99775972Y-154054429D01*
X99802593Y-154190916D01*
X99841875Y-154304911D01*
X99892513Y-154399769D01*
X99954025Y-154478221D01*
X100029735Y-154543761D01*
X100114531Y-154590254D01*
X100210245Y-154618729D01*
X100319474Y-154628613D01*
G37*
G36*
X99183286Y-154595000D02*
G01*
X99183286Y-153460186D01*
X99192308Y-153402372D01*
X99216717Y-153363374D01*
X99255703Y-153338962D01*
X99313437Y-153329944D01*
X99557069Y-153329944D01*
X99557069Y-153103989D01*
X99262238Y-153103989D01*
X99171319Y-153110609D01*
X99097645Y-153128924D01*
X99038016Y-153157354D01*
X98989938Y-153195396D01*
X98951895Y-153243475D01*
X98923465Y-153303103D01*
X98905150Y-153376778D01*
X98898530Y-153467697D01*
X98898530Y-154595000D01*
X99183286Y-154595000D01*
G37*
G36*
X99599018Y-154595000D02*
G01*
X99599018Y-154369044D01*
X98540683Y-154369044D01*
X98540683Y-154595000D01*
X99599018Y-154595000D01*
G37*
G36*
X97915426Y-153452560D02*
G01*
X98007976Y-153476802D01*
X98090788Y-153516240D01*
X98164480Y-153570529D01*
X98226513Y-153638066D01*
X98277634Y-153720396D01*
X98313801Y-153810743D01*
X98336454Y-153914065D01*
X98344404Y-154032722D01*
X98336494Y-154150014D01*
X98313877Y-154252900D01*
X98277634Y-154343582D01*
X98226495Y-154426152D01*
X98164460Y-154493836D01*
X98090788Y-154548196D01*
X98007981Y-154587583D01*
X97915431Y-154611795D01*
X97811069Y-154620187D01*
X97706647Y-154611791D01*
X97614099Y-154587576D01*
X97531350Y-154548196D01*
X97457615Y-154493834D01*
X97395551Y-154426179D01*
X97344412Y-154343674D01*
X97308183Y-154253048D01*
X97285560Y-154150078D01*
X97277643Y-154032539D01*
X97277710Y-154031531D01*
X97573299Y-154031531D01*
X97581250Y-154138452D01*
X97602665Y-154219942D01*
X97635031Y-154281483D01*
X97681881Y-154330020D01*
X97739397Y-154358916D01*
X97811069Y-154369044D01*
X97882679Y-154358919D01*
X97940168Y-154330026D01*
X97987015Y-154281483D01*
X98019381Y-154219942D01*
X98040797Y-154138452D01*
X98048748Y-154031531D01*
X98040784Y-153924670D01*
X98019359Y-153843452D01*
X97987015Y-153782312D01*
X97940210Y-153734105D01*
X97882723Y-153705376D01*
X97811069Y-153695300D01*
X97739354Y-153705379D01*
X97681839Y-153734111D01*
X97635031Y-153782312D01*
X97602687Y-153843452D01*
X97581262Y-153924670D01*
X97573299Y-154031531D01*
X97277710Y-154031531D01*
X97285604Y-153913571D01*
X97308267Y-153810203D01*
X97344412Y-153720030D01*
X97395517Y-153637940D01*
X97457576Y-153570516D01*
X97531350Y-153516240D01*
X97614105Y-153476808D01*
X97706652Y-153452563D01*
X97811069Y-153444158D01*
X97915426Y-153452560D01*
G37*
G36*
X96532916Y-154620187D02*
G01*
X96637753Y-154611614D01*
X96731361Y-154586800D01*
X96815749Y-154546273D01*
X96891119Y-154490756D01*
X96954571Y-154422437D01*
X97006899Y-154339918D01*
X97044258Y-154249222D01*
X97067433Y-154147329D01*
X97075501Y-154032172D01*
X97067427Y-153917080D01*
X97044246Y-153815378D01*
X97006899Y-153724976D01*
X96954610Y-153642661D01*
X96891161Y-153574297D01*
X96815749Y-153518530D01*
X96731334Y-153477742D01*
X96637728Y-153452779D01*
X96532916Y-153444158D01*
X96445615Y-153450227D01*
X96365552Y-153467930D01*
X96291573Y-153496914D01*
X96223224Y-153537132D01*
X96163804Y-153586786D01*
X96112513Y-153646482D01*
X96071844Y-153713844D01*
X96042211Y-153789835D01*
X96023852Y-153875918D01*
X96306960Y-153891031D01*
X96326321Y-153830389D01*
X96352973Y-153782731D01*
X96386553Y-153745767D01*
X96427783Y-153718029D01*
X96475152Y-153701166D01*
X96530351Y-153695300D01*
X96603662Y-153705634D01*
X96663619Y-153735322D01*
X96713533Y-153785426D01*
X96748749Y-153848850D01*
X96771532Y-153929598D01*
X96779845Y-154032172D01*
X96771530Y-154134809D01*
X96748746Y-154215585D01*
X96713533Y-154279010D01*
X96663626Y-154329059D01*
X96603669Y-154358719D01*
X96530351Y-154369044D01*
X96474420Y-154362934D01*
X96426072Y-154345292D01*
X96383622Y-154316105D01*
X96349323Y-154277279D01*
X96322478Y-154226914D01*
X96303572Y-154162415D01*
X96020464Y-154177527D01*
X96038817Y-154263717D01*
X96068513Y-154340704D01*
X96109398Y-154409802D01*
X96160918Y-154471347D01*
X96220711Y-154522794D01*
X96289558Y-154564774D01*
X96364217Y-154595249D01*
X96444932Y-154613824D01*
X96532916Y-154620187D01*
G37*
G36*
X95797348Y-154595000D02*
G01*
X95797348Y-153103989D01*
X95512591Y-153103989D01*
X95512591Y-153960823D01*
X95084220Y-153469437D01*
X94745699Y-153469437D01*
X95173246Y-153950748D01*
X94727198Y-154595000D01*
X95052346Y-154595000D01*
X95359726Y-154134663D01*
X95512591Y-154300168D01*
X95512591Y-154595000D01*
X95797348Y-154595000D01*
G37*
G36*
X81020187Y-100690954D02*
G01*
X81013890Y-100583353D01*
X80996361Y-100493859D01*
X80969171Y-100419569D01*
X80930160Y-100351045D01*
X80884662Y-100296056D01*
X80832517Y-100252874D01*
X80773269Y-100219619D01*
X80709978Y-100197157D01*
X80641733Y-100185280D01*
X80630467Y-100465823D01*
X80692825Y-100492893D01*
X80740560Y-100536989D01*
X80762078Y-100574685D01*
X80776354Y-100625545D01*
X80781684Y-100693427D01*
X80774717Y-100783991D01*
X80757962Y-100837042D01*
X80738877Y-100863393D01*
X80715854Y-100878242D01*
X80687528Y-100883295D01*
X80657789Y-100879043D01*
X80634863Y-100867083D01*
X80616641Y-100845944D01*
X80597128Y-100804344D01*
X80561591Y-100664850D01*
X80521095Y-100503905D01*
X80480899Y-100394748D01*
X80446373Y-100331760D01*
X80408620Y-100285284D01*
X80367692Y-100252416D01*
X80320416Y-100229350D01*
X80264441Y-100214806D01*
X80197882Y-100209643D01*
X80134089Y-100215376D01*
X80075164Y-100232253D01*
X80020013Y-100260384D01*
X79971462Y-100298817D01*
X79928856Y-100349335D01*
X79892060Y-100413891D01*
X79866547Y-100484039D01*
X79850080Y-100568719D01*
X79844158Y-100670712D01*
X79851021Y-100782515D01*
X79869831Y-100872196D01*
X79898563Y-100943745D01*
X79939558Y-101009094D01*
X79986256Y-101060821D01*
X80038880Y-101100641D01*
X80127767Y-101143567D01*
X80221330Y-101166311D01*
X80233969Y-100883295D01*
X80191519Y-100869729D01*
X80155201Y-100847300D01*
X80125388Y-100816443D01*
X80102078Y-100775950D01*
X80087833Y-100729226D01*
X80082752Y-100672452D01*
X80087488Y-100612120D01*
X80099810Y-100569835D01*
X80117832Y-100540928D01*
X80156259Y-100510616D01*
X80197882Y-100501086D01*
X80234151Y-100506707D01*
X80262363Y-100522701D01*
X80284410Y-100549901D01*
X80306418Y-100599546D01*
X80345710Y-100755617D01*
X80383053Y-100909189D01*
X80420449Y-101009691D01*
X80452881Y-101067092D01*
X80487810Y-101108756D01*
X80525229Y-101137552D01*
X80593045Y-101164793D01*
X80682491Y-101174738D01*
X80750592Y-101168112D01*
X80810155Y-101148987D01*
X80862925Y-101117585D01*
X80908038Y-101075399D01*
X80946838Y-101021088D01*
X80979246Y-100952538D01*
X81001102Y-100879470D01*
X81015163Y-100793012D01*
X81020187Y-100690954D01*
G37*
G36*
X80995000Y-101460044D02*
G01*
X79869437Y-101460044D01*
X79869437Y-101719979D01*
X80176816Y-101728864D01*
X80164269Y-101700287D01*
X80061131Y-101728973D01*
X79983193Y-101771179D01*
X79921122Y-101829018D01*
X79878230Y-101898307D01*
X79852897Y-101977183D01*
X79844158Y-102066468D01*
X79850772Y-102146077D01*
X79869245Y-102211380D01*
X79898380Y-102265129D01*
X79938523Y-102311609D01*
X79987798Y-102349718D01*
X80047490Y-102379801D01*
X80146975Y-102407705D01*
X80266301Y-102417629D01*
X80995000Y-102417629D01*
X80995000Y-102132872D01*
X80330506Y-102132872D01*
X80246806Y-102127044D01*
X80186808Y-102111797D01*
X80144760Y-102089549D01*
X80112304Y-102056696D01*
X80092439Y-102014338D01*
X80085317Y-101959398D01*
X80092674Y-101903312D01*
X80114535Y-101852512D01*
X80149978Y-101809335D01*
X80200813Y-101774385D01*
X80262349Y-101752744D01*
X80343146Y-101744801D01*
X80995000Y-101744801D01*
X80995000Y-101460044D01*
G37*
G36*
X80550014Y-102672194D02*
G01*
X80652900Y-102694810D01*
X80743582Y-102731053D01*
X80826152Y-102782192D01*
X80893836Y-102844227D01*
X80948196Y-102917899D01*
X80987583Y-103000706D01*
X81011795Y-103093257D01*
X81020187Y-103197618D01*
X81011791Y-103302040D01*
X80987576Y-103394588D01*
X80948196Y-103477337D01*
X80893834Y-103551072D01*
X80826179Y-103613136D01*
X80743674Y-103664275D01*
X80653048Y-103700504D01*
X80550078Y-103723127D01*
X80432539Y-103731045D01*
X80313571Y-103723083D01*
X80210203Y-103700420D01*
X80120030Y-103664275D01*
X80037940Y-103613170D01*
X79970516Y-103551111D01*
X79916240Y-103477337D01*
X79876808Y-103394582D01*
X79852563Y-103302035D01*
X79844158Y-103197618D01*
X80095300Y-103197618D01*
X80105379Y-103269333D01*
X80134111Y-103326849D01*
X80182312Y-103373656D01*
X80243452Y-103406000D01*
X80324670Y-103427425D01*
X80431531Y-103435389D01*
X80538452Y-103427438D01*
X80619942Y-103406022D01*
X80681483Y-103373656D01*
X80730020Y-103326806D01*
X80758916Y-103269290D01*
X80769044Y-103197618D01*
X80758919Y-103126008D01*
X80730026Y-103068519D01*
X80681483Y-103021672D01*
X80619942Y-102989306D01*
X80538452Y-102967890D01*
X80431531Y-102959939D01*
X80324670Y-102967903D01*
X80243452Y-102989328D01*
X80182312Y-103021672D01*
X80134105Y-103068477D01*
X80105376Y-103125964D01*
X80095300Y-103197618D01*
X79844158Y-103197618D01*
X79852560Y-103093261D01*
X79876802Y-103000711D01*
X79916240Y-102917899D01*
X79970529Y-102844207D01*
X80038066Y-102782174D01*
X80120396Y-102731053D01*
X80210743Y-102694886D01*
X80314065Y-102672233D01*
X80432722Y-102664283D01*
X80550014Y-102672194D01*
G37*
G36*
X80550014Y-103931021D02*
G01*
X80652900Y-103953638D01*
X80743582Y-103989881D01*
X80826152Y-104041020D01*
X80893836Y-104103055D01*
X80948196Y-104176727D01*
X80987583Y-104259533D01*
X81011795Y-104352084D01*
X81020187Y-104456446D01*
X81011791Y-104560868D01*
X80987576Y-104653415D01*
X80948196Y-104736165D01*
X80893834Y-104809900D01*
X80826179Y-104871963D01*
X80743674Y-104923102D01*
X80653048Y-104959332D01*
X80550078Y-104981955D01*
X80432539Y-104989872D01*
X80313571Y-104981911D01*
X80210203Y-104959248D01*
X80120030Y-104923102D01*
X80037940Y-104871997D01*
X79970516Y-104809939D01*
X79916240Y-104736165D01*
X79876808Y-104653410D01*
X79852563Y-104560863D01*
X79844158Y-104456446D01*
X80095300Y-104456446D01*
X80105379Y-104528161D01*
X80134111Y-104585676D01*
X80182312Y-104632484D01*
X80243452Y-104664828D01*
X80324670Y-104686253D01*
X80431531Y-104694216D01*
X80538452Y-104686265D01*
X80619942Y-104664849D01*
X80681483Y-104632484D01*
X80730020Y-104585634D01*
X80758916Y-104528117D01*
X80769044Y-104456446D01*
X80758919Y-104384835D01*
X80730026Y-104327347D01*
X80681483Y-104280499D01*
X80619942Y-104248134D01*
X80538452Y-104226718D01*
X80431531Y-104218767D01*
X80324670Y-104226731D01*
X80243452Y-104248156D01*
X80182312Y-104280499D01*
X80134105Y-104327304D01*
X80105376Y-104384791D01*
X80095300Y-104456446D01*
X79844158Y-104456446D01*
X79852560Y-104352089D01*
X79876802Y-104259539D01*
X79916240Y-104176727D01*
X79970529Y-104103034D01*
X80038066Y-104041002D01*
X80120396Y-103989881D01*
X80210743Y-103953714D01*
X80314065Y-103931061D01*
X80432722Y-103923111D01*
X80550014Y-103931021D01*
G37*
G36*
X80995000Y-105229749D02*
G01*
X80750543Y-105229749D01*
X80095300Y-105852202D01*
X80095300Y-105250815D01*
X79869437Y-105250815D01*
X79869437Y-106181472D01*
X80113893Y-106181472D01*
X80769044Y-105559019D01*
X80769044Y-106200798D01*
X80995000Y-106200798D01*
X80995000Y-105229749D01*
G37*
G36*
X80549917Y-106455467D02*
G01*
X80652997Y-106478366D01*
X80743674Y-106515047D01*
X80826165Y-106566701D01*
X80893827Y-106629221D01*
X80948196Y-106703358D01*
X80987672Y-106786546D01*
X81011841Y-106878683D01*
X81020187Y-106981703D01*
X81013685Y-107076374D01*
X80995054Y-107159737D01*
X80965117Y-107233529D01*
X80924016Y-107299158D01*
X80852740Y-107374658D01*
X80762820Y-107435962D01*
X80650983Y-107483164D01*
X80631291Y-107197125D01*
X80687588Y-107167771D01*
X80731492Y-107121563D01*
X80759235Y-107062361D01*
X80769044Y-106988023D01*
X80761245Y-106921093D01*
X80738923Y-106864973D01*
X80702091Y-106817206D01*
X80653517Y-106780770D01*
X80590558Y-106754867D01*
X80509475Y-106740635D01*
X80509475Y-107505879D01*
X80438034Y-107505879D01*
X80319225Y-107497875D01*
X80215361Y-107475025D01*
X80124152Y-107438468D01*
X80040873Y-107387022D01*
X79972524Y-107325138D01*
X79917522Y-107252172D01*
X79877235Y-107170161D01*
X79852639Y-107079523D01*
X79844158Y-106978314D01*
X79844365Y-106975841D01*
X80095300Y-106975841D01*
X80101748Y-107036124D01*
X80120132Y-107086785D01*
X80150163Y-107129897D01*
X80190521Y-107163255D01*
X80244247Y-107187128D01*
X80315027Y-107200514D01*
X80315027Y-106744391D01*
X80245928Y-106760812D01*
X80192424Y-106786340D01*
X80151446Y-106820228D01*
X80120751Y-106863355D01*
X80101923Y-106914486D01*
X80095300Y-106975841D01*
X79844365Y-106975841D01*
X79852801Y-106874889D01*
X79877775Y-106783052D01*
X79918530Y-106700702D01*
X79974150Y-106627407D01*
X80042487Y-106565541D01*
X80124976Y-106514405D01*
X80215285Y-106477984D01*
X80316996Y-106455345D01*
X80432172Y-106447452D01*
X80549917Y-106455467D01*
G37*
G36*
X101020187Y-88190954D02*
G01*
X101013890Y-88083353D01*
X100996361Y-87993859D01*
X100969171Y-87919569D01*
X100930160Y-87851045D01*
X100884662Y-87796056D01*
X100832517Y-87752874D01*
X100773269Y-87719619D01*
X100709978Y-87697157D01*
X100641733Y-87685280D01*
X100630467Y-87965823D01*
X100692825Y-87992893D01*
X100740560Y-88036989D01*
X100762078Y-88074685D01*
X100776354Y-88125545D01*
X100781684Y-88193427D01*
X100774717Y-88283991D01*
X100757962Y-88337042D01*
X100738877Y-88363393D01*
X100715854Y-88378242D01*
X100687528Y-88383295D01*
X100657789Y-88379043D01*
X100634863Y-88367083D01*
X100616641Y-88345944D01*
X100597128Y-88304344D01*
X100561591Y-88164850D01*
X100521095Y-88003905D01*
X100480899Y-87894748D01*
X100446373Y-87831760D01*
X100408620Y-87785284D01*
X100367692Y-87752416D01*
X100320416Y-87729350D01*
X100264441Y-87714806D01*
X100197882Y-87709643D01*
X100134089Y-87715376D01*
X100075164Y-87732253D01*
X100020013Y-87760384D01*
X99971462Y-87798817D01*
X99928856Y-87849335D01*
X99892060Y-87913891D01*
X99866547Y-87984039D01*
X99850080Y-88068719D01*
X99844158Y-88170712D01*
X99851021Y-88282515D01*
X99869831Y-88372196D01*
X99898563Y-88443745D01*
X99939558Y-88509094D01*
X99986256Y-88560821D01*
X100038880Y-88600641D01*
X100127767Y-88643567D01*
X100221330Y-88666311D01*
X100233969Y-88383295D01*
X100191519Y-88369729D01*
X100155201Y-88347300D01*
X100125388Y-88316443D01*
X100102078Y-88275950D01*
X100087833Y-88229226D01*
X100082752Y-88172452D01*
X100087488Y-88112120D01*
X100099810Y-88069835D01*
X100117832Y-88040928D01*
X100156259Y-88010616D01*
X100197882Y-88001086D01*
X100234151Y-88006707D01*
X100262363Y-88022701D01*
X100284410Y-88049901D01*
X100306418Y-88099546D01*
X100345710Y-88255617D01*
X100383053Y-88409189D01*
X100420449Y-88509691D01*
X100452881Y-88567092D01*
X100487810Y-88608756D01*
X100525229Y-88637552D01*
X100593045Y-88664793D01*
X100682491Y-88674738D01*
X100750592Y-88668112D01*
X100810155Y-88648987D01*
X100862925Y-88617585D01*
X100908038Y-88575399D01*
X100946838Y-88521088D01*
X100979246Y-88452538D01*
X101001102Y-88379470D01*
X101015163Y-88293012D01*
X101020187Y-88190954D01*
G37*
G36*
X100995000Y-89044857D02*
G01*
X99869437Y-88838228D01*
X99869437Y-89122160D01*
X100603539Y-89225475D01*
X100032377Y-89341338D01*
X100032377Y-89536243D01*
X100603539Y-89652198D01*
X99869437Y-89755512D01*
X99869437Y-90039445D01*
X100995000Y-89833640D01*
X100995000Y-89558134D01*
X100439774Y-89438790D01*
X100995000Y-89319539D01*
X100995000Y-89044857D01*
G37*
G36*
X100995000Y-90596044D02*
G01*
X100016441Y-90596044D01*
X100016441Y-90230595D01*
X99767771Y-90230595D01*
X99767771Y-90394360D01*
X99760737Y-90475050D01*
X99742217Y-90532663D01*
X99708857Y-90578093D01*
X99658594Y-90610057D01*
X99595302Y-90627818D01*
X99503989Y-90634695D01*
X99503989Y-90895088D01*
X100995000Y-90895088D01*
X100995000Y-90596044D01*
G37*
G36*
X100995000Y-90168497D02*
G01*
X100725355Y-90168497D01*
X100725355Y-91226831D01*
X100995000Y-91226831D01*
X100995000Y-90168497D01*
G37*
G36*
X100549917Y-105161329D02*
G01*
X100652997Y-105184228D01*
X100743674Y-105220908D01*
X100826165Y-105272562D01*
X100893827Y-105335083D01*
X100948196Y-105409220D01*
X100987672Y-105492408D01*
X101011841Y-105584545D01*
X101020187Y-105687565D01*
X101013685Y-105782236D01*
X100995054Y-105865599D01*
X100965117Y-105939390D01*
X100924016Y-106005020D01*
X100852740Y-106080520D01*
X100762820Y-106141824D01*
X100650983Y-106189026D01*
X100631291Y-105902987D01*
X100687588Y-105873633D01*
X100731492Y-105827424D01*
X100759235Y-105768223D01*
X100769044Y-105693885D01*
X100761245Y-105626955D01*
X100738923Y-105570835D01*
X100702091Y-105523067D01*
X100653517Y-105486632D01*
X100590558Y-105460728D01*
X100509475Y-105446497D01*
X100509475Y-106211741D01*
X100438034Y-106211741D01*
X100319225Y-106203737D01*
X100215361Y-106180887D01*
X100124152Y-106144330D01*
X100040873Y-106092884D01*
X99972524Y-106031000D01*
X99917522Y-105958033D01*
X99877235Y-105876022D01*
X99852639Y-105785385D01*
X99844158Y-105684176D01*
X99844365Y-105681703D01*
X100095300Y-105681703D01*
X100101748Y-105741986D01*
X100120132Y-105792646D01*
X100150163Y-105835759D01*
X100190521Y-105869117D01*
X100244247Y-105892990D01*
X100315027Y-105906376D01*
X100315027Y-105450252D01*
X100245928Y-105466674D01*
X100192424Y-105492202D01*
X100151446Y-105526090D01*
X100120751Y-105569217D01*
X100101923Y-105620348D01*
X100095300Y-105681703D01*
X99844365Y-105681703D01*
X99852801Y-105580751D01*
X99877775Y-105488914D01*
X99918530Y-105406564D01*
X99974150Y-105333269D01*
X100042487Y-105271403D01*
X100124976Y-105220267D01*
X100215285Y-105183846D01*
X100316996Y-105161207D01*
X100432172Y-105153314D01*
X100549917Y-105161329D01*
G37*
G36*
X101020187Y-106958116D02*
G01*
X101011614Y-106853279D01*
X100986800Y-106759671D01*
X100946273Y-106675283D01*
X100890756Y-106599912D01*
X100822437Y-106536461D01*
X100739918Y-106484132D01*
X100649222Y-106446774D01*
X100547329Y-106423599D01*
X100432172Y-106415531D01*
X100317080Y-106423605D01*
X100215378Y-106446785D01*
X100124976Y-106484132D01*
X100042661Y-106536422D01*
X99974297Y-106599871D01*
X99918530Y-106675283D01*
X99877742Y-106759698D01*
X99852779Y-106853303D01*
X99844158Y-106958116D01*
X99850227Y-107045417D01*
X99867930Y-107125480D01*
X99896914Y-107199459D01*
X99937132Y-107267808D01*
X99986786Y-107327228D01*
X100046482Y-107378519D01*
X100113844Y-107419188D01*
X100189835Y-107448821D01*
X100275918Y-107467179D01*
X100291031Y-107184071D01*
X100230389Y-107164711D01*
X100182731Y-107138059D01*
X100145767Y-107104479D01*
X100118029Y-107063249D01*
X100101166Y-107015879D01*
X100095300Y-106960681D01*
X100105634Y-106887370D01*
X100135322Y-106827413D01*
X100185426Y-106777499D01*
X100248850Y-106742283D01*
X100329598Y-106719500D01*
X100432172Y-106711187D01*
X100534809Y-106719502D01*
X100615585Y-106742286D01*
X100679010Y-106777499D01*
X100729059Y-106827406D01*
X100758719Y-106887363D01*
X100769044Y-106960681D01*
X100762934Y-107016612D01*
X100745292Y-107064960D01*
X100716105Y-107107410D01*
X100677279Y-107141709D01*
X100626914Y-107168554D01*
X100562415Y-107187460D01*
X100577527Y-107470568D01*
X100663717Y-107452215D01*
X100740704Y-107422519D01*
X100809802Y-107381633D01*
X100871347Y-107330114D01*
X100922794Y-107270321D01*
X100964774Y-107201474D01*
X100995249Y-107126815D01*
X101013824Y-107046100D01*
X101020187Y-106958116D01*
G37*
G36*
X100995000Y-108096044D02*
G01*
X100016441Y-108096044D01*
X100016441Y-107730595D01*
X99767771Y-107730595D01*
X99767771Y-107894360D01*
X99760737Y-107975050D01*
X99742217Y-108032663D01*
X99708857Y-108078093D01*
X99658594Y-108110057D01*
X99595302Y-108127818D01*
X99503989Y-108134695D01*
X99503989Y-108395088D01*
X100995000Y-108395088D01*
X100995000Y-108096044D01*
G37*
G36*
X100995000Y-107668497D02*
G01*
X100725355Y-107668497D01*
X100725355Y-108726831D01*
X100995000Y-108726831D01*
X100995000Y-107668497D01*
G37*
G36*
X100767173Y-108928052D02*
G01*
X100823526Y-108944904D01*
X100873275Y-108972387D01*
X100916789Y-109009450D01*
X100953069Y-109054283D01*
X100982452Y-109107850D01*
X101010503Y-109196504D01*
X101020187Y-109296894D01*
X101011009Y-109394453D01*
X100985108Y-109475588D01*
X100942889Y-109545757D01*
X100888571Y-109599419D01*
X100826010Y-109635444D01*
X100827247Y-109635618D01*
X100888387Y-109659137D01*
X100938462Y-109696913D01*
X100974849Y-109748804D01*
X100996434Y-109811679D01*
X101004250Y-109891595D01*
X101000678Y-109952228D01*
X100995000Y-109994085D01*
X100781684Y-109994085D01*
X100781684Y-109947923D01*
X100777435Y-109921881D01*
X100765747Y-109903777D01*
X100745558Y-109892817D01*
X100706854Y-109888206D01*
X100310356Y-109888206D01*
X100199908Y-109880125D01*
X100107862Y-109857488D01*
X100030998Y-109821882D01*
X99966798Y-109773717D01*
X99916058Y-109713036D01*
X99877934Y-109635911D01*
X99853178Y-109538574D01*
X99844158Y-109416146D01*
X99850946Y-109319666D01*
X99870367Y-109235112D01*
X99901545Y-109160612D01*
X99944358Y-109094661D01*
X99998583Y-109036850D01*
X100060171Y-108991523D01*
X100130041Y-108957822D01*
X100209606Y-108935659D01*
X100225543Y-109229666D01*
X100163551Y-109251935D01*
X100115359Y-109289658D01*
X100092560Y-109322960D01*
X100077989Y-109365878D01*
X100072677Y-109421183D01*
X100079884Y-109483173D01*
X100099364Y-109528289D01*
X100130013Y-109560860D01*
X100170482Y-109583261D01*
X100223820Y-109597996D01*
X100293595Y-109603449D01*
X100495187Y-109603449D01*
X100561591Y-109603449D01*
X100635173Y-109595815D01*
X100694123Y-109574507D01*
X100742665Y-109538947D01*
X100778112Y-109490060D01*
X100799234Y-109430707D01*
X100806871Y-109355238D01*
X100798206Y-109292903D01*
X100775181Y-109251282D01*
X100738380Y-109224678D01*
X100688444Y-109215378D01*
X100635351Y-109223628D01*
X100598135Y-109246244D01*
X100571675Y-109284641D01*
X100549775Y-109354047D01*
X100495187Y-109603449D01*
X100293595Y-109603449D01*
X100366685Y-109264929D01*
X100396444Y-109160937D01*
X100434719Y-109078335D01*
X100480532Y-109013511D01*
X100523169Y-108974276D01*
X100573297Y-108946034D01*
X100632413Y-108928419D01*
X100702641Y-108922195D01*
X100767173Y-108928052D01*
G37*
D11*
X73029819Y-144416666D02*
X73744104Y-144416666D01*
X73744104Y-144416666D02*
X73886961Y-144369047D01*
X73886961Y-144369047D02*
X73982200Y-144273809D01*
X73982200Y-144273809D02*
X74029819Y-144130952D01*
X74029819Y-144130952D02*
X74029819Y-144035714D01*
X73125057Y-144845238D02*
X73077438Y-144892857D01*
X73077438Y-144892857D02*
X73029819Y-144988095D01*
X73029819Y-144988095D02*
X73029819Y-145226190D01*
X73029819Y-145226190D02*
X73077438Y-145321428D01*
X73077438Y-145321428D02*
X73125057Y-145369047D01*
X73125057Y-145369047D02*
X73220295Y-145416666D01*
X73220295Y-145416666D02*
X73315533Y-145416666D01*
X73315533Y-145416666D02*
X73458390Y-145369047D01*
X73458390Y-145369047D02*
X74029819Y-144797619D01*
X74029819Y-144797619D02*
X74029819Y-145416666D01*
X129395239Y-175305057D02*
X129490477Y-175257438D01*
X129490477Y-175257438D02*
X129585715Y-175162200D01*
X129585715Y-175162200D02*
X129728572Y-175019342D01*
X129728572Y-175019342D02*
X129823810Y-174971723D01*
X129823810Y-174971723D02*
X129919048Y-174971723D01*
X129871429Y-175209819D02*
X129966667Y-175162200D01*
X129966667Y-175162200D02*
X130061905Y-175066961D01*
X130061905Y-175066961D02*
X130109524Y-174876485D01*
X130109524Y-174876485D02*
X130109524Y-174543152D01*
X130109524Y-174543152D02*
X130061905Y-174352676D01*
X130061905Y-174352676D02*
X129966667Y-174257438D01*
X129966667Y-174257438D02*
X129871429Y-174209819D01*
X129871429Y-174209819D02*
X129680953Y-174209819D01*
X129680953Y-174209819D02*
X129585715Y-174257438D01*
X129585715Y-174257438D02*
X129490477Y-174352676D01*
X129490477Y-174352676D02*
X129442858Y-174543152D01*
X129442858Y-174543152D02*
X129442858Y-174876485D01*
X129442858Y-174876485D02*
X129490477Y-175066961D01*
X129490477Y-175066961D02*
X129585715Y-175162200D01*
X129585715Y-175162200D02*
X129680953Y-175209819D01*
X129680953Y-175209819D02*
X129871429Y-175209819D01*
X129061905Y-174305057D02*
X129014286Y-174257438D01*
X129014286Y-174257438D02*
X128919048Y-174209819D01*
X128919048Y-174209819D02*
X128680953Y-174209819D01*
X128680953Y-174209819D02*
X128585715Y-174257438D01*
X128585715Y-174257438D02*
X128538096Y-174305057D01*
X128538096Y-174305057D02*
X128490477Y-174400295D01*
X128490477Y-174400295D02*
X128490477Y-174495533D01*
X128490477Y-174495533D02*
X128538096Y-174638390D01*
X128538096Y-174638390D02*
X129109524Y-175209819D01*
X129109524Y-175209819D02*
X128490477Y-175209819D01*
X94380953Y-186881009D02*
X94238096Y-186928628D01*
X94238096Y-186928628D02*
X94190477Y-186976247D01*
X94190477Y-186976247D02*
X94142858Y-187071485D01*
X94142858Y-187071485D02*
X94142858Y-187214342D01*
X94142858Y-187214342D02*
X94190477Y-187309580D01*
X94190477Y-187309580D02*
X94238096Y-187357200D01*
X94238096Y-187357200D02*
X94333334Y-187404819D01*
X94333334Y-187404819D02*
X94714286Y-187404819D01*
X94714286Y-187404819D02*
X94714286Y-186404819D01*
X94714286Y-186404819D02*
X94380953Y-186404819D01*
X94380953Y-186404819D02*
X94285715Y-186452438D01*
X94285715Y-186452438D02*
X94238096Y-186500057D01*
X94238096Y-186500057D02*
X94190477Y-186595295D01*
X94190477Y-186595295D02*
X94190477Y-186690533D01*
X94190477Y-186690533D02*
X94238096Y-186785771D01*
X94238096Y-186785771D02*
X94285715Y-186833390D01*
X94285715Y-186833390D02*
X94380953Y-186881009D01*
X94380953Y-186881009D02*
X94714286Y-186881009D01*
X93809524Y-186404819D02*
X93142858Y-186404819D01*
X93142858Y-186404819D02*
X93809524Y-187404819D01*
X93809524Y-187404819D02*
X93142858Y-187404819D01*
X92238096Y-187404819D02*
X92809524Y-187404819D01*
X92523810Y-187404819D02*
X92523810Y-186404819D01*
X92523810Y-186404819D02*
X92619048Y-186547676D01*
X92619048Y-186547676D02*
X92714286Y-186642914D01*
X92714286Y-186642914D02*
X92809524Y-186690533D01*
X90070952Y-182363866D02*
X89309048Y-182363866D01*
X89690000Y-182744819D02*
X89690000Y-181982914D01*
X122325239Y-175325057D02*
X122420477Y-175277438D01*
X122420477Y-175277438D02*
X122515715Y-175182200D01*
X122515715Y-175182200D02*
X122658572Y-175039342D01*
X122658572Y-175039342D02*
X122753810Y-174991723D01*
X122753810Y-174991723D02*
X122849048Y-174991723D01*
X122801429Y-175229819D02*
X122896667Y-175182200D01*
X122896667Y-175182200D02*
X122991905Y-175086961D01*
X122991905Y-175086961D02*
X123039524Y-174896485D01*
X123039524Y-174896485D02*
X123039524Y-174563152D01*
X123039524Y-174563152D02*
X122991905Y-174372676D01*
X122991905Y-174372676D02*
X122896667Y-174277438D01*
X122896667Y-174277438D02*
X122801429Y-174229819D01*
X122801429Y-174229819D02*
X122610953Y-174229819D01*
X122610953Y-174229819D02*
X122515715Y-174277438D01*
X122515715Y-174277438D02*
X122420477Y-174372676D01*
X122420477Y-174372676D02*
X122372858Y-174563152D01*
X122372858Y-174563152D02*
X122372858Y-174896485D01*
X122372858Y-174896485D02*
X122420477Y-175086961D01*
X122420477Y-175086961D02*
X122515715Y-175182200D01*
X122515715Y-175182200D02*
X122610953Y-175229819D01*
X122610953Y-175229819D02*
X122801429Y-175229819D01*
X121420477Y-175229819D02*
X121991905Y-175229819D01*
X121706191Y-175229819D02*
X121706191Y-174229819D01*
X121706191Y-174229819D02*
X121801429Y-174372676D01*
X121801429Y-174372676D02*
X121896667Y-174467914D01*
X121896667Y-174467914D02*
X121991905Y-174515533D01*
X124333333Y-123254819D02*
X124333333Y-123969104D01*
X124333333Y-123969104D02*
X124380952Y-124111961D01*
X124380952Y-124111961D02*
X124476190Y-124207200D01*
X124476190Y-124207200D02*
X124619047Y-124254819D01*
X124619047Y-124254819D02*
X124714285Y-124254819D01*
X123428571Y-123588152D02*
X123428571Y-124254819D01*
X123666666Y-123207200D02*
X123904761Y-123921485D01*
X123904761Y-123921485D02*
X123285714Y-123921485D01*
X92333333Y-165129819D02*
X92333333Y-165844104D01*
X92333333Y-165844104D02*
X92380952Y-165986961D01*
X92380952Y-165986961D02*
X92476190Y-166082200D01*
X92476190Y-166082200D02*
X92619047Y-166129819D01*
X92619047Y-166129819D02*
X92714285Y-166129819D01*
X91952380Y-165129819D02*
X91333333Y-165129819D01*
X91333333Y-165129819D02*
X91666666Y-165510771D01*
X91666666Y-165510771D02*
X91523809Y-165510771D01*
X91523809Y-165510771D02*
X91428571Y-165558390D01*
X91428571Y-165558390D02*
X91380952Y-165606009D01*
X91380952Y-165606009D02*
X91333333Y-165701247D01*
X91333333Y-165701247D02*
X91333333Y-165939342D01*
X91333333Y-165939342D02*
X91380952Y-166034580D01*
X91380952Y-166034580D02*
X91428571Y-166082200D01*
X91428571Y-166082200D02*
X91523809Y-166129819D01*
X91523809Y-166129819D02*
X91809523Y-166129819D01*
X91809523Y-166129819D02*
X91904761Y-166082200D01*
X91904761Y-166082200D02*
X91952380Y-166034580D01*
X126380953Y-186881009D02*
X126238096Y-186928628D01*
X126238096Y-186928628D02*
X126190477Y-186976247D01*
X126190477Y-186976247D02*
X126142858Y-187071485D01*
X126142858Y-187071485D02*
X126142858Y-187214342D01*
X126142858Y-187214342D02*
X126190477Y-187309580D01*
X126190477Y-187309580D02*
X126238096Y-187357200D01*
X126238096Y-187357200D02*
X126333334Y-187404819D01*
X126333334Y-187404819D02*
X126714286Y-187404819D01*
X126714286Y-187404819D02*
X126714286Y-186404819D01*
X126714286Y-186404819D02*
X126380953Y-186404819D01*
X126380953Y-186404819D02*
X126285715Y-186452438D01*
X126285715Y-186452438D02*
X126238096Y-186500057D01*
X126238096Y-186500057D02*
X126190477Y-186595295D01*
X126190477Y-186595295D02*
X126190477Y-186690533D01*
X126190477Y-186690533D02*
X126238096Y-186785771D01*
X126238096Y-186785771D02*
X126285715Y-186833390D01*
X126285715Y-186833390D02*
X126380953Y-186881009D01*
X126380953Y-186881009D02*
X126714286Y-186881009D01*
X125809524Y-186404819D02*
X125142858Y-186404819D01*
X125142858Y-186404819D02*
X125809524Y-187404819D01*
X125809524Y-187404819D02*
X125142858Y-187404819D01*
X124809524Y-186500057D02*
X124761905Y-186452438D01*
X124761905Y-186452438D02*
X124666667Y-186404819D01*
X124666667Y-186404819D02*
X124428572Y-186404819D01*
X124428572Y-186404819D02*
X124333334Y-186452438D01*
X124333334Y-186452438D02*
X124285715Y-186500057D01*
X124285715Y-186500057D02*
X124238096Y-186595295D01*
X124238096Y-186595295D02*
X124238096Y-186690533D01*
X124238096Y-186690533D02*
X124285715Y-186833390D01*
X124285715Y-186833390D02*
X124857143Y-187404819D01*
X124857143Y-187404819D02*
X124238096Y-187404819D01*
X122070952Y-182363866D02*
X121309048Y-182363866D01*
X121690000Y-182744819D02*
X121690000Y-181982914D01*
D12*
%TO.C,J2*%
X74375000Y-133150000D02*
X75625000Y-133150000D01*
X74375000Y-134400000D02*
X74375000Y-133150000D01*
X74665000Y-133440000D02*
X80635000Y-133440000D01*
X74665000Y-156060000D02*
X74665000Y-133440000D01*
X74675000Y-133450000D02*
X75425000Y-133450000D01*
X74675000Y-135250000D02*
X74675000Y-133450000D01*
X74675000Y-136750000D02*
X75425000Y-136750000D01*
X74675000Y-152750000D02*
X74675000Y-136750000D01*
X74675000Y-154250000D02*
X75425000Y-154250000D01*
X74675000Y-156050000D02*
X74675000Y-154250000D01*
X75425000Y-133450000D02*
X75425000Y-135250000D01*
X75425000Y-135250000D02*
X74675000Y-135250000D01*
X75425000Y-136750000D02*
X75425000Y-152750000D01*
X75425000Y-152750000D02*
X74675000Y-152750000D01*
X75425000Y-154250000D02*
X75425000Y-156050000D01*
X75425000Y-156050000D02*
X74675000Y-156050000D01*
X76925000Y-133450000D02*
X76925000Y-134200000D01*
X76925000Y-134200000D02*
X79875000Y-134200000D01*
X76925000Y-155300000D02*
X79875000Y-155300000D01*
X76925000Y-156050000D02*
X76925000Y-155300000D01*
X79875000Y-134200000D02*
X79875000Y-144750000D01*
X79875000Y-155300000D02*
X79875000Y-144750000D01*
X80635000Y-133440000D02*
X80635000Y-156060000D01*
X80635000Y-156060000D02*
X74665000Y-156060000D01*
%TO.C,Q2*%
X127500001Y-168505000D02*
X131100001Y-168505000D01*
X128480001Y-172805000D02*
G75*
G02*
X127488126Y-168513259I820000J2450000D01*
G01*
X131108446Y-168527316D02*
G75*
G02*
X130080001Y-172805000I-1808445J-1827684D01*
G01*
%TO.C,BZ1*%
X99600001Y-179750000D02*
G75*
G02*
X87400001Y-179750000I-6100000J0D01*
G01*
X87400001Y-179750000D02*
G75*
G02*
X99600001Y-179750000I6100000J0D01*
G01*
%TO.C,Q1*%
X120430001Y-168525000D02*
X124030001Y-168525000D01*
X121410001Y-172825000D02*
G75*
G02*
X120418126Y-168533259I820000J2450000D01*
G01*
X124038446Y-168547316D02*
G75*
G02*
X123010001Y-172825000I-1808445J-1827684D01*
G01*
%TO.C,J4*%
X116150000Y-123000000D02*
X116150000Y-121750000D01*
X116440000Y-116740000D02*
X131560000Y-116740000D01*
X116440000Y-122710000D02*
X116440000Y-116740000D01*
X116450000Y-120450000D02*
X117200000Y-120450000D01*
X116450000Y-121950000D02*
X118250000Y-121950000D01*
X116450000Y-122700000D02*
X116450000Y-121950000D01*
X117200000Y-117500000D02*
X124000000Y-117500000D01*
X117200000Y-120450000D02*
X117200000Y-117500000D01*
X117400000Y-123000000D02*
X116150000Y-123000000D01*
X118250000Y-121950000D02*
X118250000Y-122700000D01*
X118250000Y-122700000D02*
X116450000Y-122700000D01*
X119750000Y-121950000D02*
X128250000Y-121950000D01*
X119750000Y-122700000D02*
X119750000Y-121950000D01*
X128250000Y-121950000D02*
X128250000Y-122700000D01*
X128250000Y-122700000D02*
X119750000Y-122700000D01*
X129750000Y-121950000D02*
X131550000Y-121950000D01*
X129750000Y-122700000D02*
X129750000Y-121950000D01*
X130800000Y-117500000D02*
X124000000Y-117500000D01*
X130800000Y-120450000D02*
X130800000Y-117500000D01*
X131550000Y-120450000D02*
X130800000Y-120450000D01*
X131550000Y-121950000D02*
X131550000Y-122700000D01*
X131550000Y-122700000D02*
X129750000Y-122700000D01*
X131560000Y-116740000D02*
X131560000Y-122710000D01*
X131560000Y-122710000D02*
X116440000Y-122710000D01*
%TO.C,J3*%
X84440000Y-166764999D02*
X99560000Y-166764999D01*
X84440000Y-172734999D02*
X84440000Y-166764999D01*
X84450000Y-166774999D02*
X86250000Y-166774999D01*
X84450000Y-167524999D02*
X84450000Y-166774999D01*
X84450000Y-169024999D02*
X85200000Y-169024999D01*
X85200000Y-169024999D02*
X85200000Y-171974999D01*
X85200000Y-171974999D02*
X92000000Y-171974999D01*
X86250000Y-166774999D02*
X86250000Y-167524999D01*
X86250000Y-167524999D02*
X84450000Y-167524999D01*
X87750000Y-166774999D02*
X96250000Y-166774999D01*
X87750000Y-167524999D02*
X87750000Y-166774999D01*
X96250000Y-166774999D02*
X96250000Y-167524999D01*
X96250000Y-167524999D02*
X87750000Y-167524999D01*
X97750000Y-166774999D02*
X99550000Y-166774999D01*
X97750000Y-167524999D02*
X97750000Y-166774999D01*
X98600000Y-166474999D02*
X99850000Y-166474999D01*
X98800000Y-169024999D02*
X98800000Y-171974999D01*
X98800000Y-171974999D02*
X92000000Y-171974999D01*
X99550000Y-166774999D02*
X99550000Y-167524999D01*
X99550000Y-167524999D02*
X97750000Y-167524999D01*
X99550000Y-169024999D02*
X98800000Y-169024999D01*
X99560000Y-166764999D02*
X99560000Y-172734999D01*
X99560000Y-172734999D02*
X84440000Y-172734999D01*
X99850000Y-166474999D02*
X99850000Y-167724999D01*
%TO.C,BZ2*%
X131600001Y-179750000D02*
G75*
G02*
X119400001Y-179750000I-6100000J0D01*
G01*
X119400001Y-179750000D02*
G75*
G02*
X131600001Y-179750000I6100000J0D01*
G01*
%TD*%
M02*
