M48
; DRILL file {KiCad 9.0.2} date 2025-07-24T13:27:52-0500
; FORMAT={-:-/ absolute / inch / decimal}
; #@! TF.CreationDate,2025-07-24T13:27:52-05:00
; #@! TF.GenerationSoftware,Kicad,Pcbnew,9.0.2
; #@! TF.FileFunction,Plated,1,2,PTH
FMAT,2
INCH
; #@! TA.AperFunction,Plated,PTH,ViaDrill
T1C0.0118
; #@! TA.AperFunction,Plated,PTH,ComponentDrill
T2C0.0236
; #@! TA.AperFunction,Plated,PTH,ComponentDrill
T3C0.0295
; #@! TA.AperFunction,Plated,PTH,ComponentDrill
T4C0.0374
; #@! TA.AperFunction,Plated,PTH,ComponentDrill
T5C0.0394
; #@! TA.AperFunction,Plated,PTH,ComponentDrill
T6C0.0472
; #@! TA.AperFunction,Plated,PTH,ComponentDrill
T7C0.0591
%
G90
G05
T1
X3.0217Y-3.3878
X3.1004Y-3.939
X3.1201Y-3.2894
X3.1791Y-3.8642
X3.1988Y-3.4862
X3.2146Y-3.5256
X3.2495Y-3.3006
X3.3268Y-3.1693
X3.3448Y-3.9687
X3.3563Y-3.998
X3.3957Y-3.3484
X3.3957Y-4.0374
X3.4823Y-4.669
X3.5138Y-3.998
X3.5138Y-4.0453
X3.5138Y-4.6673
X3.5361Y-4.0217
X3.5925Y-3.6437
X3.5925Y-3.7028
X3.6319Y-3.998
X3.6319Y-4.0453
X3.6713Y-4.0217
X3.75Y-4.1161
X3.7645Y-3.7763
X3.7868Y-3.7986
X3.7894Y-3.5453
X3.8091Y-3.8209
X3.8836Y-3.6589
X3.8872Y-3.5458
X3.9073Y-3.6825
X3.9075Y-3.1319
X3.9193Y-3.7116
X3.9272Y-3.7421
X3.9981Y-3.9862
X3.9981Y-4.065
X4.8939Y-6.612
X5.6102Y-6.6831
X5.6102Y-6.8799
T3
X4.7622Y-6.7077
X4.8122Y-6.7577
X4.8622Y-6.7077
X5.0406Y-6.7069
X5.0906Y-6.7569
X5.1406Y-6.7069
T4
X3.002Y-3.939
X3.002Y-4.0374
X3.002Y-4.1358
X3.002Y-4.2343
X3.002Y-4.3327
X3.002Y-4.4311
X3.002Y-4.5295
X3.002Y-4.628
X3.0364Y-5.3543
X3.0364Y-5.4528
X3.0364Y-5.5512
X3.0364Y-5.6496
X3.0364Y-5.748
X3.0364Y-5.8465
X3.0364Y-5.9449
X3.0364Y-6.0433
X3.4252Y-6.6624
X3.5236Y-6.6624
X3.622Y-6.6624
X3.7205Y-6.6624
X3.8189Y-6.6624
X4.1043Y-3.4862
X4.1043Y-3.5846
X4.1043Y-3.6831
X4.1043Y-3.7815
X4.1043Y-3.8799
X4.1043Y-4.2146
X4.1043Y-4.313
X4.1043Y-4.4114
X4.1043Y-4.5098
X4.1043Y-4.6083
X4.685Y-4.7343
X4.7835Y-4.7343
X4.8819Y-4.7343
X4.9803Y-4.7343
X5.0787Y-4.7343
T5
X3.3819Y-5.3445
X3.3819Y-5.4445
X3.3819Y-5.5445
X3.3819Y-5.6445
X3.3819Y-5.7445
X3.3819Y-5.8445
X3.3819Y-5.9445
X3.3819Y-6.0445
X3.5315Y-7.0768
X3.8307Y-7.0768
X4.7835Y-3.9262
X4.7835Y-4.497
X4.7913Y-7.0768
X4.8819Y-4.497
X4.9803Y-3.9262
X4.9803Y-4.497
X5.0906Y-7.0768
T6
X4.2047Y-6.6929
X4.4803Y-6.7343
T2
G00X3.324Y-4.6219
M15
G01X3.324Y-4.6652
M16
G05
G00X3.324Y-4.7923
M15
G01X3.324Y-4.8238
M16
G05
G00X3.6642Y-4.6219
M15
G01X3.6642Y-4.6652
M16
G05
G00X3.6642Y-4.7923
M15
G01X3.6642Y-4.8238
M16
G05
T7
G00X4.6614Y-4.2274
M15
G01X4.6614Y-4.1762
M16
G05
G00X5.1024Y-4.2274
M15
G01X5.1024Y-4.1762
M16
G05
M30
